/* XPM */
static char *result[] = {
/* columns rows colors chars-per-pixel */
"96 96 87 1 ",
"  c #4F2913",
". c #502A14",
"X c #512E19",
"o c #543315",
"O c #563B15",
"+ c #583C15",
"@ c #55321D",
"# c #553623",
"$ c #543826",
"% c #5A3B27",
"& c #563B2A",
"* c #5B3E2C",
"= c #5C4616",
"- c #5E4D16",
"; c #614F17",
": c #604F1A",
"> c #63521A",
", c #6B631D",
"< c #6E6B1D",
"1 c #6D721A",
"2 c #72751B",
"3 c #76791E",
"4 c #5D4226",
"5 c #5E422F",
"6 c #574132",
"7 c #5B4434",
"8 c #594638",
"9 c #5D4A3C",
"0 c #604A24",
"q c #614928",
"w c #635123",
"e c #665821",
"r c #614634",
"t c #624934",
"y c #624C3B",
"u c #645F37",
"i c #64503E",
"p c #61593F",
"a c #6B6420",
"s c #6D6921",
"d c #6F7121",
"f c #7C7E23",
"g c #70702B",
"h c #6B6A33",
"j c #66613E",
"k c #68643C",
"l c #787A38",
"z c #5D4E42",
"x c #5D5247",
"c c #5D5348",
"v c #604F41",
"b c #645344",
"n c #695241",
"m c #655F42",
"M c #61564B",
"N c #64594D",
"B c #695B4E",
"V c #655D52",
"C c #695E54",
"Z c #665F58",
"A c #6A664E",
"S c #666057",
"D c #6A6155",
"F c #676159",
"G c #6A645C",
"H c #6D695F",
"J c #726657",
"K c #786759",
"L c #726A5E",
"P c #6D6760",
"I c #6D6860",
"U c #716C62",
"Y c #7A6D60",
"T c #757165",
"R c #787166",
"E c #767469",
"W c #79766C",
"Q c #7D796D",
"! c #7E7C72",
"~ c #817E75",
"^ c #828077",
"/ c #868579",
"( c #8A877F",
") c #8E8C83",
"_ c #908E85",
"` c #929087",
"' c #95938C",
/* pixels */
"00000000000000000000000<32221aew004%%%%%=00-6:eeeeeeee04%%%%4a22,++++=+o............@~//////_'~@",
"yyiit%%%%%%%%%%%%%%%%%%q<aw4%%%%%%%%*%%%606$$6$4$4$$$4%%%%%4%%wlq.................+i~///////)'i%",
"///////////////////////R7J//////////////////////////////////////////////////////////////////)'i%",
"///////////////////////RrJ//////////////////////////////////////////////////////////////////)'i%",
"///////////////////////R7J//////////////////////////////////////////////////////////////(///)'r%",
"///////////////////////WtJ/////////////////////////////////////////////////////(////////(~//)'%%",
"_____(`___`__``````````)7K))))))))))))))))))))))__))(__())))))))_```````_```````````````````_)%%",
"~~~~~~~~~/((/(((((/((/((rY'''''''''''''''''''''`''''''''''''''''''''''''''''''''''''''''''''_~%%",
"HHHHHHHHHHHHHHHHHHHHHHHH8cHHHGGHHHGHHAHHHGHHHFHHEEEEEEEEEEEEEEEyLERREEEEEEEEERER~URERREIPGGPE~%%",
"HHHHHHHHHHHHHHHHHHHHHHHH8pFHGHGGHGGHHGGGGHHGHFHFGGGHGGGHHGHGGGG&NGGHGPGPGPGGPPGGDJGHHGPGGPGGW~%%",
"HHHHHHHHHHHHHHHHHHHHHHHHtpAHHGGHHGGHGHHGHHGHHHFHHGHGHGGHGGHHHGH$VHHGGGGGGPPGGGGHGHHGHGGHGHGPR~%%",
"HHHHHHHHHHHHHHHHHHHHHHHH79HHGHHGGGHGHGHGHAHGFHHHGHGHGHGHHHGGGHH$VHGGPGPGGGGGPGHGGHDHGHGGGPGGR~%%",
"HHHHHHHHHHHHHHHHHHHHHHHH7pGHGHGHHGGHGHGHHFHGHGHGHHAHGHGGHGGHGHG4vGPIGHGGPHGHGGHGHGGHGGHGGGGGE~%%",
"HHHHHHHHHHHHHHHHHHGGHGGGt9HGHGHGGHHHHGHGHHGHHGGHGHGHHGGHGHGGHGH$bGGGGGHHGGGGHGGHGHHGGHGGFGGFE~%%",
"HHHHHHHHHGHGGHGGHGGHGGGH7yGGHGHGHHGGHGHGFFHHGHGGHHGHGHHGGHGHGGG&vPGHHGHGGHHGGHHGGHGHGGZZFGFFE~&%",
"HGGHGHGGGHGHGGHGGHGGGHGH7pGHGHGHGGHGGHGHHHHFHGHHGGHGHHGHGHHGHHH$vGHGGHGGHGGHGHGGHGGZZZGGGFFGI!%q",
"GHGHGGHGGHGGHGGGHGGHGGHG8pSGHGHGHGGIGIPGGPGPPFPFHHHHIGGGIGGGHGV6zPGIGHGPGGHGGGHGGGZGGZGZZGZPHW%0",
"HGHGGHHGHGGHHGHGGHGHHGHG8pGGHGGHGGGGGGFPGPFPFPFPFAFFFGGGGGGGGHc4bGGGGGGHHGHGHGGGZFGZZGFGGZGZHE%4",
"GGGGGGGHHGGGGGHHGHGGHGGH68FFSFGFGFGFGSGFFGFFFFFFFFFFGFGFGFGFGFN6bGGGHGGGGGGGGZFGGZZGGZGZZGZGPErq",
"ZFGFGFGGGGHHHGGGHGGHGHGGXxFFSGFFFGFFFGFGFSFFFPFPGGFFFFFFGFFGFFc$bGGGGGGGGGGGGZGZZGGZGGFGGZGZIWrq",
"GFFFSFFFFFFGHFGHGGGGGHHGO8SFGFGFFGFFGFFFGGFFPFFFFFFGFFFGGFFGFFS$vGFGGFFGGFFGZGZGGGZGGZGZGZGZTEyq",
"FFFFFFFFFFFFFFFFGGGGFFFF$8FFSGSFGFFGFGGFFFGFFFFFFGFGFGGFFFGFGFc4vZGZZFGFGFGZGZGFGZGZFGZGZGZGPWr&",
"FFFFGFFFFFFFFFFFAFFGFFFFX8FGFGFGSGFGFFFFFFFFFFFFGGFFFGFFFGGFFFV$vGGZGFGFZGZGFGZGZGFGGZGGZGGGUEy%",
"AGFFFFFFFGFFFFFFFFFFFFFF$xFFFFFGFFGSGFFFPFGFFPFFFFFGGFFGGFFFGFN&vFFGZGFFGFGZGZGZGZGZZGZZGZGZGWr%",
"FFFFSFFFFFFGFFFFFFGFFFFF$8SSFGFFGFFGFFGFGFGGFFPFFFFFFGFGFFFFGFN&xSFGFFFGFGGFGFFFFGGZGZGZFGFFGEt4",
"FFFFSSFFFFFFSSFFFFFFFSFFOxSSFGGFGFFGGFGFFFFFGFFFFPFFFFFFFGGFZGN&zFFFFGGFFFFGFFGFGZGZZGGGFFFGFGt<",
"SSGFSSSSSSFFSSSSSSFFSSSS$xSSFFFFFGFFFFFGFGFFFFFFFFFFFGGFFFGFFFZ%zFFZGFGFGFFFFGFFZGZGZGZGFFGFFAd2",
"$$$4$$$66X66$$$$$$8p888cxcSGFFFSFFGFFGFFFGFFFGFGFGPFFFFFFZZVVVMzz$$$####$###$$#$#$#$$###$$$$$d22",
"888888886666$66$66$$X68xxxcpmmpjhggjMMMVVcVcMMMMNMccxccccccccccccx$#&&687*$       @6*666@    222",
"xcxxccxxx9xxxxxxxxxxxxxxxxxxcccccu1xccccccccccccccccccxccccccccccccccccxccxz$   $mNNVMNMcp@  222",
"xxxxcxxxxxxxxxxxxxxxxxxxxxxxxcxxccxxcccccccccccccccccxccccccccccccccccccccxxc@ #NNMNNbNNNN9  222",
"xcxxccxxxxxxxxxxxxxxxxxxxxxxxxxxxxz8cccccccccccccccccxcccccccccccccccccccccxc7 9NcNBMNNNNNN@ 222",
"xxxxxxxxxxxxcxxxxxxxccxxxxxxcxxcxx8$cccccccccccccccccccccccccccccccccccccccxcc NNcNNNcNNNNM# 222",
"xxxxxxcxcxcxxxxxxxxxcccxxxcxxxxxxx8$cccccccccccccccccccccccccccccccccccccccccc@cNSMNNNNNNNN@ 222",
"xxxxxxcxxxxcxxxxxxxxccxcxxxcxxxxxx8$cccccccccccccccccccccccccxxcccccccxccccccc@NmNNNNNmNAcN#=222",
"xxxxxxxxxxxxxcxxxxxxxxxxxxxxxccxxx8$ccccccccccccccccccccccccccccccccccccccccccXMNcNNNNcNcNN#O122",
"cxxxxxxxcxxxxxxxxxxxxxxcxxxxxxxcxx8$cccccccccxxxccccccxcccccxcccxccccccccccccc cNNNNNNcAMNN@+222",
"ZZcZZZZVVVVZZZZVZZZccZZccZZcVVVMccz$VccSMZZcMZMZZccZVZVVcZcZcZZcVVVMVVMVMMVZVx xNNMNNNNcNMB#+222",
"FFZZFZFFFFZZZFZZFFZZFFZFFFZZFFZZFF8$FFFFFFFFZFZZZZFFZFFFFFFFFFZZFFFFZZGZFFFFZc ccNNNNNNNNNN#+222",
"FFFZFFFFFZZZZGZZFZZZFFFFFFFFFFZZFF6$xFFFFFFFFFZZZFFFZZFFFFFFFFZFFFFZFFZZFFFFZZ&cNNNcmNNMNBN#+222",
"cccZcVVccMMMVMVVScScScScNVMVVMMMc6$$$8cVVVcZZZMZVVVMMcvzcxxxxxxcZVVMMMNMVZFFFFcNNNmcNNNNNNN@+222",
"Zcccccxxzzzzxxvvccccxxccxvxv8&&$6$$$$&&ccccccccccccxz&*&66&&&&&&9999zz9z9zVGGHNNNNNNNcNMNSS#+322",
"GIIIIGFZzzzcZZHZFFFFFFFFZGGZGPPPGIGIPPPPPPGGPGPPPPPPPPPV8&&zNZZZZZZGZZDZZZGHIM9NcNNNcANNNNN@=222",
"GGGGGGGGVzxFPGZHFGGGPGGGGGGPGGZPGGGGGGGGGGGGGGGGPZPZPZGGc6xFGGGPHGGGGGPGGHGGGyXNANNNNNNNVVV+O222",
"FFFFFFFFVzcFFFFFFFFFFFFFFFFFZFFZFFFFFFFFFFFFFFFFZGZZFFZFZ&MGZZGZFFZFFFGZZZGZHn zcNNNmNNBBNN#=122",
"FFFFFFFFVzMFFFFFFFFFFFFFFFFFGFFGFFFFFFFFFFFFFFFFZZFFFFFFZ*MZZZGZFFGZFFZFZGGZHB *NNNNcNNSNVB#O222",
"FFFFFFFFVzcFFFFFFFFFFFFFFFFZZFFZFFFFFFFFFFFFFFFFZFFFZFFFFzVZZZZZFFFFFZFFFFZZGN 6MNNcNNNNNNV#O222",
"FFFFFFFFZxMFFFFFFFFFFFFFFFFFFFFFFFFFFFFFFFFFFZFFGFFFGZFZZcZZGGZGFFFSZGFFFFFFHy &NNNNNSBNVBN#+222",
"FFFFFZFFVzMGFFFFFZFFFFFFFFFFFFFFFFZFFFFFFZFFFFFFZFFZZGZFFMZZZFFFFFFZFFFFFZGZHy 5MNNNNBNBNNN@+222",
"FFFFFFFFVzMZFFFFFFFFFFFZZFFFFZFFFZGFFFZFFGZFFFFFFFFFFFFFGcVZGZFFFZZGFFFFFFFFH9 9NNmNSNVVBNS#+222",
"ZFFFFFFFZzcFFFFZFFZGFFFGFFFFGZZGFFFFFFZFFFZFFFFFFFFFFFFFZcVGFFZGZGZGFFFFFFFFHB.9MNNNNNNNNSB#O231",
"FFFFFFFFV&zFFFFFZGZZFFFZFFFFZZGZFZFFFFGZZFGZFFZFFFFFFFFFVccZZFFZFFFZZFFFFFZFHU#9NNNNSNVNNNB#+222",
"FFFFFFZFx&&ZFZFFZGZZFFZZZGZGZZGZFFFFZZGFFFFFZGZFFFFFFFFZMvxNFFFFGZGZFFFZFFGZHUDbNNNNNVNBBNN#O222",
"cZMVFFZz&&&zZZFFZZZGFFFPFZZGFFZZFFFFGZZFFFFFZGFFFFFZFFZccxxMMZFFZZZZZVZVZFZZPIDNNNSNBNNVNSB#-222",
"z8zzz&&&&&&&&9cMccccccccccMcccvcvzcvzxczcMMccxxcMcVVMccccxcccccMccxxxcxbcMZHIUMNMNNNNNBmSNN#>f32",
"ZVMccxzzvvvvvMVVVZVMVMMMMVMMMVVMMzzzzzbMMNMNNMNNMVMMMVMVZZVVVMNMMcvccMNZGPHHPS6NDDADDDDSSDD#>122",
"FGGGGGGGPGGGGGGGGPFPFPPFGGPPZPPZPPzzMPPPIPIIHPIPIPHIPIPPHPPPPPPPPPPIIIPIPPPPIN 6BNBBNSBmBBB#;122",
"ZZZZZZZZZZZZZZZZZZZZZZZZZZZZZZZZZZMzZZZZZZZZZZZZZZZZZZZZZZZZZZZZZZZZZZZZZZHPHN @$$4$$$&%%%$X-222",
"ZZZZZZZZZZZZZZZZZZZZZZZZZZZZZZZZZZczZZZZZZZZZZZZZZZZZZZZZZZZZZZZZZZZZZZZZZZHPB @76767667667X;222",
"ZZZZZZZZZZZZZZZZZZZZZZZZZZZZZZZZZZMzZZZZZZZZZZZZZZZZZZZZZZZZZZZZZZZZZZZZZZZZHN bDDDDDVDDDVZ$;222",
"ZZZZZZZZZZZZZZZZZZZZZZZZZZZZZZZZZZxzZZZZZZZZZZZZZZZZZZZZZZZZZZZZZZZZZZZZZZZZHN.bDBSSDDBSBDE*;222",
"ZZZZZZZZZZZZZZZZZZZZZZZZZZZZZZZZZZMzZZZZZZZZZZZZZZZZZZZZZZZZZZZZZZZZZZZZZZZZGN.9SNASDVNDDH^4;222",
"ZZZZZZZZZZZZZZZZZZZZZZZZZZZZZZZZZZMzZZZZZZZZZZZZZZZZZZZZZZZZZZZZZZZZZZZZZZZZHN 6NDSBVNDSDU^%=222",
"ZZZZZZZZZZZZZZZZZZZZZZZZZZZZZZZZZZc9ZZZZZZZZZZZZZZZZZZZZZZZZZZZZZZZZZZZZZZZZGN 5SSDVDASSSW^5O221",
"ZZZZZZZZZZZZZZZZZZZZZZZZZZZZZZZZZZz&ZZZZZZZZZZZZZZZZZZZZZZZZZZZZZZZZZZZZZZZZPN 7ZVCDSSBSLQ^4O222",
"ZZZZZZZZZZZZZZZZZZZZZZZZZZZZZZZZZZ$#VZZZZZZZZZZZZZZZZZZZZZZZZZZZZZZZZZZZZZZZPB nCCDVDNSGEW^6O222",
"ZZZZZZZZZZZZZZZZZZZZZZZZZZZZZZZZZz@#*ZZZZZZZZZZZZZZZZZZZZZZZZZZZZZZZZZZZZZZZPN#VSDBDSADEEW^5O222",
"xxxxxzxxzMzzzMMMMMMMZMMMMMZZZM8&$###$&*VMMMMMMMMMVcMMMMVMMVMMMVMMMMMcMMMvMMPPVVZSNSSSDHEEW^4+222",
"GZGZZMvxzxzMvxxMMMMMMMMMxzxxzz#########zxxxxzzxzxxxxxx8&&*&*&zxzxzzzxzvxMZIPPPVCANNVDDEEEW^*+222",
"PPPPPPGZxxzMZGPPPPPPPPPPPPPPPPPZPPPPHHHPGGPPGGPPGGGPPPPZv&&MPPPPPPPZGZPPPUPUPMvCDVASDHEEEQ^5+222",
"ZZZGZGZGZzMPGZGGZZPZZPZPZPZPPZZPPZZPZZHZGGGZGGZGZGPZZPFFZ&zPPZPPPGGPGPGGPPPPPBXCDSSSDEEEEW^%+222",
"ZZZZZZZZVxVZZZZZZZZZZZZZZZZZZZZZZZZZZZZZZZZZZZZZZZZZZZZZZvzZZZZZZZZZZZZZZZZPPB MNDBSGEEEEW^%+222",
"ZZZZZZZZCvMZZZZZZZZZZZZZZZZZZZZZZZZZZZZZZZZZZZZZZZZZZZZZZZZZZZZZZZZZZZZZZZZZPC vNSSDEEEEEW^ O222",
"ZZZZZZZZVvVZZZZZZZZZZZZZZZZZZZZZZZZZZZZZZZZZZZZZZZZZZZZZZZZZZZZZZZZZZZZZZZZZPM *SSSGEEEEEW^ O222",
"ZZZZZZZZZxMZZZZZZZZZZZZZZZZZZZZZZZZZZZZZZZZZZZZZZZZZZZZZZZZZZZZZZZZZZZZZZZZZPCX*ABVTEEEEEW^ =222",
"ZZZZZZZZZcMZZZZZZZZZZZZZZZZZZZZZZZZZZZZZZZZZZZZZZZZZZZZZZZZZZZZZZZZZZZZZZZZZPM.*NDHEEEEEEW^ O222",
"ZZZZZZZZZxMZZZZZZZZZZZZZZZZZZZZZZZZZZZZZZZZZZZZZZZZZZZZZZZZZZZZZZZZZZZZZZZZZPM.vDDTEEEEEWW^ O222",
"ZZZZZZZZZVMZZZZZZZZZZZZZZZZZZZZZZZZZZZZZZZZZZZZZZZZZZZZZZZZZZZZZZZZZZZZZZZZZP9.vSHEEEEEEEQ^ O222",
"ZZZZZZZZZZZZZZZZZZZZZZZZZZZZZZZZZZZZZZZZZZZZZZZZZZZZZZZZZzvZZZZZZZZZZZZZZZZZP9 vFEEEEEEEEW^ O222",
"ZZZZZZZZZZZZZZZZZZZZZZZZZZZZZZZZZZZZZZZZZZZZZZZZZZZZZZZZz#*ZZZZZZZZZZZZZZZZZP9 nEEEEEEEEEW^ +222",
"#%**%t99yvMMbMMbxz9MMZZZZZZZZZMMy99y99yyMMMMNZZZVMMMb97%@@@5vVZZZZCMv9bbbMbNb7 DEEEEEEEEEE/ O222",
"rr*@@@o@@@@@@@@@X@@@@#5CZZMz*@@@@@@@@@@@@@@@@@@@@@@@@@@@@@@@@#vFV7@@@@@@@@@@%DEEEEEEEEEEEE) O222",
"REEEEEDJDnbnbnbbnnnnnMnMMMnnnbnnbnmbnbnbnmnnbmbbnnbnmnmnbbbnnbiBnCDBbnmr7nbLEEEEEEEEEEEEEE( =322",
"EEEEEEEEEEEEEEEEEEEREEEEvYREEEEEEEEEEEEEEEEEEEWEEEEEEEEEWWEEEELbLEEEEEEEEEEEEEEEEEEEEEEEEE`=Ofd2",
"EEEEEWEEEEEEEEEEEEEEEEEEvUEEEEEEEEEEEEEEEEEEEEEEEEEEEEEEEEEEEELbUEEEEEEEEEEEEEEEEEEEEEEEET(rO122",
"EEEEEEEEEEEEEEEEEEEEEEEEvUWEEEEEEEEEEEEEEEEEEEEEEEEEEEEEEEEEEELmLEEEEEEEEEWEEEEEEEEEEEEEE~_rOff2",
"EEEEEEEEEEEEEEEEEEEEEEEEiKEEEEEEEEEEEEEEEEEEEEEEEEEEEEEEEEEEEETbUEEEEEEEEEEEEEEEEEEEEEEEE/)7O322",
"QWEEEEEEEEEEEEEEEEEEEEEEbUEEEEEEEEEEEEEEEEEEEEEEEEEEEEEEEEEEWEUbLEEEEEEEEEEEEEEEEEEEEEEE/))5+122",
"///////)~~^~^~!!!!!!!!!!bR!!!!!!!!!!!!!!!!!!!!!!!!!!!!!!!!!!!!RnR^!!!!!!!!!!!!!!!!~!!!/()))*+222",
"IIIEEETTEEEEEQ!!!!!!!!!~bY!Q!!!!!!!!!!!!!!!!!!!!!!!!!!!!!!!!!!EbR!!!!!!!!!!!!!!!!!~^~/^^~//5+222",
"SSSSZZZZSSSSZFZSSSSSSSSViNZSSSSSSSSSSSSSSSSSSSSSSSSSSSSSSSSSSSVbNSSSSSSSSSSSSSSSSSSSFZSSZSS#+222",
"SSSSZZZZSSSSZZFZSSSSSSSNbNDZSSSSSSSSSSSSSSSSSSSSSSSSSSSSSSSSSSVbBSSSSSSSSSSSSSSSSSSSSSSSZSS#+222",
"SSSSZSSSSSSSSSSZSSSSSSSViNSFSFFSSSSSSSSSSSSSSSSSSSSSSSSSSSSSSFVbVSSSSSSSSSSSSSSFSSSSZSSSSSS#+222",
"xVSFZSSSSFSSSSSZSSNb97#@..$&7bxSSFSSSSSSSSSSSSSSSSSFSSSSSMb86$  @5zVSSSSFFSSSSSFSSSSDZSSSSS$=222",
"   @$77zbc9776$$.                @$$77779xxbcbbx7777$#$             @#678777777777*$#######:<222",
"                                                   ..                ...            ......=22222"
};
