/* XPM */
static char *result[] = {
/* columns rows colors chars-per-pixel */
"96 96 88 1 ",
"  c #4F2913",
". c #4F2D19",
"X c #512C17",
"o c #512E1A",
"O c #563715",
"+ c #583D16",
"@ c #55321D",
"# c #593B1F",
"$ c #4F3626",
"% c #533422",
"& c #583621",
"* c #553826",
"= c #5A3B27",
"- c #553B2B",
"; c #593C2A",
": c #5C4616",
"> c #5C441E",
", c #5B4D1F",
"< c #5B5E16",
"1 c #5B5719",
"2 c #655918",
"3 c #6A631A",
"4 c #6E6C1D",
"5 c #72751B",
"6 c #5A4423",
"7 c #5D4F25",
"8 c #5C412E",
"9 c #5E4A29",
"0 c #574132",
"q c #5B4536",
"w c #5A4638",
"e c #5C4A3C",
"r c #604A24",
"t c #604D2D",
"y c #635223",
"u c #665821",
"i c #604633",
"p c #624837",
"a c #624E3E",
"s c #655637",
"d c #645F37",
"f c #64503F",
"g c #61593F",
"h c #685B3C",
"j c #6B6420",
"k c #6D6921",
"l c #72732D",
"z c #5D4D42",
"x c #5C5247",
"c c #5E5449",
"v c #604E42",
"b c #645344",
"n c #685546",
"m c #62554B",
"M c #6A5748",
"N c #63584E",
"B c #6C5B4D",
"V c #635B52",
"C c #695F54",
"Z c #665F58",
"A c #6E6F41",
"S c #666057",
"D c #6D6356",
"F c #676159",
"G c #6A645C",
"H c #6D695F",
"J c #726254",
"K c #736F52",
"L c #726659",
"P c #746B5D",
"I c #767256",
"U c #6D6960",
"Y c #716D62",
"T c #737064",
"R c #7B7265",
"E c #7B7A61",
"W c #767469",
"Q c #7A776C",
"! c #7A786E",
"~ c #7E7C72",
"^ c #837E74",
"/ c #828077",
"( c #868579",
") c #8A877E",
"_ c #8D8B82",
"` c #908E85",
"' c #929087",
"] c #95938B",
/* pixels */
"=]](((((((KO@@#>77ss96666669hIIA<16rryuu2y797rrrrrrrrrrrrrrrrrrruuuyrrr4555553uyrrrrrrrr177777rr",
"&]](((((((/^nii=66=========;66nRE6======06=================6=====6==;===4krr============0,-$8pfa",
"&)'((((((((((()(((((((((((((((((((((((((((((((((((((((((((((()(((((((((QiL((((((((((((((((((((((",
"&^'((((((((((((((((((((((((((((((((((((((((((((((((((((((((((((((((((((EiL((((((((((()((((((((((",
"=^](((((((((((((((((((((((((((((((((((((((((((((((((((((((()(((((((((((WiL((((((((((((((((((((((",
"@^])(((((((((((((((((((((((((((((((((((((((((((((((((((((((((((((((((((QqM((((((((((((((((((((((",
"XJ^]``]]'']'']'']'']]'''''']]'']'''``'''````````''``'''')'')']')```````_iB`_`_`_`__``'')`_``````",
" n^]]]]]]]]]]]]]]]]]]]]]]]]]]]]](']''']'']'']]''''''()()))))))))))))))(_iL]]]]]]]]]]]]))_(_(_(((",
" M/WWWWW^PWWWWWWWWWWWWWWWWWWWWWBaHHHHHUUUUHHHUHHUHUHHUUHIUHUHUHHUHUUHHHHwgGHHGGHGGHGGHGHGFHGGHGG",
" M/UUUUHHPHHUHUUHHUUUUHUUHUHHHHbaHHHUHGUHHHUHUHUHHHHHHHHYUHUHHHUUUHHUHUH9xGGGGHHHHGHHGHGHHGHGHHH",
" n/UHHUHHHHHHUHHUHHHGUHHUHHUHHHmeHHHHHUHHUHUHHHUHUHUHUHUHHHHHHHUHGUHGUHHwaGHGHHFHGHGGHHGGHGHHGHG",
" n~HHUHUHHHHHHHUHHUUUUUHHHHHHHHmaHHHUHHHHUUGUHHHHHHUHHHUHHHHHUHHUHHHUUUHqeGHGGHGGHGHHGHHHHGGGHGG",
" n^UUHUUUHUHUHUHHHHHUUUHUUHHUHHmqHHUHHHUUHHHUHUHUUHHHHUHHHHUUUGUUHUHHHHHqfHGGHGHHHGHGGHGGHGHGHGH",
" n/UHHGGGHHHHHUHUHUHHUGHHHHUHHUm0HHUHUHUUHUHHHHUHHHUUUHHUUHUHHHHGHGHHGHGqsGHHGHGHGGHGHGHHGGHHGGH",
" M/GFFZGZGHHUUHHUUHHHUHUHUHUHUUb0UUHHHHHHUHHUUHUUUHHUHGHGHGHHGGGHGGHFHGHwaGHGHHGGHGGHHGGGHGGGHHG",
" M~GGZGFGZFFFGGHGUHUHHHUHHHHHUHmiLHHUHUHHHHUGUHGUGGGGUGHGGUGGGUGGHGGGHGHqaGGHGHHHGHGGGGHHGHGHGGH",
" n^UZUZZGFFGFGFGZGGGGGHGHLUUUUHMwUUUHHHHHHHGGGHGGGHGGHGGGHGGHHGGHGGGHGGHweGHGHGGHGHHGHGHGHGHHGHG",
" n^ZFFZUZGGZGZGZGZFFFGZGGGGGGHUq0FHHFHGGGGGHHHGGHGHGHGGHGGHGGGGUGGHGHGGHgeGGHGGHGHGGHGHGHGHGGHGH",
" p!UZGZZGZGFZGFGZGZGGFGZGZGZFGG;-GHFHHGHGGGGGGHHGGGGGHHGHHGGGGGUGHHFGGGG6eGFGFFGGFGGGGGHGGGHGGHG",
" qWZGZZUFGZFGZGZGFGZZGZGZGZGGZZ-$GFHHFHGGUHGGHFHGHGUHGGHGGGHUHGGGHGHGHHG$eGFFGFFGFFFFFFGFFGFFGFF",
" vWZGZGZGFFGFFFFGFGZGZGFZGZGZGZ-oHGGGGHGGHGGGHGHUGHGHGHGHGGHGGHGHGHHGGGG.eGFFFGFFGFFFFGFGGFFFFGG",
"OzWZZGZGFFGFFFHFZGZGZGZGGGGZGZG-oGGGGGGHUGGHHGHFGHGGHGGGFHGHHGGGGHFFGGGGOeFFFGFFFFFGFGFFFFFGGFFF",
":vWUZGGGFGGFGFFFGZGFGZGZGZGZZGG-oFGFFFFGFGGGGGGGGGGGGGGFFFGFFFFFFFFFGSFG@eFFFFFGGFGFFFFGFGFGFFGF",
"2vWZGZGZFGFFGFHFFGZGZGFGZGZGGZG-oFFFFFFFFFFFFFFFFFFFFFFFGFFGFFFFFFFSGSFFoeFGGFGFFFGFFGFFFFFFGFFF",
"4aWGGFGGFGFFGFFFGZGZZZUGZZGZUZZ-oFFFFFFFFFFFFFFFSGGFFFFFFFFFFFFFFFFFFGFF@eFGFFFFFGSGFFGFFGFFFGGF",
"5KWLFFFFFFGFFFFGZGFGZUZZUZGGZGZ-oFFFFFFFFFFFFFFFGFSFFFFFFFFFFFFFFFFFFFFF@eFFFGFFGFGFGSFGFFFGGFFF",
"5lWUFGFGFFFFFFFFZGGZZFUZZGZGZFZ-0FFFFSFGFFFFFFFSSSSSFFFFFFFFSSFFFFFFFFFF@eFFGFFFFFGFGFFGFFSSFFFG",
"55lmmqqqwwqwqwqqqqqwww0wqww0qqwzwwwwwwwtwwwwetwwetwwwew0ewwweweewww0twwNe-**$                   ",
"553  .%%=;qqa6.     .--x---$$-ccxz. $$O$$o$+$$o$$$o$$$$$$$$$$$$.00$$$$wxxx$o.  .     .$@$00000ew",
"552  BHHHHHHHHD8  .-cccccVcccccccx0$xxxxxxxxxxxxxxxxxxexgxxxgxxxxxexxxcxxxxxxxwwwd5xccxccxxxxccc",
"552 %WGHHHHHGHHH. -ccccccccccccccc0$xxxxxxxxxxxxxxxxxxxxexxxxxxxxxxxxxxxxxxxxxxxxxgxcxcxxccxxxxc",
"554 bWHHHHDGHGHHz zcccccccNccccccc0$xxxxxxxxxxxxxxxxxxxxxxxxxxxxxxxxxxcxxxxxxxxxxxxwxcxccxcxxxcc",
"555 DWHHHHHHGHHHc$ccccccccNcNccccc$0xxxxxxxxxcxxxxxxxxxxxxxxxxxxxxxxxxxxxxcxxxxxxcx$xxxxxcxcxccx",
"555 DEHHHHGHHGHHV$cccccccccccccccc0$xxxxxxxxxxxxxxxxxxxxxxxcxxxxxxxxxxxcxxxxxxxxxxe$xxcxcxcxcxcc",
"555 DWHGKGGHHHHHc$cVccccNccccccccc00xxxxxxxxxcxxxxxxxxxxxxcxxxxxxxxxxxxxxxxxxxxxxxx$ccxcxccxxxcx",
"555 JWHHHHKHHHHKb$cccccccccccccccc00xxxxxxxcxxxxxxxcxxxxxxccxxxxxxxcxxxxxxxxxxxxxx0$xxcxcxxccccc",
"555 bWHDHHHHHHGHq%cccccccccccccccc0$xxxxxxxcxxxxxxxxxxxxxxxxxxxxcxccxxxxxxxxxxxxcc00cxccccxxxxcc",
"555 g!HHGHHHHHHGe VVVVVVZVVVVVVVVVw0VVVVVNVcVVNVVVVVcVVVcScScSScNVcVVVNVVVVVcVVVVcw0VVVVVVVZVZZZ",
"555 g!KGHHKGHHGGx SSFFZZZZZZZZZZZV0wFFSSFFFFFFFFFFFFFFFFFFFFFSSSZGFZZFZGZFFFFFFFSSe$VFSSFFGZGZFF",
"555 cWHHHHHGHKHHH0SSFFFZZZZZFZZGcxwwSFZZFFFFFFFFFFFFFFFFFFFFFFFFFFFGZFZZZFFFFFFFFS0$xFFSFZZZGZFZ",
"555+S!HHHGHHHHHHHGFFFxaezmmNNNcz00w0eVVVcVVcNNVNVVVVVNNNVccVVcVVVVVVNVVZCVZVVNNNc0$$-0cVVVVVcVcc",
"555>D!HHGHKHHHHHHGGHYcwqwwqqqqqqww0ewxxxcxxcccxxxvxvxxxxxxexxxxxxxxvvxxxxxvxz-$$00$6$$0cNNVcVcVV",
"555>HQHHHHHKHGKHHHPYUTGSVCHUUUUUUUUUUGGGGFGGFFFGGFCFFHFVxxxxFFFFZCCGGZGCGCZGCUUUGUGHUUUUUUUUUUUU",
"555@KQHDHHHHGHHHHHYYYUHHHGHUUGUUUGUUGUGGGHGHHHUGGHHHGHHUcxxVGGGGGGUGUZGUGUGGGGGGGGFGGGGGFFUFZUZU",
"555%bQHHHHHHHHHYYUUUHGFFFZGFFFFFFFFFFFFFFFFFFFFFCZGZFFSFVecFFFFFFFFFZGFFZGZZFFFFFFFFFFFFZZFZGZFG",
"555@n!PHYHHHYIHHUUYHFFFFFFZFCFFFFFFFFFFFFFFFFFFFGZGZFFFFSxVFFFFFFFFFFZFFZZZGFFFFFFFFFFFFFFFFFFFF",
"555@n!HHHYHHHYYHPUYHFFFFFFFFGZFFFFFFFFFFFFFFFFFFZZZGFFFSVxVFFFFFFFFFFFZFFFZGFFFFFFFFFFFFFFFFFZFF",
"555@n!HPYUIHYHHYHYUGFFFFFFFZZGFFFFFFFFFFFFFFFFFFFGZZFFSSSecFFFFFFFFZFFGZFFFZFFZFFFFFFFFFFFFFFFFF",
"555@nWHHUHHHIHYHYHYGFFFFFFFFZFFFFZFFZZGZFFFFFFFFFFFFZZGFZzNZFFFFFFFFFGFFFFFFFZGFZGFFFFFFFFZZFFZF",
"555@nWHITHYHHYHYYUYGFFFFFFFSFFFFFFFFGGZZFFFFFFZFFFFFGZZFZzNFFFFFFFFFZZFZFZFFFFZFFZFFFFZFFFFGFZGF",
"555@nWHYHYHHHYHHPYUHFFFFFFFFFFFFFFGZZZZGFFZFFFFFGZFFGZZGZzNFFFZFFFGZFFFGFZFFGZZZFFFFFFFFFFFFFFFF",
"555%nWYHHPYHHPHHUUYHFFFFFFFFFFFFFFZFZGCGZFZGFFZGZFFFZZGZV-zFFFFFFZZZFFFZFZGFZZGGFFFFFFZGFFFFFZFF",
"555@M!HHHYHYIHYHHYYUFFFZFFFFFFZFFFFFZGZZGFFFZGZZFFZFFFGZm--CFFFFGZZGZZGZFFZZGZGZZFFFGZFZFFFFFFFF",
"555%b!TPHHHHYHHYUPHHFFFZFFFFFFZZFFFFZZZGZFZFZZFFFFZGFFCv---wVFFFZZGZFGZZFFGZFFZZGZFFZZFFFFZFZGFF",
"555@n!WPHIHYHHHYHHUHFZFHczzzzzzzzzw--*--qzeewzzweeeeq-----;--emxccccccccxxccxcxxvxxvzxmzmcNcccNc",
"555@n!!WTTTTIHTTmbUGHUUUUFmcxmxmVVz---qzmNcNNNcNxvzxzwwqwewwwzNNNNNNNNNcVNNNNNVMNzzzzzbxmNNVNNNN",
"555@fEQQ!!!!!QWbX;HUUUUUUUUUUYUUUUUq-wUZGUGUGGUGGUGUGUGUUGUUUGUZUUZUUGUUUUFUGUUGGGvzmUUUUUUUUUUU",
"555@;qqqqqqsO XXX;UUUUHGGZGGZZZZGCZN-qZZGZZZZZFFZZZZZZZGZZZZZZZZZZZZZZZZZZZZZZZZZZNwZZZZZZZZZZZZ",
"555%qnBBDDDHaa&XX*UUHZZZZZZZZZZZZZZV-vZZZZZZZZZZZZZZZZZZZZZZZZZZZZZZZZZZZZZZZZZZZZNzZZZZZZZZZZZZ",
"555@B^TTPTTTYWYbX-UUZZZZZZZZZZZZZZZZNZZZZZZZZZZZZZZZZZZZZZZZZZZZZZZZZZZZZZZZZZZZZZmzZZZZZZZZZZZZ",
"555%B^TTTTTTTTTT&;UUZZZZZZZZZZZZZZZZNZZZZZZZZZZZZZZZZZZZZZZZZZZZZZZZZZZZZZZZZZZZZZcwZZZZZZZZZZZZ",
"555@B^TTTTTTTTTT;*UHZZZZZZZZZZZZZZZZVZZZZZZZZZZZZZZZZZZZZZZZZZZZZZZZZZZZZZZZZZZZZZNzZZZZZZZZZZZZ",
"555@B^TTTTTTTTTT;;UUZZZZZZZZZZZZZZZZNZZZZZZZZZZZZZZZZZZZZZZZZZZZZZZZZZZZZZZZZZZZZZNzZZZZZZZZZZFZ",
"555%B^TYTTTTTTYT;-UUZZZZZZZZZZZZZZZZcVZZZZZZZZZZZZZZZZZZZZZZZZZZZZZZZZZZZZZZZZZZZZczZZZZZZZZZZFV",
"555@B(YWTTTTTYTTq-HHZZZZZZZZZZZZZZZZvNZZZZZZZZZZZZZZZZZZZZZZZZZZZZZZZZZZZZZZZZZZZZv0ZZZZZZZZZZZZ",
"555%B(TYTTTTTTTYf=HHZZZZZZZZZZZZZZZNxxZZZZZZZZZZZZZZZZZZZZZZZZZZZZZZZZZZZZZZZZZZZZ-$VZZZZZZZZZZZ",
"555@B(TTTTTTTTTTD;UGZZZZZZZZZZZZZZNxzxvZZZZZZZZZZZZZZZZZZZZZZZZZZZZZZZZZZZZZZZZZZv$%wZZZZZZZZZZZ",
"555@B(YTTTTTTTTTTSUHZZZZZZZZVZZZVNvvxvxvcNVVVZVZVVmVmVmVNNNNNNVNNNNNNNNNVVZZZcz0-%%%%-wmvmcvzzzz",
"554&B(YYTTTTTTTTTTYHFHGGGFUUUVNxxxzxmmmmNccvvccmmmmVmvxvvxvxxvxcmVmVNmccmvvvvv$$*%**%%%vzvvVcZVV",
"555&B(WRTTTTTTWWf UUUUUUUUUUUUUUUUUUUUUUUUUUUUUUUUUUUUZVcvxcZZUUUGGUGUUGUUUUZUUUUUUUUUUUZUUUZUUZ",
"555oB(YWTTWWWWWWf UUUUUUUGUUZUUZGGGUGZGGGGGGZGGGZUUZZUUZZvmUZZZZZGZGGGZGZZGGZUGGZUZZZZUZUZZZUZZU",
"555&B(WWWWWWWWWWa UUUUZZZZZZCZZZZZZZZCZZZZZZZZZZZZZZZZZZZxmZZZZZZZZZZZZZZZZZZZZZZZZZZZZZZZZZZZZZ",
"555@B(WWWWQWWWWWv UUUZZZZZZZZZZZZZZZZZZZZZZZZZZZZZZZZZZZZvNZZZZZZZZZZZZZZZZZZZZZZZZZZZZZZZZZZZZZ",
"555@B)WWWWWW!WW!8 GUGZZZZZZZZZZZZZZZZZZZZZZZZZZZZZZZZZZZVvVZZZZZZZZZZZZZZZZZZZZZZZZZZZZZZZZZZZZZ",
"555%B^WWWWQWWWWW; NUZZZZZZZZZZZZZZZZZZZZZZZZZZZZZZZZZZZZVxNZZZZZZZZZZZZZZZZZZZZZZZZZZZZZZZZZZZZZ",
"555@C(WQQQWWWW!W; NUZZZZZZZZZZZZZZZZZZZZZZZZZZZZZZZZZZZZZxNZZZZZZZZZZZZZZZZZZZZZZZZZZZZZZZZZZZZZ",
"555@B(WWWWWWWQQW; MFZZZZZZZZZZZZZZZZZZZZZZZZZZZZZZZZZZZZZvNZZZZZZZZZZZZZZZZZZZZZZZZZZZZZZZZZZZZZ",
"555@B(WWQWWWWWWW8 NZZZZZZZZZZZZZZZZZZZZZZZZZZZZZZZZZZZZZZZNZZZZZZZZZZZZZZZZZZZZZZZZZZZZZZZZZZZZZ",
"555%B(WWWWWWW!WWn mZZZZZZZZZZZZZZZZZZZZZZZZZZZZZZZZZZZZZZZZZZZZZZZZZZZZZZZZZZZZZZZZZZZZZZZZZZZZZ",
"555@B(WWWWWQWWWWY bZZZZZZZZZZZZZZZZZZZZZZZZZZZZZZZZZZZZZZZZZZZZZZZZZZZZZZZZZZZZZZZZZZZZZZZZZZZZZ",
"555@M/WWQWWQW!WWWpvZCMmmmvvnVCZZFVFZVnpepebmnNZZZnmvmmbmmnnvVZmxmnmmmZZZSFSSSVmev--;&&@@@@@@;;&&",
"555%J)WWWWWWWWWWWWb&@@@o@o@@@&vZSVw=@@@@@@@ooO@@o@@Oo@@@o@@@@oO@o@oO@oqNCSNq=@@@%%@%@&@@@@@o;8;;",
"555@J)WQWWQWWWW!WQWRCnpqiannbnnnbbbbbbnabbnfbbbbnnannnvbnnbbnbbbnnbbbbbnNBfbnnbbJZJLZGWY^WWWWW^Y",
"555@J(WWWWWWWQWWWWWWWWWWWWWWWWWDbWWWWWWWQWWRWWWWWWWWWWWWWWWWWWWWWWWWRWWWbDWWWWWWRWU^WWWWYRWWWWWR",
"555@J)QWWWWWWWWWQWWQWWWWWWQWWWWDbWWWWWWWWWWWWTWWWWWWWTWWWWTWWWWWWWTWEWWWaDWWWWWTWWWWWWWWWWWWWYWW",
"555%J`WW!W!WWW!WWWWWWW!WWWWWQWRHbWWWWWWWWWWWWWWWWWWTWWWWWWWWWWTWWWWWWWTWfDWWWWWWWWWWWWWWWWWWWWWW",
"555@D_~WQWWWW!WWQWQWWWWWWQWWWWWDbWWWWWWWWWWWWWTWWWWWWWWWWWWWWWWWWWWWWWWWfDWWTWWWWWWWWQWWWWWWWWWW",
"555@D`_!WWWWWWWWWWWWWQWWWWWWQWWHbWWWWTWWWWWTWWWWWWWWWWWTWWWWWWWWTWWWWWWWfSWWWWWWWYWWWYWWWWYWWW!!",
"555@J``_((~/~^~~^~~~~~~~~~~~^~~Pb!/~~~~~~~~~~~~^~~~~~~~~~~~~~~~~~~~~~~~~fP~~~~~~~~~~~^/^/)/)/))/",
"555%B(^((((^~~~~~~~~~~~~~~~~~/(Yn((((((((((((((((/((((((((((((((((((((_(fR(~~~~~~~~WWWWWWYWWUUUU",
"555@eZCGSSSSFVFSSSSSSSSSSSSSSSSMbSSSFSSSFZFFZVSSZZSSFZZZSSSSZZFSZZZFFFZVbNSFSSSSFVSSFZSSZZZZZZZZ",
"555&eZZZSSSSZFFFSSSSSSSSSSSSSSSNbSSSSSSSZFVFFFSSZZSSVFZZSSSSZZZSZZVFVFVVfNSFSSSSFFZFZFSSZZZZZZZZ",
"555@eSSSSSSSSSSSSSSSSSSSSSSSSSSNbSSSSFSSFFFSSSSSSSFFFSSSSSSSSSSSSSSSFSSVfNSVSSSSFSSSFFSSFFZZZCZZ",
"555#pFSSSSSSSSSSSSSSSSSSSSSSVb-X %-qexVSVFSSSSSSSSSVFFSSSSSSSSSSSSVxzq=@ X#8qxNSSSSSFVSSFVFVZZZm",
"5554t0*%%%%@-qqqqqqxxaqqq8@X XX         @=%q0qexxbxmbxxbbbq0qq%%@         X X   @%-qqqzbbxbz-*  ",
"55555+    X  XX                              XX           X XX                          X  XX   "
};
