/* XPM */
static char *result[] = {
/* columns rows colors chars-per-pixel */
"96 96 86 1 ",
"  c #492513",
". c #4F2913",
"X c #512D16",
"o c #522F19",
"O c #4F311F",
"+ c #563B15",
"@ c #583C15",
"# c #52311D",
"$ c #4F3423",
"% c #543522",
"& c #563826",
"* c #5A3B27",
"= c #543B2C",
"- c #5B3C29",
"; c #523E33",
": c #5C4616",
"> c #5E4C17",
", c #5F4818",
"< c #614F17",
"1 c #604F1A",
"2 c #625119",
"3 c #6D721A",
"4 c #72751B",
"5 c #76791E",
"6 c #5D4125",
"7 c #5E412F",
"8 c #544135",
"9 c #5A4434",
"0 c #55443B",
"q c #59473C",
"w c #57483F",
"e c #5C4A3C",
"r c #604923",
"t c #604533",
"y c #624936",
"u c #634C3C",
"i c #665538",
"p c #7C7E23",
"a c #574840",
"s c #5C4D42",
"d c #5A4E48",
"f c #5C5247",
"g c #5E534B",
"h c #654F40",
"j c #615246",
"k c #695545",
"l c #61554A",
"z c #6C5749",
"x c #63594D",
"c c #6E5C4D",
"v c #705C4E",
"b c #605751",
"n c #665E54",
"m c #685F56",
"M c #665F58",
"N c #6A664E",
"B c #666057",
"V c #696256",
"C c #676159",
"Z c #6B655D",
"A c #6D685F",
"S c #716152",
"D c #76675A",
"F c #76695A",
"G c #796B5E",
"H c #6E6A60",
"J c #716B62",
"K c #7B6F62",
"L c #747166",
"P c #7B7365",
"I c #767469",
"U c #7A756B",
"Y c #7A786E",
"T c #7D7A70",
"R c #80756A",
"E c #817C6F",
"W c #827D75",
"Q c #828077",
"! c #888077",
"~ c #868579",
"^ c #89867C",
"/ c #8A887E",
"( c #8D8B83",
") c #918F86",
"_ c #919087",
"` c #94928B",
/* pixels */
"-~~~~~~~~~ESiuy*--***************************************-6-=***6--*********************@-6*****",
"-~~~~~~~~~~~~~~~~~~~~~~PPPPFVcuu********iucmSSPPPPPPPPPPPPPSSSvNVNNcSSvNSvSGPPPPPPPPPFSNSSSSvv**",
"-~~~~~~~~~~~~~~~~~~~~~~~~~~~~~~~~EKSFP!~~~~~~~~~~~~~~~~~~~~~~~~~~~~~~~~~~~~~~~~~~~~~~~~~~~~~~~**",
"-E~~~~~~~~~~~~~~~~~~~~~~~~~~~~~~~~~~~~~~~~~~~~~~~~~~~~~~~~~~~~~~~~~~~~~~~~~~~~~~~~~~~~~~~~~~~`**",
"-P~~~~~~~~~~~~~~~~~~QQ~~~~~~~~~~~~~E~~~~~~~~~~~~~~~~~~~~~~~~~~~~~~~~~~~~~~~~~~~~~~~~~~~~/^~~``*%",
"-P~~~~~~~~~~~~~~Q((~((((/~~Q~~~~~~Fu!~~~~~~~~~~~~~~~~~~~~~~~~~~~~~~~~~~~~~~~~~~~~~~~~~~~//~/``**",
"-G~~~~~~~~~~/)_```````````````````uS``_`````````````````````````_``_``__``````````````````````**",
"*S~~~~~~~~UGUUWWQTQTQTTTQQIIIIIIIIeiUIYIUIYIYIIIUUUUIUWWWWQWWWWWQQQQQQQQWWWWTQ((//)/)`````````**",
"*S~~~~~~~~GtjxAAZAZAZHHZAZZAAAZAZAeuHHHHHHHHHHHHHHHHHHHHHHHHHHHHHHHHHHHHHHHHHAAZFZAZAZZZAZZZIW**",
"*S~~~~~~~)G9ggZZAZHZZZZZZAAZZZAZAZeuHHHHHHHHHHHHHHHHHHHHHHHHHHHHHHHHHHHHHHAAAAZAAAZZZZZZZZZAIQ**",
"*i~~~~~~~`G9ggCAZHZAHZZHAZZAAZAAZAuuHHHHHHHHHHHHHHHHHHHHHHHHHHHHHHHHHHZZAZZZZZZZZAZAZZZZZZZZIW**",
"-u~~~~~~_`G7ggnAAZHZZHHZZAAAZAZAAAeyHHHHHHHHHHHHHHHHHHHHHHHHZHHHZZZHZZZZZZZZAZZZZZZZZAZZZAZZIW**",
"-u^^~~~)``F9ggnAAZAAAZAAAAZAZAAZAZyuAAHHHHHHHHHHHHHHHHHHAAAZZZZAZZZZZZZAAZAZZZZZZAZZZZAZZZZZIQ**",
"-u/)/(````u7gggAZAAZZAZZAZAZAZZAZAeuHAHHHHAAHHAAHHAAAZZZZZZZZZZZHZZZAZZZZZZZZAZAZZAAZAZZZAZZIQ6&",
"--!``````S9tgggZAZZAAZZAAZAZAAAAAZuuHHHHHAHAAAAAAZZZZZZZZAZZZAZAZZAZZZZZAZZAZZAZZACCZZAZZZZZIQ-6",
"--v```))~t99gggBAZAZAAAZAAZAZAZZZAeuHHHAAAAAAAZZZZZZZAZZZZAZZZZZZZZZZZZZZZZZZZZZZZAAZZZZZZZZHY-6",
"--r(^~~~~c97gggnHAAZAAZAZAZAAZZAAAeeAAZZZAZZZZZZZZZAZZZZZZZAZZZAZZZACAZZAZZZZZZZZZZZZZHCMZMZAU&r",
"--v~!~~~!(k9gggxAZZAAZHZAAAZZAAAZAeiZZZZZZZAZZAZZZZZZZAZAZZZZZZZAZZZCAZZZZZAAZAZZHZZZZMZZMZMAU-r",
"--R~~~~~~(F9ggggZAZZHZZAAZAAAAZZAZeeZZZZZAZZAZZZZAZAZAAZZZZZZZZZZZZZAZZZZZZZZZZZZZHZCCMCMMMZHIur",
"--!~~~~~~)P-lgggBZAAZZHZZAZZAZAAAAeiZZZZZZZAZZZZZZZZZZZZZZAZZZAZAZZAAZZAZAZZZAZZZZCCZCZMMZZMJIur",
"-u~~~~~~~(R%gxggnCBBBBCZAAZZAAZAZAeeZZZZZZZZZZZZZZZZZZZZZZZZZZZZZZZZZZZZZZZZZZZZCZCCCCZZZMCZHYe*",
"-z~~~~~~~)R=gggggBBBBBBBBBZZZZAZAZuyCCCCCCCCCCCCCCCCCCCCCCCCCCCCCCBCCCBCCBCCCBCZCCCZZCMCMZCMLIy*",
"-S~~~~~~~/Y&gggbgBBBBBBBBBBBBBZZZVeiCCCCCCCCCCCCCCCCCCCCCCCCCCCCCCCCCCBCCCCCCCZCCZCZZMMZZCZCJIy*",
"-S~~~~~~!)Y&gggggbBBBBBBBBBBBBBBBBeeCCCCCCCCCCCCCCCCCCCCCCCCCCCCCCCCCCZCCCCCCCCCCCCCMZCCCMZCZIy*",
"-S~~~~~~^)K#fglggnBBBBBBBBBBBBBBBB#XVBVCCCZCCCCCCCCCCCCCCCZBCCCCCCCCCCCCCCCCCCCCZMZCCCZMZCCCCIu6",
"-S~~~~~~~)S%=gggggBBBBBBBBBBBBBBBe..eBCCCCBCCCCCCCCCCCCBCCVVCCCCCBCCCCCCCCCCCCCZZCCCZMZCCCCZCZi3",
"*S~~~~~~~(S%%=slgfggflgCBBBBfjfe8....7lji090e999e999e99gffffjffljlfgljljljljlje9dljjjlljxZCCCV44",
"*S~~~~~~~(S%%%%%#&#&&$&+&#&OX..............X..........XXX.X.X............X........X.X........444",
"-S~~~~~~!)S%%%#%870eewwffffffffffffffffffffww0O$eewfffffffffffffffffffffffffffO..#67uue9&....444",
"*S~~~~~~~(v%%%qfffffffffffffffffffffffffffffff$6ffffffffffffffffffffffffffffffO.-xgxlxxlli#..444",
"-k!~~~~~~(S$%sdfffffffffffffffffffffffffffffffO8ffffffffffffffffffgfffffffffff+&xfxxxxxxxxj..444",
"-i~~~~~~~(S%;dffffffffffffffffffffffffffffffffO8ffffffffffffffffffffffffffffff%exxxxxxlxxxx#.444",
"-u~~~~~~~(S%wfffffffffffffffffffffffffffffffff$=ffffggffffffffffffffffffffffffOxlxxxxlNfxxx#X444",
"-i~~~~~~~)S#affgfffgffffffffffffffffffffffffff$=ffffffffffffffffffffgfffffffff@nxxxxlxxxxxxO.444",
"-u~~~~~~^(S%fgffffffffffffffffffffffffffffffff$=ffffffffffgfffffgfffffffffffffOgxxxxjNxxxxN#X444",
"-h~~~~~~((VOffffffffffffffffffffffffffffffffff$;ffffffffffffffffffffffffffffffONxlxxxlxllxl#:444",
"-u!~!Q/(()k%fffffffffffffffffffffgddffffffffff%=ffffffffgfffffffffffffffffffffOjNlxxxxlxxxx&@444",
"-t^)(((((W&%ffffffffffBBCBMCnCCCBBBCCCBCBMBBMM9sCCCCCCCCBCCCBBCBCCCCCCCCCCCCCC&efxlxxxNlxxc#@444",
"-*y)(((Wh%%%fffffffffBMCMCMMCMCCBBCCBBBBMCCCMlqeCCCCCCCCCCCCCCCCCCCCCCCCCCCCCC=xxxxxxlfxxxx*@444",
"-*k!~!~!9o%%ffffffffaMCMCMCMCCnVBBCCBBBBCMCnlq99fCCCCCCCCCCCCCCCCCCCCCCCCCCCCCegxxjNlxxxxxx%@444",
"--G~~~~~W-%%====8$$8$880ddsdhdddfffffsfsse9qq9999fhdhfffgfffffefdhfsjdfhdhffffjxlNjxxxxxxcx#@444",
"--E~~~~~~i%%;;0;w0888;=wlljlllljggggxnnnnxllxlxxxblgllllxnnnxBBljddjhjjfffllxBuxxlxxxxxxxxx&@444",
"--~~~~~~~P&#gggddggf$=8CHZHHHAAHAAAAAAAAAAAADHAAHAHHHHAAZHHHAAAAHZnjfhfbCAAAAA*jfNxxxxxxxnN%:444",
"-u~~~~~~~~O&ggggdggg08fCZMZZCZCZZCZCZCCACZZCCZCAZCZCZCZZCZCCZZCVMZZZdfCZZCCCZC%exlxlxxxxcxx%+444",
"-i~~~~~~~`&#dgggggdfd=gBCCCCCCCCCCCCCCCCCCCCCCCCMCCCCCCCCCCCBCCCCZMCjfCCCCCCCC&8xxxlNfxxnxx&@444",
"-S~~~~~~~`eOgggdgggfd=gBCCCCCCCCCCCCCCCCCCCCCCCCMCCCCCCCCCCCCCCCCCCCjjCCCCCCCC&7lxlxxxNxxxx&@444",
"-S~~~~~~~`x$gggggdggg0bCCCCCCCMCCCCCCCCCCCCCCCCCCCCCCCCCCCCCCCCCCCCClgCCCCCCCC%8xjxxxxNxnxn%@444",
"-S~~~~~~~`S$ggggggggg0bCCCCCCCZCCCCCCCCCCCCCCCCCCCCCCCCCCCCCCCCCCCCCjfCCCCCCCC%7lNxxxxlxxxc&@444",
"-S!~~~~~~`R#lddbggggg0dMCCCCCCCCCCCMCCCCCMCCMZZMCCCCCCCCCCCCCCCCZMMMlgCCCCCCCC&ejxxxxnxVnxc#+444",
"-S~~~~~~^`E%jlldggdgd0dbCCCCCMCCCCCZCCCCCMZCMMMMCCCCCCCCCCCCCCCCMMZMljCMCCCCCC&sxxxxxcxxxxn&@444",
"6S~~~~~~~`E%dggddgggd0dgCCCCMMZMCCCCCCCCCCCCCCMZCCCCCCCCCMCCCCCCMZMMqeCMZCCCCC&exxxNxBxxxxx&@444",
"-S~~~~~~~`E#bldbgggda0dbMCCCZMMMCCCCCCCCCCCCCCMMCMZCCCCCCZCCCCCCMZMM;*nZMCCCCC*sxxxxxxnxxVx%@444",
"-S~~~~~~W`E%ddggddda000dbMMMMMMMCCCCMCCCCCCCMMMZCCZmMZMMCCCVCVCCmMZh=-aMCCCCCCAixxxxnxxxxnx&@444",
"-S~~~~~~~`E%aaaaa000;000adjjjljjjjjjghjjljgjjj9999;eshhdfjsddjss99=====;elllblxxxxxcxbcnxcx&@554",
"*S^~~~~~~`W%0;00000000000adahasssedssssessssss====*=qqqeeeeqqeee====-===9gggggfjxVxxNxxcxxx&>p54",
"-u~~~~~~~`K%bbbbbbdbbdbgbMHHHHHZAAAAZAAAZAAAHHh-=9nZHZZZZZZZZZZZZZZZZHMHZZZZZZ*eVVVVVVZVVVV#2334",
"-u~~~~!~~)D#ddggbbbbgbbbbMZMMZMZCZCZCZCZMZMZZMM;=lMHMMZMCZMZMZMZHMMHMMHMCCCCZC&7cxxxxxxcxcx#<344",
"-u~~~~~~~`v%ldgddbgbbbgbbbMMMMMMMMMMMMMMMMMMMMMs=bMMMMMMMMMMMMMMMMMMMMMMCMCMnn&#&6-&*-&-**6O>444",
"-u~~~^~~~`u%dggdgdbgggbbblMMMMMMMMMMMMMMMMMMMMMndMMMMMMMMMMMMMMMMMMMMMMMMMMMCM%&97999999999#<444",
"7i~~^!~~(`=%ggdgddgbbbbgbbnMMMMMMMMMMMMMMMMMMMMMlMMMMMMMMMMMMMMMMMMMMMMMMMMMMM&uBBBNNnNVxVn&<444",
"-u^!(W^~)`#%dgddgdbggbbbgbbMMMMMMMMMMMMMMMMMMMMMdMMMMMMMMMMMMMMMMMMMMMMMMMMMMM&jBVVxnnBNnBY-<444",
"-u!^WW^)`W%#gddddgbbbbggbgbbMMMMMMMMMMMMMMMMMMMnlMMMMMMMMMMMMMMMMMMMMMMMMMMMMMq9NxVVnnnnBFQ6<444",
"-y`)))```D%%ddbddgggbggbbbbbMMMMMMMMMMMMMMMMMMMbdMMMMMMMMMMMMMMMMMMMMMMMMMMMMM97nnxVnnnnnJQ7>444",
"-*W``````u%%bbddgddbbbbbgbbbMMMMMMMMMMMMMMMMMMMndMMMMMMMMMMMMMMMMMMMMMMMMMMMBV=9nnVnnnNnVIQ-@444",
"--z```)/~%%%dddbdgdbbbgbbgbbMMMMMMMMMMMMMMMMMMMgdMMMMMMMMMMMMMMMMMMMMMMMMMMMMM&9ncBBxVVNJUQ6+444",
"--t/^~~~(-%#dgddddddggbgbbgbMMMMMMMMMMMMMMMMMMbldbMMMMMMMMMMMMMMMMMMMMMMMnMMMM&knBnNVnxAIUQ7+444",
"--D~~~~~~S%%aa0000a00a00aaadbMMbMnbMMMbnMMnbMbgddlbbbnnnMbMMMMMbbblbxxllnnnnnb9nnNnnnnVIIIQ-+444",
"--E!~~~~WR%%====;==;==;;;$;agdggdbdddlbbdgdggdlglddggggdggddddjdhdhssssssessssxVnBVxnNAIIIQ7@444",
"-y~~~~~~~`%%aaaaa0;;;$;;adldgdggbMHHHHHHHHHHMMMMCCCHHHHMAAAAZZHZHZCjssssjnnMCC9nnnVBcBLIIIQ7@444",
"-i~~~~~~~`t%ddddddda;;;dlgdlggMZHCMHMHMHZZMZHHHCHCHHHZMHZZZZZZZZZZAAhsxCZAZZAZ&lVnxVBAIIIIQ-@444",
"-S~~~~~~^`h%dddddddda;dgggbdlgMMMMMMMMMMMMMMMMMMMMMMMMMMMMMMMMMMMMMMjsMMMMMMnM&hcxBnNLIIIIQ7@444",
"*S~~~~~~W`D%dddddddddaadgddgddbMMMMMMMMMMMMMMMMMMMMMMMMMMMMMMMMMMMMMjsMMMMMMMM&9BBNnZIIIIIQ%@444",
"-D~~~~~~/`G#dddddddddddfgggggfgnMMMMMMMMMMMMMMMMMMMMMMMMMMMMMMMMMMMMjsMMMMMMMM&9BnVVLIIIIIQ.+444",
"-G~~~~~~/`E%ddddddddddggggjdgggnMMMMMMMMMMMMMMMMMMMMMMMMMMMMMMMMMMMMssMMMMMMMM&9NnNVIIIIIIQ.+444",
"*S~~~~~~!`E%ddddddddddfgdggggggbMMMMMMMMMMMMMMMMMMMMMMMMMMMMMMMMMMMMjsMMMMMMMMo9nnBJIIIIIIW.@444",
"*S~~~~~~^`E%ddddddddddggggfggggbMMMMMMMMMMMMMMMMMMMMMMMMMMMMMMMMMMMMldMMMMMMMM.innBIIIIIIIQ.@444",
"-S~~~~~~^`E%jdddddddddggggdgfdggMMMMMMMMMMMMMMMMMMMMMMMMMMMMMMMMMMMMnjMMMMMMMM.jxVJIIIIIIIQ.@444",
"6S~~~~~~~`E%ddddddddddgggfgggggfnMMMMMMMMMMMMMMMMMMMMMMMMMMMMMMMMMMMMMMMMMMMMM.jVVIIIIIIIIQ.@444",
"-z~~~~~~~)D%dlddddddddgffggfjdggbMMMMMMMMMMMMMBBMMMMMmMMMMMMMMMMMMMMMMMMMMMMMMXnBLIIIIIIIIQ.@444",
"-u~~~~~~~)S%a;00009009dgdggggggflMMMMMMMljgjjxnBMMMMMdjjjjjjdlljjdjjjjMMMMMxjj.mFIIIIIIIIIQ.@444",
"*i~~~~~~~`k#                    .$8CMn9#X......X...X.......X...X...........X...ALIIIIIIIII~.:444",
"*u~~~~~~~`9%;=;999989;9;99;9999;8iunn9=-**--=6-=***=-**=-**=-**=-=6=----*-*=--=IIIIIIIIIII(.+344",
"-h~~~~~~)`%%lggnnMnMMnnMMnnnnnMMBLIJgJIIIIIIIIIIIIIIIIIIIIIIIIIIIIIILIIIIIIIIIIIIIIIIIIIII/X@444",
"-u~~~~~/`E%%gllMnnnnmnnnnmMnnmnmBIILbLIIIIIIIIIIIIIIIIIIIIIIIIIIIIIIIIIIIIIIIIIIIIIIIIIIII/#:p54",
"-y))((```S%%glgnMnnnmnMnnmnnMnMmBLILxHIIIIIIIIIIIIIIIIIIIIIIIIIIIIIIIIIIIIIIIIIIIIIIIIIIII)t@344",
"--^``````u%%glgnnnnnnmnmnnnmnnnnBIIJgLIIIIIIIIIIIIIIIIIIIIIIIIIIIIIIIIIIIIIIIIIIIIIIIIIIIU(-+p54",
"--v```)((%%%djgnMnnnmMmMnmnnnnnMBIIZxHIIIIILIIIIIIIIIIIIIIIIIIIIIIIIIIIIIIIIIIIIIIIIIIIII~(t@544",
"-*7)(^!~~&%%nnnAZZZZZmDMZZZZZZZZZLAgxIYYYYYYYYYYYYYYYYYYYYYYYYYYYYYYYYYYYYYYYYYIIIIIIIIIW))t@344",
"--z~~~~~~k#%JJHJJHJJJJHHJJJJJJJZBxgbgTQQQ^~~~~~~~~~^Q~~~~~~^~~~~~~~^QQ^^~~~^~~~~QQQTYQ!((((t@444",
"--P~~~~~~S%%a0egbxxgxxbBnxnnbxblngxxgBBBCMMBMBMBBCBBCCBBBBMnMMBBBBBBCCBBBBCCBBBBBBBBBBBBBCB&@444",
"*t!~~~~~~R%%ea0lxxgxlbxxbxbllnlnxxgxxBBBCMBBMCBBBBBBBBBBBBBBMCnBBBBBBBBBBBBBBBBBBBBBBBBBBBB%@444",
"-z~~~~~~~W%#aaagbgngbxxglblnblblbxbxnBBBBBBCCnBBBBBBBBBBBBBBCMCBBBBBBBBBBBBBBBBBBBBBBBBBBBB&@444",
"*F~~~~~~~/%%wwwjxxxxlxxgbxblllblxxgs=*fBBBBBBBBBBBBBBBBBBBBBBBVnBBBnBBBBBBBBBBBCBBBBnCBBnCV&@444",
"*R~~~~~~~`%%==&88#&889879esese99&%..X.X#=ejjnBBnjjfeq999%%999999ejjjgfjfjfjj99&....#&9slCmM%:444",
"-~~~~~~~~`#O................................................X.........X..................%%13444",
"-~~~~~~~~`%#................................................X.XX..........................:44444"
};
