/* XPM */
static char *result[] = {
/* columns rows colors chars-per-pixel */
"96 96 52 1 ",
"  c #56341F",
". c #573F1D",
"X c #583F1D",
"o c #583724",
"O c #593A26",
"+ c #5C3E2A",
"@ c #525712",
"# c #565A14",
"$ c #5B5E16",
"% c #5C5F18",
"& c #5D6017",
"* c #5E6119",
"= c #61641B",
"- c #676D18",
"; c #6A6F19",
": c #6D721A",
"> c #72751B",
", c #76791E",
"< c #787B1F",
"1 c #5D412F",
"2 c #5F4331",
"3 c #624836",
"4 c #664E3D",
"5 c #767A20",
"6 c #797C21",
"7 c #6A5444",
"8 c #6E5D4C",
"9 c #715D4D",
"0 c #725F51",
"q c #756456",
"w c #766558",
"e c #70695D",
"r c #796A5D",
"t c #736D61",
"y c #7C6E63",
"u c #777266",
"i c #7C7164",
"p c #7B7569",
"a c #7F7C70",
"s c #81756A",
"d c #827A6E",
"f c #847B71",
"g c #7D8024",
"h c #858276",
"j c #888076",
"k c #868579",
"l c #89877C",
"z c #8B897E",
"x c #8E8B82",
"c c #908E86",
"v c #919087",
"b c #93918A",
/* pixels */
"obbkkkkkkk3.$$$$$$$$$$$$$$$$$$$$$$$>>>>>>>>>>>>>>>>>>>>>>>>>>>>>>>>>>>>>>>>>>>>>>>>>>>>>>>>>>>>>",
"obbkkkkkkk3.$$$$$$$$$$$$$$$$$$$$$$$>>>>>>>>>>>>>>>>>>>>>>>>>>>>>>>>>>>>>>>>>>>>>>>>>>>>>>>>>>>>>",
"obckkkkkkk3.$$$$$$$$$$$$$$$$$$$$$$$>>>>>>>>>>>>>>>>>>>>>>>>>>>>>>>>>>>>>>>>>>>>>>>>>>>>>>>>>>>>>",
"obckkkkkkk3.$$$$$$$$$$$$$$$$$$$$$$$>>>>>>>>>>>>>>>>>>>>>>>>>>>>>>>>,>>>>>>>>>>>>>>>>>>>>>>>>>>>>",
"olvkkkkkkk3.$$$$$$$$$$$$$$$$$$$$$$$>>>>>>>>>>>>>>>>>>>>>>>>>>>>>>>>55,>>>>>>>>>>>>>>>>>>>>>>>>>>",
"ofvkkkkkkk3.$$$$$$$$$$$$$$$$$==$$$$>>>>>>>>>>>>>>>>>>>>>>>>>>>>>>>>>;;>>>>>>>>>>>>>>>>>>:>>>>>>>",
"oyblkkkkkk3.$$$$$$$$$$$$$$$$$**%$$$>>>>>>>>>>>>>>>>>>>>>>>>>>>>>>>>>>>>>>>>>>>>>>>>>>>>>>>>>>>>>",
"owbckkkkkk3.$$$$$$$$$$$$$$*=*$%$$$$>>>>>>>>>>>>>>>>>>>>>>>>>>>>>>>>>>>>>>>>>>>>>>>>>>>>>>>>>>>>>",
"o7bbxkkkkk2.$$$$$$$$$$$$$%%%*$@$===>>>>>>>>>>>>>>>>>>>>>>>>>>>>>>>>>>>>>>>>>>>>>>>>>>>>>>>>>>>>>",
"o+bbbbcxcc .$$$$$$$$$$$$$*=%%=$===$>>>>>>>>>>>>>>>>>>>>>>>>>>>>>>>>>>>>>>>>>>>>>>>>>>>>>>>>>>>>>",
"oofbbbvxd0 X$$$$$$$$$$$$$$$*$#$*#$$>>>>>>>>>>>>>>>>>>>>>>,>>>>>>>>>>>>>>>>>>>>>>>>>>>>>>>>>>>>>>",
"ootvxzkk3o X$$$$$$$$$$$$$$$#$$@@$$$>>>>>>>>>>>>>>>>,g6>,<>>>>>>>>>>>>>>>>>>>>>>>>>>>>>>>>>>>>>>>",
"oo0kkkkkdo .$$$$$$$$$$$$$$$$$$$$$$$>>>>>>>>>>>>>>>>>>,,,,>>>>>>>>>>>>>>>>>>>>>>>>,5,>>>>>>>>>>>>",
"oodkkkkkk8 .$$$$$$$$$$$$$$$$$$$$$$$>>>>>>>>>>>>>>>>>>;:>>>>>>>>>>>>>>>>>>>>>>>,>,5;>>>>>>>>>>>>>",
"oovkkkkkkd X$$$$$$$$$$$$$$$$$$$$$$$>>>>>>>>>>>>>>>>>>>;>>>>>>>>>>>>>>>>>>>>>>,g5,>;>>>>>>>>>>>>>",
"o7ckkkkkkk2.$$$$$$$$$$$$$$$$$$$$$$$>>>>>>>>>>>>>>>>>>>>>>>>>>>>>>>>>>>>>>>>>>>>,>;>>>>>>>>>>>>>>",
"o0vkkkkkkk7@#$$$$$$$$$$$$$$$$$$$$$$>>>>>>>>>>>>>>>>>>>>>>>>>>>>>>>>>>>>>>>>>>>>;;>>>>>>>>>>>>>>>",
"owvlkkkkkk91$$$$$$$$$$$$$$$$$$$$$$$>>>>>>>>>>>>>>>>>>>>>>>>>>>>>>>>>>>>>>>>>>>>>>>>>>>>>>>>>>>>>",
"ofclkkkkkkwX$$$$$$$$$$$$$$$$$$$$$$$>>>>>>>>>>>>>>>>>>>>>>>>>>>>>>>>>>>>>>>>>>>>>>>>>>>>>>>>>>,,>",
"oxcfkkkkkkr $$$$$$$$$$$$$$$$$$$$$$$>>>>>>>>>>>>>>>>>>>>>>>>>>>>>>>>>>>>>>>>>>>>>>>>>>>>>,gg>,,>>",
"obckkkkkkki@$$$$$$$$$$$$$$$$$$$$$$$>>>>>>>>>>>>>>>>>>>>>>>>>>>>>>>>>>>>>>>>>>>>>>>>>>>>>>5g,5g>>",
"obvkkkkkkk81$$$$$$$$$$$$$$$$$$$$$$$>>>>>>>>>>>>>>>>>>>>>>>>>>>>>>>>>>>>>>>>>>>>>>>>>>>>>>>>,,>>>",
"obvkkkkkkk8X$$$$$$$$$$$$$$$$$$$$$$$>>>>>>>>>>>>>>>>>>>>>>>>>>>>>>>>>>>>>>>>>>>>>>>>>>>>>>::>;>>>",
"obckkkkkhh8X$$$$$$$$$$$$$$$$$$$$$$$>>>>>>>>>>>>>>>>>>>>>>>>>>>>>>>>>>>>>>>>>>>>>>>>>>>>>>>>>>>>>",
"obblkkkkkk3.$$$$$$$$$$$$$$$$$$$$$$$>>>>>>>>>>>>>>>>>>>>>>>>>>>>>>>>>>>>>>>>>>>>>>>>>>>>>>>>>>>>>",
"obckkkkkkk3.$$$$$$$$$$$$$$$$$$$$$$$>>>>>>>>>>>>>>>>>>>>>>>>>>>>>>>>>>>>>>>>>>>>>>>>>>>>>>>>>>>>>",
"obvkkkkkkk3.$$$$$$$$$$$$$$$$$$$$$$$>>>>>>>>>>>>>>>>>>>>>>>:>>>>>>>>>>>>>>>>>>>>>>>>>>>>>>>>>>>>>",
"obckkkkkkfo.$$$$$$$$$$$$$$$$$$$$$$$>>>>>>>>>>>>>>>>>>>>>>>>>>>>>>>>>>>>>>>>>>>>>>>>>>>>>>>>>>>>>",
"ofclkkkkkk  ##$$$$$$$$$$$$$$$$$$$$$>>>>>>>>>>>>>>>>>>>>>>>>>>>>>>>>>>>>>>>>>>>>>>>>>>>>>>>>>>>>>",
"ofvlkkkkkk @$$$$$$$$$$$$$$$$$$$$$$$>>>>>>>>>>>>>>>>>>>>>>>>>>>>>>5g>>>>>>>>>>>>>>>>>>>>>>>>>>>>>",
"owbfkkkkkk+1$$$$$$$$$$$$$$$$$$$$$$$>>>>>>>>,>>>>>>>>>>>>>>>>>>>>>,g5>,,>>>>>>>>>>>>>>>>>>>>>>>>>",
"o9bxkkkkkp2O$$$$$$$$$$$$$$$$$$$$$$$>>>><6,><>>>>>>>>>>>>>>>>>>>>5,>5,<>>>>>>>>>>>>>>>>>>>>>>>>>>",
"O3bbxkkate2X$$$$$$$$$$$$$$$$$$$$$$$>>>>>66>:>6g,:>>>>>>>>>>>>>>>><,->>:>>>>>>>>>>>>>>>>>>>>>>>>>",
"oObbvbxeee+X$$$$$$$$$$$$$$$$$$$$$$$>>>>>56>:>5,>>>>>>>>>>>>>>>>>><<:,::>>>>>>>>>>>>>>>>>>>>>>>>>",
"ooabbbueee3 $$$$$$$$$$$$$$$$$$$$$$$>>>>6>>,>5:=:>>>>>>>>>>>>>>>>>:>>>>>>>>>>>>>>>>>>>>>>>>>>>>>>",
"ooqccxeeee3@$$$$$$$$$$$$$$$$$$$$$$$>>>>>,:>>::,,>>>>>>>>>>>>>>>>>>>>>>>>>>>>>>565:>>>>>>>>>>>>>>",
"ooykkkeeee4.$$$$$$$$$$$$$$$$$$$$$$$>>>>>>>:>>>>>>>>>>>>>>>>>>>>>>>>>>>>>>>>><>55:>>>>>>>>>>>>>>>",
"ookkkkaeee2.$$$$$$$$$$$$$$$$$$$$$$$>>>>>>>>>>>>>>>>>>>>>>>>>>>>>>>>>>>>>>>>>;55:>>>>>>>>>>>>>>>>",
"o2xkkkkueeO1$$$$$$$$$$$$$$$$$$$$$$$>>>>>>>>>>>>>>>>>>>>>>>>>>>>>>>>>>>>>>>>>:>>>>>>>>>>>>>>>>>>>",
"o7ckkkkhe7 .$$$$$$$$$$$$$$$$$$$$$$$>>>>>>>>>>>>>>>>>>>>>>>>>>>>>>>>>>>>>>>>>>>>>>>>>>>>>>>>>>>>>",
"owclkkkkf2 .#$$$$$$$$$$$$$$$$$$$$$$>>>>>>>>>>>>>>>>>>>>>>>>>>>>>>>>>>>>>>>>>>>>>>>>>>>>>>>>>>>>>",
"osxkkkkkk7 1$$$$$$$$$$$$$$$$$$$$$$$>>>>>>>>>>>>>>>>>>>>>>>>>>>>>>>>>>>>>>>>>>>>>>>>>>>>>>>>,,,>>",
"ofckkkkkkp X$$$$$$$$$$$$$$$$$$$$$$$>>>>>>>>>>>>>>>>>>>>>>>>>>>>>>>>>>>>>>>>>>>>>>>>>>>>>>>>5g,>>",
"oxclkkkkkkOX$$$$$$$$$$$$$$$$*$$$$$$>>>>>>>>>>>>>>>>>>>>>>>>>>>>>>>>>>>>>>>>>>>>>>>>>>>>>>>>,;>>>",
"obckkkkkkk3X$$$$$$$$$$$$$$$*=**$$*=>>>>>>>>>>>>>>>>>>>>>>>>>>>>>>>>>>>>>>>>>>>>>>>>>>>>>>>>:>>>>",
"occkkkkkkk7X$$$$$$$$$$$$$$$$$$$$**$>>>>>>>>>>>>>>>>>>>>>>>>>>>>>>>>>>>>>>>>>>>>>>>>>>>>>>>>>>>>>",
"obxlkkkkjk9X$$$$$$$$$$$$$$$$$@$*=**>>>>>>>>>>>>>>>>>>>>>>>>>>>>>>>>>>>>>>>>>>>>>>>>>>>>>>>>>>>>>",
"obckkkkklf9o$$$$$$$$$$$$$$$$$#$***$>>>>>>>>>>>>>>>>>>>>>>>:>>>>>>:>>>>>>>>>>>>>>>>>>>>>>>>>>>>>>",
"obckkkkkkk8.#$$$$$$$$$$$$$$$$$$###%>>>>>>>>>>>>>>>>>>>>>>>>>>>>>>>>>>>>>>>>>>>>>>>>>>>>>>>>>>>>>",
"obxkkkkkkk8.&$$$$$$$$$$$$$$$$$$$#%%>>>>>>>>>>>>>>>>>>>>>>>>>>>>>>>>>>>>>>>>>>>>>>>>>>>>>>>>>>>>>",
"obxkkkkkkk8.$$$$$$$$$$$$$$$$$$$$$$%>>>>>>>>>>>>>>>>>>>>>>>>>>>>>>>>>>>>>>>>>>>>:>>>>>>>>>>>>>>>>",
"oxxkkkkkkk21$$$$$$$$$$$$$$$$$$$$$$%>>>>>>>>>>>>>>>>>>>>>>>>>>>>>>>>>>>>>>>>>>>>>>>>>>>>>>>>>>>>>",
"ofxkkkkkkh2 $$$$$$$$$$$$$$$$$$$$$$*g5>>>>>>>>>>>>>>>>>>>>>>>>>>>>>>>>>>>>>>>>>>>>>>>>>>>>>>>>>>>",
"opbfkkkkkh3@$$$$$$$$$$$$$$$$$$$$$$$,5>>5>>>>>>>>>>>>>>>>>>>>>:>>>>>>>>>>>>>>>>>>>>>>>>>>>,>>,,>>",
"o0bxkkkkkk21$$$$$$$$$$$$$$$$$$$$$$$;>>56,>>>>>>>>>>>>>>>>>>>>>>>>>>>>>>>>>>>>>>>>>>>>>>>,<<>,<,>",
"o7bbxkkkkk.1$$$$$$$$$$$$$$$$$$$$$$$>>5>>>>>>>>>>>>>>>>>>>>>>>>>>>>>>>>>>>>>>>>>>>>>>>>>>><<,,:>>",
"o2bbvzlkkl .$$==$****$$$$$$$$$$$$$$>>>:>>>>>>>>>>>>>>>>>>>>>>>>>>>>>>>>>>>>>>>>>>>>>>>>>>;;>>:>>",
"oolbbbbbbh .$$$=***$$$$$%$$$$$$$$$$>>>>>>>>>>>>>>>>>>>>>>>>>>>>>>>>>>>>>>>>>>>>>>>>>>>>>>>>::>>>",
"ooubvxlk4  .$$$%*##$$$$$$$$$$$$$$$$>>>>>>>>>>>>>>>>>>>>>>>>>>,>>>>>>>>>>>>>>>>>>>>>>>>>>>>>>>>>>",
"ooqlkkkkh+ X$$$@#$$$$$$$$$$$$$$$$$$>>>>>>>>>6>>>>>>>>>>>>>>>><,,g<,>>>>>>>>>>>>>>>>>>>>>>>>>>>>>",
"ooikkkkkkq .$$$$$$$$$$$$$$$$$$$$$$$>>>>>>>>,,>>>>>>>>>>>>>,>,>><g,>>>>>>>>>>>>>>>>>>>>>>>>>>>>>>",
"ooxkkkkkkko.$$$$$$$$$$$$$$$$$$$$$$$>>>>>>>,6>>>>>>>>>>>>>>>g<:<6,>>>>>>>>>>>>>>>>>>>>>>>>>>>>>>>",
"o3chkkkkkk4.$$$$$$$$$$$$$$$$$$$$$$$>>>>>>>>:>,>>>>>>>>>>>>:>,>>>>,>>>>>>>>>>>>>>>>>>>>>>>>>>>>>>",
"o8ckkkkkkk8.$$$$$$$$$$$$$$$$$$$$$$$>>>>>>>>>5,>>>>>>>>>>>>>>:>>:>>>>>>>>>>>>>>>>>>>>>>>>>>>>>>>>",
"oqckkkkkkk8@#$$$$$$$$$$$$$$$$$$$$$$>>>>>>>>>;:>>>>>>>>>>>>>>>>>>>>>>>>>>>>>>>>>>>>>>>>>>>>>>>>>>",
"odckkkkkkk81$$$$$$$$$$$$$$$$**$$$$&>>>>>>>>>>>>>>>>>>>>>>>>>>>>>>>>>>>>>>>>>>>>>>>>>>>>>>>>>>>>>",
"ofckkkkkkk8.$$$$$$$$$$$$$$$$*=*$==&>>>>>>>>>>>>>>>>>>>>>>>>>>>>>>>>>>>:>>>>>>>>>>>>>>>>>>>>>>>>>",
"obckkkkkkk7.$$$$$$$$$$$$$$$==#$*&#$>>>>>>>>>>>>>>>>>>>>>>>>>>>>>>>>>>>>>>>>>>>>>>>>>>>>>>>>>>>>>",
"obckkkkkkk3X$$$$$$$$$$$$$$$$*%$%##$>>>>>>>>>>>>>>>>>,<<>>>>>>>>>>>>>>>>>>>>>>>>>>>>>>>>>>>>>>>>>",
"occkkkkkkk3X$$$$$$$$$$$$$$$$$%$%$$$>>>>>>>>>>>>>>>>>><6>>>>>>>>>>>>>>>>>>>>>>>>>>>>>>>>>>>>>>>>>",
"obckkkkkkk3X$$$$$$$$$$$$$$$$$$$$$$$>>>>>>>>>>>>>>>>>>:>>>>>>>>>>>>>>>>>>>>>>>>>>>>>>>>>>>>>>>>>>",
"obckkkkkkj3X$$$$$$$$$$$$$$$$$$$$$$$>>>>>>>>>>>>>>>>>>>>>>>>>>>>>>>>>>>>>>>>>>>>>>>>>>>>>>>>>>>>>",
"obcjkkkkkk31$$$$$$$$$$$$$$$$$$$$$$$>>>>>>>>>>>>>>>>>>>>>>>>>>>>>>>>>>>>>>>>>>>>>>>>>>>>>>>>>>>>>",
"obzhkkkkkk4@$$$$$$$$$$$$$$$$$$$$$$$>>>>>>>>>>>>>>>>>>>>>>>>>>>>>>>>>>>>>>>>>>>>>>>>>>>>>>>>>>>>>",
"Obckkkkkkl3X$$$$$$$$$$$$$$$$$$$$$$$>>>>>>>>>>>>>>>>>>>>>>>>>>>>>>>>>>>>>>>>>>>>>>>>>>>>>>>>>>>>>",
"Olzkkkkkkf3X$$$$$$$$$$$$$$$$$$$$$$$>>>>>>>>>>>>>>>>>>>>>>>>>:>>>>>>>>>>>>>>>>>>>>>>>>>>>>>>>>>>>",
" fzlkkkkkk3X#$$$$$$$$$$$$$$$$$$$$$$>>>>>>>>>>>>>>>>>>>>>>>>>>>>>>>>>>>>>>>>>>>>>>>>>>>>>>>>>>>>>",
" sbkkkkkkk3X$$$$$$$$$$$$$$*=$$$$$$$>>>>>>>>>>>>>>>>>>>>>>>>>>>>>>>>>>>>>>>>>>>>>>>>>>>>>>>>>>>>>",
"oqbzkkkkkk3X$$$$$$$$$$$$$$$=*$$*$$$>>>>>>>>>>>>>>>>>>>>>>>>>>>>>>>>><<>>>>>>>>>>>>>>>>>>>>>>>>>>",
"o4bclkkkkk3X$$$$$$$$$$$$$$$$**=%$$$>>>>>>>>>>>>>>>>>>>>>>>>>>>>>>>>,<>>>>>>>>>>>>>>>>>>>>>>>>>>>",
"o+bbbczxxz X$$$$$$$$$$$$$$$$$==$$$$>>>>>,,>,,>>>>>>>>>>>>>>>>>>>>>>>>>>>>>>>>>>>>>>>>>>>>>>>>>>>",
"oofbbbczd9 X$$$$$$$$$$$$$$$$$$$$$$$>>>>,,>,g,>>>>>>>>>>>>>>>>>>>>>>>:>>>>>>>>>>>:>>>>>>>>>>>>>>>",
"oorcxkkk7  X$$$$$$$$$$$$$$$$$$$$$$$>>><<:><,>>>>>>>>>>>>>>>>>>>>>>>>>>>>>>>>>>>>>>>>>>>>>><>>>>>",
"ooskkkkkk1oX$$$$$$$$$$$$$$$$$$$$$$$>>>,,>5>><>>>>>>>>>>>>>>>>>>>>>>>>>>>>>>>>>>>>>>>>>>>><<><g>>",
"o4ckkkkkky X$$$$$$$$$$$$$$$$$$$$$$$>>>>>>::,:>>>>>>>>>>>>>>>>>>>>>>>>>>>>>>>>>>>>>>>>:>>,,:<<>>>",
"osckkkkkkk+X$$$$$$$$$$$$$$$$$$$$$$$>>>>>>>>>>>>>>>>>>>>>>>>>>>>>>>>>>>>>>>>>>>>>>>>>>>>:<,>,><<>",
"ozckkkkkkk7X$$$$$$$$$$$$$$$$$$$$$$&<,>>>>>>>>>>>>>>>>>>>>>>>>>>>>>>>>>>>>>>>>>>>>>>>>>>::>,,>,>>",
"obbkkkkkkh8X$$$$$$$$$$$$$$$$$$$$$$$<<,>>>>>>>>>>>>>:>>>>>>>>>>>>>>>>>>>>>>>>>>>>>>>>>>>>>>>;,:>>",
"4bbkkkkkkk7X$$$$$$$$&*$$$$$$$$$$$$$>>,>>>>>>>>>>>>>>,<<>>6<>>>>>>>>>>>>>>>>>>>>>>>,6<,>>>>>>>>>>",
"4bblkkkklh3@$$$$$$$$$$&$$$$$$$$$$$$>::>>>>>>>>>>>>>><<,<,<>>>>>>>>>>>>>>>>>>>>>>>>>><<,>>>>>>>>>",
"4bblkkkkhl2X$$$$$$$$$$$$$$$$$$$$$$$>>>>>>>>>>>>>>>>>6<>;<>>>>>>>>>>>>>>>>>>>>>>>>>>>:::>>>>>>>>>",
"4bblkkkkhh3X$$$$$$$$$$$$$$$$$$$$$$$>>>>>>>>>>>>>>>>>><,>>>>>>>>>>>>>>>>>>>>>>>>>>>>>>>>>>>>>>>>>",
"+bbkkkkkkk31==$&*$$$$$$$$$**$$=*$$$>>>>>>>>>>,66>>>>>>>>>>>>>>>>>>>>>>>>>>>>>>>>>>>>>>>>>>>>>>>>",
"Obbzkkkkkk3 &=&*$$$$$$$$$$$$=$*$$$$>>>>>>><,<<6>>>>>>>>>>>>>>>>>>>>>>>>>>>>>>>>>>>>>>>>>>>>>>>>>",
"Obblkkkkkk3X$$$$$$$$$$$$$$$#$$$$$$$>>>>>>>6<:::>>>>>>>>>>>>>>>>>>>>>>>>>>>>>>>>>>>>>>>>>>>>>>>>>",
"Obckkkkkkk3X$$#$$$$$$$$$$$$$$$$$$$$>>>>>>>>6>>>>>>>>>>>>>>>>>>>>>>>>>>>>>>>>>>>>>>>>>>>>>>>>>>>>"
};
