/* XPM */
static char *result[] = {
/* columns rows colors chars-per-pixel */
"96 96 80 1 ",
"  c #492513",
". c #4F2913",
"X c #4E2D1B",
"o c #502C17",
"O c #512E1A",
"+ c #4F311F",
"@ c #53311C",
"# c #4F3626",
"$ c #533522",
"% c #583622",
"& c #543826",
"* c #5A3B27",
"= c #523729",
"- c #543B2C",
"; c #593C2A",
": c #533E31",
"> c #583F31",
", c #5C412F",
"< c #564235",
"1 c #5A4334",
"2 c #55443A",
"3 c #5A463A",
"4 c #57483F",
"5 c #5B4A3C",
"6 c #604A24",
"7 c #655422",
"8 c #665821",
"9 c #604331",
"0 c #614937",
"q c #644D3C",
"w c #69503F",
"e c #574740",
"r c #574941",
"t c #5C4D43",
"y c #5A4E48",
"u c #5C5247",
"i c #5D524A",
"p c #604F41",
"a c #615246",
"s c #6A5545",
"d c #61554A",
"f c #6B5749",
"g c #61584E",
"h c #6D5B4C",
"j c #715D4F",
"k c #605650",
"l c #655D55",
"z c #695F54",
"x c #665F58",
"c c #666057",
"v c #6B6155",
"b c #676159",
"n c #6A655C",
"m c #6D685F",
"M c #716151",
"N c #736659",
"B c #776A5C",
"V c #79695D",
"C c #6E6A60",
"Z c #726A61",
"A c #796E62",
"S c #757267",
"D c #7A7264",
"F c #767469",
"G c #7C7569",
"H c #7A786E",
"J c #7E7C72",
"K c #82776C",
"L c #827A6E",
"P c #817D75",
"I c #858176",
"U c #888077",
"Y c #868579",
"T c #89877C",
"R c #89887E",
"E c #8A8780",
"W c #8D8B82",
"Q c #918F87",
"! c #919087",
"~ c #93918A",
/* pixels */
"6,66,76,7676688888888888866666**********,**666666766666666666666666666766666,76666766666,7676666",
"MMMMMMhhMMMhhMhh6,*,qqwqqqqqqqqqwqqqqqqqqqqqq0q0qqqqqwMMMMMMjMMjMMMMMfqq,,,+******@,qqqwMvhMMhMM",
"YYYYYYYYYYYYYYYYYD,qYYYYYYYYYYYYIYYYYYYYYYYYYYYYYYYYYYYYYYYYYYYYYYYYIYYYYYGBhqsMDGYYYYYYYYYYYYYY",
"YYYYYYYYYYYYYYYYYYsqYYYYYYYYYYYYYYYYYYYYYYYYYYYYYYYYYYYYYYYYYYYYYYYYYYYYYYYYYYTYYYYYYYYYYYYYYYYY",
"YYYYYYYYYYYTYYYYYYDqYYYYYYYYYYTYYRYYYYYYYYYYYYYYYYYYYYYYTYYYYYYYYYYYYYYYYYYYYIYYYYYYYYYYYYYYYYYY",
"YYYYYYTTYYYRYYYYYRN,YYYYYYTRYYTRRRRRYYYYYRYYYYYYYYYYYYYYYYYYYTTYRRYYYYYYYYYYhMYTYYYYYYYYYYYYYRYY",
"R!!!!~~~~~~~~~~~~~v,A~!!!!~~~~~~~~~~~~!!RRYYYYYYYYYYYYRR!!~~~!~~~~~~~!!!RW!I,G!!!W!!!!!!!!~~!!!!",
"IIIHIJIJYRWRWWRRRRM,wRRRRRRRRRQRQRRQRRRRRRSSYYYYYYYYBLYRERRRYJIIJJYJJIJJIIIF,AIJPIPPPJIIPPPJJJJY",
"nCnnCnnCmnnmnmnnCnq1nnnnnnnnnnnnnnvnnnnnnn0sYYYYYYTR1ticmnmnmmnmmnmmnmnCnmmn,zCCCCCCCCCCCCCCCCCC",
"nnnCnnnnmnnnnnnnnnu5nnnnnncnnnnnnnnnnnnnnn5sWYYYYYYW9tilnmmnmnnmnmmnnmmnmnmm,vCCCCCCCCCCCCCCCCCC",
"nnnnnnnnnmnmnnmnnn56nnnnnnnnnnnnnnnnnnnnnn5s!YYYYYT~qqikmnmmmmmmnmmnmmnCmnnm,vCCCCCCCCCCCCCCCCCC",
"nCnnCnCnnnnnnmnnnn55nnnnnnnnnnncnmnnnnnnnn5s!!YYYYQ~f5kinmmnnnmnmnmmnmmnnmmm,zCCCCCCCCCCCCCCCCCC",
"nCnnnnCnmmmbmmmmnn5<nnnnnnnnnnnnnnnnnnnbnn5s!!WRYR~~05gicmmmmmnmnmnnmmnmmmnm,vCCCCCCCCCCCCCCCCCC",
"nnnnnnnnbbmmnnnmnC65nnnnnnnnnnnnnnnnnnnnnn5s!!!!W!~W1qiilmnnmnnmmmmmnnmmmnnm,zCCCCCCCCCmCCCCCCnC",
"nCCnnCnnmmbmmmmbnn52ncnnnnnnnnnnnnnbnnnnnn50!!!!~~Qs15iiimnmmmmmmnnmmnmnnmmn,vCCCCCCCmCmmmnnnnnn",
"nnnnnnnnnbmmbbmmnn<8cCcnnnnnncnnnnnnbnnnnn6#B!!!!WK11tkiimmmnnmnnmmnmmnmmnmm,vCCCCCCmmnmnnnmnnmn",
"nnnCnnCnnnnnnnnnnn11nnnnnnnnnnnnnnnnmbnmnn1@*YYYTYL09qikinnnCnCnnCnnCnnCnnCn,znCnnnnnnnnbmnmnmnm",
"nCnnnnnbxnxbbxbnnn10nnnnnnnnnnnnnnnnbmbbnn,@LRYYYYTP1piiilCnnCnCCnCnnCCnCnnC,znnnnCnnCnmmnnnnnnn",
"nnnnnbbbnxbbbnxbbnp1nnnnnnnnnnnnnnnnmbnnnn,9~RYYYYTW05kiikCCnCCnnCCnCnnCnCCn,zCnCnCnnCnnmbmnnmmn",
"bbbnbbbnbbnnnxnxnxp1nnnnnnncnnnnnnnnnnnnnn9q~RYYYTTWa5iikiCnCnCnCnnCnCCnCnnC,znnnnnnnnnnbnnbbcbb",
"nbbbnbnbbnxbxnnbbba1nnnnnnnnnnnnnnnnbmbnnn,s~RYYYYRQ01ikiinbxxcccnCnCnnCnnnC,lnbnbbbbbbbbbbbbbbb",
"bbnbbbbbbnnxnbbxbnq1nnnnnnnnnnnnnnncmbmnnn,q~RYYYYRWq1ikiilcxlccccccnnCnnCCC,gbbbbbbbbbbbbbbbbbb",
"bnbnbbnbxbxnxbbnnbu1nnnnnnnnnnnnnnnnnnnnnn,q~RYYYYRQ02iikikcccccccccccnnnncc,gcbbbbbbbbbbbbbnbbb",
"bbbbnbnbnxnbbnbnbbq,nnnnnncnnnnnnnnnnnnnnn,s!RYYYYRWq>kikiixcccccccccccccccc,ubbbbbbbbbbbbbbbbbb",
"nnbbbbbbbbbnnbbbmbu1nnnnnmbmnnnnnnCcCCnnnn%s!RYYYYEQ0-iiiiicccccccccccccccb5.,bbnbcbbncbbbbbbbbb",
"bbnbnbnbnbbbbbnbbbq1nnnnnbmbnnnncncCnccnnz.1~RYYYTEW0$uikiicccccccccccccccb,.+cbbbcnbbbbbbbbbbbb",
"bnbgadddaaddaadaddq5nnnnnnbmbnnnCcCccnCna@o9!RYYYYEWq$$5iiiicccccccnccq5u5+...+qdadudaaduaucbbbb",
"...o..o.oooooooO&3uu3@oo............o......9~RYYYYEW0$$$&$$$$$@#$$$#$$oo.o......................",
",,<-$$$$@$;-<3uuuuuiuut335uu3#,2255255<,@..9!RYYYYRWq@$$+#,<<3555445555555<5555<<555355,+<<53333",
"uuuuuuauuiuiiuuuuuiauiuiuuiu5#2uuuuuuuuuu$.1!RYYYYRWq@$&5uuuuuuuuuuuuuuuuuuuuuuuuuuuuu4<#2uuuuuu",
"uuuuuuiiiaiuuuuiiiuuuuduuiuut#2uuuuuuuuuu5.9!RYYYYRWq@&uuuuuuuuuuuuuuuuuuuuuuuuuuuuuuuu<#5uuuuuu",
"uuuuiuuuuuiuuiaiuuuiiuuuuuui3#2uuuuuuuuuui.9!YYYYYRW5+5uuuuuuuuuuuuuuuuuuuuuuuuuuuuuuuu<#5uuuuuu",
"uiiiuiiiiuiuuiiuduuuuuuuuuuu5#2uuuuuuuuuuuOw!YYYYYTW$$uuuuuuuuuuuuuuuuuuuuuuuuuuuuuuuuu2#4uuuuuu",
"uuuaiitauuuuuuuuuuiiiuiiuuuu2#1uuuuuuuuuuu@M!RYYYYRW$-uuuuuuuuuuuuuuuuuuuuuyuuuuuuuuuuu2#5uuuuuu",
"iuuuuuuuuaiiiuuiuiuuuuiuuuuu<#2uuuuuuuuuuu@9~WYYYYWW$;uuuuuuuuuuuuuuuuuuuuuuuuuuuuuuuuu2#5uuuuuu",
"iuiuuiiuiiitiaiiuuduuiuiuuuu<,2uuuuuuuuuuu@9~!TYYTWQ$:uuuuuuuuuuuuuuuuuuuuuuuuuuuuuuuuu<#ruuuuuu",
"uyaiiiiuuiuuiiiiiuaiiuiiiuui<=2uuuuuuuuuuuoO~!!RTWWW$1uuuuuuuuuuuuuuuuuiuuuuuuuuuuuuuuu<#5uuuuuu",
"llllllllllllxbxcbbbcbbbbbbbbg#5bbbbbccnccc..T~!~QWWN$1uuuuuuuuuulbxbcxxxbbxxcxxbcccccccu1lxcbnkl",
"bbbbbbbbbbxbbbxxbbbbbbbbbbbbg#4bbbbbbcccvc..j~~~WB0$$<iuuuuuuuubxcbcccxxbbxxcccccccccccu3pbbbbnx",
"bbbbbbbbbbbbxxnxbbbbbbbbbbbb2=#tbbbbbnccnM..@~!RYD$$$>uuuuuuuuibbcxcccnxbbxxccbxccccccu<33lbbbcx",
"3333333333>tttttttttttttytt1####<uquuuuuquo.oIUYYYz$$#:=:::=:::223tttttttyttttttiut31313115ayagd",
"ap3;;>;3325dddddddaigddddidt<22:2uugiiudiio.@RYYYTU$$-=::<:2:#:=:tgdggddgdddgdgigidatttpptagttpd",
"CCCp>>xCCCCCCCCCmCnCCCCCCCCCCCCCnCCCCnCnnn@ofRYYYYT0$2kyyiiiy:#:aCnZCCnnCnCCCCCCmmmmBCmmCCCCnCCC",
"nxxk;anxbxxCxnxxbnnbxxnxbbxncnxbbbnbnbbnnn.oVRYYYYEh$<iyiiiiiy::nbnnxnnnnnnxnxnnnbnbbnbnbbnbnnbn",
"bbbk:kxxbbbbbbbbbbbbxbbbbbbbbbbbbbbbbbbbcc..PRYYYYRK$<uikyikii2:bbbbbbbbxbbbbbbbbbbbbbbbxbbbbbbb",
"bbbx>dxnbxbbbbbbnbbbbbbbbbbbbbbbbbbbbbbnbb.o!RYYYYWU$<iiyyiyiie#bbbbnbbbxxbbcxbbbbbbbbbbbbcxnbbb",
"bbxxpzxbbnbbbbbbxbbbbbbbbbbxbbbbbbbbbbbbbbo*!RYYYYW~#<iikiiyiir:bbbbxbbbbbbbbnbbbbbbbbbbbbbnxbbb",
"bbnxabbbbbbbbbbbbbbbbbbbbbbnbbbxbbbbbbbbbb.9~RYYYTW~<eyikyiiiyyexbbbbbbbbbbbbbbbbbbbbbbbbbbbxbbb",
"bbbbixxnxxbbbbnxbbbbbbbbnbbbbbbxbcbbbbxnblos~RYYYYR~q>iiiiikyky:kbbbbbbbbbbbbbbbbbbbbbbbbbbbbbbb",
"bbbbalbbbbbbbbbcbbbbbbbbxcnbbbbnbnbbbbcbbzoj~RYYYY!~q1iiiiiikyy2ixbbbbbbbbbbbbbbbbbbbbbbbbbbbbbb",
"bbbzilnxbbbbccbbxbxnbbnbbcxxbbbbbbbbbbccbb.j!RYYYYW~5-iiiiiiyye2kkbbbbbbbbbbcbcxbbbbbnxxbbbbnxxb",
"bbbkiaxxbbbbnxnbxnxxbbxcbxncbbbxbbbbbbxnbboj~RYYYTW~N:iiiiiiiy22ikxbbbbbbbbnxnbxbbbbbxnxxnbbbcxn",
"bblyaadxxxxxxccnxnxxxxbbbbxbbbnxbcnxxbbcbc.j!RYYYYR~N,uikyyyy222ykkxnxxxbbccnccnbnxbxxnxbbbbxnxx",
"lgiaiadaggllkldgddgdkkkkggdgggiadiiagaadddOj~RYYYY!~q&errrree2:2:eriaadyaiaaiaaaaaaaadkatppttadd",
"aaaiiaayayyaiaiiyyayayyiyaayyattttuttuyttu@j!RYYYYR~0&22e2222222:e2ettyettttttptttttepp3-;-;;>5e",
"bbnbbbnCnCCnCCnnCCCCCCnCCnCCCCxlllllxbbbcc&j~YYYYYR~q;ukykkkykkydkkCnCnCCnnmnnnCnCnCCnCx>;=5xnnb",
"nnnCxCCxnnnnnnxCxbCxnnbnCbxCxCbxxbxbxbxbcc&9~UYYTTE~0-yiykkkkkkykkibnnxnnxnnxnnxbnbnnxnnk;-nxnxC",
"xxxxxxxxxxxxxxxxxxxxxxxxxxxxxxxxxxxxxxxxxx&9~YYYUPE~$:iiyyykkkkkikkxxxxxxxxxxxxxxxxxxxxxx;1xxxxx",
"xxxxxxxxxxxxxxxxxxxxxxxxxxxxxxxxxxxxxxxxxx$O~TYYTUEQ$=iykykkkkkkkkkkxxxxxxxxxxxxxxxxxxxxxkkcxxxx",
"xxxxxxxxxxxxxxxxxxxxxxxxxxxxxxxxxxxxxxxxxx%.WWYYYYQL$-iiyyyykkykikkkxxxxxxxxxxxxxxxxxxxxxklcxxxx",
"xxxxxxxxxxxxxxxxxxxxxxxxxxxxxxxxxxxxxxxxxx%.KQTTYR~V$-yyyyyykykkkikilxxxxxxxxxxxxxxxxxxxxkkcxxxx",
"xxxxxxxxxxxxxxxxxxxxxxxxxxxxxxxxxxxxxxxxxx&oN!QTR~~f$-yyykykkkkkkikkkxxxxxxxxxxxxxxxxxxxxkkcxxxx",
"xxxxxxxxxxxxxxxxxxxxxxxxxxxxxxxxxxxxxxxxxx%.f~~~~~~1#-yykyyykkkkkkkkklxxxxxxxxxxxxxxxxxxckkxxxxx",
"xxxxxxxxxxxxxxxxxxxxxxxxxxxxxxxxxxxxxxxxxx%o*!~~~~T$=:ykyykyykykkikkkkxxxxxxxxxxxxxxxxxxciixxxcl",
"xxxxxxxxxxxxxxxxxxxxxxxxxxxxxxxxxxxxxxxxxx%.oR~QQTD$$;uyyyyyykkkkkkykkxxxxxxxxxxxxxxxxxxxiixxxxx",
"xxxxxxxxxxxxxxxxxxxxxxxxxxxxxxxxxxxxxxxxxx%.oPTUYYD@$;yiyyykyykykikkkkxxxxxxxxxxxxxxxxxxkiikxxxx",
"kkgkkkkgllllllllllllllllklt511>135pakkggkd$.;RYYYYT&$:422e:eeeeeeeeyyixxxkkxxxxxxxxxxkkkiiiikxxx",
"e;;;;;;;tyddaydyydyaddyddy>3>111>3>>111111o.jRYYYYWs$#=::=:=:==:#:#:eyiyiiiyiiiiiyiiiiiyiyiiiiii",
"Cna>;:pgxnxxxxxxnxxxnxxxnxllllladdddfdgadg$.KEYYYYWA$:2eeeee:==-=2riyyiiykxxCCbCCCbCCxxxxxxxCCxx",
"CNng;annxCCNCnCCnCnnNCnCCnnnCnnCxCCnnnnnnN@.~TYYYYWP$>yyyyyyye:-riiiiiikbCCCbbCCbCCCxCCCCCCCCxxC",
"llxxagzxxxxxxxxxxxxxxxxxxxxxxxxxxxxxxxxxxx.%~TYYYYW~$>yyyyyyyye:iiiiiiikxxxxxxxxxxxxxxxxxxxxxxxx",
"xxxxxxxxxxxxxxxxxxxxxxxxxxxxxxxxxxxxxxxxxxO9~EYYYYW~>>yyyyyyyyyeiiiiyiiixxxxxxxxxxxxxxxxxxxxxxxx",
"xxxxxxxxxxxxxxxxxxxxxxxxxxxxxxxxxxxxxxxxcc&s~TYYYYW~q>yyyyyyyyyyiiiyiiiikxxxxxxxxxxxxxxxxxxxxxxx",
"xxxxxxxxxxxxxxxxxxxxxxxxxxxxxxxxxxxxxxxxxc&j~TYYYYW~p>yyyyyyyyyyiiiiiiiikxxxxxxxxxxxxxxxxxxxxxxx",
"xxxxxxxxxxxxxxxxxxxxxxxxxxxxxxxxxxxxxxxxxx%j!RYYYTW~51yyyyyyyyyyiiiiiyiiixxxxxxxxxxxxxxxxxxxxxxx",
"xxxxxxxxxxxxxxxxxxxxxxxxxxxxxxxxxxxxxxxxxx@j~RYYYTW~q>yyyyyyyyyyiyiiiiiiyxxxxxxxxxxxxxxxxxxxxxxx",
"xxxxxxxxxxxxxxxxxxxxxxxxxxxxxxxxxxxxxxxxxloj~TYYYYW~q1yyyyyyyyyyiiiiiiiiikxxxxxxxxxxxxxxxxxxxxxx",
"xxxxxxxxxxxxxxxxxxxxxxxxxxxxxxxxxxxxxxxxxg.j~YYYYYR~q1yyyyyyyyydiiiiyiiyikxxxxxxxxxxxxxxxxxxxxxx",
"xxxxxxxxxxxxxxxxxxxxxxxxxxxxxxxxxxxxxxxxx%.j~YYYYYT~q>yyyyyyyyyyyiiyiiiiiixxxxxxxxxxxxxxxxxxxxxx",
"xxxlydxxxxxaaydxxxxxxxxxxxxxxxxxxxxxxxlp&.o0~YYYYYR~;<r422e22222iiiiiiiiiikxxxxxxxyiuyyxxxxxxxxx",
".X...X.o.o...o..*axxba;O....o&&%%&%$@o.....9~TTYYYE!$O                    +=ucbi;o..............",
"qqqqqqqq0qaqqqpppqhgbqqqqqqaqqqqppaqvvhq@X.@~RIYYUQP$=::><>11<111<11<111<<3qabc,;;;;;;;;;;;;;;;;",
"FFFFFFFFFFFFSFFFFFvsFFFFFFFFFFFFFFFFDFFFF1..TQYYYY~V$1diklzxllllllllllblllBFFncDFFSSFFFFSFFFFFSF",
"FFFFFFFFFFFFFFFFFSNaFFFFFFFFFFFFFFFFFFFFFA..L~WTT!~f$-idlxllllzlllzllllllcnFFncFFFFSFFFFFFFFFFFF",
"FFFFFFFFFFFFFFFFFFnaDFFFFFFFFFFFFFFFFFFFFF*.j!!!~~~1$-diglzlllzlllllllllllnDFncFFFFFFFFFFFFFFFFF",
"FFFFFFFFFFFFFFFFFFMsAFFFFFFFFFFFFFFFFFFFFF;.q~~~~~T$$-dikzlllzlllzlzzlzllcmFFncDFFFSFFFFFFFFFFFF",
"FFFFFFFFFFFFFFFFFFnaZFFFFFFFFFFFFFFFFFFFFF*.@!~!QWK@$;aakzzlzlllzzllbzllllmFFgcFFSSSFSSFFFFFFFFF",
"HHHHHHHHHHHHHHHHHHNaFJJJJJJJJJJJJJJJJJJJJJ...ITYYYD$$>klnnnnnnnnnnnnvnnnnnBSggcHJHJHJHJFHHHHHHHH",
"TYYYYYYEYYYYTTYYYYBsYYYYTTYYYYYYYYUYYTYYYY..@TYYYYI@$,CZZCZZZCZZZZNZZZZZmncgggnYTTTYYYYYYTTYYYPE",
"mmCmCCCCCmCcxxccccgaxclccclclbxxclcclxlclz..wTYYYYQq$;44ugggggggglllkllkgggggggcxxxcxcbmCCCCCCCC",
"ccccccxxccccxcccccfallclcclllclxlblcxclllc..MRYYYYWM$=44uiggggigggggggggggigiggcxlccccccxxccxxxx",
"cccccclxccccxlccccfacclcccccclxlblbcllcclc.oLRYYYYWP$;44uiggggggggggiggggggggggcxxcccccclxcccxxx",
"clccccccccccccccu,@X,accvlllclblzlllblzlb3oo~TTYYYQQ$:44tikggiggggggggggigigu1&1kccccccccccccccc",
"aulcccccgaa51;@.o.....X%11aauua5111,$&$%@oo@~RYYYTR~;=&--;$$$;1<1-15t531,,&@o.o..$1tdcccccccccgu",
"..............................oo....oo.....9~TYYYYW~q@......................o...................",
"...........................................w!TYYYYW~z$.........................................."
};
