/* XPM */
static char *result[] = {
/* columns rows colors chars-per-pixel */
"96 96 69 1 ",
"  c #492513",
". c #4F2913",
"X c #502D17",
"o c #512F1A",
"O c #4F311F",
"+ c #52311C",
"@ c #4F3423",
"# c #533421",
"$ c #563927",
"% c #5A3B27",
"& c #543B2C",
"* c #5A3C29",
"= c #533E32",
"- c #5D402E",
"; c #564134",
": c #5A4434",
"> c #55443B",
", c #59473B",
"< c #57483F",
"1 c #5C4A3C",
"2 c #604A24",
"3 c #604533",
"4 c #624936",
"5 c #634D3C",
"6 c #5C4E42",
"7 c #5A4E48",
"8 c #5C5247",
"9 c #5E534B",
"0 c #654F40",
"q c #615246",
"w c #695544",
"e c #62564B",
"r c #6C5749",
"t c #61584E",
"y c #6B5C4D",
"u c #705C4E",
"i c #605751",
"p c #655D54",
"a c #685F56",
"s c #665F58",
"d c #666057",
"f c #6D6356",
"g c #676159",
"h c #6B655D",
"j c #6D685F",
"k c #716152",
"l c #74665A",
"z c #766A5B",
"x c #786C5F",
"c c #6E6A60",
"v c #716A61",
"b c #7B6F62",
"n c #747166",
"m c #7B7365",
"M c #767469",
"N c #7A746B",
"B c #7A786E",
"V c #7D7970",
"C c #80756A",
"Z c #817C6F",
"A c #827D74",
"S c #838074",
"D c #888077",
"F c #868579",
"G c #89867C",
"H c #8A887E",
"J c #8D8B83",
"K c #918F87",
"L c #94928B",
/* pixels */
"*FFFFFFFFFZk554%&$$-%%-+-%%%%%%%%%%%%%%%**%%%%%%%%%%%%%%%%%%%%%%-+-%%%2%%-+-$%%%%%%%%%%%%%%%2222",
"*FFFFFFFFFFFFFFFFFFFFFFBmmmxkk552%%%%%%-55kkkxmmmmmmmmmmmmmmkkukddkkykykuukxMnmmk5%%%3kmmlkkkkkk",
"*FFFFFFFFFFFFFFFFFFFFFFFFFFFFFFFFAmkzmFFFFFFFFFFFFFFFFFFFFFFFFFFFFFFFFFFFFFFFFFFFFm43SFFFFFFSFFF",
"*ZFFFFFFFFFFFFFFFFFFFFFFFFFFFFFFFFFFFFFFFFFFFFFFFFFFFFFFFFFFFFFFFFFFFFFFFFFFFFFFFFFSzFFFFFFFFFFF",
"*mFFFFFFFFFFFFFFFFFFFFFFFFFFFFFFFFFZFFFFFFFFFFFFFFFFFFFFFFFFFFFFFFFFFFFFFFFFFFFFFFFFFGFFFFFFFFFF",
"*mFFFFFFFFFFFFFFFJHHHHHHGGFFFFFFFGk5HHHHHHHHHHHHGGHHHHHHFJFJGGHHHHHHHHFFHFHHHHHJHHGHGGFFFFFFFFFF",
"*xFFFFFFFFFFHKKLLLLLLLLLLLLLLLLLLL5zLLLLLLLLLLLLLLLLLLLLLLLLLLLLLLLLLLKLLLLLLLLLLLLLLLLLLLLLLLLL",
"*kFFFFFFFFZxmNSSAAASVSSZBmMMMMMMMm15MNNNMNMBMBMMmMBMBMNMMBFVSSSSSSSSSFSSSSSSSSAASSSxfjjjnMMMMMMB",
"-kFFFFFFFFx:etjhjhjhjjjhjjhjjjhjjj15ccccccccccccccccccccccccccccccccccccccccccccccj-5hhhhhhhhhhh",
"%kFFFFFFFJx-99hjhjhjjhhjhhjhhhjhjh15ccccccccccccccccccccccccccccccccccccccccccccjjd;1hhhhhhhhhhj",
"%5FFFFFFFLx399djhjhjhjhhjhjjjhjjjh45cccccccccccccccccccccccccccccccccjhjgjhhghcgjjg:5hhhhjjhhhhh",
"25FFFFFFKLx:e9pjjhjhjhjjhjhjhjhjjh15cccccccccccccccccccccccccccchhhhhhhhgjhhhjgjhgj-1hhhhhhhjhhh",
"%5GDFFGKLLz399pjjhjjjhhjjjhjhjjhhj54jjcccccccccccccccccccchhgchhhhhhhhhjjchjcjghhhh-1jhhhhhhhhhh",
"%4KKHKLLLL5:999jhjhjhjjhjhjhjhhjjh15cccccccccccccchcchhhhhhhcghhhhjhhhhhjgjggcchhhh:1hhjhjjhhjhh",
"**ZLLLLLLk3-999ghjhjjhhjjhhjhjjhhh55cccccccjjjjjhhhhhhhhhhhhhhhhhjhhhhhhjjjgjggjhhh-1hhhhjhhhhhj",
"*%uLLLLHH:::999djhjjhjjjhjhjjhjjjj14cccjjjjjjhjghhhhhhhhhhhhhhchhhhhhjhhhgjjcgchjhh-4jhhhhhhhhhh",
"**3HGFFFFy:3e99phhhjjhjhhjjhjhjhjj55hjhhhhhhhhhhhhhhhhjhhhjhhhhhhhhchhhhchhhgcjhhhf;1jgjhhhhhhhj",
"**uFFFFFFJ0:999thcjhhjhjjhhjhjhjhc15hjhhhjhhjhhhhjjhhhhhhhhhhhjhjhhhhhhhhhhhcggchhh-1gjjhhjhjhhh",
"*%CFFFFFFJz:9t99hjhjhjjjhjjhjjhjjj11hhhhhjhjhhhhhhhhhhhhhhhhhhhhhhhhhhchhhhchjjhhhh+1fhgggghghhh",
"**DFFFFFDKm*9999shjhjhjhjjhjjhjhjh11hhhhhhhhhhhchjhhhjhhjhhhhjhhhhhjhhhhhhhhhcgcjhj+1ggghghggggh",
"25FFFFFFFJC#9999pgddddgghjhjjhjjhj11hhhhhhhhchhhhhhhhhhhhhhhhhhhhhhhhhhhhgcgjgcghhp+;gggghgggghg",
"%wFFFFFFFJN*999ttddddddgddghhjjcjh41dhddddddggddgggggdggdgggdgddggdddgdgggggggggdde+-ggggghghggg",
"*uFFFFFFFKB#t9999dddddddddddddhghd55ddhdddddggggggggggggggggggggggggggggggggggggdht+-ghghgggggdh",
"*kFFFFFFFJC$99999pdddddddddddddddd51hdddhdhdggggggggggggggggggggggggggggggggggggddd+-gggggghggfd",
"*kFFFFFFDKC+89t99tddddddddddddddddXXdddgddddddggggggggggggggggggdddddhggggggddddggg+-ggghdhhdghd",
"*kFFFFFFFHk+&t9999ddddddddddddddd1..1dgghddhdhddgggggggdggddggggddhdddgdgggghhddggd+-dgggddgghdh",
"%kFFFFFFDKk##&6998eetet9ggdd81:,-....;5t1:;,,,:::1::::,;,,::::1:::,,,:1::1::;,,:::1;-:11eee8eqtd",
"*kFFFFFFFKk###+##+##+$+@#+#+X..X..........XX.........XXX....X......X............X#1888;$......X.",
"*kFFFFFFFJk###+$&:,<1188888888888888188888888<O@888888888888888888888888888888<,888888881,o..XXO",
"*kFFFFFFFJk###,8888888888888888888888888888888O;8888888888888888888888888888888888888888888;...:",
"*5HGFFFFFJk##68888888888888888888t888888888888O;88888888888888888888888888888888888888888888;.X1",
"*5GGFFFFFHk#=888888888888888888888888888888888O;888888888888888888888888888888888888888888888OO8",
"*5FFFFFFFJk#<888888888888888888888888888888888@;788888888888888888888888888888888888888888888;+8",
"*5FFFFFFFJk+8888888888888888888888888888888888@@888888888888888888888888888888888888988888988,+8",
"*5FFFFFFHJf+8888888888888888888888888888888888@;888888888888888888888888888898888888888888888<O8",
"-5FFFFFFJJfO8888888888888888888888888888888888@;888888888889888888898888888888888888888888888-O8",
"*5GFDFGJJJr#8888888888888888988888888888888888O;888888888888888888888889888888888888888888888$.9",
"*3DHJJJJJA$#8888888888pdgggggssdggggddddddgddd:1ddddhdggggggggghggggggdggggggggggggghggdggggg,:s",
"%%5HJJJZ5###888788888pddssggsgssggggdgddddddd9:1ddhhdgggggggggggggggggggggggggggggggggggggdss::t",
"--5GFFDF:###888788787ddsssssgsgsddgdgdgddddpt11:8dddddgggggggggggggggggggggggggggggggggggggp,:;0",
"%%zFFFFFS$++&&&&&&&&&;>>66666666888<887881,:::,:,0888q888888888507866e8qe666608q88888888806:*:;:",
"%-ZGFFFFFr$+;>=>>>>;@;&>eeteettpiddtidtpttt9eyeeeeeteeee9ppdtpd9t66e66666qi9pppppp9899eeeeteeeeq",
"%*GHFFFFFm##89988977;&>gcccvccccjcjjhcccjjccjjjchjjjhljjccchjjjjchse06epgccchcjhhccccccchchhcccc",
"*5DDFFFFFF##999979i7>&8dgssgssssddddgggggggdgggggggggghhhgghhghgfggh99sggsggggggggggggggggggsssg",
"25FFFFFFFL-+99999999<&7dggggggggddggggggggggggggggggggggggggdgggggggt6gggggggggggggggggggggggggg",
"%kFFFFFFFL1+979979977&9dgggghggghdggggddggggggggggggggggggggggggggggeqgggggggggggggggggggggggggs",
"*kFFFFFFFLt@999999998>ihggggsgggddhgggghgggggggggggggggggggggggggggge6gggggggggggggggggggggggggh",
"%kFFFFFFFLl@977999999>9dgggggggghdddgggggggggggggggggggggggggggggggst6gggggggggggggggggggggggggg",
"-kGFFFFFFLC+q999i7979>7ssggggggggggggggggggghsssgggggggssgggggggshsseegggssgggggggggggggggggggsh",
"%uFFFFFFFLZ%e9797i7i7>9issggggggggggggggggggsshhggggggghggggggggshshqessghggggggggggggggggggggsg",
"*kFFFFFFFLZ+9799i7977>7isgggggggggggggggggggsgssggggggggggggshggssss,,shgggggggggggggggggggggggg",
"*kFFFFFFFLZ+99997i7i<>79igggggggggggggggggggggshggggggggggggggggssss&*ssgggggggggggggggggggggggs",
"*kFFFFFFDLA#9999797>>>>7igsssgsggsggsggggsssssssgggggggggggggggghss0*&,sggsgggsgggggasssgsggssss",
"*kFFFFFFDLA#>,66>>>>=>>>777qqq7qeqeqqeqqeeqqqq:::::,6066866666083:=&*&&&,ttttttetttttttttttteett",
"*kGFFFFFFLV#7===>>>>>>>>=766066666616666066666&&**&&111611,1,611&&&&*&==:9e7q9e989eq99e7q70q6,66",
"*5DFFFFFFLb@7iiiii7ii7iiigchcchhhchhhhhhchhhcc0*&:phhhhghhhhhgcghhshhhhchhhhhhghhhhhhhhhhchhs0,q",
"*5FFFFFFFKl#9e79iii9ii79ishsghghghghghhgshhshhs=&9cgsscsghsghscshggghghsggscsshsshshshshghshst,s",
"*5FFFFFFFKy#77777i9ii9iiiisssssssssssssssssssss6&9ssssssssssssssssgsssssssssssssssssssssssssse6s",
"*5FFFFFFFL1#99e779iii9iie9sssssssssssssssssssssp7sssssssssssssssssssssssssssssssssssssssssssse6s",
"-5FFFFDGJL-#779777999iiiiipsssssssssssssssssssspesssssssssssssssssssssssssssssssssssssssssssse6p",
"-5GGAGGAKL##979979iiiiii9iissssssssssssssssssssp7sssssssssssssssssssssssssssssssssssssssssssst6s",
"%5FDJAGKLA##7997979i99i9i99sssssssssssssssssssssessssssssssssssssssssssssssssssssssssssssssss91g",
"%4LKKKLLLk##9779979ii9ii9i9psssssssssssssssssssi7sssssssssssssssssssssssssssssssssssssssssssst1g",
"%*ZLLLLLL0##79797979ii9iiiiisssssssssssssssssssp7sssssssssssssssssssssssssssssssssssssssssssst:s",
"-%rLLLKHJ###77979799iiiiii9isssssssssssssssssssi7psssssssssssssssssssssssssssssssssssssssssss6#p",
"*%4GGDFFF*##97777979997i7i97ssssssssssssssssssp77isssssssssssssssssssssssssssssdsssssasssssss*#9",
"**zGFFFFFk##>>>>>>6=>>>>7>>7iiisspppppspsspppi97q9eippppppppsppp9iiitppppppppppppppppppppspe:##*",
"*%ZDFFFFDC##=&&&=&&=&&==&&>79999i7777iie79777i9779799979979979977060666616661616166166161*##$#$#",
"-3FFFFFFGL##>>67>>==&@==6797999ipsschcchccchhsshsshccccsvchhccccvhde6660qpagdggadgpptyptsscvccpi",
"%5FFFFFFAL:#77777777===7799999shhhchhhhhcshhhhhhchhchhscschhscsshhhhq1tghhfhhhhhhhhhhhhhccshhshh",
"*kFFFFFFJLr#777777777=77999997psssssssssssssssssssssssssssssssssssssq6gsssssssssdsssssssssssssss",
"%kFFFFFFALl#777777777>77999979issssssssssssssssssssssssssssssssssssd86ssssssssssgassssssssssssss",
"*kGFFFFFHLz#7777777777967999869sssssssssssssssssssssssssssssssssssss86ssssssssssssssssssssssssss",
"*bFFFFFFHLA+7777777777999998999sssssssssssssssssssssssssssssssssssss06ssssssssssssssssssssssssss",
"-kFFFFFFGLZ#7777777777898899999pssssssssssssssssssssssssssssssssssss66ssssssssssssssssssssssssss",
"%kFFFFFFDLA#77777777779999797999sssssssssssssssssssssssssssssssssssse6ssssssssssssssssssssssssss",
"%kFFFFFFGLA+qq7777777799897e9999ssssssssssssddgsssssssssssssssssssssp6ssssssssssssssssssssssssss",
"%kFFFFFFFLZ#77777777779999979898psssssssssssdddgssssssssssssssssssssssssssssssssssssssssssssssss",
"%rFFFFFFFKk#77777777779999899998isssssssssssddddssssssssssssssssssssssssssssssssssssssssssssssss",
"24FFFFFFFKz+6=>>>>>>>>6996998979tssssssse8qq8tddssssp7qqi07qqqqiqe098qpsssstqqqsssssssssqqqqqsss",
"-5FFFFFFFLw#                    .O;ddd:X.... ..................................X+=rsd8*......X..",
"*5FFFFFFGL:#;&&::::=::;::;::;::;;55dd;%--$%----O%-$--$&-*******&%-$-$-&*****%**&&*=ijy55555q5555",
"*5FFFFFFJL+#999ppaspdpdppppdapppdMMc9cMMMMnMMMMMnMMMnnMMMMMMMMMMnMMMnMMMMMMMMMMMMMmyfMMMMMMMMMBM",
"25FFFFFHLZ$+9eepappspapapsapppspdMMntnMMMMMMMMMMMMMMMMMMMMMMMMMMMMMMMMMMMMMMMMMMMMNyfMMMMMMMMMMM",
"*4KKJJLLLl+#e99spapsppappsspddpddMMm9cMMMMMMMMMMMMMMMMMMMMMMMMMMMMMMMMMMMMMMMMMMMMMyfMMMMMMMMMMM",
"**HKLLLLL5##9eepsppspappppppppdpdMMctnMMMMMMMMMMMMMMMMMMMMMMMMMMMMMMMMMMMMMMMMMMMMNtfMMMMMMMMMMM",
"*%uLLLKKH###eeedpppsdpppdpssppppdMMhtnMMMMMMMMMMMMMMMMMMMMMMMMMMMMMMMMMMMMMMMMMMMMMwfMMMMMMMMMMM",
"*%-KHGFFF%##ttpghhlfhhlhlhflhhhlfnht9nBBBBBBBBBBBBBBBBBBBBBBVMVBBBBBBBBBBBBBVMVBBBBylBBBBBBBBBBB",
"**wFFFFFFw+#vvvvvvvvvvcllcvvvvvfdp9ttZFFFFFFFFFFFFFFFFFFFFFFFFFFFFFFFFFFFFFFDFFFFFSkvFFFFFFFHFFF",
"%*CFFFFFGk##<<<qttttt9pdpsppptti9dp99dddsssdsdgdddddgdggddgdggddddddddggdddddgddgddweggddjjjcccc",
"*3DFFFFFFC##<<<9ttt9ttttttttttttt9tt9dddsgddgsddddddddgsddddddddddddddgsddddddddgddqeddddddddpss",
"*rGDFFFFFS##<<<9p9ttttt9tt9tttttttt9tddddddddddddddddddddddddddddddddddddddddddddddwrddddddddsss",
"*zFFFFFFFH##<,<99ttteetttptttttt9tt5**qsdddddddddddddddddddddddfddddddddddddddddd8*O+5ddddggdddd",
"*CFFFFFFFL##&&&-:#$;;;-;:1116,&:&#.....+&,q8yddpqq81;;::%+::::::1qqq88q88qqq::$o.......#:88tddt8",
"*FFFFFFFFL++..................X...........X.....X...........X...................................",
"*FFFFFFFFL#O...................................................................................."
};
