/* XPM */
static char *result[] = {
/* columns rows colors chars-per-pixel */
"96 96 83 1 ",
"  c #4F2913",
". c #502B14",
"X c #512E19",
"o c #55321C",
"O c #523F1E",
"+ c #543523",
"@ c #583722",
"# c #553B24",
"$ c #5A3B27",
"% c #563C2B",
"& c #5A3D2B",
"* c #444610",
"= c #4B4317",
"- c #4E431B",
"; c #5E4A17",
": c #635418",
"> c #675D19",
", c #6A631B",
"< c #6F6E1D",
"1 c #72751B",
"2 c #5D4226",
"3 c #57402F",
"4 c #5E432F",
"5 c #5D4B2D",
"6 c #574233",
"7 c #5B4434",
"8 c #594638",
"9 c #5B493C",
"0 c #604A24",
"q c #635123",
"w c #665821",
"e c #695F20",
"r c #62512E",
"t c #614634",
"y c #614837",
"u c #644E3D",
"i c #675F30",
"p c #60503E",
"a c #605D3B",
"s c #6B5C39",
"d c #6E6D21",
"f c #737328",
"g c #76782D",
"h c #5D4E42",
"j c #5C5247",
"k c #5E5348",
"l c #604E41",
"z c #625244",
"x c #685444",
"c c #6B5847",
"v c #61554A",
"b c #62584E",
"n c #6B5B4C",
"m c #645C53",
"M c #685F53",
"N c #665F58",
"B c #68644C",
"V c #666057",
"C c #696156",
"Z c #676159",
"A c #6A655C",
"S c #6C685F",
"D c #706051",
"F c #736759",
"G c #716A5E",
"H c #6E6960",
"J c #736E62",
"K c #796E61",
"L c #726E69",
"P c #747166",
"I c #7A7264",
"U c #767469",
"Y c #7D766A",
"T c #7E7C72",
"R c #817C6F",
"E c #817D70",
"W c #82806F",
"Q c #848275",
"! c #868579",
"~ c #89877F",
"^ c #8D8A82",
"/ c #908E86",
"( c #93918A",
/* pixels */
"000000$$$$$$$$$20qd<111111:.... ........O 5!!!!!!!!!r@+oo$$$$$$$$$$2==****=##-0>0000000000000000",
"uuuursuuuuuuuuuursuysf111<... ......$tcGJPW!!!!!Q!!!Wio+o$$$$$&$$$$$$$$O-aDDDDDDDDDDDDDDDMDDDMDD",
"!!!!!!!!!!!!!!!!!!!!!Qg1fFGGGGPQQ!!!!!!!!!!!!!!!!!!!!!QWIIR!WRIFBxa2$$$&5I!!!!!!!!!!!!Q!!!!!!!!!",
"!!!!!!!!!!!!!!!!!!!!!!RrcGGGSJQ!!!!!!!!!!!!!!!!!!!!!!!!!Q!!!!!!!!QQ!!IIE7K!!!!!!!!!!!!!!!!!!!!!!",
"!!!!!!!!!!!~!!!!!!!!!!Y7cHHJJQ!!!!!!!!!!!!!!!!!!!!!!!!!!!!!!!!!!!!!!!!!!xF!Q!!!!!!!!!!!!E^!!!!!^",
"!!!!!!!!!!!~!!!!!~!!!!Y7uSHHQ!!!!!!!!!!!!!!!!!!!!!!!!!!!!!!!!!Q!!!!!!!!!xD!!!!!!!!!!!!!!^E!!!!!E",
"///~(~((~~~(~((~/~////^7K^(/((((((((((((((((((((~(((((((((((((((((((((((cF/////^///////////(////",
"~~(((((~~~~~~~~~~~~~~!~7K^^^^~~~~~~~~~~~~~~~~~~!~~~~~~~~~~~~~~~~~~~~~~~!cF~~~~~^~~~~~~~~~~^E^^!^",
"SAAAASASRDSAAASSSSAASAS5BAASSASSFSAASSBSAASSSBSSSASASBSSSSASSSASSSSSASASlxASAAAHAASAAASGAAAHAHAH",
"AASSSASAFFGASSSASSSAASS8vSSAASASSSASSSSSSSSAASSSASASSSSSSFASASBSSBSAASSSuvAAAHAAGASASAAAAHAAAHAA",
"SASASBASSSAASSASBSSASAS5BSSAASSCASASSSBSSBSAASSASAAASASSSAAAAASSASSSSSBSlvHAHAAAFAASHAAAAHAHAAAG",
"ASSSSSSSFSASSSSBSASSASA5BSAASASFSSFASSSSSSASSSAAASSASSSSASSASSSSSSAASASSucAASAHAASAAAASHAAAAAHAA",
"SASASSBSASASAASASAASSAS7mSSASASSASSSBSSASSSASSASSASBSASBSSAAAASASAASASASucHAAAAASASAAGAAHAAHAASA",
"ASSSSSSSSASSSASAASSAASS7mSSSSASAAAASSSSAASASSASSASSSSASSAASSSSASAASASASA9vAAHAHASAAAAAAHAAAHASAA",
"ASBSSSBSSASSASSAAAASFSS4BSCSASSASASASSASSSAAASBSASSSASSSSSSASBSAASSSASASuvHAHAHFAASSAAHAHAHAAASH",
"SSSSSSSASSBSSSASSASASAS7mASSSAAAASASSAASAAASSASSSAASSSSBSASSSSASASASSSAAuvHAAAAAASAAHAAAAAAASAAA",
"ASSASAASSASASAASSASASAA5MSASSASSSAHAHAAHAAAAHAHAAASSSASSSSAASSASAASSSASA9cSAAASAHZHZHZHHZHHAZHZH",
"SASAASAAASASSSAASSASASApMSZAAZAAAAZAAAAHSAHAAAAHSSSAASSSAASAASASHASASSSApvAAAAAAZHZHZHZZHAAHHAHA",
"ASSSSSSSSSSAASSASASSSSbo9ZANZAZZZZAZZZZZAZAAAAAAASBSAAAASAASASSBHAHAASSSjpAVZAAZZZZZZZZHZZHZZAZH",
"BAVAVZABZZZACACACAAAZAbo9ANAZZZAZZZZZAAZVAZZZAZHVAASAAAAAAAAASSSAAZHAAAA78VAAZZZNHZHZZZZZZZZZZHZ",
"ZZZZZAVAANANZZZAZAAZZZbo9AANAZZAAZAZZZZZAZAZZZZZAVZZAZVAZZVAAZAZZHZZZZHZ29ZZAZZAZZHNZZZNZZZHZZZZ",
"AZAAAVAVNANAAAZZZZZZZAbXlNNAZAZZZZAZAZAZVAAZHZZZVAAZAZAVAZAVBZAZZZZZZZZZ$8AZZZAZZZZZNHZHAZZZAZAZ",
"ZZZZVAVAAZZAZZAZZAAZAZvovAAZZAAZZZZZAZAZAZZZZZZAVAZZZZAAZZZAZAZZZZZZZHZZo9ZZAZSZZZZHZZHZZZZZAZAZ",
"AZAZAZAVNAZZZAZZZZVAVZbXbZZAZZZZAZAZZZZZZZZAAZZZAVZAAZZZZAZAZZZAZHZZZZZkX9ZZZZZZHZZNZZNZZHZZZZZZ",
"ZAZZZZZZZHZZZZAAZZZAZAbokZAZAZZAZZZZAAZZAZZZZAAZHZZZZZZZZAZZZZHZZZZZZZZ6X9ZZZZZZNZNZZHNZZZAAZZZA",
"ZZZAZZHZZZZZZAZZAZZZZZvobZAZZZAZAZZZZZHZZZAZZZZZZZZZHAZZZZZZAZZZZZHZZZm89jZZZHZZZZHZZZZZAZZZZAZZ",
"ZZZZZZNNkkkkkkjjzzvvkvhXvZZZZZZZZZZZZZZZZZZZAZZZZZVVZZZZAZZZZZZZZZZHZmjjjjkbkkkkbjkkvvbNZZZNZZZZ",
"   X       X    .....#8j8  .    X   X     X   .  +%++%++##%+%+#%+68kkkjjjjj%               XX   ",
"686633-6+++++X++%%89jjjjjh%%%6%+    +6888h88888h88988633%3%6%688jjjjjjjjjjjj8%%%+     o%%%%%%8h6",
"jjjjjjjjjjjjjjjjjjjjjjjjjjjjjjjj8  +jjjjjjjjjjjjjjjjjjjjjjjjjjjjjjjjjjjjjjjjjjjjjj+  6jjjjjjjjjj",
"jjjjjjjjjjjjjjjjjjjjjjjjjjjjjjjjj% hjjjjjjjjjjjjjjjjjjjjjjjjjjjjjjjjjjjjjjjjjjjjjj8 +jjjjjjjjjjj",
"jjjjjjjjjjjjjjjjjjjjjjjjjjjjjjjjj8#jjjjjjjjjjjjjjjjjjjjjjjjjjjjjjjjjjjjjjjjjjjjjjjh+%jjjjjjjjjjj",
"jjjjjjjjjjjjjjjjjjjjjjjjjjjjjjjjj8%jjjjjjjjjjjjjjjjjjjjjjjjjjjjjjjjjjjjjjjjjjjjjjjh+6jjjjjjjjjjj",
"jjjjjjjjjjjjjjjjjjjjjjjjjjjjjjjjj8+jjjjjjjjjjjjjjjjjjjjjjjjjjjjjjjjjjjjjjjjjjjjjjjj+8jjjjjjjjjjj",
"jjjjjjjjjjjjjjjjjjjjjjjjjjjjjjjjj8%jjjjjjjjjjjjjjjjjjjjjjjjjjjjjjjjjjjjjjjjjjjjjjjj%8jjjjjjjjjjj",
"jjjjjjjjjjjjjjjjjjjjjjjjjjjjjjjjj8+jjjjjjjjjjjjjjjjjjjjjjjjjjjjjjjjjjjjjjjjjjjjjjjh+8jjjjjjjjjjj",
"jjjjjjjjjjjjjjjjjjjjjjjjjjjjjjjjj8%jjjjjjjjjjjjjjjjjjjjjjjjjjjjjjjjjjjkljjjjjjjjjjj+8jjjjjjjjjjj",
"NmmNmNNmNmmmNNNmNNmNNNmmNNmNNmmmmj+jmmmNmNNmNNNNNmmNmNNNmmNVVNmmNNmNNNNNNNmNmNmNmmj%jmmmNNNmmNmN",
"ZZNNZZZZZZZZNNNNZZNNZZZZZZNNNANAN6%jZZNNZZZZNNZZNZZZNZZZNZZZZZVZZZZZNNNNNNZZNZZZNNh+jNNNZZZZNNZZ",
"ZZZNZZZZZZZZNANAZNNNZZZZZZNNNANAj+%8ZZZZZZZZNNZZNZZZNNZZZZZZZZZZZZZNNNNNNNZZZZZZZj%%%NNNZZZZZZZZ",
"jjbjbjkkvjvvvvjkjjjbjkkbkvkh&8%%%+%+%hkkbkbkvvvkkkbkkbkkjjjbjbbjbvvvvbbvjbvvj&8&6%%+%%%jbbmbbmbb",
"mjjjjjjjjjjhzvmmNNmmNkbbvkbbhzhhjjjjhjkjjjjjjkbvbbbkjjkjjjjjjkbVNNNNNmbmmbbmNvvvjkkjvjvmNbbbbkNN",
"ZZZZNbjhjjNZHHHHSSSSHHHHHHHHHHZHHHZHHHHHHHHHHHHHHHHHHANkjjjNHLLLLLLLLLLLLLLLLLLLLLLLLLLLLLLLLLLL",
"ZZZZZNmjjZNHANANZZZAZZZNAZZAAAAAZZZZZZZHNNHNZNNHANZANAZZNjNZZHZHAAAANAAAAZZHNHHAHZHHHZZHSAHZHNHH",
"AVAVZZZjhNNZZZZZZZZZNZZZZZZZNNNAZZZZZZZZNZZZZZZZNHNNZZZZbjNZZZZZZZZNZZZZNZZZZZZZNZZZZZZZNNNNNAZZ",
"VVVVZZZkjHNNZZZZZZZZZZZZZZZZZANNZZZZZZZZZZZZZZZZNNNNZZZZbjmZZZZZZZZAZZZZZZZZZZZZZZZZZZZZNNANNNNN",
"VVVAVVZkjNZZZZZZZZZZZZZZZZZZZZANZZZZZZZZZZZZZZZZZZZZZZZNNjNNZZZZZZZZZZZZZZZZZZZZZZZZZZZZANNNNNNN",
"VAAVAAZbjZZZZZZZZZZZZZZZZZZZZZNNZZZZZZZZZZZZZZZZZZZZZZZNmjNZZZZZZZZZZZZZZZZZZZZNZZZZZZZZNAANANHN",
"VAVVVZAmjZZZZZZZZZZZZZZZZZZZNNAAZZZZZZZZZZZZZZZZZZZZZZZZNjmNZZZZANNZZZZZZZZZZZZNZZZZZZANZZZZZZZZ",
"AVVAAZVkjZZZZZZZZZZZZZZZZZZZANNNZZZZZZZZZZZZZZZZZZZZZZZZNhNNZZZZNNANZZZZZZZZZZZAZZZZZNNAZZZZZZZZ",
"ZZAVAVZv7ZZZZZZZZZZZZZZZZZZZNNNNZZZZZZZZZZZZZZZZZZZZZZNNm8NAZZZZNANNZZZZZZZZZZANZZZZZZNNZZZZZZZZ",
"ZZZZZZZ7%ZZZZZZZZZZZZZZZZZZZNHNNZZZZZZNAZZZZZZZZZZZZNNANl%bNZZZZNANNZZZZZZZZZNNNZZZZZZANZZZZZZZN",
"ZZVVVZv%%bZNZVZZNNZNNNNNZZNNNNNNZNANZZZNZZZZNNZZZZNNZZNN%%9NZZZZNNNNNNNNZZNNZZNAZANNNNNNZNZZNNZN",
"Zbhhj9%%%&hbmNmmmNNmNNNmmmmbbmbbbbbbbmbbvvvvvbvvkbvklh9%%&&8vmmmNNNNNmNmmmmmmNmmmmmmmmNmNmmmNNmN",
"ZV93%%%%%%%%hhjzjljlljhj9&&%&%%%%%&&%%&&98988y899998%%%%%%%%%9lhllllhhjhlhhhhhhhhlhhhhhhhjvvjjjh",
"ZZZZkbbbvmNNmmmNmmmmmmmmmvbbbh999999jHHHMCNCNNNNNHHHHHHHHHSSSSZZNZZNNNNSHHHHANmbzjhhhjmNHHAAZHZH",
"NNNNNNNNNNNNNNNNNNNNNNNNNNNNNmh9h99hbAAAAAHAAAHAHAAAHAAAHAAHNHAHHSZHSZHSZSSZSASZHNbhbAAAVZZHZZZH",
"NNNNNNNNNNNNNNNNNNNNNNNNNNNNNNbh9hhzNNNNNNNNNNNNNNNNNNNNNNNNNNNNNNNNNNNNNNNNNNNNNNmhbNNNNNZZZZNN",
"NNNNNNNNNNNNNNNNNNNNNNNNNNNNNNNv9h9bNNNNNNNNNNNNNNNNNNNNNNNNNNNNNNNNNNNNNNNNNNNNNNmhkNNNNNNNZNNN",
"NNNNNNNNNNNNNNNNNNNNNNNNNNNNNNNNhh9NNNNNNNNNNNNNNNNNNNNNNNNNNNNNNNNNNNNNNNNNNNNNNNmhbNNNNNNNNNNN",
"NNNNNNNNNNNNNNNNNNNNNNNNNNNNNNNNmhhNNNNNNNNNNNNNNNNNNNNNNNNNNNNNNNNNNNNNNNNNNNNNNNmhbNNNNNNNNNNN",
"NNNNNNNNNNNNNNNNNNNNNNNNNNNNNNNNNl9NNNNNNNNNNNNNNNNNNNNNNNNNNNNNNNNNNNNNNNNNNNNNNNmhbNNNNNNNNNNN",
"NNNNNNNNNNNNNNNNNNNNNNNNNNNNNNNNNb9mNNNNNNNNNNNNNNNNNNNNNNNNNNNNNNNNNNNNNNNNNNNNNNmhbNNNNNNNNNNN",
"NNNNNNNNNNNNNNNNNNNNNNNNNNNNNNNNNmhmNNNNNNNNNNNNNNNNNNNNNNNNNNNNNNNNNNNNNNNNNNNNNNmhbNNNNNNNNNZZ",
"NNNNNNNNNNNNNNNNNNNNNNNNNNNNNNNNNm9mNNNNNNNNNNNNNNNNNNNNNNNNNNNNNNNNNNNNNNNNNNNNNNN%9NNNNNNNNNNN",
"NNNNNNNNNNNNNNNmNNNNNNNNNNNNNNNNNl%mNNNNNNNNNNNNNNNNNNNNNmNNNNNNNNNNNNNNNNNNNNNNNNm+%NNNNNNNNNNN",
"mmmmmbmmmmmmmmmmmmmmmmmmmmmmmvjv8++&bNmbmmmmmmmmmmmmmbmmmmmmmmmbmmmmbmmmmmmmmbmNNv%++%lmNNNNNNNN",
"hhhhhhhhhhhjhhhhhhhhhhhhhhhhh+++++++++hhhhhhhhhlhhhhhhhhhhhhhhhhhhhhhhhhhlllhh%++++++++7lhhhhhhh",
"bNNNjhhhhhhjNNZZNSZNNZNNmbmmNmmmbmmbMbMvllvvmmmmmmmmvjhhhhhhhlvmmNNNmmmmvvvvvmvlllhhhllvNNmmNNNA",
"NNNNNmhhhmNAASSZSSSSSHSSHHHHAAHHHHFHASHSHHSHAAHAAAAHAHNmhhhmAHHAAHHHAAAHAHAHAHAHHHHHHAHAHAHAAAHH",
"NNNANNzhjNNNNNNNNNNNNNNNmNNNNNmNNNNNNNNNNNNNNNNNNNNNNNNNmhbNNNNNNNNNNNNNNNNNNNNNNNNNNNNNNNNNNNNN",
"ZZNNNNNhjNNNNNNNNNNNNNNNNNNNNNNNNNNNNNNNNNNNNNNNNNNNNNNNmhbNNNNNNNNNNNNNNNNNNNNNNNNNNNNNNNNNNNNN",
"ZZNNNZZjjNNNNNNNNNNNNNNNNNNNNNNNNNNNNNNNNNNNNNNNNNNNNNNNmlbNNNNNNNNNNNNNNNNNNNNNNNNNNNNNNNNNNNNN",
"ZNNNNNZNjNNNNNNNNNNNNNNNNNNNNNNNNNNNNNNNNNNNNNNNNNNNNNNNvlbNNNNNNNNNNNNNNNNNNNNNNNNNNNNNNNNNNNNN",
"ZZNNNNZNjNNNNNNNNNNNNNNNNNNNNNNNNNNNNNNNNNNNNNNNNNNNNNNNbhbNNNNNNNNNNNNNNNNNNNNNNNNNNNNNNNNNNNNN",
"ZZZNNZNNjNNNNNNNNNNNNNNNNNNNNNNNNNNNNNNNNNNNNNNNNNNNNNNNNlbNNNNNNNNNNNNNNNNNNNNNNNNNNNNNNNNNNNNN",
"ZZZZNZZZmNNNNNNNNNNNNNNNNNNNNNNNNNNNNNNNNNNNNNNNNNNNNNNNNjbNNNNNNNNNNNNNNNNNNNNNNNNNNNNNNNNNNNNN",
"ZNZZZNZZNNNNNNNNNNNNNNNNNNNNNNNNNNNNNNNNNNNNNNNNNNNNNNNNNmmNNNNNNNNNNNNNNNNNNNNNNNNNNNNNNNNNNNNN",
"NNNZNNNZNNNNNNNNNNNNNNNNNNNNNNNNNNNNNNNNNNNNNNNNNNNNNNNNNNNNNNNNNNNNNNNNNNNNNNNNNNNNNNNNNNNNNNNN",
"NNNZZNNNNNNNNNNNNNNNNNNNNNNNNNNNNNNNNNNNNNNNNNNNNNNNNNNNNNNNNNNNNNNNNNNNNNNNNNNNNNNNNNNNNNNNNNNN",
"ooooooooo7y8y87&&&&ylNNNNNly&ooooooooo&&&&&&$oooooooooooooo&&&&$oooo$&lNNNNh7%%6yy99y8&&&&&&&&&&",
"42t4t444tt74t2t744477yMmu@oX+oooooooooooooooooooooooooooooooooooooooooo$lmMxxxxxzxzxxvxlxxlxxxxx",
"IUUUPUUUKPUUUUUULYLYUUGxJUUUUUIIUUUUUUUUUUUUUUUUIUUUUUUUUUUUUUUUIUUUUUUU%uUUPIUULLRLUUUUUUUUUUUU",
"UUUUUUUUUUUUUUUUULYLUUGuGUUUUUUUUUUUUUUUUUUUUUUUUUUUUUUUUUUUUUUUUUUUUUUBXuUUUUUUYRLLUUUUUUUUUUUU",
"UUUUUUUUUUUUUUUUUUUUUUGlAUUUUUUUUUUUUUUUUUUUUUUUUUUUUUUUUUUUUUUUUUUUUUb .tPIUUUULYUUUUUUUUUUUUUU",
"UUUUUUUUUUUUUUUUUUUUUUKuCUUUUUUUUUUUUUUUUUUUUUUUUUUUUUUUUUUUUUUUUUUUGk9o.%UUUUUUYLUUUUUUUUUUUUUU",
"UUUUUUUUUUUUUUUUUUUUUULlDUUUUUUUUUUUUUPUUUUUUUUUUUUUUUUUUUUUUUUUUUJZ999+ &UUUUUULYLLUUUUUUUUUUUU",
"TTTTTTTTTTTTTTTTEETTTTLxGETTTTTTTTTTTTTTEETTTTTTTTEETTTTTTTETTTHZbbbk99@ &TTTTTTEETTETTTTTTTTTTT",
"~!!!!!!!!~!!!!!!!!!!!!RpY!!!!!!^!~!!!!!~!~~!!!!!~!!!~!!!!!!!!!!kkbbba99- 3!~!!!~!!!!~!~!!!~!!!!!",
"HHHHHHHHHHHHHHHSHHHSJGCpAHHGHHHHHHHHHHHSHHASHHHHHHSSSHHHSSJHHHSmbkbbbh8% XHHHHHSHHHSSSSSHHHHHHHH",
"NVVVNZNNVVVVNNNVNNNVNNbxMNNCNNNNVVVVNNNVNNVVNNVVNVVVVVNNVVVVNNVVVkbbk8hX  VVNVVVNNVVNVVVNNNNNNNN",
"NVVVVNNNVVVVNNNVVNNNNNmzbNNNNNNmVVVVNNNVVVNZNNNZNNVVVVNNVVVVNNVVVmbkh88  oVVNNVVZNVVVVVVNNNNVNNN",
"VZVZVZVVZZVVNZVVVCNVv9oo9ZVVNVVVNVVVVZVVVVVVVVVZVZVZVZVVVVVVVZVVZVkj98%:,iZVVVVVNVVVVVVVVNVZVVVV",
"7777777779jzzjz976@.    .@9jjjzzjzzzjzjzjzzjjzzzjzzjz777787877787593%5d111BNVVVVVVVVmzzk879zjzzj",
"                                    .                               ;<11111pVVVVv7+.            ",
"                                                                   ,1111111, @+ . ..            "
};
