/* XPM */
static char *result[] = {
/* columns rows colors chars-per-pixel */
"96 96 64 1 ",
"  c #4F2913",
". c #502C17",
"X c #512E1A",
"o c #52311C",
"O c #4F3727",
"+ c #543522",
"@ c #583622",
"# c #553927",
"$ c #5A3B27",
"% c #563C2C",
"& c #5B3C28",
"* c #5C412E",
"= c #564334",
"- c #5A4334",
"; c #564538",
": c #5B4739",
"> c #5B4A3C",
", c #604A24",
"< c #655422",
"1 c #665821",
"2 c #604432",
"3 c #634A37",
"4 c #644E3D",
"5 c #69503F",
"6 c #5D4E42",
"7 c #5C5247",
"8 c #5D5248",
"9 c #604F42",
"0 c #615245",
"q c #6A5544",
"w c #62554A",
"e c #64594E",
"r c #6B5C4D",
"t c #715D4F",
"y c #655D54",
"u c #685E52",
"i c #665F58",
"p c #666057",
"a c #6B6154",
"s c #676159",
"d c #6A655C",
"f c #6D695F",
"g c #716151",
"h c #776759",
"j c #76695C",
"k c #796C5E",
"l c #6E6A60",
"z c #736D61",
"x c #7B6F63",
"c c #7C7265",
"v c #767469",
"b c #7D766A",
"n c #7A786E",
"m c #7E7C72",
"M c #82776C",
"N c #817B6F",
"B c #817D75",
"V c #848175",
"C c #868579",
"Z c #89867B",
"A c #8A897E",
"S c #8B8981",
"D c #908E86",
"F c #94928A",
/* pixels */
",*,,,,,*<*<*<*<,,,,,,,*<*<,,,,,,,,*<,,,,*<,,,,,,,,,,,,,<1111111111,<+,,@**o*$$$$$$$$$bCCCCCCCCq$",
"ggggtatckgq,@$**rttgtggtggtrtagggtgggrgggagggrggggrggggtaq*$$244rdezvzbCvxg5@*$3rzcCVVCCCCCCCCg,",
"CCCCCCCCCCCCg**VCCCCCCCCCCCCCCCCCCCCCCCCCCCCCCCCCCCCCCCCCCCh$tCCCCCCCCCCCCCCCCCCCCCCCCCCCCCCCCgo",
"CCCCCCCCCCCCCMgCCCCCCCCCCCCCCCCCCCCCCCCCCCCCCCCCCCCCCCCCCCCC4tCCCCCCCVCCCCCCCCCCCCCCCCCCCCCCCCg*",
"CCCCCCCCCCCCCCCCCCCCCCCCCCCCCCCCCCCCCCCCCCCCCCCCCCCCCCCCCZZZtgCCCCCCCCCACCACCCCCCCCCCCCCCCCCCCg&",
"CCCCCCCCCCCCCCCCZZCCCCCZCCCCCCCZCCCCCCCCCSCCCCCCCCCCCCCZAAAAhkCCCAAAAAADAAAAAAACCCCZCCCCCCCCCCg&",
"AFFFFFFFFFFFFFFFFFFFFFFFFFFFFFFFFFFFFFFFFFFFFFFFFFFFFFFFFFFFFFFFFFFFFFAFFFFFFFFFFDAACCCCCCCCCC5,",
"VVVVVCSSAAAAAxcvvvvvvvvvvvcvVmVmVVBmVVmVBBBBBVBBVVmVAASSSSAABbSAAADAAAAAAADAAADAAAAAkcCCCCCCCC3$",
"lfffllffzlffa*wddfdddfdddddffdddfddfsfffssffffssdffddddffdfd-0ddfpffpfpfddddddfddddd>jCCCCCCCC4$",
"zzffffffffdfa*wfdfdfddfdffddddffdfddffsffffssfffddddffddfddd-0ddpfpffpddddddddddfddd3jACCCCCCC4*",
"ffdfffddfdffu*0ddddfffdddffddfdddffdfsfsfffssffffddfdddfdddf:4fapffpppfddddddddddddd>jDACCCCCC3*",
"fddfddfdfdddu*wdfddddddfddddfdfdddfdfsffssffffssfdfddfdfdffd-0ddfpffffdddddfdddddddf>zDACCCCCC3$",
"dddfdfddfdddu*8fdfdddfddffddddddfdfsffsfffsffsffdfddfddddfdd-4fdffppfpdddddddddddddd3jDFAACCCC3*",
"dfdddfdfddffu*>ddfdfddffdddflddlfdddfsfffsffffsfdddfddfdddff*0ddpfffpfdddddddddddddd>qDFFAAAAA3*",
"ddfdddfdfdddu*4fddfdfdddfddfdddldddfffssffssssffdddfdffdfddd*4ddfpfpfdddfddddddddddd>qDDFFFFFj**",
"ffddfdddfdfdu*>dfdddfdfdddfdlddddffdsfffsffffffsffddfdddfddd#7ddfpffpfdddddddddddddd-@NFFAAC3*,o",
"ddddffddddffr*>fddfddfddddfddjdddddddddddldddddddddsdsddddff#4sfdfdddddfdddddddddddd*+3ACCCCC2&&",
"dffddddffddds*>fdddddddddddddllddlddldlddddlldlldsdsdsssadsf*7fsddddddddddddddddfddd-$ZCCCCCCh&&",
"dfddfddfdfdfeo>sasddsssdssdsssdddddddddddlddddhisdssdsssssss-4sfdddddddddddddddddddd*rFZCCCCCC,&",
"sssddddddfddeo>sdsssddssdssssssssddssddddddddsdsdssdssddsdds:7fsddddfddddddddddddddd-gDCCCCCCC5$",
"sssspssssdddeo>adsdsssasssddsssdssdsssdsididdsssasssdsssdsss-4ddddddfddddddddddddddf*gFCCCCCCCg$",
"sssspsssssss0o>dsssssdsddssssdssdsssdsiddsdisssdssdsdsdsssdd-0dddddddddddddfddfddddd*hDZCCCCCCg*",
"sssssssssssswo>ddsdssssddsssdsssdsdsdsdidsidsdsdddsssssssdss:4dddddddddddddddddddddd*hDCCCCCCCg&",
"sssssssssssswo>sdsssddssssdsdsdsssdssssdisdisdsssssdsddsssds-7ddddddddddddddddddfdddokDCCCCCCCg&",
"ssssssssssss8o>dsssdsdsdssssdssssdssssdsdssdsssssddsdsssdsds-4fdddddddddsfsfsfddaddd MDCCCCCCCg&",
"ssssssssssss7o>dsdssddsssdsdssdssssidsdssidiidsissssssdsdsss-0ddddddddddfsfsfsfdddd4 kDCCCCCCC5&",
"ssp77077w700>*>8ww0w70e80ww0wwwwwwwwwwqwwww8wwwwwwwwwwwwwwww*7ddddddddddddsfsffdda7..tFCCCCCCC3&",
"     ..    +>77;%o    . . .     .     .     .   ..       X#>88;X                  .  tFCCCCCCC5$",
">:>;>:;>>>>7777777># .      +=::;>>>:=%%%%O+++X ..+++%=:788788787;>>77=O=;;>::>;;#.  tDCCCCCCC4&",
"77777777777777777777>+. . +777888877888888776888677788778788887887777>=O>7777777877X tFCCCCCCZq&",
"7777777777777777777777O  +78777888888888888877888778878778788788777777;O>7777777778- xDCCCCCCCt&",
"77777777777777777777777. 777777788888888888878888888878887878887777777;=>7777777778- MDCCCCCCCt,",
"77777777777777777777777%O788888888887887788878888888888888877777888888;O677777777777OnDSCCCCCC3$",
"77777777877777777777777=O788888888888788887878888887888878877787888888;O677777777777 vFmCCCCCC5$",
"77777777777777777777778=%888888888887878888888888788888888888888888887;O677777777777 MFSCCCCCC3$",
"77777777777777777777778%O788888888888878888888878888888887788788888888;O677777777777 uFDCCCCCC5$",
"77777777777787777777878++888888888888888888888887888888888888888888888;O667777777880 qFFAZZZCC5$",
"iiyyipssssssssssssssdii:%diissssssssiilidiiiiidsiissssssssssssssssssiiyO7yssssssssss &FFFFDDAD2$",
"ssiissssssssssssssssdii-%yssssiissssssiiiiiddississsssssssssssssssidii8O7sssssssssii  BFFFFAMq$$",
"siiisssssssssssissssiy:==>yssiiissssssiiidiiiddlssssssssssssssssssiiid%OO8ssssssssii  qFFAZCq,*$",
"888888880ww068867777>--%%%6%ewww888888888=%%%%%%%%%O%7667788788688686%OOO%%868666666  2ZCCCCV2*$",
"ese78y8yyewwwwewewewwwwwwwwwiiyyiyiiyyyyiw00%%%%%%66688788888888888886;;;%88w888wwww  tCCCCCCc$$",
"ssssssdsssssddsdsdsdddddfddldlfllllllllllllld=%:lldlllllllllddddlllldldlllslllllllld  MCCCCCCC2&",
"ssssssssssssissssssssssssiisiiiiiiiysiisiiiil9%yidddidilssssdddddsssiddisidddiiliidw  DCCCCCCCq$",
"ssssssssssssssssssssssssssssssssiissssssidsss8%iiidiiilidiidiiidssssssssssssssssiiiw &FCCCCCCCt*",
"sssssssssssssssssssssssssssssssssissssssiissiw%ddidiidiiiididiiissssssssssssssssidiw 5FCCCCCCCt$",
"ssssssssssssssssssssssssssssssssssssssssiiisiy6iidiiiiididdiiiidsssssssssssssssssssw tFCCCCCCCt&",
"ssssssssssssssssssssssssssssssssssssssssliissiwidiiddiiiiiiiddiisssssssssssssssssssi kFCCCCCCC4&",
"ssssssssssssssssiiddiiiiiiidssssidididdiididiieiiiidiiddiiiissssssssssssssssiiiissss MFCCCCCCC5$",
"ssssssssssssssssidiiiddidiiiiissiiiiiiiiiiiiii8iidiidiiidiiissssssssssssssssdidissss MFCCCCCCC3$",
"ssssssssssssssssiiiiiiddssididiiidiidiiidiiiii8iididdiididilssssssssssssssssiiidssss MFCCCCCCC5$",
"ssssssssssssssssidiidiiissiiiidiiididiiidiiii88wiiiiidiiiiiissssssssssssssssdiiissaa FFCCCCCCC5$",
"ysssssiiiissssssiiiiiiiissiiiiiiiiiiiidiiiiiy888eiidiiiiiddisliiiiiisssississsidssss FFCCCCCCC3$",
"%=>yyyyyyyywwe8weeeeeee8ewwwwyyeiyeyeeiiiiew888888wwyyywww88www8eee8wwwwww88ww8887w0 MFVCCCCCC5$",
"%%=87w887888888w8w8886>6666669w88www8w8888w88888888777888877888888888w88866666667777 MFCCCCCCC5$",
"udddsdddslsllsllddddddi666ydfffdfflsdffffffdfffdlllldldllllllllldldllllliyiyiyyipppp MFCCCCCCC5$",
"ililililssliiliiiiididiw6ididddiiddddidddddidddddddsdsdsdiddidddlilislisiiidiiiippps cDCCCCCCC4$",
"iiiiiiiiiiiiiiiiiiiiiii86iiiiiiiiiiiiiiiiiiiiiiiiiiiiiiiiiiiiiiiiiiiiiiiiiiiiiiiiiii tDCCCCCCC5$",
"iiiiiiiiiiiiiiiiiiiiiiiw6iiiiiiiiiiiiiiiiiiiiiiiiiiiiiiiiiiiiiiiiiiiiiiiiiiiiiiiiiii.qFCCCCCCC3$",
"iiiiiiiiiiiiiiiiiiiiiiie6iiiiiiiiiiiiiiiiiiiiiiiiiiiiiiiiiiiiiiiiiiiiiiiiiiiiiiiiiii 2FZCCCCCC4$",
"iiiiiiiiiiiiiiiiiiiiiiiw9iiiiiiiiiiiiiiiiiiiiiiiiiiiiiiiiiiiiiiiiiiiiiiiiiiiiiiiiiii XFDCCCCCC4&",
"iiiiiiiiiiiiiiiiiiiiiiiw8iiiiiiiiiiiiiiiiiiiiiiiiiiiiiiiiiiiiiiiiiiiiiiiiiiiiiiiiiii  DFDZCCCC4&",
"iiiiiiiiiiiiiiiiiiiiiiiw9iiiiiiiiiiiiiiiiiiiiiiiiiiiiiiiiiiiiiiiiiiiiiiiiiiiiiiiiiii  MDDFDDAD2&",
"iiiiiiiiiiiiiiiiiiiiiii86iiiiiiiiiiiiiiiiiiiiiiiiiiiiiiiiiiiiiiiiiiiiiiiiiiiiiiiiiii  gFFFFDNh$$",
"iiiiiiiiiiiiiiiiiiiiiii:#iiiiiiiiiiiiiiiiiiiiiiiiiiiiiiiiiiiiiiiiiiiiiiiiiiiiiiiiiii  3FFDSZq$$$",
"iiiiiiiiiiiiiiiyiiiiiii%+wiiiiiiiiiiiiiiiiiiiiiiiiiiiiiiiiiiiiiiiiiiiiiiiiiiiiiiiiii  2SZBBZZq$$",
"yeeyyeeyeyyeeyeyyeyii0%O+#%eeeyywyyyyyyeeye8eewwweyyyiyyyyyyyyyyyiee6:----::68ewewee  hZZBZZBB&&",
"6666666666666666666;%%+O++%%666666666666666%%%%%%%w888889ww888888888-----::2----;---  MZZZBZBZ3$",
"66788yyyyyeyewew8wylilildddddldllllllldlslli8%%%9widiiiddddddidiiddiiiiwewwwwwwwwwww XFBCCCCSZ4$",
"7yiiiiiyiiiiiiiiiiiiiyiiiiiiiiiiiiiiyliddsddd8%wdfddfffdddddddddddddddddddddddhddddi 2FZCCCCZZt$",
"yiiiiiiiiiiiiiiiiiiiiiiiiiiiiiiiiiiiiiiiiiiiii6iiiiiiiiiiiiiiiiiiiiiiiiiiiiiiiiiiiii tDZCCCCCZg&",
"iiiiiiiiiiiiiiiiiiiiiiiiiiiiiiiiiiiiiiiiiiiiiiiiiiiiiiiiiiiiiiiiiiiiiiiiiiiiiiiiiiii MDBCCCCCZg&",
"iiiiiiiiiiiiiiiiiiiiiiiiiiiiiiiiiiiiiiiiiiiiiiiiiiiiiiiiiiiiiiiiiiiiiiiiiiiiiiiiiiii MFCCCCCCC5$",
"iiiiiiiiiiiiiiiiiiiiiiiiiiiiiiiiiiiiiiiiiiiiiiiiiiiiiiiiiiiiiiiiiiiiiiiiiiiiiiiiiiii MDCCCCCCC4$",
"iiiiiiiiiiiiiiiiiiiiiiiiiiiiiiiiiiiiiiiiiiiiiiiiiiiiiiiiiiiiiiiiiiiiiiiiiiiiiiiiiisi AFCCCCCCC4&",
"iiiiiiiiiiiiiiiiiiiiiiiiiiiiiiiiiiiiiiiiiiiiiiiiiiiiiiiiiiiiiiiiiiiiiiiiiiiiiiiiiiuu.FFCCCCCCC4&",
"iiiiiiiiiiiiiiiiiiiiiiiiiiiiiiiiiiiiiiiiiiiiiiiiiiiiiiiiiiiiiiiiiiiiiiiiiiiiiiiiiiiw FFCCCCCCC4$",
"iiiiiiiiiiiiiiiiiiiiiiiiiiiiiiiiiiiiiiiiiiiiiiiiiiiiiiiiiiiiiiiiiiiiiiiiiiiiiiiiiii4 MDZCCCCCC5$",
"iiiiiiiiiiiiiiiiiiiiiiiiiiiiiiiiiiiiiiiiiiiisippiiiiiiiiiiiiiiiiiiiiiiiiiiiiiiiiiiyo MACCCCCCC4$",
"iiiiiiiiiiiiiiiiii88w9wiiiiiiiiiw9w6w080w070077yiiiiiw00yiiiiiiiiiiiiiiiiiiiiiiiy:+ .MDCCCCCCC5$",
"++@oo     @>ppp8+                                         *epps>#.    ++##+#@#o.     tFZCCCCCC3&",
"*#**$*#*#*$**uu499399995449444444944044444447444444444447445eru447444444444444rp03X  qFZCCCCCC4&",
"vvvvvvvvvvvvv0zvvvcvvvvvvvvvvvvvvvvvvvvvvvvvvvvvvvvvvvvvvvvvr0vvvvvvvvvvvvvvvvvvvvz# 2DDCCCCCC4&",
"vvvvvvvvvvvvv0zvvvvvvvvvvvvvvvvvvvvvvvvvvvvvvvvvvvvvvvvvvvvvr0vvvvvvvvvvvvvvvvvvvvbu  FFAZCCCC5&",
"vvvvvvvvvvvvv0zvvvvvvvvvvvvvvvvvvvvvvvvvvvvvvvvvvvvvvvvvvvvvr0vvvvvvvvvvvvvvvvvvvvvv  BFFDDAAZ2&",
"vvvvvvvvvvvvvwjvvvvvvvvvvvvvvvvvvvvvvvvvvvvvvvvvvvvvvvvvvvvvrqvvvvvvvvvvvvvvvvvvvvvv  MFFDFFFM&&",
"vvvvvvvvvvvvvqjvvvvvvvvvvvvvvvvvvvvvvvvvvvvvvvvvvvvvvvvvvvvve0vvvvvvvvvvvvvvvvvvvvvv  qFFDAC5&&&",
"nnnvnnnnnnnnn0znnnnnnnnnnnnnnnnnnnnnnnnnnnnnnnnnnnnnnnnnnnnnr0mmmmmmmmmmmmmmmmmmBmmv  2SZCZZN3&&",
"CCCCCCCSCCCCCwMCCCCCCCCCZBZCCCCCZCCCCCCCCCCCCCCCCCCCCCCCZCCCuqCCCCCCCCVCCCCVCCCCCCCV  qCCCCCCM@&",
"lllllllljfllj0epiiipipspiippiiiippspiippiiipspppssppssiippiiq0iippypiiisuiiiiiyiiui0  MCCCCCCC2&",
"ppppiiiippppy0rpisppisppisipppiippppipppisppppppspppppiipppp0eapppppupiiupuiiiiiiia0  AZCCCCCC5&",
"pppppiiippppy0eipipppippsipppisippppsipppipppppppppppppsppppeqiupppypyiiippiiiupuia0 oFCCCCCCCg&",
"pappppppiiw-#o$>ppppppppppiipppppppppspppsspappppapappppiu>%oo-wppauiauiuiuippipppp% 2FCCCCCCCg*",
"70w77:-%+ . .    %-70eppp0096----#+------>07077087887;=%o ..... o%->777700=---##++o  gFZCCCCCCg$",
"                  .           ..    ..                      ..              .        gFZCCCCCCg$",
"                               .                                                     MFZCCCCCCt$"
};
