/* XPM */
static char *result[] = {
/* columns rows colors chars-per-pixel */
"96 96 83 1 ",
"  c #4F2913",
". c #4F2D19",
"X c #512C17",
"o c #512E1A",
"O c #563B15",
"+ c #583C15",
"@ c #55331E",
"# c #5A3D1F",
"$ c #4F3727",
"% c #543622",
"& c #583622",
"* c #563825",
"= c #5A3B27",
"- c #563C2C",
"; c #5A3C29",
": c #5E4A17",
"> c #5C441E",
", c #614F17",
"< c #675D19",
"1 c #6C671E",
"2 c #6F6E1D",
"3 c #72751B",
"4 c #5F4625",
"5 c #5C412D",
"6 c #5F4C29",
"7 c #574234",
"8 c #5B4435",
"9 c #564538",
"0 c #5B4739",
"q c #5C4A3C",
"w c #604A24",
"e c #655422",
"r c #665821",
"t c #685C20",
"y c #604432",
"u c #624937",
"i c #654E3C",
"p c #5D4E43",
"a c #5C5247",
"s c #5D5248",
"d c #604F41",
"f c #625244",
"g c #695545",
"h c #695C46",
"j c #61554A",
"k c #63584E",
"l c #6C5B4D",
"z c #715D4E",
"x c #645C53",
"c c #6B5F52",
"v c #665F58",
"b c #715F50",
"n c #75744B",
"m c #666057",
"M c #6D6355",
"N c #676159",
"B c #6A645C",
"V c #6D695E",
"C c #726252",
"Z c #726659",
"A c #756A5D",
"S c #796B5E",
"D c #6D6760",
"F c #6D6960",
"G c #716D63",
"H c #7B6E61",
"J c #737064",
"K c #7C7265",
"L c #767469",
"P c #7A776C",
"I c #7B786E",
"U c #7E7C72",
"Y c #82776C",
"T c #817B6F",
"R c #837E74",
"E c #848075",
"W c #868579",
"Q c #89857C",
"! c #8A897E",
"~ c #8C8A82",
"^ c #908E86",
"/ c #919087",
"( c #94928A",
/* pixels */
"333333333333333333333333333333333333333333333333333333333333333333333333333333331ew*=YWWWWWWWWb;",
"33333333333333333333333333333333333333333333333333333333333333333333333333321rw*===;SWWEWWWWWWb=",
",,,,111t11111111111111111111111111111111112211111111211212111111111211r<ww;;4*===*yHWWWWWWWWWWn=",
"X%5;----========*4*4===========4=======;;*;=;*=====;iy==**======4$7>qimZKKRPKCCCZYWWWWWWWWWWWWi=",
" UWUWWWWWWWWQWWWWWWWWWWWWWWWWWWWWWWWWWWWWWWWWWWWWWWWWQWWTCy==gKKLIWWWWWWWWWWWWWWWWWWWWWWWWWWWWi;",
" RWUWWWWWWWWWWWWWW!WWWWWWWWWWWWWWWWWWWWWWWWWWWWWWWWWQWWWWWT5=bWWWWWWWWWWWWWWWWWWWWWWWWWWWQWWWQg;",
" REWUWWWWWWWWWWWWWWWWWWWWWWWWWWWWWWWWWWWWWWWWWWWWWWWWWWWWWWl*CWWWWWWWWWWWWWWWWWWWWWWWWWWWWWWWWb;",
"XREEWWWWWWWWWWWWWWWWWWWWWWWWWWWW!WWWWWWWWWWWWWWWWWWWWWWWWWWC;CWWWWWWWWWWWWWWWWWWWWWWWWWWWWWWWWg;",
".WE//(////(//((/((/(//(/(((/((/(////~//^/~//~//^///~/~//(/(!RQ^(/~/(////((((((/!!/!!WWWWWWWWWWi;",
" UW(((((((((((((((((((((((((((((E!!!~~~~~~~~~~~~~~~~~~~~!/((QQ(((((((!!!~!!!/!!!!!!!TUWWWWWWWWi4",
" UEFFFFVGVVFFVGAFVVDFVFLPLLLPLLliVVBBFBVFBBBBFBVBBBVBBVBVBBByfZBBBVBVBBBVVBBVBBVBBVV5AWWWWWWWWi;",
".IWVVFVVAFFVVVFVVDVVFVVFVVVFVVVf0VBVBFBBBBVBBVBBBBFBBFBBBVVB0fBBBBBBBBBVVBBBVBBBBBBB7SWWWWWWWWi;",
" GRFFVVFVVDVVFVVDVDDVVVFVVVFVFVj8VFBBFVBVBVBBFBFFBBFFBBVBVVB0fBBVBBBBBVBNBBBBBBBBBBB5A^WWWWWWWi=",
" FRFVVFVDDVVFVVFVVVVFDVVVFVVVFVj5VBVVBBFVBBBBBBFBVBBBBFBBBBByfBBBBBBBBBBBVBBBBVBBVBV5A/~WWWWWWi=",
" ZEFFFVFVFVDFVVFVFFFVFVFVFFVFVAf8VBBBBBBBBBVFBBBBVVBBVBVVBBV5iBBBBBBBVBBBBBBBBBBBBBB5A//!WWWWWi5",
" jEDBBBNBVDVVVFVVFVFBVVFVVFVVVVk5VDBBVFBBFFBBVVBBBFBBVBBBVVB-fBBBVBBBBBBBVBBBVBBBBBB8A////!!!!w5",
" gWNDDvvBvBBDFGVBFFVVFVBFVFVBFVf8FBFBFFBBFFBBBBVFVBBDBBVBBBB;fBBVBBBVBBBBBBBVBBBBBBV8g///^//~Y==",
" gUvvvDNNBNBNNBBBVVFFVFFFFVFFFVk5FFBBBBBVBBBFVBBBBBFBBDBBVVB;fBBBBBBBBVBBBVBBBBBBBBB%%T^/^^Ey=w=",
" gRDNDvNNNNBNNBBNBNNBBBBBABDVFVf-VVBABBVBBBVBBBZVBBBBNBBBBFB*fBBBBBBBBBBBBBBBBBVVBBB%@u~WWWWRy;;",
" gWNNNNNBvBNBNNNBNNBNNNBBNBNBBV0XBBVBDDBBVBVBFBBBNBNBNNBBNBB;fBBBBBVBVBBBBBBBBBBBBBB&*^WWWWQES;;",
" -LNNNDNNBNNNBBNBNNBNNBNNBNBvBv-@BBBBBBBBFBBBBBBNNNBNNBvmBNB0aBBBBBBBBBBBVBVBBBBBBBB&z(WWWWWWWy;",
" pLvNNNNBNNBNNNBNNBNBNBNNBBvBNv-.NNNBNBBBBBBNBBNNBBNNBNBBmBN0iBBBBBBBVBBBBBBBBBBBVBB&C(WWWWWWWi;",
" dLDNNNNBNNBBNNNNBBNNBNNBvBNNBB;oNNBBNNBBNBBBvNBNBNNNBvNNBBN0iBBBVBBBBBBBBVBBBBVBBVB%C(WWWWWEWC;",
"OiLBNNNDNNBNNBBNBNNNBNNBvBNNBvv-oNBNNNBNNNBNNBNvBNNBBNBNNNNB8fBBBBBBBVVBBBBBVBBBVBBB#C(WWWWWQQC=",
":iLvNNBNNBNNNNBNNNNBNDNNNNNNBvB;oBNNBBNBNBNNBNNBBNNBBNNBBNNB0aBBBBBVBBBBBBBBBBBVBBBB#Z/WWWWWQWC=",
"<dLBBNNBBNNBBNNBNBBNNNNNDNNNvBNqoNBNNNNNNBBNNBBvvBNvNBNNBNNB8iBBBVBBBBBBBVBBBBBBBBBB@H/WWWWWWWb=",
"3gLDNBNNNBBNBNNNNBNNNNNNNBDNBvvqoNBBNNBNNNNNNBvBBNNBNBNBNNNN0iBBBBBBBBBVBBBBBBBBBBVmXK/WWWWWWWiw",
"3nLDNBNNNNBNNNBBBNNBNDNNNNNNBvBqoBNNBBvBBNBmBNBNvBBvBNNmNBBN8fBBBBBBVBBBBVBBVBBBBBB0 z(WWWWWWWiw",
"33nDNBmNBNmNBNNNNNvvDvvvBNNNNNx7Xjq9080890080000y8000008000qqakkjjjjksssjjhjfjjjff;  z^WWWWWWQi=",
"33<o                  .$..   .-ss7X  X X  XXX XXXXX  XX @-0saaa=@. @@%@  o%@$@X      z/WWWWWWQi=",
"33<  7kkjmVBVmqX   .-assssa99asssssssspqqq95--------90psaasssaaassasas9$qaaaaaaaaq%XXz(WWWWWWWi;",
"331 .GVVAVVVVVVhX .psssssssssssssssssssssssaaasssaaassaaajsasaaaassssa9$qaaaaaaaaaa@ z/WWWWWWWi;",
"331 6LMVVVVVVVVV9 pssssssasassssssssssssssasasassssssssssssasasssasass9$aaaaaaaaaaa9 m^WWWWWWWi=",
"333 hJVVVVBBVBVVk.asasassssssasassssssssassasassssssasssssssssassssssa9$paaaaaaaaaa9 L^WWWWWWWi=",
"333 MLVVBVnVVVVBk$sssssasassakssssssssssssssassasssssssssssssssssassss9$paaaaaaaaaaa Y^WWWWWWWi=",
"333 MIVVVVVVBVVVs.ssassasssssssasssssssssssssaasassssssasssaasasssassa9$9aaaaaaaaaaa I(WWWWWWWiw",
"333 MPVVVVBVVnVVx$aassassssassasssaassssssssssssssaaasaaaaaasasssasass9$paaaaaaaaaaa z/!WWWWWWi=",
"333 cPVVVVVVVBBVf@aasassasssssssssaasssssssssssassaassaaaaaassasssssaa9$paaaaaaaaaaa z((QWWWWQi=",
"333 aIVVBVnVVVBV9.aassssssasssssssxxkxkkxkxxkkxxxxxxxxxxxxxxxxxxxkxkkxa$asxxxxxxkskp y(((^!QQ!5=",
"333 iLVBVVVBVVVBf -psasasassssssvvNvvNNNvvvNvvvBvvvvvvvvvvvvvvvvNvvNNvs$axvvvvvvNVmg X!((((((Yw=",
"333 qIVVVVMVVVVVM. 9xsssassxxNNNvvvvmmvmvvvvvvvvNNNNNNNNvvvvvNNNNNNNNN9$9NNBNNNvNBNm  z((/!Ey===",
"333OMLVVVBVVVBVVVl*xmmBBNvNNvNNxvvxxxxxxxaaadfffapppskkksxxsxssxkkkksa$$$-asskkksxss  @!QEQQY;==",
"333>VPBVVVVVVVVVVVBVFFFBNNNvNNNNmmkkxaxxkp99---------appaaaappsappppp-$$$$-papppppap  iWWWWWWb;;",
"333>ZLVVVVVVVVnBVBGGJJFFDNNNxNNNNDDDDDNFBFBFv0--kDDDDDDDDDNDDDDDBDDDFDDDDDDDDDDDBVNm  YWWWWWWE==",
"333>ZIVVVVVVVVVVFFGJFFJFDNNNNNBNNNNBBNBBBBBBBf-kBBBBBDNBDNDDNDDvDBBBBBBBNBBBBBBBBBBx  QQWWWWWWi;",
"333>iIVVVFVVVVVVFFGFFBNNNNNNNNvNNNNNNNNNNNNNBp-vvvBvNNNNvvvNvvvvNNNNNNNNNNNNNNNNNNNf o(WWWWWWWb=",
"333@hPVVVnVGVVVGFFJFNNNNNNNNNNNNNNNNNNNNNNNNNp-BNNvNNNNNNNNNNNNNNNNNNNNNNNNNBNNNNNNj y^EWWWWWWb=",
"333@hPVVGVGVVAGVGFFDNNNNNNNNNNNNNNNNNNNNNNNNNxqvNNNNNNNNNNNNNNNNNNNNNNNNNNNNNNNNNNNjXg(QWWWWWWzw",
"333@gPVGVGGVGGVnVGGBmmNNNNBmNNNNNNNNNNBvNNNNvxkvNvNNBvNNNNNNNNNNNNNNNNNNNNNNNNNNNNNj b(WWWWWEQi=",
"333@gLVVGVVVVAFFGFJBNNNNNNNNNNNNNNNNNvvBNNNNvxkvNBNNvvNNNNNNNNNNNNNNvBNNNNNNNNNNNNNf Y(WWWWWQQiw",
"333@gJVGVVVGVGFGVFFVNBmNNNNNNNNNNNNNNNvvNNNNNvjvNNNNvBBvNNNvNNNNNNNNNNNNBNNNNNNNNNmf Y(WWWWWWWi=",
"333@hLGVAGVVVVGVJFFVNNmNNNNNNNNNNNNNvBBvNNNvvxavNNNNBvvvNNNBNNNNNNNNNNNNvNNNNNNNNNmg Y(WWWWWWWi;",
"333@gLVGVGVVGGVGVGGVNNNNNNNNNNNNNNNNvvBBNNNNvsskNNvvBvvBNNvvNNNNvvNNNNNNNNBvvBNNNNNj Y(WWWWWWWi;",
"333@gLVAnVGGVVGVGVVVNNNNNNNNNNNvNNNNvvvvNNNNxsjsxvvvvBvvNvBvNNvBvvNNNNNNNNvvvvNNNNNc Y(WWWWWWWi=",
"333@gIGVFGVVGVVnVGFVNNNNmvxvxkxkkjxxkvxvxvxjssssafkxxxxkkkkjjkkskkkkskskjjjsjsksjjjs Y(WWWWWWWi;",
"333@gILGGFVGVGFFVFFBNBBBxaafajjjsjspajasfsdjsssafassafaasasfasjsfaasssssaapppppppppa Y/WWWWWWWi;",
"333@fIPPLJJJAJJJi0FVBFFFFBmxNFFFDFDDDDDDDDDDDDDDDDDFDDDDDDDDDDDDDDDDDDDDvxxvxxxvvNvv Y^WWWWWWWi;",
"333@iAAAALIIIMZuX;VFFFFFFFFFFFFDDBBBNNBNNDNNNBNDNNDNNDNNDvDvvNDNvDNDNNNDvvvvvvvvNvvx Z^WWWWWWWi;",
"333@58yu86q8XXXXX*FFFVNNNNvvvvvvvvvvvvNvvvvvvvvvvvvvvvvvvvvvvvvvvvvvvvvvvvvvvvvvvvvf z^WWWWWWWi;",
"333@iZVBVMZJmh8XX-FFFNNvvvvvvvvvvvvvvvvvvvvvvvvvvvvvvvvvvvvvvvvvvvvvvvvvvvvvvvvvvvva g^WWWWWWWi4",
"333%lRJJJJJJJJJlX;FFNvvvvvvvvvvvvvvvvvvvvvvvvvvvvvvvvvvvvvvvvvvvvvvvvvvvvvvvvvvvvvvf y/QWWWWQWi;",
"333@lRJJJJJJJJJJ*;FFNvvvvvvvvvvvvvvvvvvvvvvvvvvvvvvvvvvvvvvvvvvvvvvvvvvvvvvvvvvvvvvd  /^WWWWWWi;",
"333@lRJJJJJJJJJJ8;FDvvvvvvvvvvvvvvvvvvvvvvvvvvvvvvvvvvvvvvvvvvvvvvvvvvvvvvvvvvvvvvvv  R(/QWWWW5=",
"333@lEJJJJJJJJJJq-FDvvvvvvvvvvvvvvvvvvvvvvvvvvvvvvvvvvvvvvvvvvvvvvvvvvvvvvvvvvvvvvvv  Y(//////;=",
"333@lWJJJJJJJJJJq;FVvvvvvvvvvvvvvvvvvvvvvvvvvvvvvvvvvvvvvvvvvvvvvvvvvvvvvvvvvvvvvvvv  g((((^Ag==",
"333%lWJJJJJJJJJJi-FBvvvvvvvvvvvvvvvvvvvvvvvvvvvvvvvvvvvvvvvvvvvvvvvvvvvvvvvvvvvvvvvv X;(^~WWA===",
"333@lWJJJJJGJJJJh-FVvvvvvvvvvvvvvvvvvvvNvvvvvvvvvvvvvvvvvvvNvvvvvvvvvvkkvkvvvvvvvvvv  -QRRQWEz;;",
"333@lWJJJJJJJJJJV0FBvvvvvvvvvxxxxxkkskksskjpdddddpkkkxxxkxxxkkxkxkxs7777-0-00qfsfsdp  bQQQQWQR;;",
"333%lRJJJJJJJJGJJJGVvvvvvvNBkpppajsjjsssksp7------sssssssssssssssssp-077-99-0-77-0y-X QQWWWWEWu;",
"333@lQJJJJJJJJJJciGBBBDBBFDDDDvvDBBFBFFDDDDDc8-7kDDDDDDDBDDDDDDDDDDDDDDDDDDDDDDDvvvv &(RWWWWWWi;",
"333@lWJJJJJGLLLLi VFFFDDBNvvvvxvvvvvNNNNNNNBBj-xBBBNBBBBBBBBBBBBBBBBBBBBvDDvBvBvvDvk u(QWWWWQWz;",
"333@lWLLLLLLLLILp FDFFBvvvvvvvvvvvvvvvvvvvvvvvkvvvvvvvvvvvvvvvvvvvvvvvvvvvvvvBvvvvvj z(QWWWWWWb;",
"333@lRPLLLLILLLLi BDDBvvvvvvvvvvvvvvvvvvvvvvvvvvvvvvvvvvvvvvvvvvvvvvvvvvvvvvvvvvvvvv S(WWWWWWWiw",
"333@l~LLPLLLLILLiXkDDvvvvvvvvvvvvvvvvvvvvvvvvvvvvvvvvvvvvvvvvvvvvvvvvvvvvvvvvvvvvvvv Y/WWWWWWWi=",
"333@lRLLPLLLLLLL; kDNvvvvvvvvvvvvvvvvvvvvvvvvvvvvvvvvvvvvvvvvvvvvvvvvvvvvvvvvvvvvvvv Y(WWWWWWWi=",
"333@vRLLLLLLLPLL; kDvvvvvvvvvvvvvvvvvvvvvvvvvvvvvvvvvvvvvvvvvvvvvvvvvvvvvvvvvvvvvvvM Y(WWWWWWQi=",
"333@lQLILLLLLLLL; kBvvvvvvvvvvvvvvvvvvvvvvvvvvvvvvvvvvvvvvvvvvvvvvvvvvvvvvvvvvvvvvvf Y(WWWWWWWi=",
"333@cRLLLILLILLL; kvvvvvvvvvvvvvvvvvvvvvvvvvvvvvvvvvvvvvvvvvvvvvvvvvvvvvvvvvvvvvvvvf Y/QWWWWWWi=",
"333@zRILLLLLLLLIi kvvvvvvvvvvvvvvvvvvvvvvvvvvvNmvvvvvvvvvvvvvvvvvvvvvvvvvvvvvvvvvvv; Y/WWWQWEQi4",
"333&gQILLLLILLLLZ jvvvvvvvvvvvvvvvvvvvvvvvvvvNxNvvvvvvvvvvvvvvvvvvvvvvvvvvvvvvvvvvq XY!WWWWWWQi=",
"333@yWLPLLLILLLLL;jvNNvvvvmvvmvvv;**%*&*%*%*%%*%808-%&%%%0jmvvvvu0%-%07qafjd8077%X   z^WWWWWWWi;",
"333@i~LLLLLLLLILLGy--;&@@@@@=ykvv %;=--;-==--*-==-=;--;-=-;0cvk--o         %;=-*;X   g(QWWWWWWi;",
"333@lQLLILLLLLLLPLPZiy@%@@yyy88fxJLLLLJLLLLJLLLLJLLLJLLLJLLLllLLLLLLLLLJLLLLLLLLJLfX y(!WWWWWWi;",
"333%b~LPLLLLLILILLLLLLLLKLLLLLLHgLLLLLLLLLLLLLLLLLLLLLJLLLLLlkJLLJLJLLLLLLLLLLLLLLL8 X(^QWWWWQi;",
"333%C!LLLILLLLLLLLLLLLLLLLLLLLLSfLLLLLLLLLLLLLLLLLLJLLLLLLLJlhLLLLLLLLLLLLJLLLLLLLJZX Q(^^QQQQy=",
"333@C^LLLLLLILLLLLPLLLLLLPLLLLLMfLLLJLLLLLLLJLJLLLLLLLLLLLLLlfLLLLLLJLLLLLLLLJLLLLLL  K((((/(W=w",
"333@C~ULLLLLLLLLLLLLPLLILLLLLPLVfLJLLLLLLLLLLLLLLLLLLLLJLLLLlfLLLLJLLLLLJLLLLLLLLLLL  g//(^Qz===",
"333@M~~ILLILLLLLLPLLLLLLILPLLJPMaLLLLLLLLLJLLLLLLLLLLLLLLLLLlfLLLLLLLLLLLLLLLLLLJLLLX &^!WWQTy==",
"333&b^^~WUUUUIIIPUIIIIIIIIIIIUIVfPIIIIIIIIULUPIPIIIIIIIIIIIPclUUUUULULPPIPPPPPPURUIK  uWWWWWWS;;",
"333&b^^~~^~~WWWWWWWWQWWWWWWWWWWIgWWWWWWWWWWWWWWWWWWWWW~WWWWWMcWW~WWWR~R~WWWW~WWWWWWI  CWWWWWWWy;",
"333oqvvvmmmmNmmmvvmmNmmmBmmmmmNkgkmmNmmmvvmmvvmmmmmmvvxxmmmmfjvcxvvvvvvvmxvcxvvxmvmg  EQWWWWWWi=",
"333%uvvvmmmmNNmmvNmmmmmmmmmmmmmlgmmmNmmmvvNvvvmmmmmmNvvvmmmxfhvvvxxvvvvvmmxmvvvvvvmi @/WWWWWWWb=",
"333@qmmmmmmmmmmmmmmmmmmmmmmmmNvkfmmmmmmvNvmmmmmmmmmmvNNmmmf8@%qkmmxxxxvvxvxmmxmmxmm- y(WWWWWWWb4",
"333#qmmmmmmmmmmxmmmmmmmmmmmxxf7@ *8888859pfaafffffafsq9-@  XX XX@58fafffffq0880*&*@  g(QWWWWWWb;",
"333268&*&&&%808080pffa0085%@          X    XX                                        h(!WWWWWWb;",
"33332+ X                                                          X         X        Y(!WWWWWQi;"
};
