/* XPM */
static char *result[] = {
/* columns rows colors chars-per-pixel */
"96 96 70 1 ",
"  c #4F2913",
". c #502C17",
"X c #512E1A",
"o c #52311C",
"O c #4F3727",
"+ c #543522",
"@ c #583622",
"# c #553927",
"$ c #5A3B27",
"% c #563C2C",
"& c #5B3C28",
"* c #6C671E",
"= c #72741B",
"- c #5E4426",
"; c #5D402D",
": c #564334",
"> c #5A4334",
", c #564538",
"< c #5A4739",
"1 c #5B4A3C",
"2 c #604A24",
"3 c #635123",
"4 c #665821",
"5 c #604432",
"6 c #634A37",
"7 c #644E3D",
"8 c #6A5839",
"9 c #716B36",
"0 c #5D4E42",
"q c #5C5247",
"w c #5D5248",
"e c #604F42",
"r c #615245",
"t c #6A5544",
"y c #62554A",
"u c #64594E",
"i c #6A5C4D",
"p c #715D4E",
"a c #655D54",
"s c #685E53",
"d c #665F58",
"f c #756E47",
"g c #666057",
"h c #6B6154",
"j c #676159",
"k c #6A655C",
"l c #6D685F",
"z c #716151",
"x c #766759",
"c c #76695C",
"v c #7A6B5E",
"b c #7F7F56",
"n c #6E6A60",
"m c #736D61",
"M c #7C7165",
"N c #767469",
"B c #7B7469",
"V c #7A786E",
"C c #7E7C72",
"Z c #82776C",
"A c #827B6F",
"S c #817D75",
"D c #848175",
"F c #868579",
"G c #88877B",
"H c #8A897E",
"J c #8B8981",
"K c #908E86",
"L c #919087",
"P c #94928A",
/* pixels */
"2-22-22222-22--3222222222222222222-22222222224444444444444444444*4333232O-##-$$$$$$$$-234*======",
"zz7tzhzzzzt--$$-ippt7pzppzhzzhzzzzpzzzzzhhzzizzzzzizzzzzz7;$$5778q117177777777777777777776789===",
"FFFFFFFFFFFFz$>DFFFFFFFFFFFFFFFFFFFFFFFFFFFFGFFFFFFFFFFFFFFx$zFFFFFFFFFFFFFFFFFFFFFFFFFFFFFFFD==",
"FFFFFFFFFFFFFvxFFFFFFFFFFFFFFFFFFFFFFFFFFFFFFFFFFFFFFFFFFFFF7zFFFFFFFFFFFFFFFFFFFFFFFFFFFFFFFF9=",
"FFFFFFFFFFFGFFFFFFFFFFFFFFFFFFFFFFFFFFFFFFFFFFFFFFFFFFFFFFGGzzDFFFFFFFFHFFGFFFFFFFFFFFFFFFFFFFp2",
"FFFFFFFFFFFGFFFFFFFFFFFFFFFFFFFGFFFGFFFFFFFFFFFFFFFGFFGGFFGGzxFFFHFFFFFHFGJHHGFGFFFGFFFFFFFFFGz&",
"LPPPPPPPPPPPPPPPPPPPPPPPPPPPPPPPPPPPPPLPPPPPPPPPPPPPPPPPPPPPPPLLLLLLLLLLPPPPPPPPLLJHFFFFFFFFFFt&",
"DDSSDJJJJHJHHSNNNNNNBBNNBCSSSSDSSDSCDDCDSSFSSDDCDDJJJJJJJHHHSMHHHHHHHLHFHHJHHJJJHHHGMMFFFFFFFF7&",
"nnnnnnclcnnng;rllkllkllkkklkkkklnknklkllkklkklkkkkklkklkkkkk<7kklkklglkkkkkkkkkkkkkk7xFFFFFFFF7&",
"nnnmnnnlnnkns>rkkkkkkkklllkklnkkkkkkkkkkkllkklklllkkllkklkkk<rkkglkklgkkkklkkkkkkkkk1cHFFFFFFF7&",
"nnkkkkklkknks;ylkllkllkkklklkklkkknkkllkkkkklkklklklkkklkkkn>rkkkkglkglkkkkkkkkkkkkk1vLGFFFFFF7&",
"kkknkkklkkkks>rkklkkkklkkkklklkkknkklkkkllklkklkkkklklklklck>rkkkkllklkkkkkkkkkkkkkk1cLHFFFFFG7&",
"kklkklkkkllks;yklklllkklllklnkknknkkknklkllkkllklkklklkkkllk>rkkkkggkkkkkkkkklkkkkkk6cLLHFFFFF7&",
"lknkklkllkkks;rkkkkkklkkkkkkkkkkkknkkklkkkklkkkkklkklkklkkkl;rkkklllkkkkkkkkkkkkkkkk1tLLLLHHHH6$",
"klkklkkkkkkls;6kkllkkllkkllknknkkkkkkklkllkklkklkllklkkllkkk;7kllgkkklkkkkkkkkklkkkk1iLLLLLLPB$$",
"lkklkkllklkks>1klkkklkklkklkkkkknknklkklkklkkllklkklkklkklkk#rkhkkkkkkkkklkkkkkkkkkl>oDLLLHF6-$$",
"kkklkklklkkli>6klkklklkkkkkckknknknkkkncnknkknkkkkkkkjkkkkkk%rkkkkkkkkkkkkkkkkkkkkkk;+;HGFFFA5&&",
"klkkkllkkklkg;<kkkkkkkkkkkkkknkkkkkknkkkkkkkkkkkkjjjjkjjkkkk-0kkklkkklkkkkkkkkfkkkkk>$FFFFFFFx&&",
"kkkklkklkllkuo1kkkjkjkkgjkjkjjjjkkkkkkkkkkkkknkkjkjjjjjkjjkj>rkkkkkkkkklkkkkkkkkkkkk%pPFFFFFFF;&",
"kjkkkkkklkkkuX1jjjjjjjjkjkjjjkkjjjdkjkkkkkkkkjdkjjjkjkjjkjjj>rkkkkkkkkkkkkkkkkkkkkkk;xLFFFFFFFt&",
"jjjjjjjjkjkkuo1kjkkjhjkjjkjjjkkjjjkjkdkdkjjkdkjdjkhkkkjjjkkj>rkkkkkkkkkkkkkkkkkkkkkk;xLFFFGFFFp&",
"jjjjjjjjjjgjro1jjjjjkjkjjkjkjjjjkjkjjkdkjkjjkjjkjjjjkgkjjjjg>rkkkkkkkkkkkkkkklkkkkkk;zPFFFFFFFz&",
"jjjjjjjjjjjjro1kkjjkjkjjjjkjjkkjkddkkddkkjkjkjjkkjkkjkgjjkgk>rkkkkkkkkkkklkkkkkkkkkk;xLFFFFFFFz&",
"jjjjjjjjjjjjuo1jkjjkjjjkkjjjkjjjjkjjjjkjjjkjdkjjjjjjkgjkjjkk>7kkkkkkkkkkkkkkkkkkkkkk&xPFFFFFFGz&",
"jjjjjjjjjjjjq+1jjgkgkjkgkjjkjkjkjkjjkkjjdkddkdkjjjjkdkjkjkkj>7kkkkkkkkkkkkklkkkkkkkk vLFFFFFFFz&",
"jjjjjkjjjjjjqX1kjkjkkkgkgkjjjjjjkdjjjjjkkdkkdkjjkkjjkdkkjjjj<rkkkkkkkkkkkkkkkkkklkkr zLFFFFFDF8&",
"jjjwwrwwrrwr7;,wyyyywrywyywyyyyyyyyyyyyyyyywyyyyyyyywywyyyyy>qkkjkkkkkkkkkkkkkkkkj7. zPFFFFFFF8&",
"      . . .o1qq,+o  . .                .  .            ..X#>qq>o  ...                zLFFFFFFF6&",
"1,11,11,111qqqqqqq1#  .     +:,11111<%%%%O+o+o .  o++#%,0wwwwwww0,11,0:O:,11,1,1:%   pLFFFFFGG7&",
"qqqqqqqqqqqqqqqqqqqq1O    +qqqwwqqqwwwwwqwwwwwwwwwqwwwwwqwqqwwwwwwqqqq:O1qqqqqqqqqqo pLFFFFFFGt&",
"qqqqqqqqqqqqqqqqqqqqqq#  +wwqqqwwqwwwwwwqwwwwwqwwwwwwwwwqqwwqwwwwwqqqq:O1qqqqqqqqqq; pLFFFFFFFz&",
"qqqqqqqqqqqqqqqqqqqqqqq. qwqqqwwwwwwwwwwwwwwwwwwqqwqwwwqwwqwwwqwwwwqqq::1qqqqqqqqqq< pKFFFFFFFp$",
"qqqqqqqqqqqqqqqqqqqqqqq%+qwwqwwwwwqwwqwwwwwwwwqwwwqwwwwwwwqwwwqwwwwwww,Oqqqqqqqqqqqq.kKFFFFFFF7&",
"qqqqqqqqqqqqqqqqqqqqqqq:%qwqwqwwwwwwqwwqwwwwwwwwqwwqwwwwqwwwqwqwwwwwwq,O0qqqqqqqqqqq.nLFFFFFFF7&",
"qqqqqqqqqqqqqqqqqqqqqqq:%qwwwqwwwwwwwqqwwwwwwwwwwqwqwwwwwwwqwwwwwwwwww,O0qqqqqqqqqqq pLJFFGDFF6&",
"qqqqqqqqqqqqqqqqqqqqqqw%Oqwqwwwwwwqwwwwqwwwwwwwwwwqwwwwwwqqwwwwwwwwwww,O,qqqqqqqqqqq sLKFFGGFF8&",
"qqqqqqqqqqqqqqqqqqqqwwq#+wwwwwwwwwwwwqwwwwwwwwwwwwwwwwwwwwwwwwwwwwwwww,O0qwqqqqqqqww 6PPKGGGFF7$",
"ddddjjjjjjjjjjjjkjjjjjj<,djdjjjjjjjjjjjjjjjjddkdddjjddjjjjjjdjjdjjjjjdyOqdjjdddddaaa @PPLPHLKK5$",
"jjddjjjjjjjjjjjjjjjjjja%>ajjjjdkjjjjjjjjjjjjjjkddjjjnddjjjjjjjjjjjjjjjwOqdkjjjjjdjkd  ZPPPPHZt&-",
"jjjjjjjjjjjjjjjjjjjjja1:>1ajjjddjjjjjjjjjjjjjjkndjjjddjjjjjjjjjjjjjjjj,OOwddjjjjjjdd .&PPHGGt&&@",
"qwwwwywyyyyyyywwqqq01>>>>>%1wyywwqqwwqwww>%%%%%%%%%%%w0wqqwqqwqqwqq0w%OOOO%ww0000000  @GFFFFD5&&",
"qqqqyyuyyyyyuyuwywuwyyyyyyyuaaaaddddaadaayyr%%%%%1<00ywwwwwwwwwwwwwww0,%%%0wywwwwyyy  tSFFFFDZ&&",
"qwjjjjjjjjkjkkdkkkkkkkjkkkknknkknnnnnnnnnnnnj,%>kknkllnknknlkkkknnnnknknnnnnnnnnnnnn  MFFFFFFF5&",
"jjjjjjjjjjjjdkdjjjjjjjjjjjdjdjdkdddddddjddddnr%ukkdkkdkkjkdkkkkkkjjjjkkjnjdnddkkdkdw  GFFFFFGGt&",
"jjjjjjjjjjjjjjjjjjjjjjjjjjjjkdddddjjjjjjddkdk0%kkkddjjjjjjddddddjjjjjjjjdddjjjjjddjy XPFFFFFFFz&",
"jjjjjjjjjjjjjjjjjjjjjjjjjjjjddkkdddkjjjjdkdddw%ddddkjjjjjjjkdkdkddjjjjjjddjjjjjjdkdw 5PFFFFFFFz$",
"jjjjjjjjjjjjjjjjjjjjjjjjjjjjdjddddddjjjjddkkka0kdkdkjjjjjjddkddkddjjjjjjjjjjjjddddkw tPFFFFFFFz&",
"jjjjjjjjjjjjjjjjjjjjjjjjjjjjjjkddkkdjjjjkddddaydddddjjjjjjkdddkddnjjjjjjjjjjjdkkkddk pPFFFFFFF7&",
"jjjjjjjjjjjjjjjjddkddkddkdkddddkkdkddddkdkkdddyddddkdkddkdjjjjjjjjjjjjjjjjjjkdddjjjj ZPFFFFFGG7&",
"jjjjjjjjjjjjjjjjdkdkdddkddddndddddddkkddddddddydkddddkkdkdjjjjjjjjjjjjjjjjjjddkdjjjj ZPFFFFFGG7&",
"jjjjjjjjjjjjjjjjddddkkddddkddddddddkdddddkdkdawdjjjjdddddjjjjjjjjjjdjjjjjjjjdddkjjjj ZPFFFFFDG7&",
"jjjjjjjjjjjjjjjjdkdddddkkkddkddddkkddkdddddddywyjjjjkddddjjjjjjjjjjdjjjjjjjjndddjjsi ZLFFFFDFF6&",
"0jdddjddkdjdjadjddddddddddddddaddddkddddddddawwwadddkdddddddjdddddddddddjjddddddjgjj ZPFFFFFGF6&",
"%>0aaaaauuaaaaaaaaydaaadadauddaaauauauddddaywwwwwwyyaaauawayuuyuyyayuyuyyywwyuwwyyyw ZPFFFFFGD8&",
"%%>w0wywwwwwywqwywwyw00<00<00yryywywwwyyyyyywwwwwwywwwwwwwwwwwwwwywwwwwwww00w000000q ZPFFFFFGG7&",
"akkkkkkkknkkkkkkkkkkkdd00eakdnnklkllllkkklkkkllkllllkllllknknknnkllnknnndaaaaaaaaasd ZKFFFFFDG7&",
"njjnjjnjdkdnddnddkdkdkdy0dkkkkkkdkkkdkkdkkkkkdkkkkdkkkdkdkkdlkkkkdndndkkkdddddddddkd pKFFFFFFF7&",
"dddddddddddddddddddddddw1ddddddddddddddddddddddddddddddddddddddddddddddddddddddddddd sKFFFFFFF7&",
"dddddddddddddddddddddddy0ddddddddddddddddddddddddddddddddddddddddddddddddddddddddddd 6PFFFFFFF6&",
"dddddddddddddddddddddddy0ddddddddddddddddddddddddddddddddddddddddddddddddddddddddddd &PGFFFFFF7&",
"dddddddddddddddddddddddywddddddddddddddddddddddddddddddddddddddddddddddddddddddddddd  PKFFFFFF7&",
"dddddddddddddddddddddddy0ddddddddddddddddddddddddddddddddddddddddddddddddddddddddddd  SPKGFFFF7&",
"dddddddddddddddddddddddwwddddddddddddddddddddddddddddddddddddddddddddddddddddddddddd  ZKPKKKHK5&",
"dddddddddddddddddddddddw0ddddddddddddddddddddddddddddddddddddddddddddddddddddddddddd  tPPPPKAx$$",
"ddddddddddddddddddddddd<%ddddddddddddddddddddddddddddddddddddddddddddddddddddddddddd  @PPJKSp&&&",
"dddddddddddddddaddddddd%+ydddddddddddddddddddddddddddddddddddddddddddddddddddddddddd  @JJSGSG7&&",
"auauawaauuuaauaauaaddy%O+#%uaaaauaaaaaawauawuuuyyuaaaaaaudaaddadadaa0<%<>>110wuuauuy  tJSJSGGZ&&",
"0000000000q00000000,%%+O++%%000000000000000%%%%%%%wywwwwwyyyewwwwwe0%<<%>>>5>>>>>::<  ZSGSSJGG6&",
"00qwyauaauauuyuwyuunjjnjkkkldlllnnnnnnnnkkkdw%%%eydkdddkdkddkdkdkdkdddyyuyyyytuuyyyu  PJFFFFGG6&",
"wddddddddddddddddddddddddddddddddddddkdkkkkkky%ykklkllkllkllkkkkkkkklkklkkkkkkkkkdkd &PSFFFFDGz&",
"dddddddddddddddddddddddddddddddddddddddddddddd0ddddddddddddddddddddddddddddddddddddd tPJFFGFDGz&",
"dddddddddddddddddddddddddddddddddddddddddddddddddddddddddddddddddddddddddddddddddddd pPSFFDGGGz&",
"dddddddddddddddddddddddddddddddddddddddddddddddddddddddddddddddddddddddddddddddddddd ZPFFFFFFF8&",
"dddddddddddddddddddddddddddddddddddddddddddddddddddddddddddddddddddddddddddddddddddd ZPFFFFFFF7&",
"ddddddddddddddddddddddddddddddddddddddddddddddddddddddddddddddddddddddddddddddddddad ZLFFFFFFG7&",
"ddddddddddddddddddddddddddddddddddddddddddddddddddddddddddddddddddddddddddddddddddss ZPFFFFFFG7&",
"dddddddddddddddddddddddddddddddddddddddddddddddddddddddddddddddddddddddddddddddddddr ZPFFFDFFF6&",
"ddddddddddddddddddddddddddddddddddddddddddddddddddddddddddddddddddddddddddddddddddd1 ZLFFFFFFF7&",
"dddddddddddddddddddddddddddddddddddddddddaddjdggdddddddddddddddddddddddddddddddddda+ ZKFFFDGSG7-",
"dddddddddddddddddarwwrrdddddddddeyweywrryqyrrqqadddddyyyudddddddddddddddddddddddae+  pKFFFGGGG7&",
"o###o     +1ggjw+                                        o%ujjgr#.    o#++##+#o.     pPFFFFFFF7$",
"$$%$$%%-$%$$>as7eeeeeeee77e777e7e777777q777777q777777q77777ruui7r7777r77e77777ihe6.  5PFFFFFFF7&",
"NNNNNNNNNNNNNrmNNNMMNNNNBNNNNNNNNNNNNNNNNNNNNNNNNNNNNNNNNNNNirNNNNNNNNNNNNNNNNNNNNm# @PKFFFFFG7&",
"NNNNNNNNNNNNNtmNNNNMNNNNNNNNNNNNNNNNNNNNNNNNNNNNNNNNNNNNNNNNitNNNNNNNNNNNNNNNNNNNNNs  JPHFFFFG7&",
"NNNNNNNNNNNNNtlNNNNNNNNNNNNNNNNNNNNNNNNNNNNNNNNNNNNNNNNNNNNNirNNNNNNNNNNNNNNNNNNNNNN  ZKPKKHHG5&",
"NNNNNNNNNNNNNtcNNNNNNNNNNNNNNNNNNNNNNNNNNNNNNNNNNNNNNNNNNNNNitNNNNNNNNNNNNNNNNNNNNNN  xPPPPPPZ&$",
"NNNNNNNNNNNNNrcNNNNNNNNNNNNNNNNNNNNNNNNNNNNNNNNNNNNNNNNNNNNNirNNNNNNNNNNNNNNNNNNNBNN  6PPKHS8&&&",
"VVVCVVVVVVVVCrmVVVVVVVVVVVVVVVVVVVVVVVVVVVVVVVVVVVVVVVVVVVVVirCCCCCCCCCCCCCCCCCCSSCN  @HGGGGS6&$",
"FFGGFFFFFFFGFrVGFGFFFGFFFFFFFGFFFFFFGFFGFGGFFGFFFFFFFFFFFGFFsrFFFFFGGGFFGFFFFFFFFFFS  6FSGGFFZ@@",
"nnnknnnnggddsrugdddgdjagddggddddggajddggdadgagagjjggddddggddrtgaggagadddajddddgjddde  xFGGDFFF5&",
"ddggddddggggsrijddggddggdddgjjddggggdgggdjggjgggjgggggddggjartggaaggajadgsaddadadssy  AGFFFFFGt&",
"djggddddgggssriaggggggggadgggajdggggdggggdggggggggggggddggjaiygggggagadagajdadadsdse  PFFFFFFGz&",
"ggggdaggggy<#o$0ggggaggggggggggggggggggggjjgggggggggggggsse>oo,ugjggaggaadassasadas% 5KFFFFFFFz&",
"rrqrq1>%+ .      %>qragggrqr0>>>>@#<><>>>1rqrqrqyrrqq1,#o   ... o$><rqryre<><>%+##+. 8PHFFFFFFz&",
"                        .     .     ..                      .   .                    zLGFFFFFFz&",
"                                                                                    .vLGFFFFFFp&"
};
