/* XPM */
static char *result[] = {
/* columns rows colors chars-per-pixel */
"96 96 69 1 ",
"  c #492513",
". c #4F2913",
"X c #502D17",
"o c #512F1A",
"O c #52311D",
"+ c #4F3423",
"@ c #533422",
"# c #543826",
"$ c #5A3B27",
"% c #543B2C",
"& c #5A3C29",
"* c #533E32",
"= c #72741B",
"- c #5D412F",
"; c #564234",
": c #5A4434",
"> c #5E4837",
", c #55433A",
"< c #5B473A",
"1 c #57483F",
"2 c #5C4A3D",
"3 c #604A24",
"4 c #604532",
"5 c #624936",
"6 c #624C3C",
"7 c #78773F",
"8 c #5C4D42",
"9 c #5A4E48",
"0 c #5C5247",
"q c #5E534B",
"w c #604F41",
"e c #615246",
"r c #685342",
"t c #62564B",
"y c #6B5749",
"u c #61584E",
"i c #6D5B4C",
"p c #605751",
"a c #655D54",
"s c #685F56",
"d c #665F58",
"f c #705F52",
"g c #666057",
"h c #6D6357",
"j c #676159",
"k c #6B665D",
"l c #6D685F",
"z c #716152",
"x c #706659",
"c c #766A5B",
"v c #786B5E",
"b c #6E6A60",
"n c #716A61",
"m c #796E61",
"M c #7B7365",
"N c #767469",
"B c #79746B",
"V c #7A786E",
"C c #7D7971",
"Z c #817C6F",
"A c #817D75",
"S c #838075",
"D c #888077",
"F c #868579",
"G c #88877C",
"H c #8A887E",
"J c #8D8B83",
"K c #908E86",
"L c #94928B",
/* pixels */
"===3$$$$$$$$$$$$$$$$$$-#$$$$$$$$$$$$$$$$--O3$$$$$$$$$$$$$$$$$$$$-#3-#$-$$$$$$$$$$$$$$$$$$$$$$$-$",
"==7zzzzizzzizzzMMNMMMMMMMMMzzz66$$$$$$$466zzzMMMMMMMMMMMMMMMczzihgiiziziizzMMNMMz6$$$5cMMczzziiz",
"=7FFFFFFFFFFFFFFFFFFSFFFFFFFFFFFFSvzvMFFFFFFFFFDFFGFFFFFFFFFFFFFFFFFFFFFFFFFFFFFFFM>-SFFFFFFFFFF",
"$MFFFFFFFFFFFFFFFFFFFFFFFFFFFFFFFFFFFFFFFFFFFFFFFFFFFFFFFFFFFFFFFFFFFFFFFFFFFFFFFFFScFFFFFFFFFFF",
"$MFFFFFFFFFFFFFFFFFFFFFFFFDFFFFFFFFVFFFFGGFFFFFFFFFFFFFFFFFFFFFFFFFFFFFFFFFFFFFFFFFFFFFFFFFFFFFF",
"$mFFFFFFFFFFFFFFHJHHGHGGGGFGFFFFFFiyHHHHHHGHHHHGHGHHHHGGHHHHHHHHHGHHHGGFHHGGHHHHHHHGGHHFFGFFFFFG",
"&zFFFFFFFFFFJKLLLLLLLLLLLLLLLLLLLL-vLLLLLLLLLLLLLLLLLLLLLLLLLLLLLLLLLLLLLLLLLLLLLLLLLLLLLLLLLLLL",
"&zFFFFFFFFvMNVSZCSCSSSVNNNNNNNNNNN6iVNNMNNNNNVNNNNVNMVVBBBBBBASAAAAAAFSSSSSSSSSASSSchlllkNNNNNNV",
"$zFFFFFFFHy>qallklkllkklkllkkllkll>rbbbbbbbbbbbbbbbbbbbbbbbbbbbbbbbbbbbbbbbbbbblblk->lkkkkkllljk",
"$zFFFFFFFKy<qplllklkkllklklllkllll6rbbbbbbbbbbbbbbbbbbbbbbbbbbbbbbbbbbbbbbbllllllka-5klkkkkkjlll",
"-zFFFFFFHLy>qqkklllkllklkllkkllkll6ubbbbbbbbbbbbbbbbbbbbbbbbbbbbbbbbbbkkjljlkkkkkka-2lkkkkkkjlkk",
"$zFFFFFGLLy>qqglklklkllklkkllkklkl>tbbbbbbbbbbbbbbbbbbbbbbbblbbkkbjbjbjbjllkkkllkkk-2klkkkkklkkk",
"$zFFFFGKLLr>qqglklklkllklklkklkllk6tlbbbbbbbbbbbbbbblbllllkkkkkkbjbjjbkklkkklljjkkk;>lkkkklkkkkl",
"$zJHJKLLLJ:>qqallklklkllkllllklkkl6ybbbbbbbbbbbbblbllkkkkkkkkkkkkkjbbjbklkkkjlllkkl->kkkklkkkkkk",
"$4LLLLLLKr->qqqklllkkllkklkllllkll2tbbbbbbblllllkkkkkkkkkklkkkklkkjbkkbkkkklkkjlkkk-2kkkkkkklkkk",
"$$ZLLLKJM:>2qqqjklkllkkllklkklkllk>rbbblllllkkkkkkkkkklkkkkkkkkkbjbkkkjlkkbjkllkkkl-6klkkkkkkkkl",
"$$iHGFFFSr:4tqqjllllklklklkklkklkb-tlkkklkllkkkkkkkkkkkkkkkkkkbkkkkkkkkkkkkkkklkkkk:>kklkkkkkkkk",
"$$mFFFFFFJ:<qqqpklkllklklkllkllkkb-tkkkkgkkjkklkklkkkkkkkkkkkkkkkkkkkkkkbkkkkkkkkkl$2kkkkkkkkkkl",
"&4DFFFFFGJy<qqpulklklklklllkllklbk;0kkkkllklkllkkkkkkkkkkkkbbkkkkkkkkbkkkkkklkkkklkO2kjjjjkkkkkk",
"&rDFFFFFGJf:qqqqkkklllklklklkllkbk30kkklljkkkkkkkkbkkkkkkkkkkkkkkkkkkkkkkkkbkkklkkgO>gjkkjjjjgjj",
"-zFFFFFFGJz&uqqpggggggjkllklklllkl-6lkjlljlklgllkkkkkkkkklklklkkkkkkkkkkkkkklkkkkktO2jkjjkjjjkjj",
"OmFFFFFFGJz%qqqqpgggggggggjkllkllk-tjjjjggggkgggjjjjjjjjgggjggggjjjjjjjjggggggjjggtO>gjjjjkjgkjk",
"3MFFFFFFGJh-qqqqqgggggggggggggjkhk>6jjjjjjjjkgkgjjjjjjjjgjjjjjggjjjjjjjjgkgkgjjjjjtO;kjkkjjjgjkg",
"&MFFFFFFFJz;qqqqqagggggggggggggggj-0jjjjjjjjggggjjjjjjjjjjjjjggkjjjjjjjjggggkgjjjjrO-jjjjjjkkjgk",
"&MFDFFFFHJz$qqqqqaggggggggggggggga.OjjjjjjjjjjggjjjjjjkgjjjjjjjjjjjjjjjjjjjjjjjjjjgO-jjjjjkjkjgj",
"&MFGFFFFHH6O,quqqaggggggggggggggg:..0jjjjjjjjjgkjjjjjjjgjjkgjjjjjjjjjjjjjjjgjjjgjjgO%gkjjkjjkjkg",
"-MFFFFFFFJ6O@:80t0q0uuqqgggg0::>#....-tt>;>;>;2;>;;>:>,;,:::>;:>>:,,>,:::>:>>::><<6;;:<<tet0eteg",
"$MFFFFFFHK6@@@@@@@O@O#O+O#OO...X...........X..........XXX..........X.............@2000;@..X.X...",
"$MFFFFFFHJ6@@@@#;;<222000000000000000000000001X;00000000000000000000000000000021000000000;X....X",
"$MFFFFFFGJ5@@#8000000000000000000000000000000,+;0000000000000000000000000000000000000000000;X..;",
"$mFFFFFFFK5@#800000000000000000000000000000001+;00000000000000000000000000000000000000000000;.X2",
"&zFFFFFFFJ6@,000000000000q00000000000000000002+,000000000000000000000000000000000000000000000X.0",
"$zFFFFFFFJ6@9000q00000000000000q00000000q00002+;000000000000000000000000000000000000000000000;O0",
"$zFFFFFFFJ6O0000000900000000000000000000000001+;00000000000000000qq0000000000000000q00000000q<+0",
"&zFFFFFFJJ2%0000000000000000000000000000000001+;000000000000000000000q00000000000000000000q00:+0",
"$zFFFFFFJJ>;00000000000000000q0000000000000002+;0q0000000000000000000000000000000000000000000;O0",
"&zGFFFFKJJ-%0000000000000000000000000000000008@;000000q0000000000000000000000000000q0000e0008#Xe",
"&6KKJKKJJm@%000000000qggggggjdjajgjgjggjjgjgjp:0jjjjjjjjjjjjkjjjjjjjjjjjjjjjjjjjjjjjjjjjjjjjj6;s",
"&&zHHJJv>O@%000900000ggjgjggjjgjjgggggjggjgggq<2jgjjjjjjjjjjjjjjjjjjjjdjjjjjjjjjjjjjjjjjjjjjd:;t",
"&&cFFFFV$@@%000911999gjgjgjgjajjgjggggjjjgja0:::qkjjjjjjjjjjjjjjjjjjjjdkjjjjjjjjjjjjjjjjjjju,::w",
"&&SDFFFFMO@@%%%%;;+;+,,,888880880000002022::>:<>>8e000000000200080ew9ee88e98w8880900000e0e>;:;::",
"&4FFFFFFH-@#*,*,,,,+;++9taaaaaaagpauaagaguuuttttutttuuruugagaaatee80e8980etpaaaagau0qqttuuutttee",
"&rDFFFFFHyO%0qqq90q9+%9kbbbbkbknbkkbbbkbllllllllllllllllllllllllkkst8weakbbbbbbbkblkkbbbllllkbll",
"&zGDFFFFGM@%qqqq00qq,;qjjddjjjjjjjjgjjjjjjggjjjjjjkgggjjgjjjjjggjjjj0udkddjdddjjjjjjjjjjjjjjjjjj",
"-cFFFFFFJS@;q9qqqqq9,+ajjjjjjjjjjjjjjjjjjjkggjjjjjjjjjjjjjjjjjjjjjjj9ejjdjjjjjjjjjjjjjjjjjjjjjjj",
"OMFFFFFFGL@%qqqqqqqq8*jjjdjjjjjjjjjjjjjjjjjjjjjjjjjjjgjjjjjjjjjjjjjjetjjjjdkjjjjjjjjjjjjjjjjjjjj",
"3MFFFFFFGL:%qqq99qqq9,jjjkjjjjjjjjjjjjjjjjjjjgjjjjjjkgjjjjjjjjjjjjjj8ujjjjdjjjjjjjjjjjjjjjjjjjjj",
"&MFFFFFFGL6;qqqqqqq99,pjjjjjjjjjjjjjjjjjjjjjkgjjjjjjjjjjjjjjjjjjjjjj9ejjjjjjdkjjjjjjjjjjjjjjjjjj",
"&MFFFFFFHLi$qqqq9qqqq,9djjjjddjjjjjjjjjjjjjjdkdkjjjjjjjjjkjjjjjjddddetdkddddjjjjjjjjjjjjjjjjjjkj",
"&MFFFFFFHLz%qq00qqqq9,ppjjjjkdjjjjjdjjjdjjjjddddjjjjjjjjddjjjjjjkdkd9tdkdkjjjjjjjjjjjjjjjjjjjddj",
"$MDGFFFFHLc%qqqq9q9p9*9pjjjjddkdjjkdjjddjjjjkdkdjjjjjjjjjjjjjjjjdddd<6ddjjjkjjjjjjjjjjjjjjjjjjdd",
"-MFFFFFFHLc$qqqqp9p9,,9pdjjjkdddjjjjjjkdjjjjjdddjjjjjjjjjjjjjjjjdkdd%%ddjjddjjjjjjjjjjjjjjjjjjkd",
"$MFFFFFFJLx%q9q9999,,,19pdddddddjkddddkdjjjjddddjjdjjjjjdkjdjjjjsssw%%8djjjjjjddjjjjddjdjjjjddkd",
"$MFFFFFFHLf#,889,,,,*,,,99eetteee0eeeweeee0eew:<:>:<ww888888808w<*%&&%%*2uupuuupuuuuupuuuttttttt",
"$MDFFFFFHLx#9***,,,,,,,,*9888888888888w888888<%%%%#*8<<<22<82<8<%%&%%%*%*eq0e0t0q9ee9e09e9ee8<88",
"&xFFFFFFGLe*9ppppp9pp9pqpbbdbkkkkkbbbkkkkkbbkb6&$:dkkkkbkkjbkkkkkkkkkkkkkkkkkkkkkbjbkkbbkkkbd8<w",
"&zFFFFFFGL6&9qqqppqqpppppddkdkkdkdkdkkdkkkkdkdk**pjjddbdjkdjkdbdjjjjkjjkjjjdbjddkdjkdkdbdkdkdp8d",
"&zFFFFFFFL4%9qq99qpppqpqpdddddddddddddddddddddd:%jjdddddddddddddddjdddddjddddddddddddddddddddu8d",
"&zFFFFFFGLO%q99qqqqpppppppdddddddddddddddddddddapddddddddddddddddddddddddddddddddddddddddddddt8d",
"&zFFFFDGKG@%9qq999pppqqppqaddddddddddddddddddddptddddddddddddddddddddddddddddddddddddddddddddt<d",
"&zDDAJAALA@%qq99q9pqppqppppddddddddddddddddddddpqddddddddddddddddddddddddddddddddddddddddddddt8d",
"&zFGHDJLLf@%q99q9qppqqpp9ppddddddddddddddddddddpqddddddddddddddddddddddddddddddddddddddddddddu2d",
"$zKKKKLLLr@%9qq9q9qppqpqppppdddddddddddddddddddp9ddddddddddddddddddddddddddddddddddddddddddddt2d",
"$4KLLLLLLO@%q99qq9qqpppqppppdddddddddddddddddddptddddddddddddddddddddddddddddddddddddddddddddt:a",
"&&ZKKKJHZoO%t99q9q9pppp9ppppdddddddddddddddddddtqaddddddddddddddddddddddddddddddddddddddddddd6@s",
"&&yHFFFHZ@O%t999q9999pppppp9dddddddddddddddddda99pdddddddddddddddddddddddadddddadddddaddddddd*#w",
"&&ZFFFFFJ*@%,,,,,,,1,1,,,,,9ddpddpaddadaadadppp9qqqpaaadpddpdadpppttptpaaaaaaaaaaaaaaaaaaaue*@@&",
"&5DDFFFFJi@@%%*%*%%*+%****,999q9p9999ppt9q999t9q9q0q9qq0qqqqq99tw8w88w8w288w8828288282888%@##@#@",
"-iFFFFFFGZO#8888,,,%%***8q9t9qqppdbbkbbbbbnbddddddkbbbbbkkbkkbkbbbjew888epddddddjgaauaatakkkndpi",
"$cFFFFFFJJ@%99999991*+,p99qqqpdkbbbddkkkkkdkbbbdbkkkbdbdkkkkkkkkdkbbw8akkbnkbbbbllkbxkbbbkbbbbbb",
"$MFFFFFFGL*%99999999,*99qtq9qqdddddddddddddddddddddddddddddddddddddd8eddddddddddjdddjddddddddddd",
"-MFFFFFFJL6+999999999,9999qq9ppddddddddddddddddddddddddddddddddddddd8wddddddddddsddddddddddddddd",
"$FFFFFFFHL6-99999999999tqqqqq9pddddddddddddddddddddddddddddddddddddd80dddddddddddddddddddddddddd",
"$FFFFFFFHLc-9999999999q99t9t9ttddddddddddddddddddddddddddddddddddddd8edddddddddddddddddddddddddd",
"$SFFFFFFGLz$99999999990q99q9q0qadddddddddddddddddddddddddddddddddddd8edddddddddddddddddddddddddd",
"$MFFFFFFHLx$9999999990qqqt9pqqqpddddddddddddddddddddddddddddddddddddt9dddddddddddddddddddddddddd",
"$ZFFFFFFHLz%099999999t9qq00q09qtddddddddddddgjaddddddddddddddddddddddedddddddddddddddddddddddddd",
"$mFFFFFFHLz%9999999999t9qqqqqqqqddddddddddddjgjddddddddddddddddddddddddddddddddddddddddddddddddd",
"$mFFFFFFFL6%99999999990q9q9qq09qpdddddddddddggggddddddddddddddddddddddddddddddddddddddddddaddddd",
"$zFFFFFFFL6$,<,,,,,,,,qq0qq0qqq0uddddddduee0euggddddpee9eteee9eeeee9eeaddddpeeeadddddddaetet9ddd",
"$zFFFFFFGL%o                    X+2gjg%.......... ...........X...............X..O:adg0%XX.XX.XX.",
"&zFFFFFFJK@#*%*::::*::;::;::;::;:66ja----#-$#--#$$-$$$$-%$$$$%$%%$$$-$$-%$$$$%$%%%-pli6666666666",
"&zFFFFFFKA@&etuaasddagaaaaaaaaaakNNnqNNNNNNNNNNNNNNNNNNNNNNNNNNNNNNNNNNNNNNNNNNNNNBrhMNNNNNNNNNN",
"$zFFFFFJLz@%qqpsdaassajsaadsjadakNNnqNNNNNNNNNNNNNNNNNNNNNNNNNNNNNNNNNNNNNNNNNNNNNNrxNNNNNNNNNNN",
"&zKKJJLLL6@&9tpasadsaaaasdsaagasjNNnqNNNNNNNNNNNNNNNNNNNNNNNNNNNNNNNNNNNNNNNNNNNNNNehBNNNNNNNNNN",
"&5LKLLLLL@@%ttuasaaaassaaaaasagakNNluNNNNNNNNNNNNNNNNNNNNNNNNNNNNNNNNNNNNNNNNNNNNNNyhBNNNNNNNNNN",
"&&ZKLLKJM@@&ttpsasasdssaagasssaglNNguNNNNNNNNNNNNNNNNNNNNNNNBNBBNNNNNNNNNNNNNNNBNNNrhNNNNNNNNNNN",
"&$yKJFFGB@@#ppsdkkkhkkhkkkkkhhkklnguuVVVNVVVVVVVVVVVVVVVVVVVVVVVVVVVVVVVVVVVVCBVVVVwkBVVVVVVVVVV",
"&&cFFFFFH$@*nnbbnnnnnnnxnnnnnnxkguuuuFFFFFFFFFFFFFFFFFFJFFFFGGFFFFFFFFFFFFFFFFFFFFFemFFFFFFFFFFF",
"&&SFFFFFHy@#,88puuuuuuaaaaaaauupuuuuugggdjagggggggggggddggggjagggggggggjggjajdggjggrtgggglllbbbb",
"&6DGFFFFHv@#88,puuuuuuuutuuuuuuuquuuugggjjggggggggggggddggggdgggggggggggggggdajggggetgggggggdjdj",
"&zGDFFFFGA@$,889quupquuutuuuuuuuuuuuugggjagggggggggggggaggggggggggggggggggggjjjgggjryggggggggdjd",
"-cFFFFFFHL@%8,2uuuuutuuuuuuuuuuuquq2$$tgjjjggggggggggjggggggggggggaagjjdaggagggaa0$O$2pgjagggggg",
"OMFFFFFFHL4#+#%;;@%-;&;-,22622*;$O.. .XO%>e0ggguee0<;:<;$O::::::0eee00e0eee0:>@O.......%>eetggu0",
"3ZFFFFFFHL6@............XX....X.............................X...X.X.........X.................X.",
"$DFFFFFFHLs@O..................................................X................................"
};
