/* XPM */
static char *result[] = {
/* columns rows colors chars-per-pixel */
"96 96 86 1 ",
"  c #4F2913",
". c #502A14",
"X c #512E19",
"o c #523614",
"O c #553B14",
"+ c #593D16",
"@ c #55321D",
"# c #553623",
"$ c #553926",
"% c #5A3B26",
"& c #573C2B",
"* c #5B3E2C",
"= c #554415",
"- c #5C4616",
"; c #525713",
": c #575B15",
"> c #5B5E16",
", c #5B5719",
"< c #5C5E19",
"1 c #604E1B",
"2 c #5E6117",
"3 c #5E6119",
"4 c #616417",
"5 c #62641A",
"6 c #6B631C",
"7 c #676A19",
"8 c #6B6E1A",
"9 c #6D721A",
"0 c #72751B",
"q c #76791E",
"w c #787B1F",
"e c #5B4423",
"r c #5E412E",
"t c #574131",
"y c #5B4433",
"u c #5D4A3D",
"i c #604A24",
"p c #614928",
"a c #635123",
"s c #665821",
"d c #604733",
"f c #624B3A",
"g c #767A20",
"h c #7A7D22",
"j c #787A38",
"k c #5E4E43",
"l c #5E5246",
"z c #5D5348",
"x c #604F41",
"c c #635344",
"v c #695444",
"b c #61554B",
"n c #645A4D",
"m c #685B4F",
"M c #665D53",
"N c #695E53",
"B c #665F58",
"V c #66614D",
"C c #666057",
"Z c #6A6155",
"A c #676159",
"S c #6A645C",
"D c #6F6A5E",
"F c #746153",
"G c #786759",
"H c #72695C",
"J c #6D6760",
"K c #6E6961",
"L c #716C62",
"P c #747166",
"I c #787266",
"U c #767469",
"Y c #79776D",
"T c #7D796D",
"R c #7E7B72",
"E c #83776C",
"W c #82786D",
"Q c #827F76",
"! c #7D8024",
"~ c #828077",
"^ c #868579",
"/ c #8A897E",
"( c #8E8B83",
") c #908E86",
"_ c #929087",
"` c #96948C",
/* pixels */
"iiiassssssssip%%&%p6006+++++-+. ... .. .o  G^^^^^^^^E%>>>>>>>>>>>>>>>>>>>>>>>8000000000000000000",
"fffd%%%%%%%%%%%%&e%%ajp............ ....$fT^^^^^^^^^Q%>>>>>>>>>>>>>>>>>>>>>>>0000000000000000000",
"^^^^^^^^^^^^^^^^^^^^^^^^^^^^^/^^^^^^^^^^^^^^^^^^^^^/E%>>>>>>>>>>>>>>>>>>>>>>>0000000000000000000",
"^^^^^^^^^^^^^^^^^^^^^^^^^^^^^^^^^^^^^^^^^^^^^^^^^^^_G%>>>>>>>>>>>>><2>>>>>>>>0000000000000000000",
"^^^^^^^^^^^^^^^^^^^^^^^^^^^^^^^^^^^^^^^^^^^^^^^^^^^_F%>>>>>>>>>>>>><4<>>>>>>40000000000000000000",
"^^^^^^^^^^^^^^^^^^^^^^^^^^^^^^^^^^^^^^^^^^^^^^^^^^/`f%>>>>>>>>>>>>>>::<>>>>>40000000000000000000",
"))))/)()(((((()((((((((____________________________/d%2>>>>>>>>>>>>>>>>>>>>>40000000000000000000",
"/////)_```````````````````````````````````````````_~%%>>>>>>>>>>>>>>>>>>>>>>70000000000000000000",
"SDSSKSSKDSDSKKUUUUUUUuDUUUUUUUUUIIUIUUUUUUUUUUUJJSUQ%%>>>>>>>>>>>>>>>>>>>>>>70000000000000000000",
"DSDSSSKSSDSDSDSSSSSKSeMJSJSSSSJSHDDSSKSSJSJSSDSSSJUQ%%>>>>>>>>>>>>>>>>>>>>>>70000000000000000000",
"KKDSDSDKDSDSSDDSKKKSSenSDSSKSJDSSJSSSSSSSJSSKSSDSJUQ%%<<4<<>>>>>>>>>>>>>>>>>90000000000000000000",
"SSSDSDSDSDSSSSSKSKSSStMAJSSKSSSKDSSDDSKKSSSJSSJSSSUQ$%224>>>>>>>>>>>>>>>>>><90000000000000000000",
"DSSDSSSSKSDDKKSKDSDDS%cDSSDSSKSSSSJSSJSSKSDSSKSJSSUQ%%224>>>>>>>>>>>>>>>>>>>00000wg0000000000000",
"SDSSDSSDSKSSKSSSSDSSD%lSSJKSSKDSDJSSDSDSSDSJSAAASSUQ%e>>:>>>>>>>>>>>>>>>>>>>00qq0w90000000000000",
"SDKSSDSDKSSDDSKSDSSDStlSSSSSSSDSSJSJSSSJSSSAAASSAAIQ%%::<>>>>>>>>>>>>>>>>>>20qhhqq90000000000000",
"SSDKDSDSKSSSSDSDSSDSV$zSKDSKJSSJSSDSSKDSSSSASAAAAALR%->>>>>>>>>>>>>>>>>>>>>4000q0790000000000000",
"KSSDSKSKKSKKSKSKSKKSCtzADSSDSSSSKSSSJSSASAASASSAAAJY%%>>>>>>>>>>>>>>>>>>>>>400089000000000000000",
"DSDSDSSSSSSSSSSSSSSSV;zASJJSSJJSSSJSSASSASAASAASJBJY%->>>>>>>>>>>>>>>>>>>>>700000000000000000000",
"SSSSSSSSAASASAASSASSz$zSJSSJDJSSDSSSASSBASASAAAASAJYde>>>>>>>>>>>>>>>>>>>>>700000000000000000qq0",
"SSSCSVSSSAAAASSASAAAVtzSSSSASASSASAASAASSAASASSAAAKUf%>>>>>>>>>>>>>>>>>>>>>7000000000000w!h0qh00",
"SAAASCSCAASSSAASASAAztuCAASJSAAASSASSASBBSASASAAASKYx&>>>>>>>>>>>>>>>>>>>>>80000000000000hhqhh00",
"AASSSSCSSAAAAASAAASACtzCSAAAAASSAAAABSBSSBSBASASSAJYd%>>>>>>>>>>>>>>>>>>>>>8000000000000000qw000",
"ASAAASSASAASSASASAAAz$uCAAAAASAASASASASSBSASAAASAALYf%,>>>>>>>>>>>>>>>>>>>>900000000000000909900",
"AAASAAASASAASAASASAAMezAAAJSAASABSBSBSBBSASBASAAASJYd%<<>>>>>>>>>>>>>>>>>>>000000000000000090000",
"SSAAASAASAASASAAASAAM&lASSAASAAASABSSBSSASAASASASAAUu%>>>>>>>>>>>>>>>>>>>>>000000000000000000000",
"AAASAAASASSAASSASAASz$uAAAASAAASBSSBBSSBSAASSAAAAASSd,>>>>>>>>>>>>>>>>>>>>2000000000000000000000",
"AAASAACCAAAASAAASBSSAtkBCSSACSAASSBSSBBSSASSASCSASAV<<>>>>>>>>>>>>>>>>>>>>4000000000000000000000",
"VCAAAAACSSASAAAACBMMzku$$$$$$$$$##$#$$$###$@#$$##$#<>>>>>>>>>>>>><>>>>>>>>4000000000000000000000",
"zzzzVCzCCCzzCzzzzzzzzzzk&@$t&ttt#       @tttt&@ .  >>>>>>>>>>>>>>>><>>>>>>7000000000000000000000",
"zzzzzzzzzzzzzzzzzzzzzzzzzzzzzzzzzkX   #bnnnnnnnu@  >>>>>>>>>>>>><25<>><<>>7000000000000000000000",
"zzzzzzzzzzzzzzzzzzzzzzzzzzzzzzzzzzk# @nnnbnnnnnnk  >>>>>>>>>>>>><<52<24>>>7000000000000000000000",
"zzzzzzzzzzzzzzzzzzzzzzzzzzzzzzzzzzzy unnnnnznnnnn@ >>>>>>>>>>>>25<<422>>><8000000000000000000000",
"zzzzzzzzzzzzzzzzzzzzzzzzzzzzzzzzzzzz zMnncVnnnnnn# 2>>>>>>>>>>>>233;3<:>>>8000000000000000000000",
"zzzzzzzzzzzzzzzzzzzzzzzzzzzzzzzzzzzzXznnnbznznnnzOo>>>>>>>>>>>>><23:<:>>>>0000000000000000000000",
"zzzzzzzzzzzzzzzzzzzzzzzzzzzzzzzzzzzz@nnznnnnVnnnn@o:>>>>>>>>>>>>::4><:>>>>0000000000000000000000",
"zzzzzzzzzzzzzzzzzzzzzzzzzzzzzzzzzzzz nnnVznnnnznn#o>>>>>>>>>>>>>>>>><<>>>>00g00h0000000000000000",
"zzzzzzzzzkzzzzzzzzzzzzzzzzzzzzzzzzzz lnnnnznnnnnn#o>>>>>>>>>>>>>>>>>>>>>>400qqgg9000000000000000",
"BMBMBBBMBMBBBBBBBbzBbBBbnnbBMMnnnMnl lnnnVnnbbnnn#o>>>>>>>>>>>>>>>>>>>>>>4008wg90000000000000000",
"AABBAAAAABBBBSBBAABBAAAAAABBAASBAAAc bbnnznnnnnnn#o>>>2>>>>>>>>>>>>>>>>>>70090000000000000000000",
"AAACAAAAABBBBSBBAAABAAAAAAAAABBBAACMeznnnncnnnnMn#o>>>>>>>>>>>>>>>>>>>>>>70000000000000000000000",
"bbbbbBbBMMzkkkzlzzzkzMBnMbbbbbnBAAAAbnnncVnnnnnnn@o>>>>>>>>>>>>>>>>>>>>>>70000000000000000000000",
"MBMbMbzzzzk&&&&&&&&&&&kkkukuukkxMAJJbnnnnzznnnnnM#o>>>>>>>>>>>>>>>>>>>>>>800000000000000000qgq00",
"BAAAAAJAJAJJJB*&&kbBMBBBAAABBBBAAJJzlnnnnnVnnnMnn#o>>>>>>>>>>>>>>>>>>>>>>800000000000000000ghq00",
"AAAAAAAAJABAAAM&zJJAAJAAJSSJSSSJSSJu nnnnnbnnnnnn#o>>>>>>>>>>>>>>>>>>>>>>000000000000000000q8000",
"AAAAAAAAAAAAABM&MAAABAAAAAAAAAAAAADc unnznnnnnnMn#O>>>>>>>>>>>>>>>>>>>>>>00000000000000000090000",
"AAAAAAAAAAAAABB&bAAAAAAAAAAAAAAAAADm tznnnnnVnnMn#o>>>>>>>>>>>>>>>>>>>>>>00000000000000000000000",
"AAAAAAAAAAAAAAAkBBAAAAAAAAAAAAAAAAJn rnnnnznnnVnn#o>>>>>>>>>>>>>>>>>>>>>400000000000000000000000",
"AAAAAAAAAAAAAABxBBAAAAAAAAAAAAAAAAKu tnnnnVnnnMnn#o>>>>>>>>>>>>>>>>>>>>:400000000000000000000000",
"AAAAAAAAAAAAAAAnBBBAAAAAAAAAAAAAACKu tnnnnnnmnnMM#o2>>>>>>>>>>>>>>>>>>>>400000000000000000000000",
"AAAAAAAAAAAAAAAzBBAAAAAAAAAAAAAAASKf fnnnnMnnMnnn#o>>>>>>>>>>>>>>>>>>>>>700000000000000000000000",
"AAAAAAAAAAAABSAzMBAAAAAAAAAAAAAAAAKC unbnnnMMnnnn@o>>>>>>>>>>>>>>>>>>>>>700000000000000000000000",
"AAAAAAAAAAAABBBzbAABAAAAAAAAAAAAAAKK+unnnnnnZnZnM#o>>>>>>>>>>>>>>>>>>>>>800000000000000000000000",
"AABBSBAAAAAASBzzxMBBSBBBAABBBBBAAAKLZlbbmnMnnMnnn#o>>>>>>>>>>>>>>>>>>>>>800000000000000000000000",
"AABBSBAAAAAABzzzzknBBBSBABMMBBBBAAKKCnnnnVMnnMnMn#=>>>>>>>>>>>>>>>>>>>>>80000000000000000q000q00",
"JJBMMMzznMzzzzzzzzzkbzzzzzzzzxzbASKKnnnMnnnmnnnnn#=>>>>>>>>>>>>>>>>>>>>>00000000000000000!w0q!00",
"JAAJAJJBAMBMnzBBMMMMbbbxzzznnMJJKKDSrnMZZZZZZZZZZ#=2>>>>>>>>>>>>>>>>>>>>00000000000000000wwqw900",
"BBBBBBBBBBBBAASASSSSJSJJKKKKKKKKKKJn ymmnmnnVmnnm@=>>>>>>>>>>>>>>>>>>>>>000000000000000008800900",
"BBBBBBBBBBBBBBBBBBBBBBBBBBBBBBBSSDJm X%&&%%%%%&%%X=>>>>>>>>>>>>>>>>>>>>4000000000000000000099000",
"BBBBBBBBBBBBBBBBBBBBBBBBBBBBBBBBASKn.#tyyyyyyryyy@=>>>>>>>>><22><<>>>>>4000000000000000000000000",
"BBBBBBBBBBBBBBBBBBBBBBBBBBBBBBBBBAJn.cMMnZCMCCCVC#=>>>>>>>>><22254<>>>>4000000000000000000000000",
"BBBBBBBBBBBBBBBBBBBBBBBBBBBBBBBBBBSn.fZCnZCZZnZCUe=>>>>>>>4<<>>244<>>>>7000000000000000000000000",
"BBBBBBBBBBBBBBBBBBBBBBBBBBBBBBBBBBSm.unCZMVMCCMS~r=>>>>>><<52>242>>>>>>8000000000000000000000000",
"BBBBBBBBBBBBBBBBBBBBBBBBBBBBBBBBBBSm.yZCZMCMVMMI~*=>>>>>>>:>2<<<>2>>>>>0000000000000000000000000",
"BBBBBBBBBBBBBBBBBBBBBBBBBBBBBBBBBBSn.yMVVCmZMZNY~*O>>>>>>>>>:>>:2:>>>>40000000000000000000000000",
"BBBBBBBBBBBBBBBBBBBBBBBBBBBBBBBBBBJb yMZMMZMCCLY~ro>>>>>>>>>>>>>>>>>>>80000000000000000000000000",
"BBBBBBBBBBBBBBBBBBBBBBBBBBBBBBBBBBJn bZMMZnZVDUY~eo>>>>>>>>>>>>>>>>>>400000000000000000000000000",
"MMBBBBBBBBBBBBBBBABBBBBBBBBBBBBBBBSm$MMZMMZCZPUY~ro>>>>>>>>>>>>>>>>>>900000000000000000000000000",
"kkkkkkzzbbnznnnbbbnbbMbbbbbbblblnSLNmMNMZZMVLUUY~*o>>>>>>>>>>>>>>>>>8000000000000000000000000000",
"nBBMMbzzkkkkf&&&&&&zkkzzkkxkkkbBLKKSMZmZMCCZUUUY~*o>252<>>>>>>>>>>>40000000000000000000000000000",
"BBBBBBBJJSAJJBk&&bJJJJKKJJBJSJJJKKKMfVCMZnCKUUUY~*o><44<>>>>>>>>>>400000000000000000000000000000",
"BBBBBBBBBBBBBJB&zJJASSSSBJJBBJJJKKKn@CZMCMZIUUUY~ o>>:>>>>>>>>>>>4000000000000000000000000000000",
"BBBBBBBBBBBBBBBxkBBBBBBBBBBBBBBBAKKn cMZVZDUUUUY~ o>>>>>>>>>>>>>>8000000000000000000000000000000",
"BBBBBBBBBBBBBBBBBBBBBBBBBBBBBBBBBAKn uZMVVUUUUUY~ o>>>>>>>>>>>>>80000000000000000000000000000000",
"BBBBBBBBBBBBBBBBBBBBBBBBBBBBBBBBBBLn yMNCSUUUUUT~ o>>>>>>>>>>>>800000000000000000000000000000000",
"BBBBBBBBBBBBBBBBBBBBBBBBBBBBBBBBBBKn yMMCPUUUUUY~ o>>>>>>>>>>>5000000000000000000000000000000000",
"BBBBBBBBBBBBBBBBBBBBBBBBBBBBBBBBBBJn yMMDUUUUUUY~ o>>>>>>>>><40000000000000000000000000000000000",
"BBBBBBBBBBBBBBBBBBBBBBBBBBBBBBBBBBScouVVPUUUUUUY~ o>>>>>>>>>200000000000000000000000000000000000",
"BBBBBBBBBBBBBBBBBBBBBBBBBBBBBBBBBBJu lADUUUUUUUY~ o>>>>>>>><900000000000000000000000000000000000",
"BBBBBBBBBBBBBBBxxBBBBBBBBBBBBBBBBBDf uSUUUUUUUUT~ o>>>>>>>>900000000ww00000000000000000000000000",
"BBBBBBBBBBBBBBkX*BBBBBBBBBBBBBBBBBDu cPUUUUUUUUT~ o>>>>>>>700000000qw000000000000000000000000000",
"#*yucbbbbbcuy%@@#&xBBBBBMbxfcbcbbbvy.ZUUUUUUUUUT^ o>>>>>2700000000000000000000000000000000000000",
"dyrrd%@+@@@o@@@@@@@@cAMt@@@@@@@X@o%ZUUUUUUUUUUUU( o>>>>>2000000000009000000000000000000000000000",
"IUUUIUUUUUHHHZZvvvvvvnvZFMvcvfdvnHUUUUUUUUUUUUUU( o>>>>29000000000000000000000000000000000w00000",
"UUUUUUUUUUUUUUUUUUUUHvLUUUUUUUUUUUUUUUUUUUUUUUUU( o>>>>9000000000000000000000000000000000w00w!w0",
"UUUUUUUUUUUUUUUUUUUUKbLUUUUUUUUUUUUUUUUUUUUUUUUU(%o<>>8000000000000000000000000000000009q09ww000",
"UUUUUUUUUUUUUUUUIUUULcHUUUUUUUUUUUUUUUUUUUUUUYUR(yo<270000000000000000000000000000000009wqqw0wq0",
"UUUUUUUUUUUUUUUUUUYULcLUUUUUUUUUUUUUUUUUUUUUUUU^(do>790000000000000000000000000000000009000q0q00",
"TYUUUUUUUUUUUUUUUUIULvLUUUUUUUUUUUUUUUUUUUUUUU^((ro400000000000000000000000000000000000090090000",
"^^^^^^^QQ~~RRRRRRRRRUcIRRRTRRRRRRRRRRRRRRRRQQ((((do0qhw00hg00000000000000000000000q!h00000000000",
"KKKUUUIUUUUURRRRRRRRIvIRRRQRRRRRRRRRRRRRQ^~~Q^Q^Q%+qwqqqgg00000000000000000000000000qwq000000000",
"CCCCBABBCCCCBCCCCCCCMcnACCCCCCCCCCCCCCCCAACCBACCN#+0!g99g090000000000000000000000000990000000000",
"CCCCABBBCCCCABCCCCCZMcnCCCCCCCCCCCCCCCCCCBCBABCCA#+09qq00000000000000000000000000000000000000000",
"CCAABCCCCCCCCCCCCACCnvMBCCCCCCCCCCCCCCAACCCCBBNBC#+000000000000000000000000000000000000000000000",
"lCCAABCCAACCCCCbcyt$X @tkMCCCCCCCCCCCCCACCCCBBAAC#-000000000000000000000000000000000000000000000",
"  tyyyyyy&#$@             @$tyyyyyuyyyyy$########,0000000000000000000000000000000000000000000000",
"                               X                -00000000000000000000000000000000000000000000000"
};
