/* XPM */
static char *result[] = {
/* columns rows colors chars-per-pixel */
"96 96 61 1 ",
"  c #56341F",
". c #573F1D",
"X c #583F1D",
"o c #573622",
"O c #583724",
"+ c #593925",
"@ c #5C3E2A",
"# c #59401E",
"$ c #525713",
"% c #575B15",
"& c #5B5E16",
"* c #5D551A",
"= c #5C5F18",
"- c #685E1E",
"; c #5E6117",
": c #5E6119",
"> c #616417",
", c #666D17",
"< c #61641A",
"1 c #666A19",
"2 c #6A6E19",
"3 c #6D721A",
"4 c #72751B",
"5 c #75791E",
"6 c #787B1F",
"7 c #5F4722",
"8 c #5D412F",
"9 c #5F4331",
"0 c #604A21",
"q c #604331",
"w c #624836",
"e c #654E3D",
"r c #767A20",
"t c #797C21",
"y c #6A5545",
"u c #6D5748",
"i c #6E5D4C",
"p c #725E51",
"a c #756456",
"s c #766659",
"d c #70695D",
"f c #796A5D",
"g c #736D61",
"h c #7D6F63",
"j c #7B7164",
"k c #7C7669",
"l c #7D796E",
"z c #7F7C70",
"x c #81766B",
"c c #827B6F",
"v c #847B71",
"b c #7D8024",
"n c #838174",
"m c #888077",
"M c #868579",
"N c #89857B",
"B c #8A887E",
"V c #8D8B82",
"C c #918E86",
"Z c #919087",
"A c #93918A",
/* pixels */
"44444444444444444444444444444444444444444440O o     *2444444444444444444444444444444444444444444",
"444444444444444444444444444444444444444444-Oyaeo o   *;24444444444444444444444444444444444444444",
"4444444444444444444444444444444444444444440OVVMzse   .&&;244444444444444444444444444444444444444",
"444444444444444444444444444444444444444444OaCvMMMMv@ #&&%&%2444444454444444444444444444444444444",
"444444444444444444444444444444444444444444oaCMMMMMMyo.&&&&&&&23444466644444444444444444444444444",
"444444444444444444444444444445544444444444OaCMMMMMMi .&;&&&&%&&>44442244444444444444444444444444",
"444444444444444444444444444445554444444444oyAVMMMMMj .%%&&&&&&&&&>244444444444444444444444444444",
"444444444444444444444444444664444444444444oyCCMMMMMz .%;&&&&&&&&&&&>4444444444444444444444444444",
"444444444444444444444444444564,4bb64444444o9AAVBMMMN+X&&&&&&&&&&&&&&>444444444444444444444444444",
"44444444444444444444444445b44646rt44444444OOAAAACCCCqX&&&&&&&&&&&&&&>444444444444444444444444444",
"444444444444444444444444443642463344444444OOvAAACVcsoX=&>=&&&&&&&&&&&144444444444444444444444444",
"444444444444444444444444444344224444444444OOaAVBMMe  X==<&&&&&&&&&&&&>44444444444444444444444444",
"444444444444444444444444444444444444444444OOyMMMMMv+ X=>>&&&&&&&&&&&&&444444444446r4444444444444",
"444444444444444444444444444442444444444444OOkMMMMMMi X%=%&&&&&&&&&&&&&>4444444555534444444444444",
"444444444444444444444444444444444444444444OOVMMMMMMnoX%%=&&&&&&&&&&&&&&4444445tr4434444444444444",
"444444444444444444444444444444444444444444OwCmMMMMMMwX&&&&&&&&&&&&&&&&%1444445454234444444444444",
"444444444444444444444444444444444444444444OuCMMMMMMMi#%;%;&&&&&&&&&&&&&-344444433444444444444444",
"444444444444444444444444444444444444444445OsCMMMMMMMa.;%;%&&&&&&&&&&&&&&344444444444444444444444",
"444444444444444444444444444444444444444444OxCMMMMMMMj.&&%&&&&&&&&&&&&&&&>44444444444444444444564",
"444444444444444444444444444444444444444444OvAMMMMMMMj#&&;&&&&&&&&&&&&&&&&3444444444444446bb45644",
"444444444444444444444444444444444444444444OCCMMMMMMMj.&&&&&&&&&&&&&&&&&&&2444444444444444tt5tt44",
"444444444444444444444444444444444444444444OCAMMMMMMMj.&&&&&&&&&&&&&&&&&&%;4444444444444443466444",
"444444444444444444444444444444444444444444OACMMMMMMMa.%&&&&&&&&&&&&&&&&&&&2444444444444443343244",
"444444444444444444444444444444444444444445OACMMMMMMMi.%;&&&&&&&&&&&&&&&&&&>444444444444444444444",
"444444444444444444444444444444444444444444OACNMMMMMMyX&&&&&&&&&&&&&&&&&&&&&444444444444444444444",
"434444444444444444444444444444444444444444OACMMMMMMMwX&&&&&&&&&&&&&&&&&&&&&>44444444444444444444",
"444444444444444444444444444443444444444444OACMMMMMMMw#&&&&&&&&&&&&&&&&&&&&&&44444444444444444444",
"444444444444444444444444444444444444444445OmCMMMMMMMw#;%&&&&&&&&&&&&&&&&&&&&14444444444444444444",
"444444444444444434444444444444444444444444ovVMMMMMMM+.%;&&&&&&&&=&&=&&&&&&&&>4444444444444444444",
"444444444444444444444444444444444444444444OhZMMMMMMM@#;%&&&&&&&&=<<=&&&;&&&&&4444444444444444444",
"444444444444444444444444444444444444444454OsAMMMMMMMw#&&&&&&&&&&==<<&>>&&&&&&4444444444444444444",
"443444444444444444444444444444444444444rr5OyABMMMMMl8X&&&&&&&&&;<=%<>=%&&&&&>4444444444444444444",
"4444444444444444444444444444444444444445trOqAAVNNlgd8#:%;%;%;%;%;>=$;=%=&&&&>4444444444444444444",
"4444444344444444444444444444444444444444rrOOCAAACddd8#%:;;%;%;%;&>:%=%%&&&&&14444444444444444444",
"4444444r6444444444444444444444444444444r4rOOxAAAlddde#;%$%;%:%;%%%;&=%=&&&&&15444444444444444444",
"444rtr4454444444444444444444444444444442r3OOpACVdddde#%;:;%;%;%:&;%&==&&&&&=144t4444444444444444",
"44443trr3653444444444444444444444444444424OOaMMMddddeo;%&&&&;%;%&&&&&&&&&&&&2rrr3444444444444444",
"444rr3rr4443444444444444444444444444444444OOvMMMvddd9#%:&&&&%;%;&&&&&&&&&&&&2rr24444444444444444",
"444334,34324444444444444444444444444444444ooCNMMMkdd8#:%&&&&&&;%&&&;&&&&&&&&24r44444444444444444",
"444444344444444444444444444444444444444444oyCNMMMMgio#%:&&&&&;%;&&&%%-&&&&&&24444444444444444444",
"444444444444444444444444444444444444444444opCMMMMMn9o.&&&&&&&&&&&&&&&&&&&&&&44444444444444444444",
"444444444444444444444444444444444444444444ofAMMMMMMa X&&&&&&&&&&&&&&&&&&&&&&4444444444444444r544",
"444444444444444444444444444444444444444444OvAMMMMMMc .&&&&&&&&&&&&&&&&&&&&&&444444444444444rt544",
"444444444444444444444444444454444444444444OvCMMMMMMM@.&&&&&&&&&&&&&&&&&&&&%>444444444444444r2444",
"4444444444444444444444444444t55446r5444444OAAMMMMMMMw#%;&&&&&&&&&&&&&&&&&&&>44444444444444444444",
"44444444444444444444444444443454rt44444444OAAMMMMMMMi.;%&&&&&&&&&&&&&&&&&&&>44444444444444444444",
"44444444444444444444444444444,36tr54444444OACMMMMMMMiX&&&&&&&&&&&&&&&&&&&&&>44444444444444444444",
"44444444444444444444444444444345r544444444OACMMMMMMMiX&&&&&&&&&&&&&&&&&&&&&144444444444444444444",
"444444444444444444444444444444422244444444OACMMMMMMMi#%;%;&&&&&&&&&&&&&&&&&244444444444444444444",
"444444444444444444444444444444444444444444OACMMMMMMMi.;%&&&&&&&&&&&&&&&&&&%244444444444444444444",
"444444444444444444444444444444444444444444OAVMMMMMMMi#%;&&&&&&&&&&&&&&&&&&&244444444444444444444",
"444444444444444444444444444444444454444444OvVMMMMMMMi#;%&&&&&&&&&&&&&&&&&&&444444444444444444444",
"44444444444444444444444444444444445t544444+vVMMMMMMMe.%;&&&&&&&&&&&&&&&&&&&444444444444444444444",
"44444444444444444444444444444444445rr25544OgAMMMMMMM9.;%&&&&&&&&&&&&&&&&&&&444444444444445444644",
"4444444444444444444444444444444444434rrrr4OpABMMMMMMw#%:&&&&&&&&&&&&&&&&&&&44444444444445b645654",
"4444444444444444444444444444444444444r5444OeACMMMMMMw#;%&&&&&&&&&&&&&&&&&&&444444444444446655344",
"44444444444444t645654444444444444444443444o@AAAVBMMNw.&&&&&&&&&&&&&&&&&&&&>444444444444443244344",
"444444444444445r45644444444444444444444444+OvAAAAAAm X&&&&&&&&&&&&&&&&&&&&>444444444444444442444",
"444444444444443553244444444444444444444444OOhCCVBMe  #&&&&&&==;&%&&&&&&&&&>444444444444444444444",
"444444444444444224444444444444444444444444OOuBNMMMn@ .&&&&&&=>=;<>;&&&&&&&1444444444444444444444",
"444444444444444334444444444444444444444444oOfMMMMMMj .%&&&>&-;%;1-%;&&&&&&1444444444444444444444",
"444444444444444444444444444444444444444444OONMMMMMMM@.;&&&=<;%;<&&&%&&&&&&1444444444444444444444",
"444444444444444444444444444444444444444444+@CMMMMMMMu#&&&&%;>&;%&>&&&&&&&&2444444444444444444444",
"444444444444444444444444444444444444444444+eVMMMMMMMi#&&&&=%%;%%&&&&&&&&&&2444444444444444444444",
"444444444444444444444444444444444444444444oaCMMMMMMMiX%;&&&&&&&&&&&&&&&&&&3444444444444444444444",
"444444444444444444444444444455444564444444ohAMMMMMMMi#&&&&&&&&&&&&&&&&&&&&4444444444444444444444",
"44444444444444444444444444446t54rr44444444OvAMMMMMMMi.&&&&&&&&&&&&&&&&&&&&4444444444444444444444",
"4444444444444444444444444446t336r344444445ONZMMMMMMMiX&&&&&&&&&&&&&&&&&&&&4444444444444444444444",
"4444444444444444444444444443r53r2344444444oAAmMMMMMMy#;&&&&&&&&&&&&&&&&&&&4444444444444444444444",
"444444444444444444444444444435444444444444oAANMMMMMMw#>;&&&&&&&&&&&&&&&&&&4444444444444444444444",
"444444444444444444444444444444444444444444oACMMMMMMMwX%&&&&&&&&&&&&&&&&&&&3444444444444444444444",
"444444444444444444444444444444444444444444OACMMMMMMMe#%&&&&&&&&&&&&&&&&&&&2444444444444444444444",
"444444444444444444444444444444444444444444oACMMMMMMMiX%&&&&&&&&&&&&&&&&&&&2444444444444444444444",
"444444444444444444444444444444444444444444+ZVMMMMMMMiX;&&&&&&&&&&&&&&&&&&&1444444444434444444444",
"444444444444444444444444444444444444444444+CBNMMMMMMiX&&&&&&&&&&&&&&&&&&&&1444444444444444444444",
"444444444444444444444444444444444444444444+cVMMMMMMMiX&&&&&&&&&&&&&&&&&&&&>444444444444444444444",
"444444444444444444444444444444444444444444ocCMMMMMMMy.&&&&&&&&&&&&&&&&&&&&<444444444444444444444",
"4444t4444444444444444444445r44444444444444osANMMMMMMw.&&&&&&&&&&&&&&&&&&&&&444444444444444444444",
"444465444444444444444444444b54454444444444OuZBMMMMMMw.%&&&&&&&&&&&&%>>=&&&&444444444444444444444",
"444544444444444444444444444465554444444445+wAANNMMMMw.&&&&&&&&&&&&&><&&&&&&244444444444444444444",
"444444444444443444444444444356654444444455++AAACBBBBq.&&&&&&&&&&&&&&>&&&&&&244444444444444444444",
"444344444444444444444444444433444444444554oovAAZAZva #&&&&&%&&&&&&&&%&&&&&&244444444444444444444",
"444444444444444444444444444443444444446534+OaCVBNNi  #&&&&&;&&&&&&&&&&&&&&&144444444444444644444",
"444444444444444444444444444444444444445555OOsMMMMNMq .&&&&&&&&&&&&&&&&&&&&&>44444444444446646t64",
"444444444444444444444444444444444444444443+qCMMMMMMk #%&&&&&&&&&&&&&&&&&&&&>44444444444454366444",
"444444444444444444444444444444444444444444+fCMMMMMMN8.;&&&&&&&&&&&&&&&&&&&&>444444444442t5564664",
"444444444444444444444444444444444446544444omAMMMMMMMi.&&&&&&&&&&&&&&&&&&&&&&44444444444244444644",
"444444444444444444444444444444444456r54444oAABMMMMMMi.;&&&&&&&&&&&&&&&&&&&&&44444444444434434444",
"4444bb4445b4444444444644444444444444444444+AAMMMMMMMi#>;&;;;%;&&&&&&&&&&&&&&4444445bt44444444444",
"444664b45544444444444544444444444444334444+AAMMMMMMMe#;;;>;;;%&&&&&&&&&&&&&&24444444655444444444",
"4446b4,35434444444444434444444444444544444+AAMMMMMMM9#%%>&&&%;%&&&&&&&&&&&&&24444444334444444444",
"44444b444444444444444444445444454444444444+AABMMMMMMw#;;&%&&;%%;&&&&&&&&&&&&14444444444444444444",
"444434444444b64464444444445b45554444444444OAAVMMMMMMw#;;&&&&&&&&&&&&&&&&&&&&>4444444444444444444",
"4444444444444b6644444444444355544444444444+AABMMMMMMw#%%&&&&&&&&&&&&&&&&&&;%>4444444444444444444",
"444444444444443344444444444343344444444444OAABMMMMMMy#;%&&&&&&&&&&&&&&&&&&&&>4444444444444444444",
"444444444444443444444444444434444444444444+AAMMMMMMMi#%;&&&&&&&%&&&&&&&&&&&%;4444444444444444444"
};
