/* XPM */
static char *result[] = {
/* columns rows colors chars-per-pixel */
"96 96 78 1 ",
"  c #4F2913",
". c #502C17",
"X c #512E19",
"o c #53301B",
"O c #4F3727",
"+ c #543522",
"@ c #5A3B27",
"# c #563D2C",
"$ c #5B3C28",
"% c #525713",
"& c #565B15",
"* c #5B5E16",
"= c #5C5F18",
"- c #5D6017",
"; c #5E6119",
": c #61631A",
"> c #6C6F1A",
", c #6D721A",
"< c #72751B",
"1 c #76791E",
"2 c #787B1F",
"3 c #5D4226",
"4 c #5D402E",
"5 c #564334",
"6 c #5A4334",
"7 c #564538",
"8 c #5B4639",
"9 c #5B4A3C",
"0 c #604A24",
"q c #635123",
"w c #665821",
"e c #604431",
"r c #634A37",
"t c #654E3D",
"y c #69503F",
"u c #767A20",
"i c #7A7D22",
"p c #5D4E43",
"a c #5C5247",
"s c #5D5248",
"d c #604F42",
"f c #615244",
"g c #6A5443",
"h c #62554A",
"j c #63584F",
"k c #6A5C4C",
"l c #715D4E",
"z c #655E55",
"x c #695E53",
"c c #665F58",
"v c #666057",
"b c #6B6154",
"n c #676159",
"m c #6A655C",
"M c #716151",
"N c #776759",
"B c #76695C",
"V c #796B5E",
"C c #6E6960",
"Z c #746F64",
"A c #796E60",
"S c #7B7365",
"D c #767469",
"F c #7E7568",
"G c #7A786E",
"H c #7E7C72",
"J c #82776C",
"K c #817C6F",
"L c #827D74",
"P c #7D8024",
"I c #858175",
"U c #868579",
"Y c #88877B",
"T c #8A897E",
"R c #8B8981",
"E c #908E86",
"W c #919087",
"Q c #93918A",
/* pixels */
"00000000003q3q00qwwwww00003@3@@@@@@@@@@@33OAUUUUUUUUS3***********************><<<<<<<<<<<<<<<<<<",
"MkMMbbMMMllMMMlt63@ettgMMASSSUSSMg@@@rkAFUGUUUUUUUUUA$***********************><<<<<<<<<<<<<<<<<<",
"UUUUUUUUUUUUUUUUUM@MUUUUUUUUUUUUUUUUUUUUUUUUUUUUUUUUb$***********************><<<<<<<<<<<<<<<<<<",
"UUUUUUUUUUUUUUUUUUtlUUUUUUUUUUUUUUUUUUUUUUUUUUUUUUUUl@*************==********><<<<<<<<<<<<<<<<<<",
"UUUUUUUUUUUYUUUUUUMMUUUTUUYUUUYUUUUUUUUUUUUUUUUUUUUUM3*************;:=*******><<<<<<<<<<<<<<<<<<",
"UUUYUUYRUUUTUUUUYYFVUUUTYTTRTTTRTTTRUUUUUUUUUUUUUUUUM@**************&&*******><<<<<<<<<<<<<<<<<<",
"WWQQQQQQQQQQQQQQQQQQQQQQQQQQQQQQQQQQQQQETTUUUUUUUUUUM@-**********************><<<<<<<<<<<<<<<<<<",
"LLHLHILHIIRRRRRTRTIFRTTTTTRRRRRRRRRRRRTTTTAFUUUUUUUUy3-**********************><<<<<<<<<<<<<<<<<<",
"mmmmmCmCmmCmmmmmmm9fmmmmmmmmmmmmmmmmmCmmmm9BUUUUUUUUt$***********************><<<<<<<<<<<<<<<<<<",
"mCmCmmmmmmmmmCmCmm8tmmmmmmmmmmmmmmmmmmmmmm9BTUUUUUUUt$***********************><<<<<<<<<<<<<<<<<<",
"CmmmmCCmmmmmCmmmmm6ammmmmmmCmmCmmmmmmmmmmm9AWTUUUUUUy@**--*******************><<<<<<<<<<<<<<<<<<",
"CmmCmmmmmCmCmmmCBm6fmmmmmmmmmmmmmmmmmmmmmmrBWRUUUUUUt$=;:-*******************><<<<<<<<<<<<<<<<<<",
"mCmmmCmmmmmCmmmCmC7tmmmmmmmmmmmmmmmmmmmCmm9kWWRUUUUUt$;;;*******************=><<11i<<<<<<<<<<<<<",
"mmCmmCmCCCmmmCmmmm6ammmmmmmmmmmmmmmmCmmmmm9gWWWWTTTTr$**********************=,<u21,<<<<<<<<<<<<<",
"mCmmmmCmmmCmCmCmmC%fmmmmmmmmmmmmmmmmmmmmmm9yWWWWWWQV$$*&*********************,ii<<><<<<<<<<<<<<<",
"mmmCCmmmmCmmmmCmmm3ammmmCmmmmmmmmmmmmmmmmm63FWWWRIr$@@**********************=><u<>,<<<<<<<<<<<<<",
"mCmCmmmmmmmmmmmmmC$fmmmmmmmmmmmmmmmmmmmmmm6+4TYUUUIe$$***********************><>,<<<<<<<<<<<<<<<",
"mmmCmCmmcmcnnnnnmm$dmmmmmmmmmCmmmmmmmmmmmm4@IUUUUUUB$@***********************><<<<<<<<<<<<<<<<<<",
"mmmmmmvvmccmmcmmnn6fmmmmCmmmmmmmmmmmmmmmmm4gWYUUUUUUe3***********************><<<<<<<<<<<<<<<1<<",
"mvmvvmvmnnmncmnnnm6fmmmmmmmmmmmmmmCmmmmmmm4NWYUUUUUUg@***********************><<<<<<<<<<1PP<1i<<",
"vmvmmvmvmcmncmmcmm6fmmmmmmmmmmmmmmmmmmmmmm4NWYYUUUUUM$***-*******************,<<<<<<<<<<<ii<ii<<",
"mvmmvmvmnncmmnnmvm6tmmmmmmmmmmmmmmmmmmmmmm4bWYUUUUUUM$***********************><<<<<<<<<<<<<1i<<<",
"vvmvvmmvcmmcnnmcmv6fmmmmmmmmmmmmmmmmmmmmmm4NWYUUUUUUM$-**********************><<<<<<<<<<<<<<,,<<",
"vmvmmvvmmnnmcmnnvm8fmmmmmmmmmmmmmmmmmmmmmm5BWYUUUUUUM$***********************><<<<<<<<<<<<<,,<<<",
"mvmmnmnnnmcmcmcmvm6fmmmmmmmmmmmmmCmmmmmmmmXJWTUUUUUUM$**********************&><<<<<<<<<<<<<<<<<<",
"vmmvnnnmmcnnmnmcmv6ammmmmmmmmmmmmmmmmmmmmh lWTUUUUUUg$***********************><<<<<<<<<<<<<<<<<<",
"vmvzhhhshhhhhhhshh6fmmmmmmmmvmmmmmmmmmmba. lWYYUUUUUy$***********************><<<<<<<<<<<<<<<<<<",
"           .   +#9aa9X                ..   lWYYUUUUUt$***********************><<<<<<<<<<<<<<<<<<",
"5#5#++O++o###9aaaasassp799pa#O577977q775   lQUUUUUUUt$***********************><<<<<<<<<<<<<<<<<<",
"aasaaassssssssssaasssasassas7Opaaaaaaaaaao lWUUUUUUUM$***********::;**-******><<<<<<<<<<<<<<<<<<",
"aaaaassssssssssafsssssssaass7Opaaaaaaaaaa4 lWUUUUUUUM$***********=:;*:;******><<<<<<<<<<<<<<<<<<",
"aaaassssssssassssssssaassssa7O9aaaaaaaaaa8 JWUUUUUUUM@*********-:==:;;*******><<<<<<<<<<<<<<<<<<",
"sssssssassssssssssssssssaaaaOOpaaaaaaaaaaa JEUUUUUUUg$:*********::*%**&******><<<<<<<<<<<<<<<<<<",
"ssssaassssssssssssssssssaaaapOpaaaaaaaaaaa JQUUUUUUUt$************:&=&*******><<<<<<<<<<<<<<<<<<",
"asasssassssssssssassssssaaaa#Opaaaaaaaaasa.VQTUUUUUUt$***********&:*=********><<<<<<<<<<<<<<<<<<",
"ssssassassssssssssssssssaaaapOpaaaaaaaaasf lQEUUUUUUt$**********************=>ui<<<<<<<<<<<<<<<<",
"ssssasaasssassssaaasssssasss7Opaaaaaaaaass gQWEYUUUUt$**********************;<uu,<<<<<<<<<<<<<<<",
"czzzcccczzzzcccjccccnncncccczOscnnnnmnnnxm $QQQQEEEEe$**********************%uu><<<<<<<<<<<<<<<<",
"ncccnnnnccccnnnnccccnnnnnnnnsOacnnnnnnnnmc  YWQQWRJg$$-*********************&><<<<<<<<<<<<<<<<<<",
"ncccnnnnccccnnnnncccnnnnnnnn#OOznnnnnnnnxx  yQETYUg$$$**********************=><<<<<<<<<<<<<<<<<<",
"p78888#####pppspaasaasppppp#OOOO5aaaaaa9ap. eYYUUUIr@3***********************><<<<<<<<<<<<<<<<<<",
"sp8####87ppsjssssssssssssshp7##79aaasshhhh  gUYUUUUS@@***********************><<<<<<<<<<<<<<iu<<",
"mCm##8CCCCCCCCCCCCmCCCCCCCCCCCCCmmCmmCmmmm  JYUUUUUUe@***********************><<<<<<<<<<<<<ii<<<",
"mnnh#cnmmncmnnnnnmmncmnnCnnnmccnmmmmmmmmnx  TUUUUUUUl$***********************><<<<<<<<<<<<<<><<<",
"nncd#cccnnnnnnnnnncccccnnnnnnnnnmnnnnnnnnn.@QUUUUUUUM$-**********************><<<<<<<<<<<<<<<<<<",
"nnch#cncnnnnnnnnnnnmcmnnnnnnnnnnnnnnnnnnnn.rQUUUUUUUM$***********************><<<<<<<<<<<<<<<<<<",
"nnccdnnnmcnnnnnnnnnnnnnnnnnnnnnnnnnnnnnnnn.lQUUUUIUUM$***********************><<<<<<<<<<<<<<<<<<",
"nncchnnnnnnnnnnnnnnnnnnnnnnnnnnnnnnnnnnnnn.MQYUUUUUUg@***********************><<<<<<<<<<<<<<<<<<",
"nnnchcccccnnnnnnCnnnnnnnnnnnnnnnnnnnnnnncc JQYUUUUUUt@-**********************><<<<<<<<<<<<<<<<<<",
"nncchcccnnnnnnnnccnnnnnnnnnnnnnnnnnnnnnncc JQYUUUUUUt@-**********************><<<<<<<<<<<<<<<<<<",
"cccchzccnnnnnnnnccnnnnnnnnnnnnnnnnnnnnnnmc JQTUUUUUUt3***********************><<<<<<<<<<<<<<<<<<",
"mccshjccnnnnnnnnnnncnnnnnnnnnnnnnnnnnnnnmc JQUUUYUUUt$***********************><<<<<<<<<<<<<<<<<<",
"ccjhphjcnnccncccccccnnnnnncccccnnvvmvmcvcn.JQUUUIYUUr3***********************><<<<<<<<<<<<<<<<<<",
"cjhfsshsjjjjzjjjjsjjjsjsjhjsjjsshhhsshhshf JQUUUUYUUt$***********************><<<<<<<<<<<1<<<1<<",
"hhhhhhhsshhsshhssssssssssaaasasppppppppppp JQYUUUUUUt$***********************><<<<<<<<<<1i2<1i<<",
"ccccmmnmCCnCCnCCCCmCCCCCCCCmCCczzzzzzzcccc JEUUUUUUUt$***********************><<<<<<<<<<<1i11<<<",
"mmmCnCnCnnCnCmCnnCnnnCnncCcCcCnccccccncncc JRLUUUUUUy@***********************><<<<<<<<<<<,><<,<<",
"cccccccccccccccccccccccccccccccccccccccccc lEYUUUUUUr@***********************><<<<<<<<<<<<<,,<<<",
"cccccccccccccccccccccccccccccccccccccccccc gQUUUUUUUy@*******---*************><<<<<<<<<<<<<<<<<<",
"cccccccccccccccccccccccccccccccccccccccccx eQTUUUUUUy@*******:--:::**********><<<<<<<<<<<<<<<<<<",
"cccccccccccccccccccccccccccccccccccccccccc oQEUUUUUUy@***-:--**:::***********><<<<<<<<<<<<<<<<<<",
"cccccccccccccccccccccccccccccccccccccccccc  LQEUUUUUy$*****::**:-************><<<<<<<<<<<<<<<<<<",
"cccccccccccccccccccccccccccccccccccccccccc  JQQQQTTEr@****&*-*-**:***********><<<<<<<<<<<<<<<<<<",
"cccccccccccccccccccccccccccccccccccccccccb  lQQQQEKN@@******&**&*&***********><<<<<<<<<<<<<<<<<<",
"cccccccccccccccccccccccccccccccccccccccccc  eQQRYUg@@$***********************><<<<<<<<<<<<<<<<<<",
"ccccccccccccccccccccccccccccccccczcccccccc  eRUUUUUg$$***********************><<<<<<<<<<<<<<<<<<",
"zzjjjjhhzjjzccjcjcjccjjccjp8#88#8pfhjzjjjj  lUUUUUUL$$***********************><<<<<<<<<<<<<<<<<<",
"########hshhssshsssshsshsd#888#8p######p##  LUUUUUUUr$***********************><<<<<<<<<<<<<<<<<<",
"mcd###dhnnmbnncccmcmcmcmccxxcjhhhhhhhhhhjj XQLUUUUUUg@:**********************><<<<<<<<<<<<<<<<<<",
"Cmmd#jmmmmmCCCmmmmmCCmmmCmmCmmcCCnmCNmmmmm eQRUUUUUUM@:**********************><<<<<<<<<<<<<<<<<<",
"ccccdccccccccccccccccccccccccccccccccccccc lQLYUUUUUM@****************-******><<<<<<<<<<<<<<<<<<",
"cccccccccccccccccccccccccccccccccccccccccc NQYYYUUUUM@***********************><<<<<<<<<<<<<<<<<<",
"cccccccccccccccccccccccccccccccccccccccccc JQYUIUUUUM$-**********************><<<<<<<<<<<<<<<<<<",
"cccccccccccccccccccccccccccccccccccccccccz JQYUUUUUUy@--*********************><<<<<<<<<<<<<<<<<<",
"cccccccccccccccccccccccccccccccccccccccccc JQUUUUUUUt@***********************><<<<<<<<<<<<<<<<<<",
"cccccccccccccccccccccccccccccccccccccccccc.QQUUUUUUUt@***********************><<<<<<<<<<<<<<<<<<",
"ccccccccccccccccccccccccccccccccccccccccch.LQUUUUUUUt$***********************><<<<<<<<<<<<<<<<<<",
"ccccccccccccccccccccccccccccccccccccccccc9 JQUUUUUUUt@***************-*******><<<<<<<<<<<<<<<<<<",
"ccccccccccccccccccccccccccccccccccccccccxX JEUUUUUUUt@-*************:-*******><<<<<<<<<<<<<<<<<<",
"ccccdccccccdhhzccccccccccccccccccccccczd+  JEUUUUUUUt3*************-:********><<<<<<<<<<<<<<<<<<",
"               .4jcccf#     +++@++@++      kQUUUUUUUt$***********************><<<<<<<<<<<<<<<<<<",
"tttattttptttdttdddjljddyydtdtttdtdtdkvgr. .gQUUUUUUUt$***********************><<<<<<<<<<<<<<<<<<",
"DDDDDDDDDDDDDDDDDDlfDDDDZDDDDDDDDDDDDDDDZ+ eQEUUUUUUt$***********************><<<<<<<<<<<<2<<<<<",
"DDDDDDDDDDDDDDDDDDlfDDDDDDDDDDDDDDDDDDDDDM  QQRUUUUUt$***********************><<<<<<<<<<<<2<2P<<",
"DDDDDDDDDDDDDDDDDDkgDDDDDDDDDDDDDDDDDDDDDD  LQQETTETr$***********************><<<<<<<<<<1<,12<<<",
"DDDDDDDDDDDDDDDDDDkgDDDDDDDDDDDDDDDDDDDDDD  VQQQQQEJ$$***********************><<<<<<<<<>12<2<22<",
"DDDDDDDDDDDDDDDDDDzfDDDDDDDDDDDDDDDDDDDDDD. yQQQTIg@$$***********************><<<<<<<<<><<<2<2<<",
"GGGGGGGGGGGGGGGGGGkfHHHHHHHHHHHHHHHHHHHHHH  eTUUYUYr$$***********************><<<<<<<<<<<<<,<<<<",
"UUUUUURLUUYUUUYUUUbhUUUYUUUUUUUUUYUUUUYUUL  yUUUUUUJ$$::*:;******************,<<<<<Pi<<<<<<<<<<<",
"CCCCCCCCZmCcccvvvvggczczccczcccczvczccccvf  VUUUUUUUy$:*;;*******************><<<<<<1i<<<<<<<<<<",
"vvvvvvcnvvvvcvvvvvghczvvzzzcxccczvxvczzxvf  IYUUUUUUM@*&;********************><<<<<<,,<<<<<<<<<<",
"vvvvvvvcvvvvvvvvvvhhczzzzccxczzzvzczzcczva .QYUUUUUUS@-**********************><<<<<<<<<<<<<<<<<<",
"vcvvvvvvvvvvvvvvh4o+6jzzzvzzzcczvzvnvvvzx6 oQYUUUUUUS@--*********************><<<<<<<<<<<<<<<<<<",
"aszcvvvvhah964o       o@69fffffa6666@+++o  eQTUUUUUUS@***********************,<<<<<<<<<<<<<<<<<<",
"                        ..    .            eQYUUUUUUS@***********************><<<<<<<<<<<<<<<<<<",
"                                           yQYUUUUUUS@***********************><<<<<<<<<<<<<<<<<<"
};
