/* XPM */
static char *result[] = {
/* columns rows colors chars-per-pixel */
"96 96 83 1 ",
"  c #492513",
". c #4F2913",
"X c #502C17",
"o c #512F1A",
"O c #4F311F",
"+ c #52301C",
"@ c #4F3423",
"# c #533421",
"$ c #553826",
"% c #5A3B27",
"& c #533A2C",
"* c #5B3C29",
"= c #533D31",
"- c #583F30",
"; c #666D17",
": c #666D18",
"> c #696F18",
", c #6E731A",
"< c #72751B",
"1 c #75791F",
"2 c #787B1F",
"3 c #5F4925",
"4 c #5D422F",
"5 c #554134",
"6 c #5A4334",
"7 c #55443A",
"8 c #59473B",
"9 c #57483F",
"0 c #5A4A3D",
"q c #614A26",
"w c #604432",
"e c #604837",
"r c #654D3C",
"t c #767A20",
"y c #797C21",
"u c #574941",
"i c #5C4D42",
"p c #5A4E48",
"a c #5C5247",
"s c #5D534C",
"d c #5F5650",
"f c #624F41",
"g c #605247",
"h c #6A5645",
"j c #61554B",
"k c #6B5749",
"l c #61584E",
"z c #6E5D4D",
"x c #705C4E",
"c c #605650",
"v c #655D54",
"b c #685E52",
"n c #665F58",
"m c #666057",
"M c #6C6155",
"N c #676159",
"B c #6B665D",
"V c #6D685F",
"C c #716152",
"Z c #76675B",
"A c #78675A",
"S c #76695B",
"D c #786A5D",
"F c #6E6A60",
"G c #716B62",
"H c #7B6F62",
"J c #7B7365",
"K c #767469",
"L c #7B746B",
"P c #7B786E",
"I c #7F7C73",
"U c #80766B",
"Y c #817A6E",
"T c #827D74",
"R c #7D8024",
"E c #848075",
"W c #888077",
"Q c #868579",
"! c #8A867C",
"~ c #8A887E",
"^ c #8D8B82",
"/ c #918F87",
"( c #94928B",
/* pixels */
"<<<<<<<<<<<<<<<<<<<<<<<<<<<<<<<<<<<<<<<<<<qJQQQQQQQQQShrr%%%%%%%%%%%%%%%%%%%%%%%%%4$%%%%%%%%33qq",
"<<<<<<<<<<<<<<<<<<<<<<<<<<<<<<<<<<<<<<<<<<qJQQQQQQQQQQQQQQQQQQQQQIJJJJzMhrw%%%%%%%4rrrCCMMMCCxzC",
"<<<<<<<<<<<<<<<<<<<<<<<<<<<<<<<<<<<<<<<<<<qCQQQQQQQQQQQQQQQQQQQQQQQQQQQQQQQQJCCJYQQQQQEQQQQQQQQQ",
"<<<<<<<<<<<<<<<<<<<<<<<<<<<<<<<<<<<<<<<<<<qCQQQQQQQQQQQQQQQQQQQQQQQQQQQQQQQQQQQQ!!QQQQQQQQQQQQQQ",
"<<<<<<<<<<<<<<<<<<<<<<<<<<<<<<<<<<<<<<<<<<qCQQQQQQQQQQQQQQQQQQQQQQQQQQQQQQQQQYEQQQQQQQQQQQQQQQQQ",
"<<<<<<<<<<<<<<<<<<<<<<<<<<<<<2t<<<<<<<<<<<qxQQQQQQQQQQQQQQQ^~~~~^^!^QQQQQQQQUePQQQQ!QQQQQQQQQQQQ",
"<<<<<<<<<<<<<<<<<<<<<<<<<<<<<<t<<<<<<<<<<<qrQQQQQQQQQQ~^/(((((((((((((/(((((D4(((((((((((((((((/",
"<<<<<<<<<<<<<<<<<<<<<<<<<<<y2<t<<<<<<<<<<<qrQQQQQQQQEAJLIIIEITIEIIIKKKKKKKKKM4LKKKKLLLKKITITEEEQ",
"<<<<<<<<<<<<<<<<<<<<<<<<<<<<2<><yRy<<<<<<<qeQQQQQQQQYwgsBBVBVBBVVBVVBVBVBBVBm4FFVFFFFFFFFFFFFFFF",
"<<<<<<<<<<<<<<<<<<<<<<<<<tR<<<<2yt<<<<<<<<q*QQQQQQQ~T6asnVBVBVVBBVBBVBVBVVBVb6FFFFFFFFFFFFFFFFFF",
"<<<<<<<<<<<<<<<<<<<<<<<<<<<t<,<2><<<<<<<<<q*QQQQQQW/!wgsvVBBBVBVVBVBBBVBBVBBb4FFFFFFFFFFFFFFFFFF",
"<<<<<<<<<<<<<<<<<<<<<<<<<<<><<>><<<<<<<<<<q*QQQQQQ!(/6issVBVBBVBBVBVBVBVVBBBb4FFFFFFFFFFFFFFFFFF",
"<<<<<<<<<<<<<<<<<<<<<<<<<<<<<<<<<<<<<<<<<<q*T!WQQ^((TwgssBBBFVBFVBVBBVBVBVBBm4BFFFFFFFFFFFFFFFFF",
"<<<<<<<<<<<<<<<<<<<<<<<<<<<<<><<<<<<<<<<<<q*U//~/(((DwajsnFBBBBBBVBVVBVBVBBVv4SFFFFFFFFFFFFFFFFF",
"<<<<<<<<<<<<<<<<<<<<<<<<<<<<<<<<<<<<<<<<<<q*C((((((!w6assnBFBBBFVBBVBVBVBVVVb3FFFFFFFFFFFFFFFFFF",
"<<<<<<<<<<<<<<<<<<<<<<<<<<<<<<<<<<<<<<<<<<q*w/((//~x66asssBFBFBBBVVBVBVBVBVBm4FVFFFFFFFFFFFFFFFF",
"<<<<<<<<<<<<<<<<<<<<<<<<<<<<<<<<<<<<<<<<<<q*3P~QQQQJe6gsssBBBBBBVBVBVBBVBBVBb4VBBBBBVVVVFFFVFFFF",
"<<<<<<<<<<<<<<<<<<<<<<<<<<<<<<<<<<<<<<<<<<q*wQQQQQQ^AwijsjNVBBBFBBBVBVVBBVBVb4BBBBBBBBVVVFFVFFFF",
"<<<<<<<<<<<<<<<<<<<<<<<<<<<<<<<<<<<<<<<<<<q*kQQQQQQ~T6assdmBBFBBBVVVBVBVBBVBl4BBBBBBBBBBVVVVFFVV",
"<<<<<<<<<<<<<<<<<<<<<<<<<<<<<<<<<<<<<<<<<<q*HQQQQQQ^/*isssvBBBBFVBVVVBVBBBBVm4BVBBBBBBBVNBBNNBNB",
"<<<<<<<<<<<<<<<<<<<<<<<<<<<<<<<<<<<<<<<<<<q*P!QQQQQ~/+islssmBmmmmmVVVVVVBBBBm4NVmmNNNNNNNNNNNNNN",
"<<<<<<<<<<<<<<<<<<<<<<<<<<<<<<<<<<<<<<<<<<q*QQQQQQQ^^#issssmmmmmmmmmmmVVBBBBb4NNmBNNNNNNNNNNNNNN",
"<<<<<<<<<<<<<<<<<<<<<<<<<<<<<<<<<<<<<<<<<<qeQ!QQQQQ^/#isssdvmmmmmmmmmmmmBBBml6mmNNNNmNNNNNNNNNNN",
"<<<<<<<<<<<<<<<<<<<<<<<<<<<,<<<<<<<<<<<<<<qrQQQQQQQ~^#isssssmmmmmmmmmmmmmmmma3mmNNNNBNNNNNNNNmBN",
"<<<<<<<<<<<<<<<<<<<<<<<<<<<<<<<<<<<<<<<<<<qr!QQQQQQ^^$6sdsssmmmmmmmmmmmmmmmm4.0BNNmNNNNNBmmmBmNN",
"<,<<<<<<<<<<<<<<<<<<<<<<<<<<<<,<<<<<<<<<<<qrQQQQQQQ^^+$adslsmmmmmMmmmmmMmmmboX+BmBmBNNNNmBmmNmNm",
"<<<<<<<<<<<<<<<<<<<<<<<<<<<<<<<<<<<<<<<<<<qrQQQQQQQ^^#$$0lsaglggljmBmMbaa06+...O0as66660agaaammm",
"<<<<<<<<<<<<<<<<<<<<<<<<<<<<<<<<<<<<<<<<<<qrQQQQQQQ^^#O$+O+$O+$+$OOOOOo.......Xo....X..X..X.....",
"<<<<<<<<<<<<<<<<<<<<<<<<<<<<<<<<<<<<<<<<<<qrQQQQQQQ~/+$+OO3660000aaaaaaaaaaaaaaaaaaaaaa0@O777007",
"<<<<<<<<<<<<<<<<<<<<<<<<<<<<<<<<<<<<<<<<<<q*QQQQQQQ~/++$5paaaadaaaaaaaaaaaaaaaaaaaaaaaaa&@aaaaaa",
",<<<<<<<<<<<<<<<<<<<<<<<<<<<<<<<<<<<<<<<<<3*QQQQQQQ~E+O6aaaaaaaaaaaaaaaaaaaaaaaaaaaaaaaa3Oaaaaaa",
"<<<<<<<<<<<<<<<<<<<<<<<<<<<<<<<<<<<<<<12y1q*QQQQQQQ~P+$aaaaaaaaaaaaaaaaaaaaaaaaaaaaaaaaa5Oaaaaaa",
"<<<<<<<<<<<<<<<<<<<<<<<<<<<<<<<<<<<<<<<1yyq*!QQQQQQ^U#&aaaaaaaaaaaaaaaaaaaaaaaaaaaaaaaaa5Oaaaaaa",
"<<<<<<<<<<<<<<<<<<<<<<<<<<<<<<<<<<<<<<<<ttq*JQQQQQQ^U#6saaaaaaaaaaaaaaaaaaaaaaaaaaaaaaaa&@aaaaaa",
"<<<<<<>t2<<<<<<<<<<<<<<<<<<<<<<<<<<<<<<2,tq*JQQQQQQ^U#6aaaaaaaaaaaaaaaaaaaaaaaaaaaaaaaaa&@aaaaaa",
"<<<tytt<22<<<<<<<<<<<<<<<<<<<<<<<<<<<<<,t,q*JQQQQQ^^L#0aaaaaaaaaaaaaaaaaaaaaaaaaaaaaaaaa5@aaaaaa",
"<<<<,ttt>2<<<<<,<<<<<<<<<<<<<<<<<<<<<<<<<<q*JEQEQ^^^J#0saaaaaaaassaaasasaaaaaaaaaaaaaaaa&@aaasaa",
"<<<tt>tt<<t><<<<<<<<<<<<<<<<<<<<<<<<<<<<<<q%A/~/^^^^e#0aaaaaaaaadnmmmmmmmNmNnNnNmNmNNNNNr6NNmmmm",
"<<<,,t>><,><<<<<<<<<<<<<<<<<<<<<<<<<<<<<<<q**W~/^^h*##igaaaaaaadmNmmmmmmmmmmnNnnmmmNmmNm86vmmNmB",
"<<<<<<<<<<<<<<<<<<<<<<<<<<<<<<<<<<<<<<<<<<q**EQQQQb###upaaaaa0alNmmmmmmmmmNNnnNNmmNmmmd9860mNNmm",
"<<<<<<<<<<<<<<<<<<<<<<<<<<<<<<<<<<<<<<<<<<q*rQQQQQQr##&&&&=&&&&&75ppiaaiaiaifiaipaaa6666886aaagj",
"<<<<<<<<<<<<<<<<<<<<<<<<<<<<<<<<<<<<<<<<<<q*CQQQQQQH##==55777=&&&-jjjjlsjjbvvvvvlvvdlllklkjallgg",
"<<<<<<<<<<<<<<<<<<<<<<<<<<<<<<<<<<<<<<<<<<q*JQQQQQQ^##isasassp=&=NFFBBZFZFBBBBBBBBmBNBNNNNMNNNNN",
"<<<<<<<<<<<<<<<<<<<<<<<<<<<<<<<<<<<<<<<<<<q*TQQQQQQ/6#0sssssspp&5NmNNNNNmmNNNNNNmNmmNNNNNNNNNNNN",
"<<<<<<<<<<<<<<<<<<<<<<<<<<<<yt<<<2y<<<<<<<q*WQQQQQQ/k#issssssss=5mNNNNNNNNNNNNNNNNNNNNBNNNBmNNNN",
"<<<<<<<<<<<<<<<<<<<<<<<<<<<<,<2<t2<<<<<<<<qwQQQQQQQ/S$isspsspsp7imNNNNNNNNNNNNNNNNNNNNNNNNNNNNNN",
"<<<<<<<<<<<<<<<<<<<<<<<<<<<<<:>2yt<<<<<<<<qrQQQQQQQ/T+ussssssspusnNNNNNNNNNNNNBNNNNNNNNNNNNNNNNN",
"<<<<<<<<<<<<<<<<<<<<<<<<<<<<<<<2t<<<<<<<<<qrQQQQQQQ/E@pspspssspuumNNNBNNNNNNNNmNNNNNNNNNNNNNNNNN",
"<<<<<<<<<<<<<<<<<<<<<<<<<<<<<<<,>,<<<<<<<<qrQQQQQQQ/(#issssssssu9vnmNNNNNBmNNNNNNNNNNNNNNNNNNNNN",
"<<<<<<<<<<<<<<<<<<<<<<<<<<<<<<<<<<<<<<<<<<qrQQQQQQQ/(#ippssspssu9dnmNNNNNNNNNNNNNNNNNNNNNNNNNNNN",
"<<<<<<<<<<<<<<<<<<<<<<<<<<<<<<<<<<<<<<<<<<qrQQQQQQQ/(#0ssssssss7usvnNNNNNNNNNNNNNNNNNBmNNNNNBnNN",
"<<<<<<<<<<<<<<<<<<<<<<<<<<<<<<<<<<1<<<<<<<qrQQQQQQQ/(#issssppsu77dsnNNNNNNNNNNNNNNNNnnnnNNNNNnNN",
"<<,<<<<<<<<<<<<<<<<<<<<<<<<<<<<<<<1R<<<<<<qrQQQQQQQ/(#ispspssu777pdvnBnnNNNNNNmNNnnmnnNBNnNNBnnn",
"<<<<<<<<<<<<<<<<<<<<<<<<<<<<<<<<<<<tt,<t1<qwQQQQQQQ/(#59ppuu777==7upggggsjgggjggjjgjjfjf086666fn",
"<<<<<<<<<<<<<<<<<<<<<<<<<<<<<<<<<<<,<ttt1<q*QQQQQQQ^(#57=u7=u=775759iiuiiiifiiiffiiiiiii-&*&*&8j",
"<<<<<<<<<<<<<<<<<<<<<<<<<<<<<<<<<<<<<t<<<<q*QQQQQQQ^(#isdsdssddscccnBBFFBBBBBBBBBBBBBFBFb*&*fBnn",
"<<<<<<<<<<<<<<y2<ttt<<<<<<<<<<<<<<<<<<,<<<q*W!QQT^!^^#8sppddddddccccBnBnnBNBnBNBBNBNBNBNBj$8nbnn",
"<<<<<<<<<<<<<<<y<<t<<<<<<<<<<<<<<<<<<<<<<<q*QQQQ^WW^TO-psppdddddpdccnnnnnnnnnnnnnnnnnnnnms&innnn",
"<<<<<<<<<<<<<<,22,><<<<<<<<<<<<<<<<<<<<<<<q*TQQETQW/U+8spppppddpcdcpvnnnnnnnnnnnnnnnnnnnnnpvnnnn",
"<<<<<<<<<<<<<<<>><<<<<<<<<<<<<<<<<<<<<<<<<q*JQQQQQW/A+-sdpdpddddcccdcnnnnnnnnnnnnnnnnnnnnnsvnnnn",
"<<<<<<<<<<<<<<<,,<<<<<<<<<<<<<<<<<<<<<<<<<q*KQQQQQ^(f#-ppsppdcddddsdcnnnnnnnnnnnnnnnnnnnnnsvnnnn",
"<<<<<<<<<<<<<<<<<<<<<<<<<<<<<<<<<<<<<<<<<<q*JQQQQ^((*#8pspscpcddcsccdcnnnnnnnnnnnnnnnnnnnnsvnnnn",
"<<<<<<<<<<<<<<<<<<<<<<<<<<<<<<<<<<<<<<<<<<q*Y///(((^##uppspppcdpddddddnnnnnnnnnnnnnnnnnnnnscnnmm",
"<<<<<<<<<<<<<<<<<<<<<<<<<<<<<<<<<<<<<<<<<<q%z((((((HOOfspsgppcccccscsdvnnnnnnnnnnnnnnnnnvvsvnnvm",
"<<<<<<<<<<<<<<<<<<<<<<<<<<<<<<<<<<<<<<<<<<q*w/((/^~z+#0sspppssddddddddnnnnnnnnnnnnnnnnnnncsjnnnn",
"<<<<<<<<<<<<<<<<<<<<<<<<<<<<<2<<<<2<<<<<<<q*%Y!WQQQC##0sppdpsppdpddppddnnnnnnnnnnnnnnnnnnsisvnnn",
"<<<<<<<<<<<<<<<<<<<<<<<<<<<<2y1<tt2<<<<<<<q*eQQQQQQT##-977u=u777u7uuuudnvvvvvvvvvvvvnncdsssssvnn",
"<<<<<<<<<<<<<<<<<<<<<<<<<<<2y,,2t,<<<<<<<<q*AQQQQQQ/$@&&&&&&&&=&&=&&=uspsspspsssddspspsdspssssss",
"<<<<<<<<<<<<<<<<<<<<<<<<<<<,tt<t>><<<<<<<<q*UQQQQQQ(f#-uuuuuu=&&&=-upspssscnnFFBFFFFFFNNBnnnBNBN",
"<<<<<<<<<<<<<<<<<<<<<<<<<<<,,<<<<<<<<<<<<<q*QQQQQQQ/Z#uppppppp==&pddspssvBBBNBNBnnnnnnnnnnnnvnnn",
"<<<<<<<<<<<<<<<<<<<<<<<<<<<<<<<<<<<<<<<<<<qeQQQQQQQ/T#9pppppppp57ppgpgsscnnnnnnnnnnnnnnnnnnnnnnn",
"<<<<<<<<<<<<<<<<<<<<<<<<<<<<<<<<<<<<<<<<<<qrQQQQQQW/T#9pppppppppudcpcspsdnnnnnnnnnnnnnnnnnnnnnnn",
"<<<<<<<<<<<<<<<<<<<<<<<<<<<<<<<<<<<<<<<<<<qrQQQQQQQ/(#0ppppppppppcpgspsssbnnnnnnnnnnnnnnnnnnnnnn",
"<<<<<<<<<<<<<<<<<<<<<<<<<<<<<<<<<<<<<<<<<<qrQQQQQQQ/(#ipppppppppppcpassaacnnnnnnnnnnnnnnnnnnnnnn",
"<<<<<<<<<<<<<<<<<<<<<<<<<<<<<<<<<<<<<<<<<<qrQQQQQQQ/(#9ppppppppppspjaspssjnnnnnnnnnnnnnnnnnnnnnn",
"<<<<<<<<<<<<<<<<<<<<<<<<<<<<<<<<<<<<<<<<<<qrQQQQQQQ/(+8pppppppppssspsssassnnnnnnnnnnnnnnnnnnnnnn",
"<<<<<<<<<<<<<<<<<<<<<<<<<<<<<<<<<<<<<<<<<<qrQQQQQQQ//+9ppppppppppjpssasspsvnnnnnnnnnnnnnnnnnnnnn",
"<<<<y<<<<<<<<<<<<<<<<<<<<<2t<<<<<<<<<<<<<<qwQQQQQQQ/(#9ppppppppppsssssassssnnnnnnnnnnnnnnnnnnnnn",
"<<<<22<<<<<<<<<<<<<<<<<<<<<R2<<<<<<<<<<<<<q3QQQQQQQ~(#0pppppppppspssaisssssvnnnnnnnnnnnnnnnnnnnn",
"<<<1<<<<<<<<<<<<<<<<<<<<<<<<tyy<<<<<<<<<<<q%QQQQQQQ/T#8859777777issssssssasvnnnnnnvjfjpjnnnnnnnn",
"<<<<<<<<<<<<<<<<<<<<<<<<<<<,22y1<<<<<<<<2234EQQQQQQ^Y#X                   .O4lmmf$X.............",
"<<<,<<<<<<<<<<<<<<<<<<<<<<<,,,<<<<<<<<<<2<3%JQQQQQQ/C#&&=-665-666656656566600lMa*&%%*****&****3&",
"<<<<<<<<<<<<<<<<<<<<<<<<<<<<<,<<<<<<<222,<q%JQQQQQ^(f#0jsvvbnvnvvmvvvvvMmmmGKKbBKKKKKKKKKKKKKKKK",
"<<<<<<<<<<<<<<<<<<<<<<<<<<<<<<<<<<<<<<<2<2q*JQQQQ~((%#issvnbnvbvvvvMvmvmmlmGKKbBKKKKKKKKKKKKKKKK",
"<<<<<<<<<<<<<<<<<<<<<<<<<<<<<<<<<<<<<<<<<<3*U^/~/((^#+6jsvvvvvbvmMvvMvvvmmmGKKMBKKKKKKKKKKKKKKKK",
"<<<<<<<<<<<<<<<<<<<<<<<<<<<<<<<<<<<<<<<<<<q%A((((((H##8jsvvvvvbnvvmvvvmvmlmGKKvBKKKKKKKKKKKKKKKK",
"<<<<<<<<<<<<<<<<<<<<<<<<<<<<<<<<<<<2<<<<<<3%4(((//^x##6jjvmbbbvvbvvmvmvmmMmGKGlVKKKKKKKKKKKKKKKK",
"<<<<<<<<<<<<<<<<<<<<<<<<<<<<<<<<<<<222<<<<q4*U^~~QQz##8clBBBBBBBBBBMBBMBMBVGFllVPPPPPPPPPPPPPPPK",
"<<<<R2<<<12<<<<<<<<<<2<<<<<<<<<<<<<<<<<<<<q*wQQQQQQH##fFZFFGGFGGZGZFFGFFSVNvdllGQQQQ!Q!QQQQ^I^I^",
"<<<1212211<<<<<<<<<<<1<<<<<<<<<<<<<<,<<<<<q*kQQQQQQT##&99avscjlllvvvvvbvlldllldvnmnmnmmBFFFFFFFF",
"<<<2R<,,1<<<<<<<<<<<<<<<<<<<<<<<<<<<<<<<<<q%UQQQQQQ^##-u9alllllllllllljjllllllllnmmmnmmmNmmmmmdn",
"<<<<<1<<<<<<<<<<<<<<<<<<<<<1<<<<<<<<<<<<<<qwQQQQQQQQ6#598allllllllldllccllldllllmmmmmmmmnmmmmmnN",
"<<<<,<<<<<<<22<<2<<<<<<<<<<2<121<<<<<<<<<<qhQQQQEQQQe#899adlldsdlslllljvjlldl06$immmmmmmmmmmmmmm",
"<<<<<<<<<<<<1R2t<<<<<<<<<<<<2<<<<<<<<<<<<<qCQQQQQQQQe#&$@35$O66664600f0064*#X.X...&8almmmmmmmmss",
"<<<<<<<<<<<<<<,,<<<<<<<<<<<,<<<<<<<<<<<<<<qAQQQQQQQQe#XX....XX..............X.....X.............",
"<<<<<<<<<<<<<<,<<<<<<<<<<<<,<<<<<<<<<<<<<<qJQQQQQQQQz#.............X............................"
};
