/* XPM */
static char *result[] = {
/* columns rows colors chars-per-pixel */
"96 96 87 1 ",
"  c #492513",
". c #4F2913",
"X c #4E2D1B",
"o c #512C17",
"O c #512F1A",
"+ c #52311D",
"@ c #4F3423",
"# c #533421",
"$ c #553826",
"% c #5A3B27",
"& c #523729",
"* c #533A2C",
"= c #5B3C29",
"- c #543E31",
"; c #666D17",
": c #6C671F",
"> c #666D18",
", c #6A6E1A",
"< c #6E721A",
"1 c #72751B",
"2 c #75791F",
"3 c #787B1F",
"4 c #5D4226",
"5 c #5C422F",
"6 c #564235",
"7 c #5A4335",
"8 c #55443B",
"9 c #59473B",
"0 c #57483F",
"q c #5B4B3E",
"w c #645722",
"e c #675922",
"r c #695B24",
"t c #604533",
"y c #624936",
"u c #654D3C",
"i c #737621",
"p c #767A20",
"a c #797C21",
"s c #574941",
"d c #5B4D42",
"f c #5A4E48",
"g c #5C5247",
"h c #5E534C",
"j c #624F41",
"k c #605246",
"l c #695444",
"z c #61554B",
"x c #6B5748",
"c c #61584E",
"v c #6E5C4D",
"b c #705C4E",
"n c #605751",
"m c #655D54",
"M c #685E52",
"N c #665F58",
"B c #666057",
"V c #6A6054",
"C c #676159",
"Z c #6B665D",
"A c #6D695F",
"S c #716152",
"D c #72675D",
"F c #766A5B",
"G c #786C5F",
"H c #7D795D",
"J c #6E6A60",
"K c #716A62",
"L c #7A6E61",
"P c #757267",
"I c #7B7365",
"U c #767469",
"Y c #7A746B",
"T c #7A786E",
"R c #80756A",
"E c #817A6E",
"W c #847C72",
"Q c #7D8024",
"! c #828267",
"~ c #838074",
"^ c #888077",
"/ c #868579",
"( c #89877C",
") c #8A887E",
"_ c #8D8B82",
"` c #918E86",
"' c #94928B",
/* pixels */
"11111111111111111111111111111111111111111111:4%%%=%%%%%%%%%%%%%%$$===%==%==%%%%%%%%%%%%%%%%%%%%%",
"1111111111111111111111111111111111111111111iRIIHISGIIIIIIIII~/////~IIIGMbuy%%%%%%%%uuuvvSbbSSSSv",
"11111111111111111111111111111111111111111<:!////////////////////////////////IvbFI///////////////",
"11111111111111111111111111111111111111111e=/////////////////////////////////////////////////////",
"11111111111111111111111111111111111111111e=////////////////////////~////////E~//////////////////",
"111111111111111111111111111113a1111111111e=//////////////))_________/_/_(()TtF///////////(//////",
"111111111111111111111111111111a1111111111e%//////////)``'''''''''''''''''''W5~''''''''''''''''''",
"111111111111111111111111111a3111111111111e=////////(xFKPUUUUPUUUPPPUUUUPIPAM5VADKUTUTUUIUUUTUTUT",
"111111111111111111111111111131;1aaa111111e=////////E7kzCZZAZAJZZJZZZZJZJZAAM5VJJJJJJJJJJJJJJJJJJ",
"11111111111111111111111113a11313aa1111111e=W//////('7ghmAZZZZZZJZZJZZZZZZZZM5VJJJJJJJJJJJJJJJJJJ",
"11111111111111111111111111<31,13<11111111e=I//////`'tjhnZZAAZJZZZAAZJZJJAZZM5VJJJJJJJJJJJJJJJJJJ",
"111111111111111111111111111<11,;111111111w=I/////)''7fhhZAZZZZZJZAZZZZZZZAAV5VJJJJJJJJJJJJJJJJJJ",
"11111111111111111111111111111311111111111e=I//^/)'')7jzhNJJZZZJZZZAAACAAAZAm5VJJJJJJJJJJJJJJJJJJ",
"11111111111111111111111111111;11111111111e=R`_`'''`R7khhmZZZJZZZAZZZAAAAZAAM5VJJJJJJJJJJJJJJJJJJ",
"11111111111111111111111111111111111111111e=x''''''Et7jhhnJJZZZJZZAZAAAACCACV5VJAJJJJJJJJJJJJJJJJ",
"11111111111111111111111111111111111111111e==(''``(St7hhhzZZZJZJZZAZZAZAAAAAM5VJAAJJJJJJJJJJJJJJJ",
"11111111111111111111111111111111111111111e==G(//^/Eu7jhzhZZAZZJZZAZAZAZZAAZB5MZAZZZZAAJJJJJJJJJJ",
"11111111111111111111111111111111111111111r=t//////)ItqhhhmZAAZZZAZAZACAZZZJc5MCAZZZZZZZZJJJJJJJJ",
"11111111111111111111111111111111111111111e=x//////)_7jhhhmAZZZJZZAZAAZAAAZAM5MZZZZZZZZZZZZJJJJJJ",
"11111111111111111111111111111111111111111e4G//////)`yfhhhnZAZZZZAZAZAAZZZZAM5MZAZZZZZCZZCCCCCZCC",
"11111111111111111111111111111111111111111e=E//////__yshhhhCBBBBBBZZAAZZZZAAc4VZBBCCCCCCCCCCCCCCC",
"11111111111111111111111111111111111111111e=///////__#dzhhhmBBBBBBBBBBZZZAZJM4mCCBCCCCCCCCCCCCCCC",
"1111111111111111<111111111111111111111111e5///////__#dhhhhnBBBBBBBBBBBBBBCCB7mBCCCCCCCZCCCCCCCCC",
"11111111111111111111111111111111111111111ru///////__#7hhhhhBBBBBBBBBBBBBBBBc+cBCCCCCCCBCCCCCCCCC",
"11111111111111111111111111111111111111111eu///////__+6hhhchBBBBBBBBBBBBBBBBq.4BBCCZBBBBCCCCCCCCC",
"1<111111111111111111111111111111111111111eu///////__++ghhhhcBBBBBBBBBBBBBBBO.OcBCCBBBZCCCCCCCCCV",
"11111111111111111111111111111111111111111eu///////__$+$7ggqgcczzgzccgu9y75o...O69977779y7uhghgck",
"11111111111111111111111111111111111111111eu///////)_4++$##+#+#++##@@#+o........O..........o.....",
"11111111111111111111111111111111111111111e=///////)_###++*7qqgggggggggggggggggggggggggg6@6gggggg",
"11111111111111111111111111111111111111111e=///////__+$+9ggggggggggggggggggggggggggggggg6@9gggggg",
"11111111111111111111111111111111111111111e*///////)_$+7gggggggggggggggggggggggggggggggg9@0gggggg",
"<1111111111111111111111111<1111111111113ae%~//////__++ggggggggggggggggggggggggggggggggq6@0gggggg",
"1111111111111111111111111111111111111111ar=I//////_`#*ggggggggggggggggggggggggggggggggg8@0gggggg",
"1111111<11111111111111111111111111111111pr=Y//////(_+6ggggggggggggggggggggggggggggggggg6@qgggggg",
"111111123111111111111111111111111111111a1e=I////)W`_#7ggggggggggggggggggggggggggggggggg6@qgggggg",
"1112Qp112111111111111111111111111111111<1e=I/////___#7ggggggggggggghggggggggggggggggggg6@qgggggg",
"1111ipp2<31111111111111111111111111111111e=I////__`R+7ggggggggggghhhghhzhhhhhchccgccgcc0%qgggggg",
"1112i<ia111<11111111111111111111111111111e=F__``__(7#7gggggggggmBBBBBBBBCCBBBCBBBBBBBBBg9cCCBBBZ",
"111<11><1<<111111111111111111111111111111e==E()`_j=##7fggggggghBBBBBBBmBCBBBBBBBBBBBBBBq7gCCCCBB",
"1111<1<<111111111111111111111111111111111e==W///^K###-dssdsqqgcBBmmmmmmMmmmmmmmmBBBBccq977mCCCBZ",
"11111111111111111111111111111111111111111e=u//////x#@@**6********0jdfffdddgdfddfqqgq77y777uggkgq",
"11111111111111111111111111111111111111111r=S//////T#@&6668806***-nmMMcMMMmmMMmMmmBccccccccvchczz",
"11111111111111111111111111111111111111111e=L//////_%#6hhghhgf8**NJJJAZZZZZZZZCZZCZZCCCCCCCBBCCCC",
"11111111111111111111111111112111111111111e=Y//////_l#6hhghhhff**CCNCCCCCBBCCBVCCCCCCCCCCCCBBCCCC",
"1111111111111111111111111111aa2113a111111e=///////_S#6hhhhhhnn88CCCCCCBNBBCCNBBCCCCCCCCCCCCCCCCC",
"1111111111111111111111111111<111aa1111111e=///////`E@6hhhfhhff68CCCCCCCZZBCCZCCCCCCCCCZCCCCCCCCC",
"11111111111111111111111111111><33a1111111et///////`^@6hhhhfhhhssCCCCCCCCCCCCBBCCCCCCCCCCCCCCCCCC",
"11111111111111111111111111111<13a<1111111eu///////`'@6hhhfhhhfs0NCCCCCCCCCCCZCCCCCCCCCCCCCCCCCCC",
"1111111111111111111111111111111;,<1111111eu///////`'#7hhhhhhhff0nZNCCCNCCCCCCCCCCCCCZCCCCCCCNZCC",
"11111111111111111111111111111111111111111eu///////`'76hhhffhhhs0nNNNCCNZCCCCCCCCCCCCNCCCZCCCNCCC",
"11111111111111111111111111111111111111111eu///////`'q7ghhhfhfh8shnNNCCCCCCCCCCCCCCCCBCCCNBCCNCCC",
"11111111111111111111111111111111111211111ey//////(`'u6hhhhhhhf8-nhNNCCCCCCCCCCCCCCCCCCCBCCCCCCCN",
"11111111111111111111111111111111112Q11111e=///////`'u6ghfffff88-snnZNNNNCCNBCCBCCNNBCCCBCNCCNZNN",
"11111111111111111111111111111111111pa1p13e=///////_'u600sss8-8-s-ssfzkkjzzkkkzkkzzkzkkku7979jjnZ",
"11111111111111111111111111111111111<<1aa3e=///////_'4*888888-8s--8-ddjffdddjdddjjddddfz7*=$=$-7d",
"1111111111111111111111111111111111111i111e=///////_'#6hnnhhnnhnnnnmZZJZZZZZZZZZZZZZZDZZZ7*$dZNNN",
"11111111111111331122111111111111111111<11e=/////^^`'#7fhfhnhnnhnnfnZNZNZNZZZNZCZCZCZCZCZC*=ZNNNN",
"111111111111111a22a1111111111111111111111e=I////)^_W#8hfhffnnhhnhnnNNNNNNNmNNNNNNNNNNNNmN$7NNNNN",
"11111111111111122<,1111111111111111111111e=I////^(`W#7fhffhhnnnhhnnnNNNNNNNNNNNNNNNNNNNNNnmNNNNN",
"11111111111111<,,111111111111111111111111e=I////^^'S+8hffhfhnhnnnhnnNNNNNNNNNNNNNNNNNNNNNhnNNNNN",
"111111111111111<<111111111111111111111111e=I//^^__'z#-hffhfnnfnnhnnhmNNNNNNNNNNNNNNNNNNNNhmNNNNN",
"11111111111111111111111111111111111111111e=I/((/_''7#8hhhfffnnfnnnhnhNNNNNNNNNNNNNNNNNNNNnnNNNNN",
"11111111111111111111111111111111111111111e=Y``''''`++-fhfhnfnnnnnhhnnmNNNNNNNNNNNNNNNNNNNhzNNNBB",
"11111111111111111111111111111111111111111r=x''''''R#&8hfhfffffnnnhnnhNNNNNNNNNNNNNNNNNNNBhhNNNmB",
"11111111111111111111111111111111111111111e==)''``/v##7gfnffffnnnnnnhnnNNNNNNNNNNNNNNNNNNNfzmNNNN",
"11111111111111111111111111113111112111111e==R/////S##7fhfffnhffnnfhnnnNNNNNNNNNNNNNNNNNNnhfmNNNN",
"1111111111111111111111111111aa312a1111111e=t//////^#+-s8888888ss8s8s8fnNmmmmmmmmmmmmNnnhffnfnmNN",
"1111111111111111111111111113a<<33<1111111e=b//////_t#&*************-8nfhhhfffnnnnnnnhhhhzffzhhhf",
"111111111111111111111111111<pp1i<<1111111e=I//////`b#-fssss8**&*--fffffnhmNZJZJZJJJZZJJZJJJJZZNN",
"1111111111111111111111111111<111111111111e=///////`L#-fffffffs*&fzfzfnhnNJZZNZZZJNZZZNZNNNNNNNNN",
"11111111111111111111111111111111111111111e4///////`W#-ffffffffs-hfzffzhnNNNNNNNNmNNNNNNNNNNNNNNN",
"11111111111111111111111111111111111111111eu///////''#-fffffffffsfhhhfhfhNNNNNNNNNNNNNNNNNNNNNNNN",
"11111111111111111111111111111111111111111ru///////`'$-kfffffffffnfzfhfhhmNNNNNNNNNNNNNNNNNNNNNNN",
"11111111111111111111111111111111111111111ru///////`'-7fffffffffffzhhzfhgzmNNNNNNNNNNNNNNNNNNNNNN",
"11111111111111111111111111111111111111111ru///////`'u-ffffffffffhhhhghhhhNNNNNNNNNNNNNNNNNNNNNNN",
"11111111111111111111111111111111111111111eu//////)`'u-ffffffffffhfzfhhgfhmNNNNNNNNNNNNNNNNNNNNNN",
"11111111111111111111111111111111111111111e4///////_'y6fffffffffzhhghhgfzhnNNNNNNNNNNNNNNNNNNNNNN",
"111131111111111111111111112a1111111111111e=///////_'$7ffffffffffhfhhfhhghzNNNNNNNNNNNNNNNNNNNNNN",
"111132111111111111111111111Q2112111111111e=///////_'#-fffffffffkhhhfzhhhhhmNNNNNNNNNNNNNNNNNNNNN",
"111311111111111111111111111132a1111111111e=~//////_`#-088888s-sshgfzhfghfhmNNNNNNmkkkkzmNNNNNNNN",
"111111111111111111111111111<13Q1111111113r=I//////_W#X                    X&zBBg&...............",
"111<11111111111111111111111<11<1111111113e=I//////`L#$---677767767666667779uqZz%====5*==%*====4*",
"11111111111111111111111111111<1111111133<e=I//////'x#7zhmmVmmmmBMMmNMmMMBmAUUZMUUUUUUUUUUUUUUUUU",
"11111111111111111111111111111111111111321r=I////)''7#7hhmmmBmmmVMNMNNmNNMBAUIZBUUUUUUUUUUUUUUUUU",
"11111111111111111111111111111111111111111e=E))``''`+#7zzzmmNmVmmmNMmmNNmmBAUUZBUUUUUUUUUUUUUUUUU",
"11111111111111111111111111111111111111111e=b''''''R##7zhmmNNBmmBmNNmmMMmMmAUUZBPUUUUUUUUUUUUUUUU",
"11111111111111111111111111111111111311111e=t`''``_b##7zzcmMMMmMBmMMmMNmMMBAUIcBUUUUUUUUUUUUUUUUU",
"111111111111111111111111111111111113Q1111e==G`(///v##7nMNZZZZVZZZZZZZZCZZZJKccBTTTTTTTTTTTTTTTTT",
"1111QQ1112Q111111111221111111111111111111e==^/////R##lKJJJJAKKPADKKKKKDJAZccccZ/_////((////(////",
"111131Q121<1111111111121111111111111<1111e=l//////'##*00gmhmccccmmMmmmmzchcccccBmBBBNBmJJJJJJJJJ",
"111QQ<;<Q<<1111111111<<111111111111111111e=F/////)'7#-00shccccchznccccnzcccccccBNNBBNNBBCBBBBNNN",
"1111<Q11111111111111111111111111111111111e=E/////)'l#*00gcchcccczzcccccncccccccBNNBBBmBBBBBBBNNN",
"111111111111Q21131111111111Q2231111111111e=//////('S#-00shchchchcccccccczcccg7$7nBBBBBBBBBBBBBBB",
"1111111111111Q2Q1111111111113131111111111eu///////'S#$$$454@56546579qdq765++o.o..@7gzBBBBBBBBBzg",
"11111111111111<<11111111111111<1111111111eu///////_Y#+................oo........................",
"11111111111111<<11111111111<1111111111111el////////R##X........................................."
};
