/* XPM */
static char *result[] = {
/* columns rows colors chars-per-pixel */
"96 96 91 1 ",
"  c #4F2913",
". c #502C17",
"X c #522E19",
"o c #52311C",
"O c #4F3727",
"+ c #543623",
"@ c #583622",
"# c #553826",
"$ c #5A3B27",
"% c #573D2C",
"& c #5B3C28",
"* c #543F30",
"= c #583F31",
"- c #5B4D1F",
"; c #525713",
": c #575B15",
"> c #5B5E16",
", c #5B531C",
"< c #5B5D18",
"1 c #665C1F",
"2 c #5E6117",
"3 c #5E6119",
"4 c #616417",
"5 c #61641A",
"6 c #676A19",
"7 c #6B6E1A",
"8 c #6D721A",
"9 c #72751B",
"0 c #76791E",
"q c #787B1F",
"w c #5A4622",
"e c #5D4E21",
"r c #5D412D",
"t c #5F5122",
"y c #564436",
"u c #5A4434",
"i c #5B4639",
"p c #5A483B",
"a c #604A24",
"s c #635321",
"d c #665821",
"f c #604431",
"g c #624936",
"h c #644E3D",
"j c #67513B",
"k c #69503F",
"l c #636529",
"z c #767A20",
"x c #7A7D22",
"c c #70722B",
"v c #6D6237",
"b c #5D4E43",
"n c #5C5247",
"m c #5D5248",
"M c #604F41",
"N c #625345",
"B c #6B5545",
"V c #61554A",
"C c #6C5748",
"Z c #64594E",
"A c #6C5C4C",
"S c #715D4F",
"D c #655E55",
"F c #685F56",
"G c #665F58",
"H c #666057",
"J c #6A6156",
"K c #676159",
"L c #6A655C",
"P c #716151",
"I c #766A5B",
"U c #796A5D",
"Y c #6E6960",
"T c #726C60",
"R c #796E61",
"E c #7B7365",
"W c #767469",
"Q c #7A786E",
"! c #7E7C72",
"~ c #82776C",
"^ c #817A6E",
"/ c #827D74",
"( c #7D8024",
") c #848175",
"_ c #868579",
"` c #89867C",
"' c #89887D",
"] c #8C8A81",
"[ c #908E86",
"{ c #919087",
"} c #93918A",
/* pixels */
"aaaaeaaaaaaaaa1d1ddddd1saaaaa&&$$$$$$@$$%$$ewt17999999999999999999999999999999999999999999999999",
"PAPPSFSSPPAPSPBg$$$hhhhhjhhhhhhjhhhjhjkhjjjhhhhhjvc899999999999999999999999999999999999999999999",
"________________Er$_______``____`_____)`____`_____)l>4689999999999999999999999999999999999999999",
"_________________I$______))`____)___________)______E>>>>1478999999990999999999999999999999999999",
"_________________^f________________________________E$,2>>>>>2478999zx999999999999999999999999999",
"___'___'___`_____'B________`__''''''_______________E$->>>>>>>>>>24798899999999999999999999999999",
"{}}}}}}}}}}}}}}}}}}}{{}{{}}}}}}}}}}}}}[]'__________E$->>>>>>>>>>>>>>2679999999999999999999999999",
"/!//!/]]]]]]]]]]]_E_'''''']]]]]]]]']]]']]QT________E&->>>>>>>>>>>>>>>>>>267999999999999999999999",
"LLLYLYLYLLLLILYLInuLLLLLLLLLLLLLLLLLLLLLLVB'_______E&->>>>>>>>>>>>>>>>>>>>2599999999999999999999",
"LYLLLLLLLLYLYLLLLnuLLLLLLLLLLLLLLLLLLLLILnB{_______P&->>>>>>>>>>>>>>>>>>>>>>99998999999999999999",
"YLYLYLYLLLLLLLYLLnpLLLLLLLLYLLLLLLLLLLLLLjp{'______P&->>42>>>>>>>>>>>>>>>>>>89999999999999999999",
"YLLLYLLLYLYLLYLLLneLLLYLLLLLLLLLLLLLLLLLLnu{{______P&s<<4>>>>>>>>>>>>>>>>>><79999999999999999999",
"LLLYLLYYLLLLYLYLLjyLLYLLLLLLLLLLLLLLLLLLLmu{{{'____P$-554>>>>>>>>>>>>>>>>>>>79999qzz899999999999",
"LYLLYLLLLYLYLLLLYnpLLLLLLLLLLLLLLLLLLLLLLVw{{{{]'']P$-:>:>>>>>>>>>>>>>>>>>>>79z90q89999999999999",
"LYLYLLYLYLLLLLYLLjtLLLLLLLLLLLLLLLLLLLLLLmu}{{}{{}'g&-::>>>>>>>>>>>>>>>>>>>>7zxx9989999999999999",
"LLLLYLLLYLLYLYLLYnpLLLLLLLLLLLLLLLLLLLLLLjoA{{{]'B$$&->>>>>>>>>>>>>>>>>>>>>>79909889999999999999",
"LYLLLLLLLKLLLLYLLbuLLLLLYLLLLLLLLLLLLLLLLb@o_`____B&$->>>>>>>>>>>>>>>>>>>>>>79988999999999999999",
"LLLLYLHLLKGLKGKLLigLLLLLLLLLLLLLLLLLLLLLLj+U`_____)r&->>>>>>>>>>>>>>>>>>>>>>79999999999999999999",
"LLLLLHLLLKLKLGLGKMuLLLLLLLLLLLLLLLLLLLLLLh${'`_____B&->>>>>>>>>>>>>>>>>>>>>>89999999999999999009",
"LHLLHLHHGLGKGLFLKNuLLLLLLLLLYLLLLLLLLLLLLpj}'`_____R&->>>>>>>>>>>>>>>>>>>>>>8999999999990((90x99",
"LKLKLHLHGLGLLGLKKnuLLLLLLLLLLLLLLLLLLLLLLhh}[______E$,>>>>>>>>>>>>>>>>>>>>>>9999999999999xx0xx99",
"KKKHHLHLLGLGGLGLKh#LLLLLLLLYLLLLLLLLLLLLLNh{'`_____)&e>>>>>>>>>>>>>>>>>>>>>>999999999999989qq999",
"KLHLLLLLKLKKLGLGKZ#LLLLLLLLLLLLLLLLLLLLLLhh['`_____^$->>>>>>>>>>>>>>>>>>>>>499999999999998898899",
"KKLKHHLHLGLLGLGLKZrLLLLILLLLLLLLLLLLLLLLLhh}'______E&->>>>>>>>>>>>>>>>>>>>>599999999999999999899",
"KKLKKLKKKKLKLKLGLZ%LLLLLLLLLLLLLLLLLLLLLL&f}[______E&->>>>>>>>>>>>>>>>>>>>>499999999999999999999",
"LKKKKKKLLKLKFFFLKZ%LLLLLLLLLLLLLLLLLLLTLF.f}'______E&->>>>>>>>>>>>>>>>>>>>>699999999999999999999",
"KKLKVVVmNVVVVVVVmhrKKLLLLLLLLLLLLLLLLLLZo.&{'______E&->>>>>>>>>>>>>>>>>>>>>799999999999999999999",
". .       . . .Oynnn+           X        ..{[______P&->>>>>>>>>>>>>>>>>>>>>799999999999999999999",
"y%y%+++++#%*pbnmnmmmnnppppnyO%pppppyppwo. f{'______E&->>>>>>>>>>>>>>>>>>>>>999999999999999999999",
"nnnmnnmmmmmmmnmmnmmnnnmmmmnbOynnnnnnnnnn+ f{'______E&->>>>>>>>>>>553>>>2>>>999999999999999999999",
"nnnnnmnnmmmmnnmnmmmmnmmnmmnpOynnnnnnnnnnn f{'______E&->>>>>>>>>>><53>54>>>4999999999999999999999",
"nnnnnmmmmmmmmmmmmnnmmmmmmmmnOynnnnnnnnnnnof{'______E&e>>>>>>>>>>53<53<>>>>4999999999999999999999",
"mmmmmmmnmnmmnmmmmmmmmmmmnnbbObnnnnnnnnnnn+u{'`_____E&-2>>>>>>>>><53;<<:>>>6999999999999999999999",
"mmnmmmmmmmmmmmnmnnmnnnmmnnbbOynnnnnnnnnnmof['______E&->>>>>>>>>>>33:<>>>>>7999999999999999999999",
"mmmmmmnmmmmmmnmnmmmmmmmmnnnbOynnnnnnnnnnn+u}[______P&->>>>>>>>>>>:2><>>>>>7999999999999999999999",
"mmmmmmmnmmmmmmmnmnnmmnmmnnnbOynmnnnnnnnnmoX}{`____'P@,>>>>>>>>>>>>>>>>>>>>9999zxz999999999999999",
"mmmmnnmnmnnnmmmmmnnnnmmmnnmnO*mmnnnnnnnnno }}{'`___P$->>>>>>>>>>>>>>>>>>>>98z0zz8999999999999999",
"GZGGGGGDGDDGGGGDGGGGGKKKGGGGObGGKKKKHDDDD+ ~}{{{[[[P&->>>>>>>>>>>>>>>>>>>2998zz89999999999999999",
"GGGGKKKGGGGGKKKKKKGGKKGGGGGGO*GGKKKKKKHHJ#.k}{}}{^P&&-1>>>>>>>>>>>>>>>>>>2998z889999999999999999",
"GGGGKKKLGGGGKKKGKKGGKKGGYGGnOOnGKKKKKKKKJ@ o[{''_I&&$->>>>>>>>>>>>>>>>>>>>9999999999999999999999",
"by=b====**bbbbbbnnnbbmbbnbbOOOOOnnnbnbbmb+  E_____A$$->>>>>>>>>>>>>>>>>>>>9999999999999999999999",
"Vi%%===b=bVVVVVmmmmmmmVVVmb*b*b*nnmnmmmmV+ X'_____)f$->>>>>>>>>>>>>>>>>>>>999999999999999999xz99",
"YYV==GYYYYYYLLYYYYYYYYYYYKYYLYYYYYYYYYYYY# g'______A$->>>>>>>>>>>>>>>>>>>>99999999999999999x(999",
"GKZ%NKKLKLKKLLGLKYGGKLKGYGGYGGKKKLKLKKKKL# S'______E&->>>>>>>>>>>>>>>>>>>>9999999999999999998999",
"GFD=bGGGKKKKKKKKKKKKGKKKKKKKKKKKKKKKKKKKG# ~]`_____E&->2>>>>>>>>>>>>>>>>>>7999999999999999989999",
"LGG=VGGLKKKKKKKKKKKKKKKKKKKKKKKKKKKKKKKKG# ['`_____E&->>>>>>>>>>>>>>>>>>>>7999999999999999999999",
"GKGbGGGGKKKKKKKKKKKKKKKKKKKKKKKKKKKKKKKKG# }])`____E&->>>>>>>>>>>>>>>>>>>>7999999999999999999999",
"KKGVDGGYKKKKKKKKKKKKKKKKKKKKKKKKKKKKKKKKK#u[]`_____R$->>>>>>>>>>>>>>>>>>>>7999999999999999999999",
"KKKVDGGGLGKKKKKKKKKKKKKKKKKKKKKKKKKKKKKKK#g}'______R&->>>>>>>>>>>>>>>>>>>>7999999999999999999999",
"KKGVDGGGLGKKKKKKKKKKKKKKKKKKKKKKKKKKKKKKK@g}[_____`P$->>>>>>>>>>>>>>>>>>>>6999999999999999999999",
"KFGmDGLGGGGKKKKKKKKKKKKKKKKKKKKGKKKKKKGKK#S}''_____P&->>>>>>>>>>>>>>>>>>>>6999999999999999999999",
"KGDmVGGGGLLGKKKKKKKKKKKKKKKKKKKGKKKKKKGLF#S}'______P&->>>>>>>>>>>>>>>>>>>>6999999999999999999999",
"KKVnVVDGGGGGKGKKGKKGKKGGKKGGKKGGKKKKGGGGK+S{]______Pw->>>>>>>>>>>>>>>>>>>>6999999999999999999999",
"FZVnVbmVZDDZDVVVVmVZDVVmVZZVVVmmVVVmVnVVV+S{'______P$->>>>>>>>>>>>>>>>>>>>6999999999999990999099",
"mVnVnbnbnnnnnnmmmmmmmmnnmmmmmmmbbbbbbbnbbXB}'______P$->>>>>>>>>>>>>>>>>>>>699999999999999(q90(99",
"KKFLYYYYYYYYYYYYYYYKYYYYYYYLYGGGDDDFDDDGL+f}'______P&->>>>>>>>>>>>>>>>>>>>599999999999999qq0q899",
"YLLLLLLYGYLLLLLLGGYGYGKYYGYKYKGKGGGGKGKGG#u}``_____P&->>>>>>>>>>>>>>>>>>>>4999999999999988799899",
"GGGGGGGGGGGGGGGGGGGGGGGGGGDGGGGGGGGGGGGGF#X}`______P&->>>>>>>>>>>>>>>>>>>>4999999999999999988999",
"GGGGGGGGGGGGGGGGGGGGGGGGGGGGGGGGGGGGGGGGG# }'______S&->>>>>>:44>>>>>>>>>>>4999999999999999999999",
"GGGGGGGGGGGGGGGGGGGGGGGGGGGGGGGGGGGGGGGGF@ /]_____'S&->>>>>>15>255>>>>>>>>>999999999999999999999",
"GGGGGGGGGGGGGGGGGGGGGGGGGGGGGGGGGGGGGGGGG# E{'_____P&->>>>5>22>263>>>>>>>>>999999999999999999999",
"GGGGGGGGGGGGGGGGGGGGGGGGGGGGGGGGGGGGGGGGF+ S}{`____P&->>>>>52:222>>>>>>>>>>999999999999999999999",
"GGGGGGGGGGGGGGGGGGGGGGGGGGGGGGGGGGGGGGGGF+.f}}}{{']P&->>>>:>3>2>>2>>>>>>>>>999999999999999999999",
"GGGGGGGGGGGGGGGGGGGGGGGGGGGGGGGGGGGGGGGGF+ @}}}}}^Ef&->>>>>>:>>:>>>>>>>>>>>999999999999999999999",
"GGGGGGGGGGGGGGGGGGGGGGGGGGGGGGGGGGGGGGGGG+  `}]'`Err$->>>>>>>>>2>>>>>>>>>>>899999999999999999999",
"GGGGGGGGGGGGGGGGGGGGGDGGGGGGGGGGGGGGGGGGG+  ~_`___Pr$,>>>>>>>>>>>>>>>>>>>>>799999999999999999999",
"VVVVVVVDZDDDDDDDDDDDDDDDDNii===iMMVVVDZDZo @'______f$->>>>>>>>>>>>>>>>>>>>>799999999999999999999",
"===%=%=MVNVVmmmmbmmmmNVmm===ii=i=u==i====. B'______S&->>>>>>>>>>>>>>>>>>>>>799999999999999999999",
"DZ=%%fVFGYGGGGLGKKKKLKLLKFFGZZVVVVVVVVVVZ+ ~`/)`___R&s2>>>>>>>>>>>>>>>>>>>>899999999999999999999",
"YYZ%iGGYGYYLYLYGLLYLLYLLYLKLLLLLYYGYLLLLY+X/[`_____E&e5>>>>>>>>>>>>>>>>>>>>699999999999999999999",
"FGGVVGGGGGGGGGGGGGGGGGGGFGGGGGGGGGGGFFGGG+ }]`)____E&->>>>>>>>>>>>>>>>>>>>>699999999999999998999",
"GGGDDGGGGGGGGGGGGGGGGGGGGGGGGGGGGGGGGFGGG+=}]`_____E$e:>>>>>>>>>>>>>>>>>>>>699999999999999999999",
"GGGGGGGGGGGGGGGGGGGGGGGGGGGGGGGGGGGGGGGGF#g}]__)___E&->>>>>>>>>>>>>>>>>>>>>699999999999999999999",
"GGGGGGGGGGGGGGGGGGGGGGGGGGGGGGGGGGGGGGGGG+B}]______E&->>>>>>>>>>>>>>>>>>>>2699999999999999999999",
"GGGGGGGGGGGGGGGGGGGGGGGGGGGGGGGGGGGGGGGGG#S}]______E$->>>>>>>>>>>>>>>>>>>>>599999999999999999999",
"GGGGGGGGGGGGGGGGGGGGGGGGGGGGGGGGGGGGGGGGF+S}]______E$->>>>>>>>>>>>>>>>>>>>2499999999999999999999",
"GGGGGGGGGGGGGGGGGGGGGGGGGGGGGGGGGGGGGGGGGoS{'______E$->>>>>>>>>>>>>>>>>>>>>499999999999999999999",
"GGGGGGGGGGGGGGGGGGGGGGGGGGGGGGGGGGGGGGGGD S}'______E$->>>>>>>>>>>>>>>>>>>>>499999999999999999999",
"GGGGGGGGGGGGGGGGGGGGGGGGGGGGGGGGGGGGGGGGi f}'______E$-2>>>>>>>>>>>>>33>>>>>499999999999999999999",
"GGGGGGGGGGGGGGGGGGGGGGGGGGGGGGGGGGGGGGV%  f}'______P$->>>>>>>>>>>>>25>>>>>>299999999999999999999",
"    .###+     X#VGGGV=X    X@@@#+#++      +}'______P&->>>>>>>>>>>>>22>>>>>>>99999999999999999999",
"hhhnjjphhhhNhhhbMCZKhMMMhkMhMMMhhMhZJZj+   }]______P$->>>>>>>>>>>>>>:>>>>>>>99999999999999999999",
"WWWWWWWWWWWWWWWWWTBYWWWWWWWWWWWWWWWWEWWWg. ~}'_____P&->>>>>>>>>>>>>>>>>>>>>>99999999999999q99999",
"WWWWWWWWWWWWWWWWWYBTWWWWWWWWWWWWWWWWWWWWWo.P}]_'___P&->>>>>>>>>>>>>>>>>>>>>>9999999999999009q(09",
"WWWWWWWWWWWWWWWWWTNRWWWWWWWWWWWWWWWWWWWWW% B}}}]]']I&->>>>>>>>>>>>>>>>>>>>>>9999999999990080q999",
"WWWWWWWWWWWWWWWWWTNTWWWWWWWWWWWWWWWWWWWWWh g}}}}}}`g&->>>>>>>>>>>>>>>>>>>>>>799999999998qq9q9qq9",
"WWWWWWWWWWWWWWWWWYNTWWWWWWWWWWWWWWWWWWWWW&  {}{]_I$$&->>>>>>>>>>>>>>>>>>>>>>79999999999899909q99",
"QQQQQQQQQQQQQQQQQRNE//!!!!!!!!!/!!!!!!!!/&  E]__``I$&->>>>>>>>>>>>>>>>>>>>>>79999999999989989899",
"_______]'________QBQ_____________'______`f .____)__f$s5>233>>>>>>>>>>>>>>>>>7999999((99999999999",
"YYYYYYYYTLYGGGHHHANZGFDHFFFGGGGGDHDDGGHDDo $'______I&,3<332>>>>>>>>>>>>>>>>>79999999qq0999999999",
"GKHHGDDGHHHHGGKHHZNDDGFDFFDDDGGDHDHDGDDFD@.B[______)$e>:3>>>>>>>>>>>>>>>>>>>69999999888999999999",
"KDHHGGGGHHHHGGDKJZNFDDFFFDGDFDDGDFHHDGDGFo.S'_______re<>>:>>>>>>>>>>>>>>>>>>69999999999999999999",
"HHHHHHHHHHHFHHHVu+X&NFFHDDDDDFFFFFDKDFFFN  ~]_______h-2>>>>>>>>>>>>>>>>>>>>>69999999999999999999",
"NmmDHHHnnNNu%+  .    .+uunNNnnniuuu#++++   ~[_______h->>>>>>>>>>>>>>>>>>>>>>69999999999999999999",
"                        .     .            `[_______h->>>>>>>>>>>>>>>>>>>>>>69999999999999999999",
"                                           }[_____)`j->>>>>>>>>2>>>>>>>>>>>249999999999999999999"
};
