/* XPM */
static char *result[] = {
/* columns rows colors chars-per-pixel */
"96 96 78 1 ",
"  c #4F2913",
". c #502C16",
"X c #522F1A",
"o c #523514",
"O c #583C15",
"+ c #53311D",
"@ c #553623",
"# c #553825",
"$ c #5A3A26",
"% c #573B28",
"& c #5B3F2C",
"* c #56441D",
"= c #5B4C1E",
"- c #525713",
"; c #585215",
": c #565B15",
"> c #5B5E16",
", c #5B541A",
"< c #5B5E18",
"1 c #5E6117",
"2 c #5E6119",
"3 c #616417",
"4 c #666D17",
"5 c #62641A",
"6 c #6A631A",
"7 c #676A19",
"8 c #6B6E1A",
"9 c #6E721A",
"0 c #72751B",
"q c #75791E",
"w c #787B1F",
"e c #5C4323",
"r c #5F412E",
"t c #5D5F23",
"y c #5A4332",
"u c #5E4C3D",
"i c #604923",
"p c #614533",
"a c #634B3A",
"s c #6D6921",
"d c #767A20",
"f c #797C21",
"g c #6C6A3E",
"h c #615244",
"j c #695444",
"k c #625648",
"l c #695749",
"z c #645A4D",
"x c #6F5B4C",
"c c #705B4C",
"v c #675F53",
"b c #685D50",
"n c #666057",
"m c #6A6256",
"M c #69635B",
"N c #6F6B5F",
"B c #72675A",
"V c #786759",
"C c #6F6961",
"Z c #716D64",
"A c #786D61",
"S c #747166",
"D c #7F7266",
"F c #767469",
"G c #7A776E",
"H c #7B796F",
"J c #7D7B71",
"K c #83776C",
"L c #827F76",
"P c #7D8024",
"I c #828077",
"U c #868479",
"Y c #88857C",
"T c #8A897F",
"R c #8D8B83",
"E c #918E86",
"W c #929087",
"Q c #95938C",
/* pixels */
"00000000000000000000000000000000000000009irEQUYUUUTQK$<>>>>>>>>>>>>>>>>>>>>>30000000000000000000",
"0000000000000000000000000000000000000008e$VQRUUYUUUWQce>>>>>>>>>>>>>>>>>>>>>30000000000000000000",
"00000000000000000000000000000000000000s$$pQQUUUUUUUYQEp=>>>>>>>>>>>>>>>>>>>>70000000000000000000",
"00000000000000000000000000000000000000i$$DQRUUUUUUUUTQKi,>>>>>>>>>>>>>>>>>>>70000000000000000000",
"00000000000000000000000000000000000000i$aQQUUUUUUUUUUTQc$>>>>>>>>>>551>>>>>>80000000000000000000",
"00000000000000000000000000000wd0000000i$UQRUUUUYUUUUTTQTre>>>>>>>>>>-:>>>>>>80000000000000000000",
"00000000000000000000000000000ww0000000iaURQQQQQQQQQWTQQTa$>>>>>>>>>>>>>>>>>>00000000000000000000",
"000000000000000000000000009ww000000000iaIIWQQQQQQQQQQQQUa$>>>>>>>>>>>>>>>>>>00000000000000000000",
"000000000000000000000000000ww040PPf000iaLLBMMCMMMCCMvCZLa$>>>>>>>>>>>>>>>>>100000000000000000000",
"0000000000000000000000000wP00w0wfd0000iaLLMCMCMNCCvCCCZLa$>>>>>>>>>>>>>>>>>500000000000000000000",
"000000000000000000000000000w080w890000iaLGMCNMMNvCvCCvZLa$1>>>>>>>>>>>>>>>>200000000000000000000",
"00000000000000000000000000990988000000iaLGMMMCMMnCCMCCZLa$>>>>>>>>>>>>>>>>>700000000000000000000",
"00000000000000000000000000000000000000ipLSCMMCMCCCCnMMCLa$>>>>>>>>>>>>>>>>>700000wf0000000000000",
"00000000000000000000000000009800000000i$LZMMMMMMnnnnMMCLa$>>>>>>>>>>>>>>>>>800w0qf80000000000000",
"00000000000000000000000000000000000000i$LZCCCMMMMnCnMvNLa$>>>>>>>>>>>>>>>>>80dfd0090000000000000",
"00000000000000000000000000000000000000i&GZMMMMMMMMnnMMMGa$>>>>>>>>>>>>>>>>>9000w0890000000000000",
"00000000000000000000000000000000000000eaGCMMMMMMMMMnnMnGu#<<>>>>>>>>>>>>>>>000089000000000000000",
"00000000000000000000000000000000000000iaFMMnnMnnnMMMMMMGu#<<>>>>>>>>>>>>>>>000000000000000000000",
"00000000000000000000000000000000000000ipFMMMMMMMMnnMMnMGu%e<>>>>>>>>>>>>>>3000000000000000000ww0",
"00000000000000000000000000000000000000eaGZnMMnnMMMnMMMCFk#<<>>>>>>>>>>>>>>30000000000000wPf0qw00",
"00000000000000000000000000000009000000$aGCMMnMMnnMMMMnCGl$<>>>>>>>>>>>>>>>700000000000000ffwff00",
"000000000000000000000000000000000000qs$aGCMMMMnMMnnMMMMGl$,>>>>>>>>>>>>>>>70000000000000090ww000",
"000000000000000000000000000000000000ds#uGMMnnMnMMMMMnMMFl$,>>>>>>>>>>>>>>>8000000000000009990800",
"000000000000000000000000000000000000st#uGMMMMMMMnMnMMnMFl$,>>>>>>>>>>>>>>>9000000000000000009000",
"00000000000000000000000000000000000000elZMMMnMnMMMMnMnnZl$<>>>>>>>>>>>>>>>9000000000000000000000",
"09000000000000000000000000000000000000slMnMMMnMMMnMMMMMMl,>>>>>>>>>>>>>>>>0000000000000000000000",
"000000000000000000000000000000000000000gCnnnnMMnnMMnnMnnt>>>>>>>>>>1>>>>>>0000000000000000000000",
"0000000000000009000000000000000000000000               =>>>>>>>>>>><>>>>>30000000000000000000000",
"0000000000000000000000000000000000000000    %yuuuy%X   ;>>>>>>>>>>><>>>>>30000000000000000000000",
"0000000000000000000000000000000000000000  @zzzzzzzzk%  ;>>>>>>>><55<>>>>>>0000000000000000000000",
"0000000000000000000000000000000000000000 .zzzzzkkzzzzX ;>>>>>>>>><52>53>>>0000000000000000000000",
"00000000000000000000000000000000000000qf yzzzzzkbkzzz% ;>>>>>>>>5<>52<>>>>0000000000000000000000",
"0000000000000000000000000000000000000000 uzzzkzzkzzkzy -11:1:2:2>5<->>:>>>9000000000000000000000",
"0000000900000000000000000000000000000000 uzzzzzzzzzzky -1:111:1:>>2<<:>>>>8000000000000000000000",
"0000000dq000000000000000000000000000000f uzkzzzkzzzzzy+::-1-1:1:<>5>>>>>>>8000090000000000000000",
"000dfd9dqq0q0000000000000000000000000009 uzzzkzzkzzkzy.:1111:1:1>>>>>>>>>>8dd9df0000000000000000",
"00009ff00qw00000000000000000000000000000 yzzzkkzzzkzzy.->>>>1:1:>>>>>>>>>>70dwdf9000000000000000",
"000dd9dd90090000000000000000000000000000 +zzkzzzzkzzzy+->>>>:1>1>>>>>>>>>>709dd90000000000000000",
"0000904909900000000000000000000000000000  uzzzzzzkzzzy ->>>>>>>>>>>>>>>>>>5090000000000000000000",
"0000009900000000000000000000000000000000  uzzkzzkzzzny ->>>>>>>>>>>>>>>>>>3090000000000000000000",
"0000000000000000000000000000000000000000 &bkzzzzzzzzzy >>>>>>>>>>>>>>>>>>>3000000000000000000000",
"0000000000000000000000000000000000000000 @zzkzzzzkbvby >>>>>>>>>>>>>>>>>>>30000000000000000qdw00",
"0000000000000000000000000000000000000000.%kzzzzzzzzzby >>>>>>>>>>>>>>>>>>>>0000000000000000wfw00",
"0000000000000000000000000000000000000000.%zzzkzzzzvzz& 1>>>>>>>>>>>>>>>>>>>000000000000000008000",
"000000000000000000900000000wPd000wf00000 #zzkzzkzzzvby :>>>>>>>>>>>>>>>>>>>000000000000000090000",
"0000000000000000000000000000900wffq00000.&zzkzzzzzzzzy :>>>>>>>>>>>>>>>>>>>900000000000000000000",
"0000000000000900000000000000949ddd000000 uzzzkzzzvvzzy >>>>>>>>>>>>>>>>>>>>800000000000000000000",
"0000000000000000000000000000090wd0000000 zzzkzzzzzzvby >>>>>>>>>>>>>>>>>>>>800000000000000000000",
"0000000000000000000000000000000499000000 kzzzkzbvzvzzy :>>>>>>>>>>>>>>>>>>>800000000000000000000",
"0000000000000000000000000000000000000000 zzkzzbbzzzzby :>>>>>>>>>>>>>>>>>>>700000000000000000000",
"0000000000000000000000000000000000000000 zzzzzzbvzvzb& >>>>>>>>>>>>>>>>>>>>700000000000000000000",
"0000000000000000000000000000000000000000.zzzzzzzzzvzby >>>>>>>>>>>>>>>>>>>>500000000000000000000",
"00000000000000000000000000000000000Pw990@zzkzzbzzvvzz& >>>>>>>>>>>>>>>>>>>>300000000000000000000",
"00000000000000000000000000000000009dd9ww@zzzzbzmzzzzv&.>>>>>>>>>>>>>>>>>>>>30000000000000q000000",
"0000000000000000000000000000000000099qdwyzzzbzzbvzzvv&@>>>>>>>>>>>>>>>>>>>>30000000000000Pw0qPq0",
"0000000000000000000000000000000000099P99ynnnmMmMvMMvMyo>>>>>>>>>>>>>>>>>>>>>0000000000000wwq0000",
"00000000000000ww0wdq0000000000000000w990+zlzlzzlzbzzzyo1>>>>>>>>>>>>>>>>>>>>00000000000099800000",
"000000000000000f0dd000000000000000000000 #&%%e%%%%e%%+o:>>>>>>>>>>>>>>>>>>>>00000000000000090900",
"000000000000009q099000000000000000000000 &yyyyyryyyyy#o1>>>>>22>>>>>>>>>>>>>80000000000000009000",
"0000000000000008900000000000000000000000.$nvnnnnvmzmmyo>>>>>121255>>>>>>>>>>90000000000000000000",
"0000000000000009900000000000000000000000.anvvvvvvvvvFjo>><5>>>>261>>>>>>>>>>80000000000000000000",
"0000000000000000000000000000000000000000.hnvvvvvvvbmIjo>>>>52>251>>>>>>>>>>>70000000000000000000",
"0000000000000000000000000000000000000000 uvvvvvvvvvMIao>>>:>2<2>>1>>>>>>>>>>70000000000000000000",
"0000000000000000000000000000000000000000.hvvvvvvvnmSIro>>>>>>>::>>>>>>>>>>>>80000000000000000000",
"0000000000000000000000000000000000000000 hmnvvvvvvNFIyo1>>>>>>>>>>>>>>>>>>>>30000000000000000000",
"0000000000000000000000000000q00000w00000 ubbvvvvvmFFIeo:>>>>>>>>>>>>>>>>>>>>30000000000000000000",
"0000000000000000000000000000ffw0qww00000 hmbvvvvvSFFI&o1>>>>>>>>>>>>>>>>>>>>30000000000000000000",
"000000000000000000000000000wf99ww9000000 bbmvvvvmFFFIe 1>>>>>>>>>>>>>>>>>>>>30000000000000000000",
"0000000000000000000000000009dq9d99900000 zbnvvnvCFFFIy :>>>>>>>>>>>>>>>>>>>>80000000000000000000",
"00000000000000000000000000009q0000000000 hnbvvbbFFFFI& >>>>>>>>>>>>>>>>>>>>300000000000000000000",
"0000000000000000000000000000000000000000 hbnvvvNFFFFL& >>>>>>>>>>>>>>>>>>>>700000000000000000000",
"0000000000000000000000000000000000000096 hmbvvvNFFFFIe >>>>>>>>>>>>>>>>>>>>000000000000000000000",
"0000000000000000000000000000000000000006.uvvvvvFFFFFI& >>>>>>>>>>>>>>>>>>>5000000000000000000000",
"0000000000000000000000000000000000000096.vvvvbNFFFFFI& >>>>>>>>>>>>>>>>>>>9000000000000000000000",
"0000000000000000000000000000000000000006 vbvvvSFFFFFI& >>>>>>>>>>>>>>>>>>30000000000000000000000",
"0000000000000000000000000000000000000006 vnbbNFFFFFFI& >>>>>>>>>>>>>>>>>>80000000000000000000000",
"0000000000000000000000000000000000000096 vvvmSFFFFFFIe >>>>>>>>>>>>>>>>>100000000000000000000000",
"0000f000000000000000000000wf000000000006 vvvSFFFFFFFIr >>>>>>>>>>>>>>>>>700000000000000000000000",
"0000ww000000000000000000000fq00q00000006 hNNFFFFFFFFI& >>>>>>>>>>>>>25>>900000000000000000000000",
"000w09000000000000000000000qqqqq00000003 uSSFFFFSFFFIr >>>>>>>>>>>>25>>5000000000000000000000000",
"000q0000000000000000000000090wf000000006XaZFFFFFFFFFU& >>>>>>>>>>>>>>>>8000000000000000000000000",
"0009000000000000000000000009009000000006.aSFFFFFFFFFY& >>>>>>>>>>>>>>>30000000000000000000000000",
"00000000000000000000000000000000000000ws.lGFFFFSFFFFYp >>>>>>>>>>>>>>>80000000000000000000w00000",
"00000000000000000000000000000000000000w6 xHFFFFFFFFSUp >>>>>>>>>>>>>>>9000000000000000000ww0wP00",
"0000000000000000000000000000000000000086 xJFFFFFFFFFTp.>>>>>>>>>>>>>>3000000000000000000w09qq000",
"0000000000000000000000000000000000000006 xHFFFFFFFFFRp >>>>>>>>>>>>>>9000000000000000099fq0w0ww0",
"00000000000000000000000000000000000wq006 xHFFFFFFFFIRa >>>>>>>>>>>>>30000000000000000009000w0w00",
"00000000000000000000000000000000000wf006 VJFSFFFFSLERx >>>>>>>>>>>>>4000000000000000000090090900",
"0000PP00qqq000000000wd000000000000090q06 CYIJLJLUTRRRx <111>>>>>>>>3000000000000000Pw00000000000",
"000wqqP0qq000000000000q00000000000009906 CJJLYILIIUUUj.<11>>>>>>>3000000000000000000qP0000000000",
"000wP049q0000000000009900000000000000006 hnnMnnnmnnnny :1>:>>>>700000000000000000000990000000000",
"00000q0000000000000000000000000000000006 hnnnnnnnnnnny <1:11170090000000000000000000000000000000",
"000000000000Pw00q000000000qPwww000000006 hvnnnnnvMvvnyX>1114000000000000000000000000000000000000",
"0000000000000Pqw000000000009w00000000000XhnnnvnnMvMvnyo>1499000000000000000000000000000000000000",
"00000000000000900000000000090090000000007$##@@+  @@@@*280000000000000000000000000000000000000000",
"000000000000099000000000000090000000000006X         O8000000000000000000000000000000000000000000"
};
