/* XPM */
static char *result[] = {
/* columns rows colors chars-per-pixel */
"96 96 55 1 ",
"  c #56341F",
". c #573F1D",
"X c #583F1D",
"o c #583724",
"O c #593925",
"+ c #5C3E2A",
"@ c #59401E",
"# c #525713",
"$ c #565B15",
"% c #5B5E16",
"& c #5C5F18",
"* c #5D6017",
"= c #5E6119",
"- c #666D17",
"; c #61631A",
": c #666D18",
"> c #696F19",
", c #6D721A",
"< c #72751B",
"1 c #76791E",
"2 c #787B1F",
"3 c #5D412F",
"4 c #5E4431",
"5 c #604331",
"6 c #624836",
"7 c #654E3D",
"8 c #767A20",
"9 c #797C21",
"0 c #6A5545",
"q c #6D5748",
"w c #6E5D4C",
"e c #725E51",
"r c #756456",
"t c #766659",
"y c #70695D",
"u c #796A5D",
"i c #736D61",
"p c #7D6F63",
"a c #7B7164",
"s c #7C7669",
"d c #7D796E",
"f c #7F7C70",
"g c #81766B",
"h c #837A6F",
"j c #847B71",
"k c #7D8024",
"l c #848175",
"z c #888077",
"x c #868579",
"c c #89867B",
"v c #8A887E",
"b c #8D8B82",
"n c #918E86",
"m c #919087",
"M c #93918A",
/* pixels */
"<<<<<<<<<<<<<<<<<<<<<<<<<<<<<<<<<<<<<<<<<<oMMcxxxxxxw@***$%%%%%%%%%%%%%%%%%%%<<<<<<<<<<<<<<<<<<<",
"<<<<<<<<<<<<<<<<<<<<<<<<<<<<<<<<<<<<<<<<<<oMMzxxxxxxw@*$****%%%%%%%%%%%%%%%%%<<<<<<<<<<<<<<<<<<<",
"<<<<<<<<<<<<<<<<<<<<<<<<<<<<<<<<<<<<<<<<<<oMMxxxxxxx4@*$$**$%%%%%%%%%%%%%%%%%<<<<<<<<<<<<<<<<<<<",
"<<<<<<<<<<<<<<<<<<<<<<<<<<<<<<<<<<<<<<<<<<ocMzxxxxxx4@***$$*%%%%%%%%%%%%%%%%%<<<<<<<<<<<<<<<<<<<",
"<<<<<<<<<<<<<<<<<<<<<<<<<<<<<<<<<<<<<<<<<<OjMxxxxxxx43$*%%%%%%%%%%%;;&%%%%%%%<<<<<<<<<<<<<<<<<<<",
"<<<<<<<<<<<<<<<<<<<<<<<<<<<<<29<<<<<<<<<<<odMxxxxxxx4@*$%%%%%%%%%%%%$%%%%%%%%<<<<<<<<<<<<<<<<<<<",
"<<<<<<<<<<<<<<<<<<<<<<<<<<<<<<9<<<<<<<<<<<otMbxxxxxx4@**%%%%%%%%%%%%%%%%%%%%%<<<<<<<<<<<<<<<<<<<",
"<<<<<<<<<<<<<<<<<<<<<<<<<<<99<<<<<<<<<<<<,oqmnxzxxxx6@**%%%%%%%%%%%%%%%%%%%%%<<<<<<<<<<<<<<<<<<<",
"<<<<<<<<<<<<<<<<<<<<<<<<<<<<2<><999<<<<<<<o6MMbvxxxx6.%%%%%%%%%%%%%%%%%%%%%%%<<<<<<<<<<<<<<<<<<<",
"<<<<<<<<<<<<<<<<<<<<<<<<<99<<1<299<<<<<<<<ooMMMMnnnn4@%%%%%%%%%%%%%%%%%%%%%%%<<<<<<<<<<<<<<<<<<<",
"<<<<<<<<<<<<<<<<<<<<<<<<<<<2<><2><<<<<<<<<oojMMMMvht @*%*=*%%%%%%%%%%%%%%%%%%<<<<<<<<<<<<<<<<<<<",
"<<<<<<<<<<<<<<<<<<<<<<<<<<<><<>><<<<<<<<<<oornbbxx7  .===*%%%%%%%%%%%%%%%%%%%<<<<<<<<<<<<<<<<<<<",
"<<<<<<<<<<<<<<<<<<<<<<<<<<<<<<<<<<<<<<<<<<ooqzxxxxlO @*==%%%%%%%%%%%%%%%%%%%&<<<<98<<<<<<<<<<<<<",
"<<<<<<<<<<<<<<<<<<<<<<<<<<<<<><<<<<<<<<<<<oosxxxxxxw .$$$%%%%%*%%%%%%%%%%%%%&<1<<1><<<<<<<<<<<<<",
"<<<<<<<<<<<<<<<<<<<<<<<<<<<<<<<<<<<<<<<<<<oobxxxxxxl .$$*%%%%%$*%%%%%%%%%%%%%<k918><<<<<<<<<<<<<",
"<<<<<<<<<<<<<<<<<<<<<<<<<<<<<<<<<<<<<<<<<<o6nzxxxxxx6@*%%%%%%%%%%%%%%%%%%%%%%<<8<><<<<<<<<<<<<<<",
"<<<<<<<<<<<<<<<<<<<<<<<<<<<<<<<<<<<<<<<<<<oqnxxxxxxxw@%%%%%%%%%%%%%%%%%%%%%%%<,>><,<<<<<<<<<<<<<",
"<<<<<<<<<<<<<<<<<<<<<<<<<<<<<<<<<<<<<<<<<<otnxxxxxxxr.%%%%%%%%%%%%%%%%%%%%%%%<<<<<<<<<<<<<<<<<<<",
"<<<<<<<<<<<<<<<<<<<<<<<<<<<<<<<<<<<<<<<<<<ojMxxxxxxxa.%%%%%%%%%%%%%%%%%%%%%%%<<<<<<<<<<<<<<<<11<",
"<<<<<<<<<<<<<<<<<<<<<<<<<<<<<<<<<<<<<<<<<<ojnxxxxxxxa.%%%%%%%%%%%%%%%%%%%%%%%<<<<<<<<<<<2kk<<9<<",
"<<<<<<<<<<<<<<<<<<<<<<<<<,<<<<<,<<<<<<<<<<onnxxxxxxxa.%%%%%%%%%%%%%%%%%%%%%%%<<<<<<<<<<<<99199<<",
"<<<<<<<<<<<<<<<<<<<<<<<<<<<<<<<<<<<<<<<<<<oMnxxxxxxxa.%%%%%%%%%%%%%%%%%%%%%%%<<<<<<<<<<<<,<1<<<<",
"<<<<<<<<<<<<<<<<<<<<<<<<<<<<<<<<<<<<<<<<<<oMnxxxxxxxw.%%%%%%%%%%%%%%%%%%%%%%%<<<<<<<<<<<<<<<,<<<",
"<<<<<<<<<<<<<<<<<<<<<<<<<<<<<<<<<<<<<<<<<<OMnxxxxxxxw.%%%%%%%%%%%%%%%%%%%%%%%<<<<<<<<<<<<<<<<<<<",
"<<<<<<<<<<<<<<<<<<<<<<<<<<<<<<<<<<<<<<<<<<oMncxxxxxx0@%*%%%%%%%%%%%%%%%%%%%%%<<<<<<<<<<<<<<<<<<<",
"<,<<<<<<<<<<<<<<<<<<<<<<<<<<<<<<<<<<<<<<<<oMncxxxxxx6@%$%%%%%%%%%%%%%%%%%%%%%<<<<<<<<<<<<<<<<<<<",
"<<<<<<<<<<<<<<<<<<<<<<<<<<<<<<<<<<<<<<<<<<OMnxxxxxxx6@%*%%%%%%%%%%%%%%%%%%%%%<<<<<<<<<<<<<<<<<<<",
"<<<<<<<<<<<<<<<<<<<<<<<<<<<<<<<<<<<<<<<<<<Ozncxxxxxl6.%%%%%%*%%%%%%%%%%%%%%%%<<<<<<<<<<<<<<<<<<<",
"<<<<<<<<<<<<<<<<<<<<<<<<<<<<<<<<<<<<<<<<<<OjmxxxxxxxO@$*%%%%$**$%%%%%%%%%%%%%<<<<<<<<<<<<<<<<<<<",
"<<<<<<<<<<<<<<<<<<<<<<<<<<<<<<<<<<<<<<<<<<oamxxxxxxx+@*$%%%%*$$*%;;;%%%%%%%%%<<<<<<<<<<<<<<<<<<<",
"<<,<<<<<<<<<<<<<<<<<<<<<<<<<<<<<<<<<<<<<<<Otmlxxxxxx6@%%%%%%%%**%&;;%;;%%%%%%<<<<<<<<<<<<<<<<<<<",
"<<<<<<<<<<<<<<<<<<<<<<<<<<<<<<<<<<<<<<<99<OqMvxxxxxd3@%%%%%%%*$*;;$;;%%%%%%%%<<<<<<<<<<<<<<<<<<<",
"<<<<<<<<<<<<<<<<<<<<<<<<<<<<<<<<<<<<<<<<99o4MMbzxfiy3@*#***$**$*=;=#%%$%%%%%%<<<<<<<<<<<<<<<<<<<",
"<<<<<<<><<<<<<<<<<<<<<<<<<<<<<<<<<<<<<<<88oonMMMnyyy3@**$*$**$$*%=;$&$$%%%%%&<<<<<<<<<<<<<<<<<<<",
"<<<<<<<8<<<<<<<<<<<<<<<<<<<<<<<<<<<<<<19,8oogMMMdyyy7@****$*%%*%%$=%&%%%%%%%$<<<<<<<<<<<<<<<<<<<",
"<<<898<<2<<<<<<<<<<<<<<<<<<<<<<<<<<<<<<>8,ooeMMbyyyy7@$$$**$%%%%%%%%%%%%%%%;%<89<<<<<<<<<<<<<<<<",
"<<<<8888,11,<<<<<<<<<<<<<<<<<<<<<<<<<<<<,<ootxxxyyyy7o$*%%%%%%%%%%%%%%%%%%%$;<88,<<<<<<<<<<<<<<<",
"<<<88>88<1<,<<<<<<<<<<<<<<<<<<<<<<<<<<<<<<oojxxxfyyy4@**%%%%%%%%%%%%%%%%%%%%$88><<<<<<<<<<<<<<<<",
"<<<<<<>,<,><<<<<<<<<<<<<<<<<<<<<<<<<<<<<<<oonxxxxsyy3@#$%%%%%%%%%%%%%%%%%%%%%<8<<<<<<<<<<<<<<<<<",
"<<<<,<,<<<<<<<<<<<<<<<<<<<<<<<<<<<<<<<<<<,o0nxxxxxiw 3**%%%%%%%%%%%%%%%%%%%%%<<<<<<<<<<<<<<<<<<<",
"<<<<<<<<<<<<<<<<<<<<<<<<<<<<<<<<<<<<<<<<<<oenxxxxxl6 @%%%%%%%%%%%%%%%%%%%%%%%<<<<<<<<<<<<<<<<<<<",
"<<<<<<<<<<<<<<<<<<<<<<<<<<<<<<<<<<<<<<<<<<ouMxxxxxxe @%%%%%%%%%%%%%%%%%%%%%%%<<<<<<<<<<<<<<<98<<",
"<<<<<<<<<<<<<<<<<<<<<<<<<<<<<<<<<<<<<<<<<<ojMxxxxxlf @%%%%%%%%%%%%%%%%%%%%%%%<<<<<<<<<<<<<<9k<<<",
"<<<<<<<<<<<<<<<<<<<<<<<<<<<<1<<<<<<<<<<<<<ojMxxxxxll3@*$%%%%%%%%%%%%%%%%%%%%%<<<<<<<<<<<<<<<><<<",
"<<<<<<<<<<<<<<<<<<<<<<<<<<<<981<<29<<<<<<<oMMcxxxxxx4@**%%%%%%%%%%%%%%%%%%%%%<<<<<<<<<<<<<<<<<<<",
"<<<<<<<<<<<<<<<<<<<<<<<<<<<<>8<<99<<<<<<<<oMMzxxxxxxw@*$%%%%%%%%%%%%%%%%%%%%%<<<<<<<<<<<<<<<<<<<",
"<<<<<<,<<<<<<<<<<<<<<<<<<<<<<>,889<<<<<<<<oMMxxxxxxxw@%%%%%%%%%%%%%%%%%%%%%%%<<<<<<<<<<<<<<<<<<<",
"<<<<<<<<<<<<<<<<<<<<<<<<<<<<<,<18<<<<<<<<<oMbzxxxxxxw@%%%%%%%%%%%%%%%%%%%%%%%<<<<<<<<<<<<<<<<<<<",
"<<<<<<<<<<<<<<<<<<<<<<<<<<<<<<<>>,<<<<<<<<oMMxxxxxxxw@$$**%%%%%%%%%%%%%%%%%%%<<<<<<<<<<<<<<<<<<<",
"<<<<<<<<<<<<<<<<<<<<<<<<<<<<<<<<<<<<<<<<<<oMbxxxxxxxw@$**$*$%%%%%%%%%%%%%%%%%<<<<<<<<<<<<<<<<<<<",
"<<<<<<<<<<<<<<<<<<<<<<<<<<<<<<<<<<<<<<<<<<OMbxxxxxxxw@$*****%%%%%%%%%%%%%%%%%<<<<<<<<<<<<<<<<<<<",
"<<<<<<<<<<<<<<<<<<<<<<<<<<<<<<<<<<<<<<<<<<Ojbxxxxxxxw@*$*$$*%%%%%%%%%%%%%%%%%<<<<<<<<<<<<<<<<<<<",
"<<<<<<<<<<<<<<<<<<<<<<<<<<<<<<<<<<<k8<<<<<Ojbxxxxxxx7@**%%%%%%%%%%%%%%%%%%%%%<<<<<<<<<<<<<<<<<<<",
"<<<<<<<<<<<<<<<<<<<<<<<<<<<<<<<<<<<98,<8<<oumxxxxxxx4@$*%%%%%%%%%%%%%%%%%%%%%<<<<<<<<<<<<1<<<1<<",
"<<<<<<<<<<<<<<<<<<<<<<<<<<<<<<<<<<<,,889<<oeMvxxxxxx6@*$%%%%%%%%%%%%%%%%%%%%%<<<<<<<<<<<192<29<<",
"<<<<<<<<<<<<<<<<<<<<<<<<<<<<<<<<<<<<<9,<<<o0Mmcxxxxx6@**%%%%%%%%%%%%%%%%%%%%%<<<<<<<<<<<<222<<<<",
"<<<<<<<<<<<<<<92<<98<<<<<<<<<<<<<<<<<8><<<o+mMMvcccc6@%%*%%%%%%%%%%%=%%%%%%%%<<<<<<<<<<<<,><<,<<",
"<<<<<<<<<<<<<<<9<<9<<<<<<<<<<<<<<<<<<<<<<<oozMMMmmml @%%%%%%%%%%%%%%%%%%%%%%%<<<<<<<<<<<<<<,,<<<",
"<<<<<<<<<<<<<<,11<><<<<<<<<<<<<<<<<<<<<<<<ootMmbvc7  @%%%%%%***%%%%%%%%%%%%%%<<<<<<<<<<<<<<<<<<<",
"<<<<<<<<<<<<<<<>><<<<<<<<<<<<<<<<<<<<<<<<<ooqvcxxxl+ .%%%%%%****;;%%%%%%%%%%%<<<<<<<<<<<<<<<<<<<",
"<<<<<<<<<<<<<<<,,<<<<<<<<<<<<<<<<<<<<<<<<<Oouxxxxxxa @$%%*;$**%*:=%%%%%%%%%%%<<<<<<<<<<<<<<<<<<<",
"<<<<<<<<<<<<<<<<<<<<<<<<<<<<<<<<<<<<<<<<<<oocxxxxxxx+@*%%$*-*%*;%%%%%%%%%%%%%<<<<<<<<<<<<<<<<<<<",
"<<<<<<<<<<<<<<<<<<<<<<<<<<<<<<<<<<<<<<<<<< 3mlxxxxxx0@%%%%$$*$**;*%%%%%%%%%%%<<<<<<<<<<<<<<<<<<<",
"<<<<<<<<<<<<<<<<<<<<<<<<<<<<<<<<<<<<<<<<<<O7mxxxxxxxw@%%%%**$**$%$%%%%%%%%%%%<<<<<<<<<<<<<<<<<<<",
"<<<<<<<<<<<<<<<<<<<<<<<<<<<<<<<<<<<<<<<<<<ormlxxxxxxw@**%%%%%%%%%%%%%%%%%%%%%<<<<<<<<<<<<<<<<<<<",
"<<<<<<<<<<<<<<<<<<<<<<<<<<<<2<<<<<9<<<<<<<opMxxxxxxxw@%%%%%%%%%%%%%%%*%%%%%%%<<<<<<<<<<<<<<<<<<<",
"<<<<<<<<<<<<<<<<<<<<<<<<<<<<892<<9<<<<<<<<ojMxxxxxxxw@%%%%%%%%%%%%%%%%%%%%%%%<<<<<<<<<<<<<<<<<<<",
"<<<<<<<<<<<<<<<<<<<<<<<<<<<28<<29,<<<<<<<<ocMxxxxxxxw@%%%%%%%%%%%%%%%%%%%%%%%<<<<<<<<<<<<<<<<<<<",
"<<<<<<<<<<<<<<<<<<<<<<<<<<<<8<<8><<<<<<<<<onMcxxxxxx0@=*%%%%%%%%%%%%%%%%%%%%%<<<<<<<<<<<<<<<<<<<",
"<<<<<<<<<<<<<<<<<<<<<<<<<<<><8<<<<<<<<<<<<oMncxxxxxx4@=*%%%%%%%%%%%%%%%%%%%%%<<<<<<<<<<<<<<<<<<<",
"<<<<<<<<<<<<<<<<<<<<<<<<<<<<<<<<<<<<<<<<<<oMnclxxxxx4.**%%%%%%%%%%%%%%%%%%%%%<<<<<<<<<<<<<<<<<<<",
"<<<<<<<<<<<<<<<<<<<<<<<<<<<<<<<<<<<<<<<<<<oMnlcxxxxx7.*$%%%%%%%%%%%%%%%%%%%%%<<<<<<<<<<<<<<<<<<<",
"<<<<<<<<<<<<<<<<<<<<<<<<<<<<<<<<<<<<<<<<<<oMnxxxxxxxw@$*%%%%%%%%%%%%%%%%%%%%%<<<<<<<<<<<<<<<<<<<",
"<<<<<<<<<<<<<<<<<<<<<<<<<<<<<<<<<<<<<<<<<<oMbxxxxxxxw@*$%%%%%%%%%%%%%%%%%%%%%<<<<<<<<<<<<<<<<<<<",
"<<<<<<<<<<<<<<<<<<<<<<<<<<<<<<<<<<<<<<<<<<Obbxxxxxxxw@%%%%%%%%%%%%%%%%%%%%%%%<<<<<<<<,<<<<<<<<<<",
"<<<<<<<<<<<<<<<<<<<<<<<<<<<<<<<<<<<<<<<<<<Ohbxxxxxxxw@%%%%%%%%%%%%%%%%%%%%%%%<<<<<<<<<<<<<<<<<<<",
"<<<<<<<<<<<<<<<<<<<<<<<<<<<<<<<<<<<<<<<<<<ohnxxxxxxx0.%%%%%%%%%%%%%%%%%%%%%%%<<<<,<<<<<<<<<<<<<<",
"<<<<9<<<<<<<<<<<<<<<<<<<<<89<<<<<<<<<<<<<<otmxxxxxxx4.%%%%%%%%%%%%%%%*%%%%%%%<<<<<<<<<<<<<<<<<<<",
"<<<<2<<<<<<<<<<<<<<<<<<<<<<98<<8<<<<<<<<<<oqMvxxxxxx6@*%%%%%%$*%%%%%==*%%%%%%<<<<<<<<<<<<<<<<<<<",
"<<<2<<<<<<<<<<<<<<<<<<<<<<<<888<<<<<<<<<<<O6MMvxxxxx6@$*%%%%%*%%%%%*;%%%%%%%%<<<<<<<<<<<<<<<<<<<",
"<<<<<<<<<<<<<<<<<<<<<<<<<<<,122<<<<<<<<<22OoMMmbmvvv3X%%%%%%%%%%%%%**%%%%%%%%<<<<<<<<<<<<<<<<<<<",
"<<<,<<<<<<<<<<<<<<<<<<<<<<<,<<<<<<<<<<<<2<oojMMMMvlr @%%%%%%%%%%%%%$$%%%%%%%%<<<<<<<<<<<<<<<<<<<",
"<<<<<<<<<<<<<<<<<<<<<<<<<<<<<<<<<<<<<<22,<ootmbbcxw  @%%%%%%%%%%%%%%*%%%%%%%%<<<<<<<<<<<<<2<<<<<",
"<<<<<<<<<<<<<<<<<<<<<<<<<<<<<<<<<<<<<<<2<<ootxxxxxx5 @%%%%%%%%%%%%%%%%%%%%%%%<<<<<<<<<<<<2<<2k2<",
"<<<<<<<<<<<<<<<<<<<<<<<<<<<<<<<<<<<<<<<<<<O4bxxxxxxg @%%%%%%%%%%%%%%%%%%%%%%%<<<<<<<<<<<2<,22<<<",
"<<<<<<<<<<<<<<<<<<<<<<<<<<<<<<<<<<<<<<<<<<OuMxxxxxxx3X%%%%%%%%%%%%%%%%%%%%%%%<<<<<<<<<<,9112<22<",
"<<<<<<<<<<<<<<<<<<<<<<<<<<<<<<<<<<<2<<<<<<OzMxxxxxxxw@%%%%%%%%%%%%%%%%%%%%%%%<<<<<<<<<<,,<<2<<<<",
"<<<<<<<<<<<<<<<<<<<<<<<<<<<<<<<<<<<k21<<<<OMMxxxxxxxw@%%%%%%%%%%%%%%%%%%%%%%%<<<<<<<<<<<,<<,<,<<",
"<<<<k2<<<19<<<<<<<<<<9<<<<<<<<<<<<<<<<<<<<OMMxxxxxxxw@;**;;%%%%%%%%%%%%%%%%%%<<<<<<k9<<<<<<<<<<<",
"<<<1212211<<<<<<<<<<<<<<<<<<<<<<<<<<,<<<<<OMMxxxxxxx7@;*;;$%%%%%%%%%%%%%%%%%%<<<<<<<221<<<<<<<<<",
"<<<2k<,,1<<<<<<<<<<<<<<<<<<<<<<<<<<<<<<<<<OMMvxxxxxx6@$$;$$%%%%%%%%%%%%%%%%%%<<<<<<<,,<<<<<<<<<<",
"<<<<<1<<<,<<<<<<<<<<<<<<<<<<<<<<<<<<<<<<<<OMmvxxxxxx6@***$*%%%%%%%*%%%%%%%%%%<<<<<<<<<<<<<<<<<<<",
"<<<<,<<<<<<<22<<8<<<<<<<<<29<<9<<<<<<<<<<<OMMvcxxxxx6@%%**$%%**$%%%%%%%%*%%%*<<<<<<<<<<<<<<<<<<<",
"<<<<<<<<<<<<1k29<<<<<<<<<<<,9<9<<<<<<<<<<<OMMvxxxxxx6@%%$**%%$**%%%%%%%%$*%%*<<<<<<<<<<<<<<<<<<<",
"<<<<<<<<<<<<<<,,<<<<<<<<<<<,<<,<<<<<<<<<<<OMMvxxxxxx7@%%$**$%%*$%%%%%%%%$**$$<<<<<<<<<<<<<<<<<<<",
"<<<<<<<<<<<<<<,<<<<<<<<<<<<<,<<<<<<<<<<<<<OMmxxxxxxxw@%%*$**$***%%%%%%%%**$**<<<<<<<<<<<<<<<<<<<"
};
