/* XPM */
static char *result[] = {
/* columns rows colors chars-per-pixel */
"96 96 89 1 ",
"  c #4F2913",
". c #502A14",
"X c #512E19",
"o c #563B15",
"O c #583C15",
"+ c #55321D",
"@ c #553623",
"# c #583622",
"$ c #543826",
"% c #5A3B27",
"& c #563B2A",
"* c #5B3E2C",
"= c #5C4616",
"- c #5E4D16",
"; c #614F17",
": c #604F1A",
"> c #63521A",
", c #6B631D",
"< c #6E6B1D",
"1 c #6D721A",
"2 c #72751B",
"3 c #76791E",
"4 c #5D4226",
"5 c #5E422F",
"6 c #574132",
"7 c #5B4434",
"8 c #594638",
"9 c #5D4A3C",
"0 c #604A24",
"q c #614928",
"w c #635123",
"e c #665821",
"r c #614634",
"t c #624934",
"y c #624C3B",
"u c #645F37",
"i c #64503E",
"p c #61593F",
"a c #6B6420",
"s c #6D6921",
"d c #6F7121",
"f c #7C7E23",
"g c #70702B",
"h c #6B6A33",
"j c #66613E",
"k c #68643C",
"l c #787A38",
"z c #5D4E42",
"x c #5D5247",
"c c #5D5348",
"v c #604F42",
"b c #645344",
"n c #685747",
"m c #655F42",
"M c #6B5847",
"N c #61564B",
"B c #64594D",
"V c #6A5A4C",
"C c #655D52",
"Z c #695E54",
"A c #665F58",
"S c #735F50",
"D c #6A664E",
"F c #666057",
"G c #6A6155",
"H c #676159",
"J c #6A645C",
"K c #6D695F",
"L c #726556",
"P c #726A5E",
"I c #6D6760",
"U c #6D6860",
"Y c #716C62",
"T c #796E60",
"R c #757165",
"E c #797266",
"W c #767469",
"Q c #79766C",
"! c #7A786E",
"~ c #7E7C72",
"^ c #817E75",
"/ c #828077",
"( c #868579",
") c #8A877F",
"_ c #8B897F",
"` c #8E8C83",
"' c #908E85",
"] c #929087",
"[ c #95938C",
/* pixels */
"00000000000000000000000<2222<,ew004%%%%%6-0=4:eee>ae>e04%%%%4,22,OOOO=OO.......................+",
"yyiit%%%%%%%%%%%%%%%%%%q<a04%%%%%%%%%%*4=666$6$4$&*&%%4*%%*%%%wl0.................XqrMMPL^SMr#%%",
"(((((((((((((((((((((((EtL(((((((((((((((((((((((((((((((((((((((((((((((((((((((((((((((([[[S%%",
"(((((((((((((((((((((((Q7L(((((((((((((((((((((((((((((((((((((((((((((((((((((((((((((((()[['%%",
"(((((((((((((((((((((((EtL(((((((((((((((((((((((((((((((((((((((((((((((((((((((((((((_)^)'[[%#",
"(((((((((((((((((((((((Q7L(((((((((((((((((((((((((((((((((((((((((((((((((((((((((((((()^)([[%%",
"'''''_'''''''']]'''']]'`tP''````````````````````````````````````]]]]]]['']]]]]][]]]]]]]]]]]]]`%%",
"^^^^^^^^^())))__)))__(__7T[[[[[[[[[[[[[[[[[[[[[[[[[[[[[[[[[[[[[[[[[[[[[[[[[[[[[[[[[[[[[[[[[[]^%%",
"KKKKKKKKKKKKKKKKKKKKKKKK8mJKKKKKJJKJKJKKJKJKJKJJWWWWWWWRWWWWWWWiVWWWWWWWWEWEWWWE^EEWWWEUIIJJW^&%",
"KKKKKKKKKKKKKKKKKKKKKKKK8pKJKKDJJKKJJKJJKJKJKJJKKJJKJKJKJJJKJJJ&4JJJJIJIIJIJIJJJLGJJJKIJJJJUQ^&%",
"KKKKKKKKKKKKKKKKKKKKKKKK8pKJJKJKKJJKKJDKKJJKKKKJJKKJJKHKJJKJKJK&*JJKJJJJHIJKJJJKJKJJJJJJKJJKE^%%",
"KKKKKKKKKKKKKKKKKKKKKUKK79JKJJJKKKKJKKKKJJKJKDKKJJJJKJKKJKJKKJJ&&JKJJIIJHIJKJIJKKJJKKJKKJKJJE^%%",
"KKKKKKKKKKKKKKKKKKKKKKKK7yJJJKJJKJJKJKKJKJKJJKJJKJKJJKDKJJKKJKJ%&JJJKJJKIIJJKJJJJJJKJKJJJJJJE^%%",
"KKKKKKKKKKKKKKJKJJKJHKHK7pJKKJJKKJKJJKJJJKKKKJKJJKJKKJKKKKJJKKK&&JJKJKJJJJJIJKKJJKJKJJJHJJJHW^%%",
"KKKKKKKKKJKJJKKJKJJJKJHK7yJKJKKJJJKJKJKKKJKKJJKKJKKJKKKJJJKJJKJ%&IKJJKKJJIJIJJJJKKJJJAJJHHJHW^&%",
"KJJKJKJJJKJKJJKJJJKKJKKK7pKJKKJKKJJKJKJJJKDKJKJJJJJKJKJKJKJJKJK$4JJKJJJUJJJJKJKKJJJJJJHHHJAJU~%0",
"JKJKJJKJKJJKJJKJJKKHKKJK6pJJKJKJJUHIJIJIJIJIJIJIKKKJKJKKJKKKJKC6@JKJJKKJKKJJJKJJJJHJAJAJAJAJIW#0",
"KJJKKJJKJJKJJKJKKJKHKHKJ8pJJJJJJJUHIHJJIJJJJJJHIJDJJHJHJJJJJKJc4%JJKJJJJJJJKJKJJAAJAJHJAJHJHIQ%0",
"JJKJJJJKJKJKKKJJJJJKKJHK68HHJJHHHHHJHJHHJHJHHHHHHHHHHJHHHHHHHHc6&CJJKJKKJKJJJAAJJAAJAJHJAJAHIQy4",
"AHFHJHJJJKJKJJKJJKKJJJKJXxHHHHHJJHHJHHHIHJHHHJHIJHJHHHJJHJJHHHc4%CJJJJJAJJAJJAJAJJJAJHJAJAIAYWr0",
"HHHHHHHHHHHJJJJKKKJKJKKJ$8FHHHHJHJHHIHHHJHJHHHJHHHHHJHHHJHHJHHC6&NJJHJHHAJJJAJJJAJAJHJAJHJAJRW9q",
"HHHHHHHHHHHHHHHHFHHJHHHHo8FHJJHHHHJHHHHHHHJHJHHHJHJHJHJHHHJHHHB$%CJAHHJJJAAJJAAJJAJHJAJAJAJHUWy#",
"JHHHHHHHJHHHHHHHHHHHHHHHX8HHHHHJJHHHHJHHHHHHHHHJHHHHHHJJHJJHHHB$&AJHJHHHAAJAAJJAHJAJAJAJAJAJYQt%",
"HHHHJHHHHHHHHHHHHHHHHJHH$xHHJHHJHHJHHHJHJHJHJHHHHJHJJHHHJHHHJHB&&JHHJHJHJJAJJAAJJAJAJHJAJHJAJWy%",
"JHHHHHHHHHJHFFHHHHHHHHHH$8HHHJHHHIHIHHHHHJHHJHHHJHHHIHHHHHHHJJN&&HHHHJHJJHAJHJJHAJJAJJAJHHJHHWt4",
"DHHHHHHHHHHHFFHHHHHHHHHHo8HHHJJHHHHHHHHIHJJHJHJHHHJHHHHHHJJHHHB%&HHHHHHJAHJHHHHHJAAJJAJAJHHJJJt<",
"HDHJFFFFFFHHFFFCFFHHHHFFXxHHHHHHHHIHHIHHHHHHHHHHJHHHHHHHHHJHHAA&$HHAHHHHJHHJJHHHHJAAAJAJHHHHHDd2",
"$$$$$$$$6X66$$$$$$8p888cxCHHJHHHHHHHHHHHJHJHHJJHJHIHHHHHHAACCCCz8$$$&&@@@@&@@@$$$@$$$@$@$$$$@d32",
"8888888866666$6666$$o$8cxxccmmpuhggjCcCcNNCcNNNNBBccccccccccxxcccz$@&&696*$       +6***6+    222",
"ccxxccxxx9xxxxxxxxxxxxcxxxxxccxxxudxccccccccccccccccccccccccxxccccccccccccxz@   @cBBCBNCci+  222",
"ccxccxxxxxxxxxxxxxxxxxxxxxxxcccxxxpxccccccccccccccccccxcccccccccccccccccccxxc+ @BBBNBBBBBNx  222",
"ccxxccxxxxxxxxxxxxxxxxxxxxxxcccxxxx8ccccccccccccccccccccccccccccccccccccccccc8 8mBBBBNBBBBB+ 222",
"cxxxxxxxxxcxxcxxcxxxcxccxxxxxxcxxx8$ccccxcccxcccccccccccccccxxcccccccccccccccc BBBBBBcBBBBB+ 222",
"xxxxxxxxxxxxxxxxcxxxxxxcxxxxxxxxxx6$ccccccxcccccccccccccccxcccccccccccccccccccXcBBBBBBBBBcB@ 222",
"xxxxxxxxxxcxxxxxccxxxxccxxxxxxcxcx8$cccccxcxccccccccxcccxxcccccccccccccccccccc@BBmBBBBBmmBF+=222",
"xcxxxxxxxxxxxcxxxxxxxxccxxcxxxxxxx86cccccxccxccccccccccccccxccccccccccccccccccXccFBcBBcBBBc@o122",
"xxxxxxxxxxxxxxxxccccccccxcccxxxxcc8$ccccxccccccccccccccccxxxcxxxcccccccccccccc xBBcBBBBcBBB@o222",
"AAAAAAAAAANAAACCcAAccACcCccCCCNCccz$cCCCCCNANCNACCcAcACAAAcAAAAcCCNCCNCCCNNCCc xBBBBBBBBBVB+o222",
"AAAAHHHHHHAAAAJAHHAAHHHHHHHHHHHHHH6$FHFFHHHHHHAHAAAHHHHHAAHHHHAAHHHHAAJAAHAHAc cBBBBBcBBBBB#O322",
"AAAAHHHHHHAAJAAAHHHHHHHHHHHHHHHHHH6$xHHFHHHHHHAAAAHHHHHHAFHHHAAAHHAHHHAAHHHHAH&NcmBBBmBBBBC+o222",
"ccccFcAcccNNCCNCAcAcACcCBBCCCNNNc6$$$8xAcACCACNANCCBNczcxxxxxxxxCCCNNNbNCAHHFFNBBBBBNBmBBCB@o222",
"AccccccczzzzxxvNccccxxxxczcz*$$$6$$$&&&cccccccccNcccz&*&66&6&&&&9zz9zzzv9zCJKKBBBBcBNBBBBBB@O322",
"HUUUUHHFxzxcAAJAAHJJHHAAAJJAIIIIUJJUIJIIIIJIIJIIIIIIJIIB66&8CCAAJAZJCAAAAAJUKN9BBBBBBBBBBCB@O322",
"HJJJIJUJNzxIAIJJHHJJJJJJJJJIIHIHJJJJJJJJJJJHIHIHJJIAIAJIc6xHJIHIJJJJJIJJJKJJJtXBBBBBBBBCVBB@o222",
"HHHHHHHHCzcAHHHAHHHHHHHHAHHHHHHHHHHHHHHHHHHAHHAHAAAJAHHHA*BHAHHAHHHHHHHHAAJAKb.9mcBBBBBBGBB@=222",
"HHHHHHHHCzcAHHHHHHHHHHHHJAHHHHHHHHHHHHHHHHHHHHHHAAAAHHHHA&BAAHHHHHHHAHHHJAJAJV.5BBBBDcCBBBB@o222",
"HHHHHHHHCzCHHHHHHHHHHHHHHHHHHHAHHHHHHHHHHHHHHHHHHHIAHHHAAzCAHHHHHHHHJAHHHHAHKB 6BBBBcBDBCGB@O222",
"HHHHHHHHAxcHHHHHHHHHHHHHHHHAAJHHHHHHHHHHHHHHHHHHAHAAHHHAAcAHHHHHHHAHHHHHHAHHJ9 6BBcBBBBCBBB@O222",
"HHHHHHHACzBAAHHHAHHHHHHHAHHHAAIAHHAJHHHAHAHHHHHHHHHHAHHHHNAAAHHHHHHHHAHHHHHHKy 5BBVBBGCBBCB@O222",
"HHHHAJHHCzNAJAJAHHHHHHHHJAHHAJAAAHHAHHHHHHHHHHHHHHHHHHHHHcAHHHHAHHHHAJHHHHAHKy 9cBBBBBBBCVB@O222",
"HHHHHAHHAzNJAHAHHHHHHHHAHHAHAAAAHJHHHHHHHHJAHHAHAHHHHHHHHcBHHHHHHHAHHHAHHHJAUC yBBBBBBVCBBB@O222",
"HHHHHHHHC&zAHHHHAJAHHHAJHHHHAJAJHAHHHHHAHHAHHHHHHHHHHHHHAcNAHHHHHHHHHHHHAHHHJY@9BBBBBGCBBGB@O222",
"HHAHHHAHz&*AHAAHAJAAHHHHHHJAJAJAHAHHAHHJHHHHHAJHHHHHAHHHNvcCHAHAHHHHHAHAHHHHKYCbBmBCVCBBBBB#O222",
"cCCCHHCz&&&zCJHHAAAJHHHAHHAAJAAAHHHHJAHAHHHHAJAHHHHAHHAcccczBAHHAHHAACAAAHHAIUJBBBBBCBBCBCD@-222",
"z8zz8&&&&&&&&9cNcNcccNcccccNcNcNzccvzvcbNcNNccccBNNANccxccccccccccccxxxxcNAKUInBBBCBBBCBBBC@>f32",
"CAcNcxzcvcvvzNCCNACCNNCNNANNNNNNBzzzzzccNBNNNBBNBBNNNCNCCCACBBNCbxxbxNBAJIUUUJ6NGGGGGGGGGGC@>122",
"JJJJJJJJJJJJHIJJJIJJIHIHJIJJJJJJIAzzNIIIIUUUIUUUUUUIUUUIIIIIIIIIIUUIUUUIIUUUUB 5BBBVVVBVBBV+>122",
"AAAAAAAAAAAAAAAAAAAAAAAAAAAAAAAAAAN9AAAAAAAAAAAAAAAAAAAAAAAAAAAAAAAAAAAAHHIIUN +%&&&&&4$*@&X-222",
"AAAAAAAAAAAAAAAAAAAAAAAAAAAAAAAAAABzAAAAAAAAAAAAAAAAAAAAAAAAAAAAAAAAAAAAAAAJIB @76775666776+;222",
"AAAAAAAAAAAAAAAAAAAAAAAAAAAAAAAAAANzAAAAAAAAAAAAAAAAAAAAAAAAAAAAAAAAAAAAAAAAIV vGGDCFFGGGCZ@;222",
"AAAAAAAAAAAAAAAAAAAAAAAAAAAAAAAAAAN8AAAAAAAAAAAAAAAAAAAAAAAAAAAAAAAAAAAAAAAAKB bCBFFFGCFCGQ*;222",
"AAAAAAAAAAAAAAAAAAAAAAAAAAAAAAAAAANzAAAAAAAAAAAAAAAAAAAAAAAAAAAAAAAAAAAAAAAAKB yGDFGDCGBGJ^4;222",
"AAAAAAAAAAAAAAAAAAAAAAAAAAAAAAAAAANzAAAAAAAAAAAAAAAAAAAAAAAAAAAAAAAAAAAAAAAAJB 7CGGBGCGFCR/*=222",
"AAAAAAAAAAAAAAAAAAAAAAAAAAAAAAAAAAczAAAAAAAAAAAAAAAAAAAAAAAAAAAAAAAAAAAAAAAAJB 6GCCGCDBFA!/4o221",
"AAAAAAAAAAAAAAAAAAAAAAAAAAAAAAAAAAz&AAAAAAAAAAAAAAAAAAAAAAAAAAAAAAAAAAAAAAAAIB.6CGCGFDCGRQ^5o222",
"AAAAAAAAAAAAAAAAAAAAAAAAAAAAAAAAAA$@NAAAAAAAAAAAAAAAAAAAAAAAAAAAAAAAAAAAAAAAJN.bGCGCCGCJWQ^5o222",
"AAAAAAAAAAAAAAAAAAAAAAAAAAAAAAAAAz@@*AAAAAAAAAAAAAAAAAAAAAAAAAAAAAAAAAAAAAAAIV@CGGGCGCGWWQ/&o222",
"xxxxxzxzvxzxxNNNzNNNANNNNNAAAN8&&X@@&&8NNNNNNNNcNNNCCNNNNCNNNCNNCNNNxNcNNcBIIZCACGBGCDYWWQ/5O222",
"AAAACNcxxvxvxxxNNNNNNNNNzxxxzz@@@@@@@@$zxxxxzzxxxxxxxx*&&&**&zzcxvzxxvzzbAUUIIZCGBCCGFWWW!/*O222",
"YIIIIIICxvxNAAIIIIIIIIJIIIIIIIIJIIJIJIJIIIIIIAIIJIAIJIIIv&&NIIIIIIIIAIIIIYUUIVvAFGCDGKWWW!/*o222",
"AAAIAAAIAvCAAIIIIAIAJJJJAIIAAJAJAIJJJJJJAJJJHJJAAAJJJJHJN&zIIJIJIAIAIAAIIIIIIZXCFFFFGWWWW!/4O222",
"AAAAAAAAAxNAAAAAAAAAAAAAAAAAAAAAAAAAAAAAAAAAAAAAAAAAAAAAANzAAAAAAAAAAAAAAAAIIV NFVDBJWWWW!/%O222",
"AAAAAAAAZvNAAAAAAAAAAAAAAAAAAAAAAAAAAAAAAAAAAAAAAAAAAAAAAAAAAAAAAAAAAAAAAAAAIC yGCCDWWWWWQ/ o222",
"AAAAAAAAZzCAAAAAAAAAAAAAAAAAAAAAAAAAAAAAAAAAAAAAAAAAAAAAAAAAAAAAAAAAAAAAAAAAIB *CGCKWWWWWQ/ O222",
"AAAAAAAACxNAAAAAAAAAAAAAAAAAAAAAAAAAAAAAAAAAAAAAAAAAAAAAAAAAAAAAAAAAAAAAAAAAIVX*GFGYWWWWWQ/ o222",
"AAAAAAAAAxCAAAAAAAAAAAAAAAAAAAAAAAAAAAAAAAAAAAAAAAAAAAAAAAAAAAAAAAAAAAAAAAAAIC.*GBKWWWWWWQ/ o222",
"AAAAAAAAAxNAAAAAAAAAAAAAAAAAAAAAAAAAAAAAAAAAAAAAAAAAAAAAAAAAAAAAAAAAAAAAAAAAIC.vFDRRWWWWW!/ O222",
"AAAAAAAAANNAAAAAAAAAAAAAAAAAAAAAAAAAAAAAAAAAAAAAAAAAAAAAAAAAAAAAAAAAAAAAAAAAI9.vFKWWWWWWW!/ O222",
"AAAAAAAAAAAAAAAAAAAAAAAAAAAAAAAAAAAAAAAAAAAAAAAAAAAAAAAAAzzAAAAAAAAAAAAAAAAAI9 vJWWWWWWWW!/ O222",
"AAAAAAAAAAAAAAAAAAAAAAAAAAAAAAAAAAAAAAAAAAAAAAAAAAAAAAAAz@*AAAAAAAAAAAAAAAAAIr vWWWWWWWWWQ/ O222",
"%***%7y99vbnNbNnN99NNAAAAAAAAANNi97y99tyNNNbVZAACbnbNy7#++@4bCFFAAAny9bNNNbNb7.GWWWWWWWWWW( o222",
"55%+++++++++++++X#+X+#5ZAANv*+++++++++++++++++++#+++++++++++++xFC7++++++X+++%GWWWWWWWWWWWW' O222",
"WWWWQWGLLbbbbbbbnvbbbbbNNnbbbbbbbbbnnbbnbbMbpbbpbbpbbbnpMbbibbiVbZGVbbbtqbMPQWWWWWWWWWWWWW_ =322",
"WWWWWWWWWWWWWEWWEEQEWWEWvTEWQEQEWWWWWWWWQWWWRQQWWWWRQQWWEQWWWQYbPQWWWEWWWEWWWWWWWWWWWWWWWW'Oofd2",
"WWWWWWWWWWWWWWWWQWWWWWWWvYWWEWWWWWWWWWWWWWWWWWWWWWWWWWWWWWWWWWPbPWWWWWWWWWWWWWWWWWWWWWWWWE'5o122",
"WWWWWWWWWWWWWWWWWWWWWWWWbYWWEWWWWWWWWWWWWWWWWWWWWWWWWWWWWWWWWWYnYQWWWWWWWWWWWWWWWWWWWWWWW~`*off2",
"WWWWWWWWWWWWWWWWWWWWWWWWbPWWWWWWWWWWWWWWWWWWWWWWWWWWWWWWWWWWWWPbPWWWWWWWWWWWWWWWWWWWWWWWW(`rO322",
"!QWWWWWWWWWWWWWWWWWWWWWWbPWWWWWWWWWWWWWWWWWWWWWWWWWWWWWWWWWWWQPbPWWWWWWWWWWWWWWWWWWWWWWW(``7=112",
"(((((((`^//^^^~~~~~~~~~~iT~~~~~~~~~~~~~~~~~~~~~~~~~~~~~~~~~~~~EbQ!~~~~~~~~~~~~~~~~^~~~^````7O222",
"UUUWWWRRWWWWW!~~~~~~~~~^vT~~~~~~~~~~~~~~~~~~~~~~~~~~~~~~~~~~~~QbE~~~~~~~~~~~~~~~~~^(^(/((^(*O222",
"FFFFAAAAFFFFAAFFFFFFFFFCbBZAFFAFFFFFFFFFFFFFFFFFHFFFFFFFFFFFFFCbBFFFFFFFFFFFFFFFAAFFAHFFAAA@O222",
"FFFFAAAAFFFFAHFFFFFFFFFBbVAAFFFFFFFFFFFFFFFFFFFFAFFFFFFFFFFFFFCbVHFFFFFFFFFFFFFFFFFFFAFFAAH@O222",
"FFFHCFFFFFFFFFFAFFFFFFFCiBFFFHAFFFFFFFFHFFFFCHHFFFFHFFFFFFFFFFCbCCFFFFFFFFFFFFFFFFFFFFFFFFF@O222",
"xCFCHHFFAHFFFFFAFFBb97@+ X@&7bxFFFFFFFFHFFFFHAFFFFFHFFFFFNb86@X +5xAFFFFFHFFFFFHFFFFFFFFFFF#=222",
"   @$77zbc9776$$.                @@@77778bxxxbbx7777@@@.            +@678777777877&@@@@@@@@:<222",
"                                                    .                        .        . ..=22222"
};
