/* XPM */
static char *result[] = {
/* columns rows colors chars-per-pixel */
"96 96 90 1 ",
"  c #4F2913",
". c #4F2D19",
"X c #512C17",
"o c #512E1A",
"O c #563715",
"+ c #583D16",
"@ c #55331E",
"# c #5A3D1F",
"$ c #4F3626",
"% c #533422",
"& c #583621",
"* c #553826",
"= c #5A3B27",
"- c #553B2B",
"; c #593D2A",
": c #5A4116",
"> c #5C431D",
", c #5B4D1F",
"< c #5B5719",
"1 c #655918",
"2 c #5E601C",
"3 c #6A631B",
"4 c #6E6C1D",
"5 c #72751B",
"6 c #5B4423",
"7 c #5D4F25",
"8 c #5B412E",
"9 c #5E4A29",
"0 c #574132",
"q c #5B4536",
"w c #5A4638",
"e c #5C4A3C",
"r c #604A24",
"t c #604D2D",
"y c #635123",
"u c #665821",
"i c #604633",
"p c #624837",
"a c #624E3D",
"s c #684F3F",
"d c #655637",
"f c #645F37",
"g c #61593F",
"h c #685B3C",
"j c #6B6420",
"k c #6D6921",
"l c #72732D",
"z c #5D4D42",
"x c #5C5247",
"c c #5E5449",
"v c #604E42",
"b c #645344",
"n c #685546",
"m c #62564B",
"M c #695748",
"N c #63584E",
"B c #6C5B4D",
"V c #635B52",
"C c #665F58",
"Z c #6E6F41",
"A c #666057",
"S c #6D6355",
"D c #676159",
"F c #6A645C",
"G c #6D695F",
"H c #726253",
"J c #736F52",
"K c #726659",
"L c #786659",
"P c #726A5D",
"I c #767256",
"U c #6D6960",
"Y c #716D62",
"T c #737064",
"R c #7B7265",
"E c #7B7A61",
"W c #767469",
"Q c #7A776B",
"! c #7A786E",
"~ c #7E7C72",
"^ c #83776D",
"/ c #807B6E",
"( c #817E75",
") c #828077",
"_ c #868579",
"` c #8A877F",
"' c #8D8B82",
"] c #908E85",
"[ c #929087",
"{ c #95938B",
/* pixels */
"53r&@@@&@@i&@@@r<7ddr666666thIIZ3<696y1u779rrrrrrrrrrrrrrrrrrrrrruurrrr4555543uyrrrrrrrr,,,766=6",
"3=&&#@@@@n_Inpi=;6--=-=======rsRE6=;===;;6===========6===========6=====6kjrr=6==========0<0$asad",
">&R;H/____`___________________________`________________________________QqL_`____`_______________",
">b{]___________________________________________________________`_______EiH______________________",
"rL{____________________________________________________________________WqK______________________",
"r^{`_______________________`___________________________________________WiB______________________",
"#L(]]{]{[[[[[{[[{[[[[[[[[[[[[[[[[[['[[[[]]]][]]][[[[[[[[[`[[[[`[[]'[[]''qB]'`[]'`[['`[`[']']]']]",
" n({{{{{{{{{{{{{{{{{{{{{{{{{{{{{_[[[[[[[[[{[{[[[[[``_`_`````_`````````'_iH{{{{{{{{{{{[``''_''___",
" n)GTWWW^EWWWWWWTWWWWWWWWWWWWWWBaGGGUGGGGGUGGGUUGGGGUUGGPYGGGGUGUGUUGGGUweGFGFGFGGFGGFFFGFGFFGGF",
" M)UUGUGGGGGUUUUUGUUUUUGUGUGGGGbaGGGGGUGUGUGUGGFUUGUUFUUGGGGUGUGUUGGGUGUqgFFFGFFGGFFFGGFFGFGGFFG",
" n)UUUGUGUGGGUGUUGGGUUGGUGGUGGGmeGGGGUGGUGGGGGUGGGGGGGGGGGGGUGGGGFUGGGGGqaFGGFFGGFGFGFGFFGGFFGFG",
" n)UGUUUGGGUGGGGGGUGUUGUUGGGGGGmaGGGGUGUGGGUUGGGGUUGGUUGGGGGGGUGUGGGGUUGqaGFGGFGFGFGFGFGGGFGFGFF",
" M)UUGGUGUUGUUGGGGUUUUUGGUGGGGUmeGGFUUGGGUUGGUGUGGGUUGGGGUUUGGUGUGUGGGGGqeGGGFGFFGGFGFGFFGGFFGGF",
" n)UUFFFFGGGGGGUUGGGGUFGGGGUUGGm0GUGUUUGGGGGGGGUUGGGGUUGGGGUUGGGFGFGDGDGwdDGFGFGGFFGFGFFGFFFGFFG",
" n)DCFCFCFGGUUGGGGGGGUGUGGGUUGGnqGGGGUGGUUGUUUGUUUUGUUGGFUFGFGFFGFFGGGDGqaGGGFGFFGFFGGFGFGFGFGFG",
" M)FFCFDFCDDDFFGGGUUGGGUGUGGGGUm8GGGGGGUGGGGFUGFGFFFFFFFGFFGFFFGFGFFGDGGqaFFFGFGGFFGFFGFGFGFGFGF",
" n~UCCFCDDDDDDFDFCUDFUFUUUUYFYUMwUGGGGGGGGGFFGFGFFGFGFFGFGFFGGFFFGFFFGFUweFGGFFFFFFGGFFGFFFGGGGG",
" n~FUCCFDCUCUDDDCFCFCFDCFCDFFFUq0FFFFGFFFFFFGDGGGFUFFGGFGFGFFFFGFGFGFFFGegFFFGGFUGFFFFGUGGFFDDGD",
" p~FCFFFDUDGCDFFFCCDCFDFDFCFDDF;-FFGFGGFFFFGFGGDFUFFGFFFFFFFGFFUDGGFGFFF6eDDDFFCDFFFFFFFFFGGGDGG",
" pWCFCFCDDDDDDDDCUDFFDFCFCFCFDD;-FGDGFFFFUFGFFFGGFFGFFGGFGFGFFGFGGDGFGGFoeFDDFCFFDDDFDFDDDDFDDDD",
" vWFFCFCDDDDFDDFCFDFCFCFCFCFFCC-.GGFFFGGGUFFGFFFFFFUFGFFFGGFFFUFGGDGFGFGoeFDFDFDDDFDFAFADDFDFDDD",
"OzWCCFCFDFDDDFDDFCFCFDFCFDFDCFC-.DDFFGFFFFFGFGGFFGFFFFGFFFFGUFGFDGFDFAFAoeDDFDCFDFFDDDDFFDFDDDDG",
"+vWFCFFFDDFDDFFDCFCFCFDFCFCFFCU-oDDDDDDFDFFFFFFFFFFFFFFFDFFDDDDDDFAADDAF$eFFDDFCDDDDDFFDDDDFFDDD",
"1vWCFCFCFDDFDDDDFDFDFCFCFCFCFFC;oDDDDDDDDDDDDADDDDDDDDDDDDDDDDDDAAFFAAFAOeDDDFCFFFDFDFDDFFDDDDFD",
"4sWFDFDFDFDDDDDDCFDFCCUCUFCFUCC-oDFAFDDDAAFAFADDAFAADDDDDDDDDDDDADDFADAFoeDDDDDDDDDDFDFDFDFFDDDF",
"5JQFDFDDDDDFDDGDFCFCUDCCCCCFDDD-oDAFAFFAFAAFAFDDFAFADDDDDDDDDDDDAFDDDDFAoeGDFFDDAFDFDDDDDDDDDFDD",
"5lWFDDFFFDDDDDDACCCFCCUCFCFCUCC-0ADAFAAAFAAAFDDDDDAADDDDFDDDAADDAAAAFAAFoeDDDFDDFDFAFDFDAAAAFDDF",
"55lmeqqqqwwweqqqpwwwwz-wwwww;wzwwwwwwwwewww0w9wwwwwwee00wwwwwwwewwwwwwecz6*$.                   ",
"553   %%&;qee=.     .--x0--$%-xcxe. O$$%$.$$$$.$:$$$$$$$.$.$6$$60$$$$$wxxx$o   .     .$%$00000ee",
"551  SGGGUGSGGF6   -ccccccccccccxx0$xxxxxxxxxxxxxxxxxxxxxxxxxxxxxxxxcxxxxxxcxxewef5xcccxcxxxcccx",
"553 %WGGGGGGGGGGo -ccccNcccVcccccc0$xxxxxxxxxxxxxxxxxxxxxxxxxxxxxxxxxxxxxxxcxxxccxgccxxcxccxcxxc",
"553 aWGGGGGGGGSGz zccccccccccccccc0$xxxxxxxxxxxxxxxxxxxxxxxxxxxxxxxxxxxxcxxxxxxxxxzwxcxccxccxccx",
"555 STGSGGFGFGFJc$cccVccVccccccccc0$xxxxxxxxxxxxxxxxxxxxxxxxxxxxxxxxxxxxxxxxxxxxxxx$xxxxcxcccxxc",
"555 SEGGFGGGGGGGc$cVcccccccccccccc0$xxxxxxxxxxxxxxxxccxxxxxxxxxxxxxxxxxxxxxxccxcxxx$xxxxcccxxccx",
"555 SWGGGGGJGFGGN$cccccccccccccccc00xcxxxcxcxxxxxxxxxcxxxxxxxxxxxxxcxxxxxxxxxxxxxx0$xxxxcxcccxcc",
"555 SWGGJGGGGGGGc@cccccccccVcccccc00xcccxxxcxxxxxxxxxxxxxxxxxxxxxxxcxxxxxxxxxxxxxxw$ccxcccxxxcxc",
"555 bWGGGGGGJFGFe@cccccccccccccccc$0xccxxxxcxxxxxxxxxxxxxxxxcxxxcxxcxcccxxxxxxxxxx0$cxxxxcxccccc",
"555 gWGGGFGGGGGGe cVVVVVCVVVVVVVVVw0cVVcVVVcVVNVVVVVcVVVcAcAVVAcVVVcNVNVVVVVVVVVVVe0AVVVVVCVVCVC",
"555 x!GGGGJFGFGGx DDDCCCCCCCDCDCDV0wDDDDDDDDAADDDDDDDDDDDDDDDDAADDCDCFDDDDDDADDDAAe$VDDDCDFAFAFC",
"555 gEFGGGGFGGGGG0DDCDCCCCCCCDCDVwwwADDDDDDDDDDDDDDDDDDDDDDDDDDADDDDDCCCDDDDAADDDD0$xDDDFACCCFCC",
"555+FQGGFGGJGGFGGGAADxaevmbNNVmzwww0eVVcVVVVVVcVNVNNVVNNVcxcVcVcNNVNNVVVCVVVCcNcc00$$wxVVVVVcNNV",
"555>GWGGGGGFGGFJGFFGYcqqqqqqwwqqw0wwwxxxxxxxxxcxcvxmzbxzxxxxxxccvmvmvxxvzzmmz-**0$0$-$0cNNcNNNVc",
"555>KQSGGGGGGGGGGGPYUTGACCYUUUUYUUFUUFFDDDDDDDFDDFDDDGDVxxxxDDFDFCCFDDFCDFDFCUUUGGDFUFGGUUUUUUUU",
"555oSQGGGGGGFGGGGGYYTUGGUFUUDUUFUUUFUUFFGGGGGGGFFUUDGGGGcxxVGFFFFFFFUDFUFFDUDDUDDFFFFFFFFFFGDUDD",
"555@MQGGGYGGPGGYUUYUGDDDDDDDDDDDDDDDDDDDDDDDDDDDCDDDDDDDVxcDDDDDDDCDDDDDDDDDCCDDDDDDDDDDCCDDCFDD",
"555%MQPGGGGIGYPGTYUUDDDDCDDDDCDDDDDDDDDDDDDDDDDDDDDDDDDDVxcDDDDDDDFCDDDDDDDDFCDDDDDDDDDDDCDDDCDD",
"555@MEPYTGIGGYGYGGUUDDDDDDDDDDDDDDDDDDDDDDDDDDDDDDDDDDDDAeVDDDDDDDDDCDDDDDDDCFCFDDDDDDDDDDDDDDCD",
"555@M!GGGGGGPGYPGYUFDDDDDDDDDDDDDDDDDDDDDDDDDDDDDDDDDDDDVxcDDDDDDDDDDDDDDDCDCFCCDDDDDDDDDDDDDDDD",
"555@nWGPYGTGGYUGGYYFADDDDDDDDDDDDDCDDCCFCFFCDDDDCDDDDDDDCzNDDDDDDDDDDDDDDDDDDDCCDDDDDDDDCDDDDCDD",
"555%nWYGGPGGGIGGYGYFDDDDDDDDDCDDDDDDDFCCCCCFDDDDDDDDDDDDCzmDDCDDDDCDDDCDDDDDDDUCDDDDDDDDFDDDDDDD",
"555@nWGYGPGGGTGTUYUGDDDDDDDDDDDDDDDDDDFCFCCCUCDDDDDDDDDDCzmDDDDDDDDDDDDDCDDDDDDDDDDDDDDDCDDDDDDD",
"555@nWYPYGGIGGGGGUTGDDDDDDDDDDDDDDDCFCCFDDFCCCCCDDDDDCDDC;vCDDDDDDDDDDDDUDDDDDDDDDCDDDCDDDDDDDDD",
"555@MWGGGGGPYIGGYGYUCFDDDDDDDDDDDDDDCCCCDDFCCCCCDCDDCDCDm-;CDDDDDDCDFCCCCCCDDDDDDDDDDDDDDDDFDDDD",
"555@n!TGGIGGGGGGPGUGDCDCDDDDDDDCDDCDCCFCCDDDCCCCCFCCDDVv---wVDDDCCDDCCFFDCCCDDCCDCDDDCDDDCDCFFDD",
"555%nQWGGTGYGGTGUUUCDDDGczzzzzzzzzp;----wweezzzzeeezw;-;---;-wmmccccccccmcccmmxvvzmvzmvxmcccccVc",
"555@n!!QTTYTTYTTMbUGGUUUGDmcmxcvNVz---wxmNNcmccNNmvvzwww;zwwwzNNNNNNNNNcNNNNNNNNVzzzezmcmNNVNNmc",
"555@sEQQ!!!Q!!TbX-PUUUYUUUUUUUUUUUUq-wUCUFFUFFUFDUFUFUDUUUUFFUFFUCUUFUUFUUFUFUUCUDxzmUUUUUUUUUUU",
"555@;qqqqwqaO XXX=UUUUFFUDCCUCFCDCDN-pCCDDCCCCFCDDCCCDDDDDDCCDDCCCCCCCCCCCCCCCCCFCczVCCCCCCCCCCC",
"555@qMBBSSSGaa*XX-UUFDCCCCCCCCCCCCCV;vCCCCCCCCCCCCCCCCCCCCCCCCCCCCCCCCCCCCCCCCCCCCmzCCCCCCCCCCCC",
"555@B(TTPTITTTTbX-UUDDCCCCCCCCCCCCCCmCCCCCCCCCCCCCCCCCCCCCCCCCCCCCCCCCCCCCCCCCCCCCmzCCCCCCCCCCCC",
"555%B(TTTTTTTTTT&-UYCCCCCCCCCCCCCCCCNCCCCCCCCCCCCCCCCCCCCCCCCCCCCCCCCCCCCCCCCCCCCCmzCCCCCCCCCCCD",
"555@B(TTTTTTTTTT=-UFCCCCCCCCCCCCCCCCVCCCCCCCCCCCCCCCCCCCCCCCCCCCCCCCCCCCCCCCCCCCCCczCCCCCCCCCCCD",
"555@B(TTTPTTTYTT;-UUCCCCCCCCCCCCCCCCmCCCCCCCCCCCCCCCCCCCCCCCCCCCCCCCCCCCCCCCCCCCCCmzCCCCCCCCCCAV",
"555%B)TTTTTTTTTT-*UUCCCCCCCCCCCCCCCCcVCCCCCCCCCCCCCCCCCCCCCCCCCCCCCCCCCCCCCCCCCCCCmzCCCCCCCCCCDV",
"555%B(YTTTTTYTTTq;GGCCCCCCCCCCCCCCCCvmCCCCCCCCCCCCCCCCCCCCCCCCCCCCCCCCCCCCCCCCCCCCv0CCCCCCCCCCCC",
"555@B`TTTTTTTTTTa=UFCCCCCCCCCCCCCCCVxxCCCCCCCCCCCCCCCCCCCCCCCCCCCCCCCCCCCCCCCCCCCC-$VCCCCCCCCCCC",
"555@B_TTTTTTTTTTS;UFCCCCCCCCCCCCCCVvxvvVCCCCCCCCCCCCCCCCCCCCCCCCCCCCCCCCCCCCCCCCCv%%wCCCCCCCCCCC",
"555@B_TTTTTTTTTTTSUGCCCCCCCCCCCVVmxxvxcxvVVVVVVCCVNNNNNNmNVVVmVNNNNNNNNNVVVCVmv00%%%%-wmvvmvzzzz",
"555&B_YYTTYTTTTTTTTGDGDUFCUUUVmxvxvxmmmmNNvvccvNNmmmcxxxxvxvvcvcmmmVNNNxxxvxvz$$%%-%%%*vvccVcCVV",
"555@B_YWTTTTTWTWe UUUUUUUUUUUUUUUUUUUUUFUUUUUUUUUUUUUUCVczxcCCUUUUUUFFFFUUFUUUUUUUUUUUUUUCUUCUUC",
"555&B_WYTWWWWWWWb UUUUUUUUUFUCDUDFUFDFDGCFFFCUCUFFFFFFFFCzNFCFCCCCFCFFFFFFFFCCFFCUCCCCUCCCCCUCCU",
"555@B_WWWWWWWWWWa UUUUCCCCCCCCCCCCCCCCCCCCCCCCCCCCCCCCCCCvmCCCCCCCCCCCCCCCCCCCCCCCCCCCCCCCCCCCCC",
"555@B'TWWWWWWWWWv UUUCCCCCCCCCCCCCCCCCCCCCCCCCCCCCCCCCCCCvVCCCCCCCCCCCCCCCCCCCCCCCCCCCCCCCCCCCCC",
"555@B_WWWWW!WW!W8 UUFCCCCCCCCCCCCCCCCCCCCCCCCCCCCCCCCCCCNvVCCCCCCCCCCCCCCCCCCCCCCCCCCCCCCCCCCCCC",
"555%B_QWWWWW!WWW= NUCCCCCCCCCCCCCCCCCCCCCCCCCCCCCCCCCCCCCvNCCCCCCCCCCCCCCCCCCCCCCCCCCCCCCCCCCCCC",
"555oB_WWW!WWWWWW= NUCCCCCCCCCCCCCCCCCCCCCCCCCCCCCCCCCCCCCzNCCCCCCCCCCCCCCCCCCCCCCCCCCCCCCCCCCCCC",
"555&B(WWWWW!WW!W= NCCCCCCCCCCCCCCCCCCCCCCCCCCCCCCCCCCCCCCxNCCCCCCCCCCCCCCCCCCCCCCCCCCCCCCCCCCCCC",
"555@B_WQW!WWWWWW8 BCCCCCCCCCCCCCCCCCCCCCCCCCCCCCCCCCCCCCCVVCCCCCCCCCCCCCCCCCCCCCCCCCCCCCCCCCCCCC",
"555&B(QWWW!WW!WWn mCCCCCCCCCCCCCCCCCCCCCCCCCCCCCCCCCCCCCCCCCCCCCCCCCCCCCCCCCCCCCCCCCCCCCCCCCCCCC",
"555&B(WWWWWWWWWWU mCCCCCCCCCCCCCCCCCCCCCCCCCCCCCCCCCCCCCCCCCCCCCCCCCCCCCCCCCCCCCCCCCCCCCCCCCCCCC",
"555%S)WWWWWWWWWWRpzCCmmmmpmmNCCCDCCDNmppepbmbMCCCmmbbmmmmbmbVVmmmbmbmCCCDDCDCVmev-;;=@@@@@@@&;&@",
"555@H`WWWQWW!WWQQWn&@@@@@@oO@&vCDNq&oO@o@@@o@@@@@oO@o@oO@@o@@@oO@@@@oOqVDVMq-@@O%%@%@@@@@@@o;8;;",
"555@B_WQWW!WWWWWWQWWBniqqsbnnnnnMbbbnbbnnbnbbbbbnbvnnnnmnnbbnnbbnbvnnbbnmNbbnnbbCCLCCCWW^WWWWWQQ",
"555@H`WW!WWWWWWQWWWWWWQWRWWWWWWSbWWWWWWWWWWWWWWTWWWWWWTWWWWWWWWWWRWWWWTWbSWWWRWW^^Y^WWWWRWWWWWWW",
"555@H`QQWWW!WWWWQWWWWW!WQWWWWWWKbWWWTWWWWWWWWWWWWWWWWWWWWYWWWWWWWWWWTWWWsSWWWTWWYRWWWWWWWWWWWTWW",
"555@H'WWWWWWQWQWWWWWWQWWWWW!WWWSbWWWWWWWWWWWWTWWRWWWWWWWWWWRWTWWWWWWWWWWaSWWWWWWWWWYWWWWWWYWWWWW",
"555%H]~WWWWWQWWWQWWQWWQWWWWWWWWSbWWTWWWWWTWWWWWWWWWWTWWWWWWWWWWWWWYWWWWWaSWWWWWWWWWWWWWWWWWWWWWW",
"555@S]'!W!WWWWWWWWWWWWWWWQWQWW!SbWWWWWWWWWWWWWTWWYWWWWWWTWWWWWWWWWWWWWWWgSWWWWWWWWWWWWWYWWWWWWQQ",
"555&H]]'_)~)~~~~(~~~~~~~~(~~~~~Pb!)~~~~~~~~~~~(!~~~~~~~~~~~~~~~~~~!~~~~~bP~~~~~~~~~~(()))`)`)`)`",
"555@B_(____)~~~~~~~!~~~~~~~~~~)Yb_______________________________________aW_~~~~!~~~WWWWWYWWWUUUU",
"555%pACDAAAADCDDDDAADDAAAAAAAADMbAAADAAADCDDDDAACCCCDCCCAAAACDCVCCCDDCDVsMAADDVADVAACCAACCCCCCCC",
"555@eAACAAAADDVDADAAAAAAAAAAAAAMbAAADDAAVDVDCDAACCCDCDCCAAAADCCDCCDCCDDVgNAADDDDDDDDDVAACCCCCCCC",
"555@eDDDAAAAAAAAAAAAAAAAAADDADDMbAADADAADAAAAAAADDCCDAAAAAAADDDDDDACDDVDbBAAADAADAAAAAAADDCCCCCC",
"555#pDCDASAAAAAAAAAAADAAAADDVx0  @*qecAADDAAADAAAVDDCAAAADAAAVDDADNbeq%@  %0qbNDAAAAADAADVDCCCCM",
"5554t0%%%%%%;qqqqqqxxaqqq;*             @%%qqqebxxxbbxxbbcqqqq%%@   X           @%*qqqebxxbe0*  ",
"55555+    X                      X                                                    X   X     "
};
