/* XPM */
static char *result[] = {
/* columns rows colors chars-per-pixel */
"96 96 75 1 ",
"  c #4F2913",
". c #502C16",
"X c #512E19",
"o c #55321C",
"O c #543522",
"+ c #553927",
"@ c #5A3B27",
"# c #563C2B",
"$ c #5A3D2B",
"% c #5E4A17",
"& c #635418",
"* c #675D19",
"= c #6A621B",
"- c #6F6E1D",
"; c #72751B",
": c #5F4525",
"> c #57402F",
", c #5E432F",
"< c #5D4B2D",
"1 c #574232",
"2 c #5B4435",
"3 c #594638",
"4 c #5B4A3C",
"5 c #604A24",
"6 c #614E2F",
"7 c #635123",
"8 c #695E20",
"9 c #604735",
"0 c #604837",
"q c #644E3C",
"w c #675F30",
"e c #60503E",
"r c #6A5839",
"t c #6E6D21",
"y c #6F6B2C",
"u c #727328",
"i c #76782D",
"p c #757335",
"a c #5D4E42",
"s c #5C5247",
"d c #5F5348",
"f c #604E41",
"g c #625244",
"h c #685645",
"j c #61554A",
"k c #62584E",
"l c #6B5B4B",
"z c #645C53",
"x c #685F53",
"c c #665F58",
"v c #68644C",
"b c #666057",
"n c #6A6256",
"m c #676159",
"M c #6A655C",
"N c #6C685F",
"B c #706051",
"V c #736759",
"C c #716A5E",
"Z c #6E6960",
"A c #726D61",
"S c #7A6F64",
"D c #726E69",
"F c #747166",
"G c #7B7267",
"H c #767469",
"J c #7D766A",
"K c #7E7C72",
"L c #82806F",
"P c #838175",
"I c #868579",
"U c #89877F",
"Y c #8D8A82",
"T c #908E86",
"R c #93918A",
/* pixels */
"55555@@@@@@@@@@@57=-;;;;;;-5@@@555555555<75%<+@@@@@@$555555555557:7:+@5*;;85@55::5%55555555555%5",
"qqqq6rqqqqrqqqqqq6qqrp;;;u099299qqqqqqqqeweeeeq6qqqqr6qqqqqqqqqqeweqelBBypBBBBBBBBBBBBBBBBBBBBBB",
"IIIIIIIIIIIIIIIIIIIIIIi;uVCCCCCKIIIIIIIIIIIIIIIIIIIIIIIIIIIIIIIIIIIIIIIIgVIIIIIIIIIIIIIIIIIIIIII",
"IIIIIIIIIIIIIIIIIIIIIIL6jCCCCCPIIIIIIIIIIIIIIIIIIIIIIIIIIIIIIIIIIIIIIIIIhlIIIIIIIIIIIIIIIIIIIIII",
"IIIIIIIIIIIIIIIIIIIIIIJ9hACCAPIIIIIIIIIIIIIIIIIIIIIIIIIIIIIIIIIIIIIIIIIIhhIIIIIIIIIIIIIIIIIIIIII",
"IIIIIIIIIIIIIIIIIIIIIIJ3fCAAPIIIIIIIIIIIIIIIIIIIIIIUIIIIIIIIIIIIIIIIIIIIhhIIIIIIIIIIIIIIIIIIIIII",
"TTTTTRRRRRRRRRRRRRRRRRU<STRRRRRRRRRRRRRRRRRRRRRRRRRRRRRRRRRRRRRRRRRRRRRRlVTTTTTTURTTTTTTYTTTYTYR",
"UUURRUUUUIUUUUUIUUUUUIU2SYUUUYUUUUUUUUUUUUUUUUUIUUUUUUUUUUUUUUUUUUUUUUUIhVUUUUUUUUUUUUUUUUYUUUYY",
"NMNMNNNMVVMNMMNMNCNMNMN2dCMMNMMNVMNCNNMNNNMNNNvNNMNNNMNNVVNMMMMMNMMNMNMNfgMZZMZMVMMMZMMMMMCMMMMM",
"MNMNMMNNNNNMCMCMvNNNMNM3vMCMCNMMNNMMNNNMMNNvMNNNNNMNNNMNNNMNNCMNMMNMMNNNqlMMMMMMVMMCMMMZNMZMZMZM",
"NMNMNNNMMNMNNNMNMNNMMMC<vMNCMMNMNMMNvNNMMNNNMNMNMNvNMNvNMMNMMNNMMNMMNNvNqjMMMZZMZMMMMZMMZMMMMMCM",
"MNNNNvNNNMNMMMNMNNMNNMM<bNMMNMMNMMCMNMNNNMNNNMNNNMNNMNNNNNMNNMCMCMCNNMNNqjZMMMMMMMMZMMZMMMMZZMMM",
"NMNvNMNNNNNMNNCNMNMMNNN2bMNMNMNNMCMNNMMNNMNMNMNNMNMNNNMMNMMNMMNNMNMMNMMNqjMMMZMMMZMAMMMZMMMMNMMN",
"MNNNNMNvMMNMNvNNMCNMMMN2lNNMNMNMCMNMNNNMNNMMNMNvNMNvMNNNNNMMNNNvNNMNMNNNfjMCMCMZMMMNMMMMMZZMZMNM",
"NMNNNNNNNNMNNMNMNMNMNMM<vNMNNNCMMMNMMNNNvNNNMNNNNMNNNMvNMNNMMMCNNMMNNMMMflMMMMMMMMMMZMZZMMMMMZMM",
"NNMNMMNNNvNMMMNMMNMNMNM2bNMNMNMMNMMNNvNNNNNMNMMNMMNNNNNNMNMMNNNNNMNMMNZMqhMMZMMMZMZMMMMMMZZMMMMN",
"MNNMNNMNNMNMNMNNMNNMNNM<xMMMNNMMNMNNNNMZMNMZZMZMNNMNNMNMNNMMNMNMNMNMNMNMehNMMMMCmZmZZZcZZmmZZmZZ",
"MNMMMNMNNMMNNMMNMNMNMMMexMMMmMMMmMmMmMMMMNMNMZmZMNMNNMNNNmNMMNNNMNMNNNNMegMMMMMMZmZZccZZmZZZZZmm",
"vMMMNMNNZNNZMMNMNNNNNNko4mmMMMmmMmMmmmmMMbmMmMZmNNNvMNNMNNMNNNMNNMZMMNNNe3MbcMmmcmmmmmZcmmZmmmZZ",
"NMMMMmmvmmmmMMMnMbMbnNdo4MmcmmmMmmmmMmMmbMMmmmMmbbNNMMMMmMMMMNNvZmmZMMMM34mMMmMMmmccZmmmZmmmmmmm",
"mmmmmmMmMmmMmMMmmmbMmmdo4cmMMmmMMMmmmMmmmmmMmMmmMbMmmMmMbMmmbMbbmZmmmmZm+4mmmMmmmcmmmmmmcmmZmmZm",
"MmMMMmMmmmMmMmmmmmmbmMdOjMMcmMmmmmMmMmmMMmmmmMmMbMmmmmbMMbMMMbbNmmmmmmmm@3MbmmMmmZmmmcZcmmmcmmmm",
"mmmmbMbMmmMbbMmMmMbMbMkojMmmmMMmmmmmMmmmmmmMmmMmbMbbMbMbbmmmmMmmmmmmmZmmo4MMmmMMZmZcmZcZmmmmmmmm",
"mMmMmbMbmmbMmbMmmmMbMMdojmMMmmmMMmMmmmMMmMmmMmmmMmmNmMbMmMMbMmmMmZmmmmmdo3bmMmmmcmmmmmmmmcZmmZmm",
"mmMmmmmmmmMmMnmmMMmMmmkojMmmmmmmmmMmmmmMmmmmMmmmmmmmmmmmmMmmMMmMmmmmmZb#.4MmmmMmmmMcMcMccmmZcmmm",
"MmmMMmMmMmMmnMmMmmmmmMjojmMmmmMmmMmmmMmmmmMmMmmbMMmmMmmbmmmmmmmmmmMmmmka3scMMMmmmmmMcMcMZmmmmmmZ",
"bbmMbmssddddddssjjjjsk4XjmmmbmMmmmMmmmmZmmmmmmmbmMmmmmzbmmmmMmMmmmmmmksssssjjjssdsjjjgjjsskmmmmm",
".  .      ..    .   X+3s3  .             ....... .  .X  ...      O#3sssssss+    .        ..X.   ",
"33311>>>+OOXOOOO+#3asssssa#>#>>O    O1433333asss333333>>>>>1>134ssssssssssss4##1O     X##1####aa",
"ssssssssssssssssssssssssssssssss3  +ssssssssssssssssssssssssssssssssssssssssssssssO  2ssssssssas",
"sssssssssssssssssssssssssssssssss+ 4ssssssssssssssssssssssssssssssssssssssssssssss1 Osssssssssss",
"sssssssssssssssssssssssssssssssss3+sssssssssssssssssssssssssssssssssssssssssssssssaO1sssssssssss",
"sssssssssssssssssssssssssssssssss3+sssssssssssssssssssssssssssssssssssssssssssssssaO1sssssssssss",
"sssssssssssssssssssssssssssssssss3+sssssssssssssssssssssssssssssssssssssssssssssssa+3sssssssssss",
"sssssssssssssssssssssssssssssssss3#sssssssssssssssssssssssssssssssssssssssssssssssa+asssssssssss",
"sssssssssssssssssssssssssssssssss3+sssssssssssssssssssssssssssssssssssssssssssssssa+1sssssssssss",
"sssssssssssssssssssssssssssssssss3+sssssssssssssssssssssssssssssssssssssssssssssssa+1sssssssssss",
"czczzcczczzccczzczzzzczcczzczczczs+sczzzzczcczzczczczczczccbccczcczzzzcccccczccczzs+szzzcczzzzcc",
"mmccmmmmmccZmmccmmccmmmmmmmmmmmmc1#smmmmmmccccmmcmmmmmmmbcmmccccmmmmccmmccccccmmcca+scccmmmmcccc",
"mmmcmmmmmcccmmccmmmmmmmmmmmmmmmms+#3mmmmmmmccZmmcmmmmmmmmcmmmcccmmmmmmccccZcccmmms###cccmmmmmccc",
"ssskssksjjgjjjsjskskssksjjsa$3$#++++#4sddkdksjjjksjskdkdskskszskkjjkjjjjjkjjj$221#++###akjzkkzkz",
"skssssssssssjjzzzczcckkkjjzjgfasssassskssssssskjkkkssssssssssskccccccckzkkkzcgjjsssksskzczkkzzzc",
"MmMmczsssszZmZmZMNNNZZZZZZMZZZZZZZMZZZZZZZZZZZZZZZZZZMbssssmZDDDDDDDDDDDDDDDDDDDDDDDDDDDDDDDDDDD",
"mmmmcmzasmcZmZmZmmmmmmmccMMMcZccmmmmmZmmmmmcZccZmcZmmmmmksmMMMMMMMMZcMMMMmcZcZMMMZMMZMMMMMMMMMNM",
"mMmmbmbssccmmmmmmmmmmmmmmmMmmmmmmmmmmmmmcmmmmmmmccccmmmmkscmmmmmmmmmmmmmcmmmmmmmcmmmmmmmccmmmmmm",
"mmmmmmmjscmmmmmmmmmmmmmmmmccmmmmmmmmmmmmmmmmmmmmcZmcmmmmzszcmmmmmmmmmmmmmmmmmmmmmmmmmmmmmmmmmmmm",
"mMmmbMmjscmmmmmmmmmmmmmmmmmcmmmmmmmmmmmmmmmmmmmmmmmmmmmmzsccmmmmmmmmmmmmmmmmmmmmmmmmmmmmmmmmmmmm",
"bbbMbnbksmmmmmmmmmmmmmmmmmmcMmmcmmmmmmmmmmmmmmmmmmmmmmmczscmmmmmmmmmmmmmmmmmmmmmmmmmmmmmmmmmmmmm",
"MbbMMbbzsbmmmmmmmmmmmmmmmmmmcMccmmmmmmmmmmmmmmmcmmmmMccmcszmmmmmccMccmmmmmmmmmmmmmcMccmmmmmmmmmm",
"bMmbmbMdsmmmmmmmmmmmmmmmmmmmMccMmmmmmmmmmmmmmmmcmmmmmmmmzsccmmmmMccMmmmmmmmmmmmmmmcmmMmmmmmmmmmm",
"bMmmmMmj3mmmmmmmmmmmmmmmmmmmMcccmmmmmmmmmmmmmmccmmmmmmmcz4ccmmmmMcccmmmmmmmmmmcMmmmmmmcmmmmmmmmm",
"bmmmmmm2#bmmmmmmmmmmmmmmmmmmccMcmmmmmmmmmmmmmmZcmmmmmmmcf#kcmmmmccMcmmmmmmmmmmmcmmmmmmcMmmmmmmmm",
"MbbbmMj##jccmbbmcccmccccmmccmmccmmmmmmmMmmmmZcccmmcmmmcc$#4cmccmccccccccmmcccmccmcmmcMccmbbmmmmb",
"bksas3####4zxcxczzczxzczzzjzjzzjjzkkjzkjskkdssskdjksfa3###+3kzzxzzccczcczxzzzczzzczzzzzzczcczccz",
"bb4>+>######saaaassssgas0#$######$$##$$1433a3333a333#########4fagfsgfaaaaaaaaaaasaaaaaaasdssddss",
"bmmbdkdkjxccccczzzzzzzzzzjzjza444344gNNMccccZZZZZZZZZZZZZZZZZMmccccccccDZZZZMczzgaaaaszcZmZMmZmZ",
"cccccccccccccccccccccccccccccza4a44akMMMZZmZmZZZcZZZmZZZZZZmZZZcMMMMMMMMMMNMMNMmZcjakmmZmmMMmZmm",
"ccccccccccccccccccccccccccccccza4aafccccccccczcccczccczcczcczcccccmmmmcccccccccccczakcccccmccccc",
"cccccccccccccccccccccccccccccccj4a4zcccccccccccccccccccccccccccccccccccccccccccccczakccccccccccc",
"ccccccccccccccccccccccccccccccccs44ccccccccccccccccccccccccccccccccccccccccccccccczakccccccccccc",
"ccccccccccccccccccccccccccccccccza4ccccccccccccccccccccccccccccccccccccccccccccccczakccccccccccb",
"cccccccccccccccccccccccccccccccccg4ccccccccccccccccccccccccccccccccccccccccccccccczakccccccccccb",
"cccccccccccccccccccccccccccccccccjaccccccccccccccccccccccccccccccccccccccccccccccczakcccccccccbb",
"cccccccccccccccccccccccccccccccccz4zcccccccccccccccccccccccccccccccccccccccccccccczakcccccccccbb",
"cccccccccccccccccccccccccccccccccz4zccccccccccccccccccccccccccccccccccccccccccccccc#fccccccccccc",
"ccccccccccccccczcccccccccccccccccf#zcczzccccccccccccccccczccccczcccccccccccccccccczO#ccccccccccc",
"zzzzzzzzzzzzzzzzzzzzzzzzzzzzzjjj0OO$jczzzzzzzzzzzzzkzzzzzzzzzzzzzzzzzzzzzzzzzzzccj#OO#fzcccccccc",
"aaaaaaaaaaasaaaaaaaaaaaaaaaaaOOOOOOOOOaaaafaaaafaaaaaaaaaaaaaaaaaaaaaaaaaaaaaa#OOOOOOOO3fafaaaaa",
"zcmzgaaaaaasccccmNNccmcczzzzczzzzkzzlzzzjjjjzzzzzzzzjjfaaaaaajjzzccckzzzjjjjgzjffffffffjcczzcccc",
"cmccckaaazcMZNNMNNMNNNNNZMZZMMZZZZMMMCMMZmMZZMMZZZZMMMmzaaazmMMNZZZMMMZZZMMZZMZZZZMZMZMZZMMZMZZZ",
"ccmmccsaszcccccccccccccczccccczccccccccccccccccccccccccczazccccccccccczccccccccccccccccccccccccc",
"mcmccccasccccccccccccccccccccccccccccccccccccccccccccccczajccccccccccccccccccccccccccccccccccccc",
"cmcmmmcssccccccccccccccccccccccccccccccccccccccccccccccckfkccccccccccccccccccccccccccccccccccccc",
"mcmcmmccscccccccccccccccccccccccccccccccccccccccccccccccjfkccccccccccccccccccccccccccccccccccccc",
"cccmmmccsccccccccccccccccccccccccccccccccccccccccccccccckakccccccccccccccccccccccccccccccccccccc",
"ccmccmccsccccccccccccccccccccccccccccccccccccccccccccccczakccccccccccccccccccccccccccccccccccccc",
"cccccccczccccccccccccccccccccccccccccccccccccccccccccccccjzzcccccccccccccccccccccccccccccccccccc",
"cccmcccmccccccccccccccccccccccccccccccccccccccccccccccccczzccccccccccccccccccccccccccccccccccccc",
"cmmmcccmcccccccccccccccccccccccccccccccccccccccccccccccccccccccccccccccccccccccccccccccccccccccc",
"mmmmMcmmccccccccccccccccccccccccjxcccccccccccccccccccccccccccccccccccccccccccccccccccccccccccccc",
"oooOooooo24402$$$$$2gcccccg2$ooooooooo$$$$$$$oooooooooooooo$$$$ooooo@1fcccmf2$$24044a#$@$$$$$$$$",
",,9$5,,,9,,,,922,,,,20zcqOooooooooooooooooooooooooooooooooooooooooooooo+fzxgghggghfhhhghhgghhghg",
"GGHHHHHHFGHHJHHHHDGDGHVgCHHHHHJHHHHHJHHHHHGHHHHHHHHHJHHHHHHHJHHHJHHHGHHH$qHHGGHHJDGGHHHHGHHHHHSG",
"HHHHHHHHHHHHHHHHHJDJGJAqCGHHHHHHHHHHHHHHHHHHHHHHHHHHHHHHHHHHHHHHHHHHHHHvXqHHHHHHJDJDHHHHGDHHHHHG",
"HHHHHHHHHHHHHHHHHHHHHHAgnHHHHHHHHHHHHHHHHHHHHHHHHHHHHHHHHHHHHHHHHHHHHHl  2HHHHHHJDHHHHHHHHHHHHHH",
"HHHHHHHHHHHHHHHHHHHHHHVgVHHHHHHHHHHHHHHHHHHHHHHHHHHHHHHHHHHHHHHHHHHHCg3o $HHHHHHHDHHHHHHHHHHHHHH",
"HHHHHHHHHHHHHHHHHHHHHHDgnHHHHHHHHHHHHHHHHHHHHHHHHHHHHHHHHHHHHHHHHHAm433o.$HHHHHHHDHHHHHHHHHHHHHH",
"KKKKKKKKKKKKKKKKKKKKKKGfVKKKKKKKKKKKKKKKKKKKKKKKKKKPKKKKKKKKKKKNnkdkk44+ $KKKKKKPKKKKKKKKKKKKKKK",
"IIIIIIIYIIIIIIIIIIIIIILqJIIIIIIIIIIIIIIIIIIIIIIIIIIIIIIIIIIIIIIkddkske4> ,IIIIIIIIIIIIIIIIIIIIII",
"ZZZZZZZZZZZZZZZZZZCNZAneMZNNZZZZZZZZZZZZZZZZZZZZAMCNZZZZNCZZZZNzdzkkk41> XZZZZZZZZZZZZCNZZZZZZZZ",
"cbbbcczcbbbbcccbcccccckglccbcmccbbbbccmcccbbccbbcbbbcmccbbbbcmcbbdkks43X  bbcbbbccbbccbbcmcbcmcc",
"ccbbbcccbbbcccmcbcccccxgxcbbbcmcbbbbcccmmcbbcmbbcbbbmcccbbbbmcbbMkkke41  obbccbbmcbbbcbbmcmcbccc",
"bbbbbcbbmbbmbbccbbbbg4oo4cccbbbbbbbbbbcccmcbbbbmbbbbcccbbbbbbbbbbzss43>&=wbbbbbbcbbbcccbbcbmbbbb",
"2222322234ggggg221+.    .+4ggssggsgsggsgsgsggsgsggsgg322222222331<3>><-;;;vbbbbbbbbbxfgs324sssgg",
"                  .           .           .                 .   ..  %;;;;;;qbbbbg3+.    ..      ",
"                                                                   *;;;;;;;=.OO .               "
};
